<svg width="11" height="14" fill="none" xmlns="http://www.w3.org/2000/svg"><path d="M0 0h11v14H0z"/><path d="M0 0h11v14H0z"/><path d="M0 0h11v14H0z"/><path d="M10.046 5.323h-.533V3.877C9.513 1.74 7.713 0 5.497 0 3.282 0 1.481 1.74 1.481 3.874V5.32H.95c-.525 0-.951.411-.951.917v6.846c0 .506.426.917.95.917h9.1c.523 0 .95-.411.95-.917V6.237c-.003-.503-.43-.914-.954-.914zM2.69 3.874c0-1.494 1.259-2.708 2.808-2.708S8.305 2.38 8.305 3.874v1.443H2.689V3.874zm7.097 8.96H1.208V6.49h8.58v6.345h-.002z" fill="#888"/><path d="M5.497 11.963c.334 0 .604-.26.604-.583V9.877a.593.593 0 0 0-.604-.583.593.593 0 0 0-.604.583v1.503c0 .32.27.583.604.583z" fill="#888"/></svg>