<svg width="14" height="14" fill="none" xmlns="http://www.w3.org/2000/svg"><path d="M0 0h14v13.987H0z"/><path d="M7.001 8.581a4.3 4.3 0 0 1-4.298-4.29 4.299 4.299 0 0 1 8.595 0 4.3 4.3 0 0 1-4.297 4.29zm0-7.4a3.115 3.115 0 0 0-3.115 3.11 3.115 3.115 0 0 0 6.23 0A3.115 3.115 0 0 0 7 1.181zM.59 13.987a.59.59 0 0 1-.477-.939c1.52-2.075 4.095-3.315 6.889-3.315 2.79 0 5.364 1.238 6.884 3.311a.59.59 0 1 1-.955.699c-1.298-1.77-3.514-2.827-5.929-2.827-2.417 0-4.634 1.058-5.932 2.831a.6.6 0 0 1-.48.24z" fill="#888"/></svg>