<svg width="14" height="14" viewBox="0 0 14 14" fill="none" xmlns="http://www.w3.org/2000/svg">
<rect width="14" height="13.9874" fill="black" fill-opacity="0"/>
<rect width="11.8552" height="11.8445" fill="black" fill-opacity="0"/>
<rect width="11.8552" height="11.8445" fill="black" fill-opacity="0"/>
<path d="M10.119 1.7346C8.99946 0.616019 7.51095 0 5.92761 0C4.34427 0 2.85573 0.616019 1.73616 1.7346C0.616574 2.85316 0 4.34035 0 5.92224C0 7.50416 0.616574 8.99135 1.73616 10.1099C2.85573 11.2285 4.34429 11.8445 5.92761 11.8445C7.51092 11.8445 8.99946 11.2285 10.119 10.1099C11.2386 8.99135 11.8552 7.50416 11.8552 5.92224C11.8552 4.34035 11.2386 2.85316 10.119 1.7346ZM5.92758 10.7145C3.28275 10.7145 1.13105 8.56468 1.13105 5.92224C1.13105 3.2798 3.28278 1.13003 5.92761 1.13003C8.57243 1.13003 10.7241 3.2798 10.7241 5.92224C10.7241 8.56468 8.5724 10.7145 5.92758 10.7145Z" fill="#888888"/>
<rect width="4.84873" height="4.84439" fill="black" fill-opacity="0" transform="translate(9.15137 9.14301)"/>
<rect width="4.84873" height="4.84439" fill="black" fill-opacity="0" transform="translate(9.15137 9.14301)"/>
<path d="M13.8345 13.0228L10.1168 9.3085C9.89591 9.08784 9.53784 9.08784 9.31699 9.3085C9.09616 9.52915 9.09616 9.8869 9.31699 10.1076L13.0347 13.8219C13.1451 13.9322 13.2898 13.9874 13.4346 13.9874C13.5793 13.9874 13.7241 13.9322 13.8345 13.8219C14.0553 13.6012 14.0553 13.2435 13.8345 13.0228Z" fill="#888888"/>
</svg>
