<svg width="14" height="13" viewBox="0 0 14 13" fill="none" xmlns="http://www.w3.org/2000/svg">
<rect width="14" height="13" fill="black" fill-opacity="0"/>
<rect width="14" height="13" fill="black" fill-opacity="0"/>
<rect width="14" height="13" fill="black" fill-opacity="0"/>
<path d="M13.971 4.90908C13.9016 4.70106 13.718 4.55036 13.4962 4.51884L9.37066 3.93204L7.52416 0.293126C7.32527 -0.0977086 6.668 -0.0977086 6.46911 0.293126L4.62261 3.93257L0.503583 4.51881C0.281743 4.55034 0.097556 4.70162 0.0287046 4.90906C-0.0401469 5.1165 0.0169468 5.34402 0.177591 5.49644L3.15743 8.32905L2.45661 12.3307C2.41835 12.5456 2.50897 12.7628 2.69081 12.8911C2.79318 12.9633 2.91442 13 3.03621 13C3.12978 13 3.22393 12.9782 3.31159 12.9335L6.99752 11.0453L10.6899 12.9341C10.8882 13.0349 11.1289 13.0195 11.3095 12.89C11.4908 12.7616 11.5808 12.5444 11.5431 12.3289L10.837 8.32847L13.8221 5.49586C13.9828 5.34402 14.0405 5.11708 13.971 4.90908ZM9.79257 7.71874C9.65429 7.85056 9.59075 8.04023 9.6237 8.22648L10.1804 11.38L7.26998 9.89063C7.18406 9.84709 7.09049 9.82531 6.99635 9.82531C6.9016 9.82531 6.80746 9.84709 6.72214 9.89122L3.81647 11.3794L4.369 8.22536C4.40195 8.04026 4.3384 7.85002 4.20012 7.7188L1.85051 5.4856L5.09806 5.02258C5.28931 4.99621 5.45465 4.87875 5.54057 4.71027L6.99635 1.84158L8.45213 4.70971C8.53804 4.87819 8.70339 4.99566 8.89463 5.0226L12.1463 5.48563L9.79257 7.71874Z" fill="#EB2E2E"/>
</svg>
