<svg width="127" height="39" fill="none" xmlns="http://www.w3.org/2000/svg"><path d="M12.057.442c2.548 0 3.369 1.857 4.048 3.714.283.771 6.934 19.168 7.133 19.711.056.143.028.4-.227.486-.255.086-3.68 1.457-3.877 1.514a.39.39 0 0 1-.482-.229c-.085-.2-1.5-4.199-1.67-4.627h-9.85c-.17.457-1.613 4.456-1.67 4.627-.056.172-.282.315-.48.229-.199-.086-3.68-1.428-3.878-1.514a.408.408 0 0 1-.227-.486C1.132 23.182 7.67 5.1 8.01 4.156 8.661 2.328 9.51.442 12.057.442zM.368 33.322c-.198 0-.368.172-.368.4v4.286c0 .229.17.4.368.4h23.379c.198 0 .368-.171.368-.4v-4.285c0-.229-.17-.4-.368-.4H.368zm11.69-26.88l-3.34 10.083h6.708l-3.34-10.084h-.029zm86.978 14.797c0 1.143-.623 1.885-1.784 1.885-.452 0-.82 0-1.415-.171v-3.457c.255-.057.821-.114 1.415-.114 1.19.086 1.784.629 1.784 1.857zm2.377-.143c0-2.114-1.217-3.57-3.82-3.57-.624 0-1.076.056-1.756.228v-3.057c.425-.057 1.16-.114 1.953-.114.764 0 1.727.057 2.576.143l.057-1.771c-.963-.229-2.35-.343-3.425-.343-1.076 0-2.717.257-3.51.485v11.256a10.28 10.28 0 0 0 3.651.657c2.802 0 4.274-1.514 4.274-3.914zm-26.86-.628c0 1.57-.623 2.6-1.642 2.6-.424 0-.65-.03-1.132-.172v-4.714c.538-.257.82-.257 1.245-.257 1.02-.028 1.529.829 1.529 2.543zm-7.784.057c0-1.714.51-2.628 1.528-2.628.425 0 .708 0 1.246.257v4.713c-.481.172-.708.172-1.132.172-1.16.028-1.642-.943-1.642-2.514zm5.01 7.056v-3.085c.283.171.849.428 1.783.428 1.896 0 3.283-1.571 3.283-4.485 0-3.114-1.387-4.456-3.65-4.456-.567 0-.963.057-1.416.285V12.64H69.57v3.657c-.453-.229-.849-.286-1.415-.286-2.264 0-3.651 1.4-3.651 4.485 0 2.886 1.245 4.428 3.283 4.428.962 0 1.529-.257 1.812-.428v3.085h2.179zm-16.841-2.8v-8.227c-1.217-.371-2.151-.514-3.396-.514-1.246 0-2.151.171-3.369.514v4.228c0 1.143-.028 1.485-.141 1.857-.113.314-.283.714-.736 1.028l.594 1.314c1.783-.514 2.463-1.285 2.463-3.8v-3.113c.594-.086.707-.114 1.189-.114.48 0 .566.028 1.16.114v6.713h2.236zm27.398-1.8c-.48.172-.82.2-1.189.2-.792 0-1.245-.314-1.245-1.142 0-.857.566-1.143 1.67-1.143.255 0 .538.029.651.086v.628c0 .657.028 1.086.113 1.372zm2.83 1c-.594-.914-.735-1.428-.735-2.57v-2.314c0-1.229-.142-1.686-.481-2.172-.453-.628-1.19-.914-2.604-.914-.991 0-1.953.115-2.859.343l.34 1.657c.622-.086 1.273-.171 1.755-.171 1.471 0 1.641.228 1.641 1.342v.429a4.546 4.546 0 0 0-1.132-.143c-2.236 0-3.396 1.085-3.396 2.914 0 1.685 1.245 2.628 2.773 2.628.566 0 1.16-.114 1.642-.314.283-.115.396-.2.764-.457.227.342.68.657.85.714l1.443-.971zm21.71-1c-.481.172-.821.2-1.189.2-.792 0-1.245-.314-1.245-1.142 0-.857.566-1.143 1.67-1.143.283 0 .537.029.651.086v.628c0 .657.056 1.086.113 1.372zm2.83 1c-.594-.914-.736-1.428-.736-2.57v-2.314c0-1.229-.141-1.686-.453-2.172-.452-.628-1.217-.914-2.603-.914-.991 0-1.953.115-2.859.343l.339 1.657c.623-.086 1.274-.171 1.755-.171 1.472 0 1.642.228 1.642 1.342v.429a4.375 4.375 0 0 0-1.132-.143c-2.236 0-3.397 1.085-3.397 2.914 0 1.685 1.246 2.628 2.774 2.628.566 0 1.161-.114 1.642-.314.283-.115.396-.2.764-.457.226.342.679.657.849.714l1.415-.971zM61.25 21.84c0 .828-.283 1.428-1.359 1.428-.368 0-.51 0-.962-.143v-2.456c.594-.115.623-.143.962-.143 1.02 0 1.359.514 1.359 1.314zm-4.557-5.685v8.17c1.047.457 2.208.657 3.255.657 2.377 0 3.623-1.228 3.623-3.256 0-1.829-1.132-2.971-3.227-2.971-.538 0-.849.057-1.415.2v-2.8h-2.236zm61.165 8.627V16.24h-2.236v3.228h-2.519V16.24h-2.236v8.541h2.236v-3.485h2.519v3.485h2.236zm9.142 0s-1.217-2.628-1.5-3.2c-.34-.656-.651-1.142-1.33-1.313v-.029c.452-.085.82-.371 1.217-1.228.368-.829.481-1.029.707-1.2.227-.2.51-.114.51-.114l.113-1.543a4.19 4.19 0 0 0-1.047-.028c-.595.028-.906.2-1.217.514-.227.228-.397.571-.595.971-.198.429-.368.771-.594 1.228-.227.457-.311.657-.906.657h-.368V16.24h-2.236v8.541h2.236v-3.485h.312c.622 0 .735.172 1.075.829.396.8 1.132 2.656 1.132 2.656H127zm-82.959 0h2.576l-3.878-11.94a4.375 4.375 0 0 0-1.444-.23c-.594 0-.792.086-1.245.23l-4.104 11.94h2.462s.34-1.057.736-2.342h4.246c.34 1.314.651 2.342.651 2.342zm-4.33-4.342s.707-2.4.82-2.77c.283-.972.708-2.515.708-2.515h.056s.397 1.6.651 2.486c.114.342.793 2.77.793 2.77h-3.028v.03zm49.248-1.371c-.792 0-1.415.657-1.415 1.428 0 .8.623 1.429 1.415 1.429.793 0 1.416-.629 1.416-1.429 0-.771-.651-1.428-1.416-1.428z" fill="#EE3524"/></svg>