<svg width="189" height="64" fill="none" xmlns="http://www.w3.org/2000/svg"><path fill-rule="evenodd" clip-rule="evenodd" d="M60.203 48.647c-4.565 9.189-18.163 10.31-22.012 7.168 2.204-.607 3.967.265 6.469-.368 1.94-.49 3.753-1.01 5.86-1.52 5.264-1.274 6.313-2.824 9.278-5.389l.405.11zM38.966 52.01l1.828.713c.68.148 1.434.243 2.18.284 8.979.49 19.46-5.723 18.465-16.195-.877 6.186-5.893 10.945-10.818 12.804-.995.376-3.13.7-3.752 1.008-.865.43-.417 1.051-3.585 1.071-2.093.014-2.682-.635-4.318.315zm-8.356 7.019c-1.95-.808-4.108-2.95-5.286-4.724-5.254-7.92.127-18.666 5.278-20.369-.925 3.193-3.515 3.447-3.67 5.758-.063.956.337.524-.085 1.826-.154.475-.533 1.066-.724 1.661-1.178 3.675-.562 7.718 1.053 11.028 1.417 2.901 2.477 3.385 3.434 4.82zm-8.945-6.672c-.915-5.29-1.423-6.704.661-11.778 1.032-2.514 1.73-5.225 3.514-7.079 1.004-1.043 1.04-.882 1.525-2.22-5.828 2.097-12.055 12.943-5.7 21.077zm3.065-26.614c5.84-1.524 9.55-2.517 15.652.091 1.255.537 1.988.916 3.005 1.696.352.27.988.807 1.342 1.03 1.087.683 2.27.093 4.216 3.138.32.502.486 1.02.898 1.465.5.54.758.453 1.336 1.135-.177-4.489-6.201-9.007-9.978-10.45-2.62-1-5.884-1.636-9.089-1.117-4.083.663-4.758 1.604-7.383 3.012zm24.023.572c-4.47-3.636-6.787-5.287-13.913-5.896 2.16.003 6.941-2.05 13.421 2.28 2.594 1.732 6.278 5.583 6.848 9.696-1.093-.695-1.234-.938-2.032-2.155-1.976-3.016-2.553-2.485-4.324-3.925zm-27.675 3.847c1.259-.127.336-.013 1.547-1.019 8.68-7.207 23.852-1.397 24.717 7.315-1.52-2.382-1.397-.672-2.45-2.784-.76-1.523-1.032-2.342-2.787-2.55-2.532-.3-1.697-.64-3.763-1.51-1.184-.499-2.634-.88-3.946-1.056-6.249-.837-13.252 2.032-15.024 5.62-.554-.561-.347.632-.524-.783L9.5 47.209C7.988 49.425.578 60.004 0 61.571l39.917-.31c-6.482-1.408-10.302-4.375-11.994-10.11-1.739-5.897 1.342-12.515 6.214-14.714-.44.89-.553.643-1.026 1.636-.733 1.54.218.368-1.15 1.514-1.044.874-1.85 1.721-1.423 3.347.546 2.083-1.204 4.564.43 8.981 1.719 4.646 6.237 8.511 12.017 9.333.093.325-.087.15.613.284l35.906.051L58.78 30.241c-.057 1.804 3.582 8.256-4.073 14.92-1.78 1.55-4.067 2.796-6.878 3.435-1.481.337-3.155.45-4.7.32-1.22-.102-3.1-.295-4.064-1.104 1.65-.044 2.387-.368 3.39-.264 1.582.164 2.314.18 3.914.087 1.446-2.603 2.238-1.391 4.76-3.096 6.483-4.383 7.3-9.166 5.75-16.34-.384-.387-.799-.508-.28-1.186-.531-1.405-10.584-16.265-12.295-18.872l-3.66-5.461c-.608-.63.055-.14-.74-.589L30.51 16.143a1901.757 1901.757 0 0 0-9.432 14.02zM145.52 9.634c-.063-1.271.357-2.488.535-3.736.499-3.504-.413-2.655 3.005-2.693l-.134 6.414-3.405.015zm-2.185 5.017l.052-2.545 7.56.023.057 2.554c2.752-.04 2.257.463 2.464-2.3l.118-2.722-1.852-.213-.12-8.71-7.568.007c-.293 1.35-.411 3.2-.646 4.599-.255 1.525-.662 2.745-.902 4.179-.125.021-.84.097-.897.112l-1.004.403.454 4.639 2.284-.026zm-20.889 17.222c3.882-.234 3.144.76 6.299-5.298l.825-1.335.397 6.414 2.532.038.033-11.477-3.393-.005c-.307 1.145-3.316 6.412-4 7.17-.156-2.108-.299-5.12.108-7.14l-2.867-.05.066 11.683zm55.211-.005l3.26-.2c.896-1.197 3.398-5.548 4.015-7.147l.1 7.177 2.596-.026.23-11.462-3.386.037-4.309 7.373-.065-7.408-2.59.011.149 11.645zm-73.875-8.538l-2.013 3.79c-.031.04-.13.223-.154.174-.024-.049-.104.12-.16.175l.026-7.272-2.727.217.092 11.274c4.316-.028 3.01.865 5.992-4.524.246-.443.31-.65.594-1.146l.88-1.103.04 6.727 2.547.072.025-11.506-3.36.001c-.34 1.026-1.093 2.577-1.782 3.12zm64.935 8.191c.311-.87 1.36-2.487 1.839-3.332.708-1.248 1.284-2.608 2.09-3.588l.04 7.071 2.041-.017c.818-.29.53-1.453.51-2.532-.017-.981-.01-1.963-.01-2.944 0-1.941.152-3.978-.104-5.886l-3.056-.077c-.958 1.475-3.393 5.64-3.71 6.983-.42.678.51.124-.635.63l-.125-7.365-2.44.025.051 11.1 3.51-.068zm-51.212-2.345l-3.634.082.043-2.42c2.823-.036 4.001-.61 3.59 2.338zm.214 2.48c1.521-.257 2.258-.469 2.645-1.973 1.616-6.277-4.38-5.087-6.492-5.167l.014-1.903 5.772-.08.042-2.297-8.651-.033.159 11.498 6.511-.045zm56.307-22.09c-1.678-1.403-1.793-8.643 3.179-6.389 1.326.601 1.269 3.408.963 5.01-.374 1.954-2.531 1.976-4.142 1.38zM173.034.87c-4.027 1.46-3.89 9.941.183 11.24 2.368.755 6.607.75 7.584-3.068.385-1.507.396-3.85.016-5.36-.415-1.652-1.088-2.518-2.657-2.932-1.592-.42-3.677-.406-5.126.12zm-22.81 43.313c-1.943.008-3.936.645-3.736-1.566.163-1.804 1.952-1.247 3.73-1.224l.006 2.79zm2.555-5.015c-1.95-.152-7.204-.53-8.366.63-.89.89-2.015 4.587 1.224 5.885-1.347.426-2.382 3.028-2.671 4.75l2.978-.018c1.19-3.304.565-3.903 4.236-3.894l.13 3.92 2.48-.041-.01-11.232zm-58.99 2.382c.746.91 1.21 2.838 1.466 4.021l-1.463.031-1.385-.054 1.382-3.998zm-5.559 8.891c4.22.026 1.997.177 3.643-2.388l4.102.032c1.384 2.288-.065 2.759 3.84 2.277-.075-1.167-1.448-4.14-1.912-5.672-2.106-6.961-.967-5.57-5.955-5.598-.785 2.541-3.576 8.927-3.717 11.35zM104.735 7.29c.164-1.341.714-3.335 1.576-4.21l1.226 4.205-2.802.005zm-4.301 4.952l2.85-.158.555-2.378 4.427.007c1.573 2.527-.454 2.287 3.928 2.529L108.247.722l-3.821.024c-.856 1.136-3.704 9.758-3.992 11.496zm31.156-4.925c.135-1.334.714-3.388 1.511-4.264.351 1.075 1.118 3.025 1.135 4.236l-2.646.028zm-3.24 4.8l1.771-.034.66-2.325 4.453-.066.79 2.38 3.007.183L135.16.715l-4.032.03c-1.411 3.72-2.607 7.42-3.845 11.052.633.644-.017.195 1.066.32zm35.184-8.031l.006.645-4.107.154-.013-4.05-2.393.023-.045 11.23.909.015 1.476-.03c.49-1.137.153-3.248.216-4.65l3.924.01.042 4.615 2.718.068-.028-11.39-2.613.023-.092 3.337zm-48.436 7.987l2.518-.021-.021-8.833 3.978.001.007 8.844 1.455.039 1.234.003.029-11.244-9.194-.006-.006 11.217zm53.766 33.658l-.052 4.664 2.678.013-.076-11.26-2.575.025-.011 4.045-4.043-.1-.07-3.959-2.653-.013.166 11.123 2.357-.023.05-4.647 4.229.132zm-31.372-23.118c1.987-.033 3.842-.608 3.702 1.812-.113 1.964-1.894 1.41-3.671 1.357l-.031-3.169zm-2.684 9.08l2.623-.014.119-3.588c3.08-.028 5.735.499 6.342-2.302 1.45-6.692-3.612-5.584-9.108-5.57l.024 11.474zm20.056.009l2.28-.108.022-5.188c2.521.543 3.408 2.81 4.058 5.273l2.904.003c.009-2.78-1.905-5.195-3.475-6.423 1.175-1.413 2.237-3.191 3.328-4.997l-3.143-.03c-.93 1.993-2.502 3.508-3.218 4.721-.326.495.325.219-.624.605l.006-5.097-2.453.001c.07 2.559-.447 9.291.315 11.24zm-45.508 18.731c1.237-3.016 1.356-5.581 1.978-8.891l2.65-.026.063 8.896 2.5.025-.009-11.327-7.736-.019c-.144 4.137-1.348 7.735-2.135 11.32l2.689.022zm19.392-5.363c2.658-.055 3.156-.196 3.601.935 1.04 2.638-2.605 2.2-3.709 2.19l.108-3.124zm-2.623 5.345c5.301-.075 8.497.925 9.07-2.523.871-5.246-2.161-5.31-6.531-5.188l-.053-3.576-2.633-.01.147 11.297zM97.782 10.146c.057-2.215.173-3.366-1.798-3.805l.38-.37c.133-.123.48-.423.538-.481 1.328-1.357.597-3.443.151-3.978C95.866.087 92.584.558 90.544.598L89.15.95l.506 2.298c1.134-.134 3.85-.774 4.731.102 1.926 1.915-2.232 1.61-3.077 1.604v2.472l3.412.147.085 1.923c-1.569.443-3.484.308-5.185.12l-.441 2.168c2.925 1.471 7.56.718 8.601-1.639zm55.381 21.4c.327-.766-.075-1.376-.224-2.478-3.16.251-5.457 1.26-5.208-3.784.162-3.276 1.935-2.935 5.205-2.594l.475-2.318c-5.306-1.222-8.519-.34-8.556 5.213-.035 5.417 2.76 7.453 8.308 5.961zm-55.445.118l-.49-2.51c-2.983-.18-5.153 1.464-5.153-3.269 0-4.445 1.786-3.11 5.171-3.313l.445-2.415c-2.855.085-8.619-2.022-8.556 5.727.062 7.636 5.433 5.726 8.583 5.78zm90.866 18.046l-.267-1.78c-1.755.208-4.1.823-4.924-1.006-.697-1.547-.216-4.093.382-5.19 1.29-.391 2.877-.475 4.448-.088l.536-2.42c-5.265-1.076-8.391-.504-8.487 5.145-.107 6.352 2.29 6.275 7.784 6.207l.855-.349-.327-.52zm-62.97 7.936c.28.48.558 1.03.759 1.741l-1.628-.02.869-1.721zm7.773-2.113l-3.482.076c.022 7.041-.031 4.332-1.502 5.792-.256-1.072-2.241-5.405-2.809-6.069l-3.142 6.547c1.678.08 1.358-.426 1.89-1.519l2.48-.042.833 1.672c4.362-.072 3.229-1.758 3.395-5.513l1.97-.026c.066 1.755-.229 4.683.352 5.495.794-.264.71.848.69-2.89-.003-.546.058-1.294.042-1.786-.002-.062-.083-.84-.084-.844-.351-1.07.446-.262-.633-.893zm-33.611 1.551c1.169.114 1.015.139 1.66.796.143 1.625-.122 1.973-1.699 2.103l.039-2.899zm-1.24-.007l.01 2.948c-1.054-.185-1.08-.313-1.833-.88l.242-1.702 1.58-.366zm-.796 3.805c2.001.719-.248.276 1.369 1.085 1.043-.39.287-.613 1.785-1.135 1.145-.399 1.424-.32 1.674-1.572.46-2.307-.705-3.085-2.75-3.25l-.094-.92c-.4.092-3.564 1.508-3.916 2.443-.695 1.845.435 3.05 1.932 3.349zm65.773-4.452l1.873.008.025 1.148-.004.88.004 2.385-2.365-.048c.575-1.489.431-2.626.467-4.374zm-1.25 3.212c-.398 1.42.069.559-1.063 1.466l-.032 1.966.947-.027c0-1.344.039-.652.276-1.038l3.786-.075c.027 1.904-.177.948.574 1.358.045-.077.093-.175.116-.24.09-.26.48-.668.1-1.812-1.088-3.274-.377-.83-.537-5.71l-3.958.121-.208 3.991zm-71.415-3.01c2.794-1.244 3.996 3.232 1.46 4.192-2.525.956-4.275-2.938-1.46-4.192zm3.875 3.303c1.773-4.365-4.843-6.185-6.16-2.526-1.583 4.403 4.544 6.505 6.16 2.526z" fill="#363092"/><path fill-rule="evenodd" clip-rule="evenodd" d="M113.879 55.54l.005 5.302-2.482.002-.006-5.234-.905-.062-.161 6.383 4.308.467c.548 1.213-.252.837 1.012.89.207-.397.322-1.227.165-1.79-.66-2.363-.87 2.909-.879-5.842l-1.057-.115z" fill="#393092"/><path fill-rule="evenodd" clip-rule="evenodd" d="M167.888 62.022c.767-.411.567-.272 1.185-.966.364-.41.561-.673.942-1.109.671-.766 1.425-1.287 2.038-1.97l.041 2.251c-.006 1.374-.32 1.324.564 1.725.84-.332.574.128.626-1.396.018-.518-.028-1.247-.03-1.796-.003-1.162.056-2.291-.089-3.44l-4.068 4.037c-.068-.879-.019-1.55-.04-2.391-.037-1.426.242-.996-.534-1.434-.86.344-.487-.597-.649 1.138l.014 5.351z" fill="#363092"/><path fill-rule="evenodd" clip-rule="evenodd" d="M117.57 59.26c.148-3.793.277-3.5-.739-3.722-.253.386-.133-.042-.252.63l-.06 5.937c1.955-1.33 2.507-2.949 4.18-3.986.05.774.043 1.374.044 2.14.001 1.348-.287 1.286.519 1.706.711-.307.615.748.582-2.909-.01-1.243.03-2.49-.058-3.73-1.438 1.08-2.717 3.058-4.216 3.934zm-13.288-3.724c-1.042.219-.636 1.746-.625 2.928.012 1.19.007 2.39-.016 3.578 1.212-.628 2.794-2.923 3.766-3.413.326-.586-.247-.204.462-.634.178 3.339-.55 3.507.691 3.96.714-.425.485.088.463-2.898a283.39 283.39 0 0 1 .006-3.817c-.32.549-3.48 3.505-4.236 4.293l-.028-3.708c-.34-.35.457-.295-.483-.289z" fill="#393092"/><path fill-rule="evenodd" clip-rule="evenodd" d="M154.187 59.506l-.084-3.089c-.175-1.082.061-.355-.35-.885-.833.295-.36-.188-.626.617l-.035 5.963c1.539-.715 2.004-2.271 3.832-3.79.053-.043.15-.111.195-.147.045-.036.133-.1.202-.148-.05 2.993-.44 3.507.568 3.939.902-.49.5-2.635.494-4.967l-.008-1.63-4.188 4.137z" fill="#363092"/><path fill-rule="evenodd" clip-rule="evenodd" d="M144.976 55.397l-1.163.231.005 2.312-2.628-.07c.005-2.552.057-2.078-.728-2.326-.299.415-.13-.09-.278.624l-.09 4.388c.064 1.532-.2 1.055.663 1.406.46-.495.247.552.44-1.139.04-.346-.013-1.242-.008-1.66l2.628-.184c.004.546-.058 1.41-.026 1.867.098 1.417-.167.74.51 1.115.722-.307.622.754.58-2.905-.015-1.249-.04-2.422.095-3.66z" fill="#393092"/><path fill-rule="evenodd" clip-rule="evenodd" d="M174.067 61.935c2.932-.238 2.123-2.816 2.16-5.522l1.99.073c-.008.954 0 1.909-.009 2.863-.015 1.941-.214 1.849.358 2.593.782-.262.569.523.721-1.091l-.063-5.313-3.973-.005c-.031 1.2.059 2.637-.037 3.788-.172 2.074-1.172 1.01-1.147 2.614zm7.707-5.229c1.369-.665 1.944.368 2.357-.88-.498-.329-.19-.29-1.698-.308-.628-.007-1.219.011-1.852-.009l.05 6.45c.661.001 1.47.047 2.107.027 1.506-.046 1.05.223 1.402-.584-.555-1.285-.995-.072-2.4-.88l.016-1.597c1.176.016 1.914.35 2.393-.458-.569-1.343-.862-.113-2.4-.881l.025-.88zm-45.299 2.329l1.683.255-.018 1.39-1.677.031.012-1.676zm1.94-.98l-1.93-.083-.003-2.448-.953-.006c-.503 1.897-.294 4.427-.148 6.436 1.178 0 2.708.18 3.456-.683 1.062-1.225.135-2.512-.422-3.217zm8.845 2.848v-1.92c2.393.087 2.828 1.76 0 1.92zm-1.056.954c4.554.471 4.258-2.195 3.466-3.125-.615-.723-1.191-.598-2.3-.658-.154-1.077.082-1.779-.41-2.527-1.073.181-.697-.303-.865.84l.109 5.47zm40.197-3.532l-.128-1.834c1.33.052 1.44.108 1.437 1.389-.612.497-.438.495-1.309.445zm-.083 1.115c3.339-.34 4.167-3.879-1.066-3.908l-.025 4.413c-.037 2.33.183 1.83.723 2 .596-.813.29-.7.368-2.505zm-2.14-50.796l4.347-.019V6.322l-4.304-.076-.043 2.398zm-4.258 9.944c1.333 1.035 1.702 1.309 4.03 1.108.81-.855 1.04-.982 1.153-2.472-1.231.154-1.045.013-1.548.417-.284.228-.64.688-1.15.623-1.604-.827.68-.91-2.439-.903l-.046 1.227zm-28.183 36.797l-.842.14-.244 5.324c.13 1.7-.132.822.739 1.105.609-.776.347-.952.34-2.9a280.64 280.64 0 0 1 .007-3.67zm5.713-.927l-.447-.68c-1.943.186-.504.445-2.73-.156-.183 2.271 2.29 1.374 3.176.836z" fill="#363092"/><path fill-rule="evenodd" clip-rule="evenodd" d="M56.878 28.198l.372-.37c-.416-1.114-.301-.547-.653-.815-.518.678-.103.799.28 1.185z" fill="#7875A5"/><path fill-rule="evenodd" clip-rule="evenodd" d="M161.168 63.074c.305.214-.514.508 1.016.167l.207-1.231c-.237.386-.277-.306-.276 1.038l-.947.026z" fill="#7573B5"/><path fill-rule="evenodd" clip-rule="evenodd" d="M59.798 48.538l.405.11-.405-.11z" fill="#9590C6"/></svg>