<svg width="178" height="46" fill="none" xmlns="http://www.w3.org/2000/svg"><path fill-rule="evenodd" clip-rule="evenodd" d="M145.13 17.759c.31-1.433.583-4.21 1.4-4.445 6.034.015 14.086-1.739 12.491 6.25-1.363 6.821-3.392 8.009-10.71 8.254-1.164 5.087-.737 4.623-6.282 4.684l3.1-14.743zm-73.22-4.372c2.63-.253 9.643-.456 11.58.815 3.38 2.218.767 6.627-.918 8.38 1.025 1.77 1.91 2.407.76 5.345-.61 1.556-1.832 2.848-3.02 3.596-2.378 1.497-9.29.953-12.636.971l4.235-19.107zM51 32.503c5.077-.06 5.684.084 6.665-4.842l4.239.004c-.405 2.242-2.347 5.959 4.244 4.683l4.14-19.023c-13.581.04-13.523.52-16.977 11.676-.777 2.512-1.727 4.97-2.312 7.502zm74.343 0c6.925-.096 4.792-.446 6.78-4.718l4.117-.134c-.772 4.825-1.612 4.806 4.373 4.848l4.016-19.177c-13.871.039-13.383.627-16.963 11.7-.758 2.344-1.789 5.077-2.323 7.481zm-5.836-19.172l11.533-.016c-.807 5.663-2.243 3.562-6.983 4.156-.724 1.595-1.708 7.458-2.167 9.583-1.171 5.42-.313 5.409-6.44 5.437l4.057-19.16zm-15.6.04l-4.031 19.037c7.395.772 5.072-2.048 6.892-7.17l3.32.028c-.13 2.395-1.449 4.672-.828 6.893 1.32.444 3.163.355 4.765.307l3.987-19.098c-6.082-.32-5.415.123-6.927 7.783l-3.484.043c1.145-7.03 3.375-8.286-3.694-7.822zM83.24 32.5c1.886-.017 4.258.295 5.275-.85.864-.973.615-3.13 1.836-3.986l3.788.002c-.267 1.816-.88 2.665-.383 4.46 1.318.49 3.14.358 4.754.371l4.005-19.162c-7.081-.069-11.806-.773-14.521 4.606-.83 1.642-4.296 12.558-4.754 14.559zm74.434-4.207c-1.387.281-4.188-.211-4.04 4.145l20.727.045c1.277-2.348.845-3.94-1.903-4.074l3.191-15.033c-12.624-.744-14.347.621-17.975 14.917zm-108.23 5.289c9.168.355 7.222-1.008 9.214-4.725l1.85-.12c-1.031 6.056 1.61 4.872 9.098 4.876 5.974.002 8.148.764 12.58-2.031l-.512 2.03c9.707.011 6.631-.485 9.252-4.774l1.802-.09c-.829 5.955 1.168 4.825 8.57 4.867 8.494.049 4.104-5.94 6.914-7.239.035.054.066.088.07.178l.1.38c.105 1.534-2.134 5.562 1.062 6.492 1.07.312 8.762.325 10.004.114 2.883-.489 3.004-3.734 3.604-6.507.605-2.796 1.38-5.747 1.775-8.536l3.706.002-4.783 15.045c12.896.944 5.487-4.715 11.12-4.794-1.055 5.9 1.616 4.861 6.762 4.862 5.893 0 6.326.336 7.578-4.645l4.235-.309c-.555 1.399-1.019 3.171-1.295 4.956l23.19-.006c2.04-5.033-.207-5.423-1.45-6.436l3.131-14.894c-2.079-.253-8.203-.23-10.209.114-4.416.753-4.9 2.84-6.5 4.26-.845-5.545-6.902-4.467-12.342-4.467-5.304 0-11.31-.682-15.557 1.441-.325-.738.002-.4-.073-.66-.2-.688.059-.65-.503-.783-4.992.012-9.992.022-14.982 0-5.483-.024-5.566 1.414-6.311 4.99-.664 3.19-.269 2.495-1.18 2.84-.658-1.796 2.771-6.837-1.479-7.737-1.781-.377-9.185-.123-11.489-.095-10.751.13-9.877 9.099-11.811 11.547l-.542-1.157c3.924-5.186 2.272-9.833-3.195-10.332-4.4-.402-13.048-.264-17.592-.034-5.623.284-8.151 3.273-9.596 7.98-1.364 4.446-3.08 8.99-4.216 13.397z" fill="#EFEEED"/><path fill-rule="evenodd" clip-rule="evenodd" d="M2.722 34.168l1.265-.912c3.351-2.017 30.565-7.933 36.162-11.893 3.01-2.13 5.145-6.402 8.017-8.445l-25.064 7.235c.77-2.96 1.512-4.937 4.13-5.928l15.31-4.54c2.39-.653 3.018-.293 4.477-5.8l-14.707 4.23c-10.324 3.12-14.165 2.55-17.308 10.869-1.405 3.72-.618 3.62-4.207 5.278-6.694 3.095-2.252 2.414-5.463 4.031-3.777 1.901-3.044 1.7-2.612 5.875z" fill="#CD1920"/><path fill-rule="evenodd" clip-rule="evenodd" d="M6.289 41.913c.294-1.017 3.2-8.824 3.498-9.185.642-.776 7.903-2.619 9.477-2.982-.386 1.288-2.87 8.194-3.402 9.034-.499.787-1.012.722-2.113 1.039-.798.23-1.598.496-2.456.736-1.587.445-3.308 1.062-5.004 1.358zm13.546-3.927c.126-.704 1.481-4.493 1.856-4.882l1.181-.555c.475-.14.859-.225 1.357-.36.895-.24 1.73-.494 2.673-.766 3.551-1.022 7.195-2.3 10.747-3.123-1.306 5.072-2.292 5.266-7.21 6.636-3.281.916-7.412 2.433-10.604 3.05zm2.239-5.94c2.367-.394 9.673-2.836 12.95-3.742 1.674-.462 3.177-.34 3.409-2.185l-15.058 4.373c-1.155.417-.938.295-1.301 1.554zm.88-2.243l13.636-3.968c2.382-.697 2.462-.224 3.103-2.9-4.872 2.068-2.313 1.42-8.513 3.262-1.52.452-2.944.895-4.445 1.316-3.29.921-3.295.519-3.78 2.29zm4.5-11.776c.546-1.836.035-1.11 3.641-2.234l12.774-3.697-.398 1.294-16.018 4.637zm.865-2.233c3.762-.864 8.82-2.565 12.884-3.715 1.937-.549 2.978-.313 3.53-2.217-2.723.51-6.018 1.727-8.733 2.506-1.353.388-2.795.82-4.233 1.229-3.486.988-3.017.524-3.448 2.197zM2.722 34.168l1.266-.912c3.35-2.017 30.565-7.933 36.161-11.893 3.01-2.13 5.145-6.401 8.017-8.445l-25.064 7.235c.77-2.96 1.512-4.937 4.13-5.928l15.31-4.539c2.39-.654 3.018-.294 4.477-5.8L32.312 8.114c-10.324 3.12-14.165 2.55-17.308 10.869-1.405 3.72-.618 3.62-4.206 5.279-6.695 3.094-2.253 2.414-5.464 4.03-3.777 1.902-3.044 1.7-2.612 5.875zM49.272 1.78c-2.715.514-5.788 1.669-8.49 2.414-5.56 1.534-20.818 5.481-23.685 8.27-3.787 3.686-2.966 8.785-5.972 10.119-7.888 3.499-3.967 2.64-6.269 4.372-1.19.896-2.12.985-3.153 2.03-1.9 1.923.044 5.588.42 8.024 1.29-.966 1.02-1.436 2.372-2.383 1-.7 2.147-1 3.504-1.242L3.99 44.036c3.326-.637 30.84-8.79 32.1-9.782 3.114-2.45 3.256-10.224 7.167-13.809.75-.687 1.617-2.075 2.449-3.019 3.94-4.47 3.658-3.645 8-7.48l-8.289 2.155L49.273 1.78z" fill="#EFEEED"/><path fill-rule="evenodd" clip-rule="evenodd" d="M49.445 33.582c1.135-4.407 2.851-8.951 4.216-13.396 1.445-4.707 3.973-7.696 9.596-7.981 4.544-.23 13.193-.368 17.592.034 5.468.5 7.12 5.146 3.195 10.332l.542 1.157c1.935-2.448 1.06-11.416 11.811-11.547 2.304-.028 9.708-.282 11.49.095 4.25.9.82 5.941 1.479 7.737.91-.345.515.35 1.179-2.84.745-3.576.828-5.014 6.31-4.99 4.991.022 9.991.012 14.983 0 .562.132.303.095.503.783.075.259-.252-.078.073.66 4.247-2.123 10.252-1.44 15.557-1.44 5.44-.001 11.497-1.079 12.342 4.466 1.6-1.42 2.085-3.506 6.5-4.26 2.007-.343 8.13-.367 10.21-.114l-3.132 14.895c1.243 1.012 3.489 1.402 1.45 6.435l-23.19.007c.276-1.786.74-3.558 1.296-4.956l-4.236.308c-1.253 4.981-1.686 4.645-7.578 4.645-5.146 0-7.818 1.038-6.763-4.861-5.633.08 1.777 5.737-11.12 4.794l4.784-15.045-3.706-.003c-.396 2.79-1.17 5.74-1.776 8.537-.6 2.772-.72 6.018-3.604 6.507-1.241.21-8.933.197-10.003-.114-3.197-.93-.957-4.958-1.063-6.493l-.099-.38c-.005-.09-.035-.124-.07-.177-2.81 1.299 1.58 7.288-6.914 7.24-7.403-.043-9.4 1.087-8.57-4.869l-1.803.09c-2.62 4.29.455 4.786-9.252 4.774l.513-2.03c-4.433 2.795-6.606 2.034-12.58 2.031-7.488-.003-10.13 1.18-9.099-4.875l-1.85.12c-1.992 3.716-.045 5.079-9.213 4.724zm-1.057.696c1.471.225 6.191.26 7.441-.173 2.265-.785 2.384-2.462 3.392-4.55.848 1.2-.842 3.168 1.835 4.409 1.499.695 4.698.418 6.534.418 4.277 0 9.224.505 12.965-.861l.162.836c1.903.066 6.142.268 7.567-.348 2.576-1.113 2.462-3.347 3.219-4.405 1.394 2.102-2.081 4.801 6.05 4.778 1.821-.005 3.997.11 5.773-.014 2.23-.156 2.453-.906 3.734-1.962 2.349 2.212 1.257 1.977 6.915 1.975 9.913-.004 8.278.24 11.178-13.583.06-.284.123-.673.258-.904.407-.692.078-.61 2.004-.613l-4.73 15.099c2.016-.018 6.097.294 7.69-.347 2.795-1.126 2.164-3.572 3.445-4.484-.186 5.872 2.724 4.83 8.1 4.832 2.78 0 5.825.365 7.226-2.305 1.168-2.227-.523-2.352 2.972-2.478l-.937 4.703 24.736.08c.586-1.108.999-3.054.99-4.342-.013-2.112-1.315-2.347-2.138-3.44l3.23-15.14c-3.194-.052-7.31-.23-10.335.037-2.143.189-4.066.818-5.586 2.17l-1.523 1.232c-1.831-4.428-7.473-3.463-12.873-3.463-2.786 0-5.572.003-8.359-.002-4.457-.007-4.397.573-5.34.64-.709.051-.287.02-.624-.165-1.036-.572.913.026-.658-.474l-17.868-.004c-2.358.075-2.653.732-4.028 1.983-.054-.043-.135-.184-.157-.136-.078.172-.726-1.096-1.9-1.575-1.27-.517-9.493-.266-11.197-.268-2.48-.004-4.3-.034-6.475.965-1.51.694-2.287 1.309-3.327 2.433-.408.441-.356.537-.857.993-1.42-2.196-.93-2.92-3.941-3.97-2.363-.824-20.875-.722-23.753.361-4.183 1.573-5.267 4.835-6.841 9.542-1.388 4.153-2.643 8.444-3.97 12.52z" fill="#CF2520"/><path fill-rule="evenodd" clip-rule="evenodd" d="M162.925 28.425c.609-2.325 1.326-4.466 2.049-6.699.943-2.914.836-4.22 4.466-4.358-.27 2.03-.77 3.867-1.199 5.893-.207.978-.397 1.884-.585 2.827-.59 2.943-.259 2.346-4.73 2.337zm-5.252-.132c-1.387.281-4.188-.211-4.04 4.145l20.727.046c1.277-2.348.845-3.942-1.902-4.075l3.19-15.033c-12.624-.744-14.347.621-17.975 14.917zm-83.848.413l.86-4.103c1.85-.133 2.37-.105 3.62.464.696 3.477-1.26 3.61-4.48 3.639zm2.407-11.655l3.25.32c1.256 3.014-.916 3.814-4.006 3.61l.756-3.93zm-8.555 15.443c3.346-.018 10.258.526 12.636-.972 1.188-.747 2.41-2.04 3.02-3.595 1.15-2.939.265-3.576-.76-5.345 1.685-1.753 4.297-6.163.918-8.38-1.937-1.272-8.95-1.069-11.58-.815l-4.234 19.107zm23.653-8.905c.249-1.155.884-3.476 1.315-4.455.587-1.332 1.903-1.911 3.69-1.638l-1.374 6.059-3.632.034zm-8.09 8.91c1.885-.017 4.258.295 5.275-.85.863-.972.614-3.13 1.836-3.985l3.787.002c-.266 1.815-.88 2.665-.383 4.46 1.318.49 3.141.358 4.754.37l4.006-19.161c-7.082-.069-11.806-.773-14.522 4.606-.829 1.642-4.295 12.558-4.753 14.559zm53.495-8.909h-3.283c.225-1.137.879-3.392 1.304-4.4.591-1.402 1.602-1.87 3.657-1.76l-.922 4.73c-.293 1.265.013.872-.756 1.43zm-11.391 8.913c6.925-.095 4.792-.446 6.781-4.718l4.116-.134c-.772 4.825-1.612 4.806 4.373 4.848l4.016-19.176c-13.87.038-13.383.626-16.963 11.7-.757 2.343-1.789 5.076-2.323 7.48zm-66.252-8.91c.271-1.36.817-3.117 1.333-4.418.552-1.39 1.613-1.878 3.675-1.732l-1.24 6.146-3.768.004zm-8.091 8.91c5.078-.06 5.684.084 6.665-4.843l4.239.005c-.405 2.242-2.347 5.959 4.244 4.682l4.14-19.022c-13.58.04-13.523.52-16.976 11.676-.777 2.512-1.728 4.97-2.312 7.502zm48.876-.095c7.395.772 5.072-2.048 6.893-7.17l3.32.027c-.131 2.396-1.45 4.673-.828 6.894 1.319.443 3.162.355 4.764.307l3.987-19.098c-6.081-.32-5.414.122-6.927 7.783l-3.483.043c1.144-7.03 3.374-8.286-3.694-7.823l-4.032 19.037z" fill="#CD1920"/><path fill-rule="evenodd" clip-rule="evenodd" d="M150.47 17.374c3.883.015 3.802-.185 2.988 3.505-.626 2.84-.899 3.121-4.265 2.748l1.276-6.253zm-8.44 15.128c5.545-.06 5.117.402 6.281-4.684 7.319-.245 9.348-1.433 10.71-8.254 1.596-7.989-6.456-6.236-12.49-6.25-.818.234-1.09 3.012-1.4 4.445l-3.101 14.743z" fill="#CD1920"/><path fill-rule="evenodd" clip-rule="evenodd" d="M45.417 12.1l8.29-2.154c-4.343 3.835-4.06 3.01-8.001 7.48-.832.944-1.7 2.332-2.45 3.019-3.91 3.585-4.052 11.36-7.165 13.809-1.26.992-28.776 9.144-32.1 9.782l4.008-10.652c-1.357.242-2.504.542-3.504 1.242-1.352.947-1.083 1.417-2.373 2.383-.375-2.436-2.319-6.101-.419-8.024 1.033-1.046 1.963-1.134 3.153-2.03 2.301-1.733-1.62-.873 6.27-4.372 3.005-1.333 2.184-6.433 5.971-10.118 2.867-2.79 18.126-6.737 23.684-8.27 2.702-.746 5.776-1.901 8.492-2.415L45.417 12.1zM2.158 38.906c1.173-1.872 1.943-3.512 4.263-4.169L2.459 45.404c5.729-1.338 11.905-3.387 17.56-5.055 3.818-1.126 15.316-4.016 17.216-5.82 1.18-1.12 2.726-5.736 3.569-7.918.426-1.105 1.026-3.187 1.647-4.097l8.271-8.98c1.043-.907 5.79-4.538 6.328-5.332l-10.08 2.62L50.831.445c-2.623.403-6.443 1.743-8.992 2.497-3.012.89-5.836 1.782-8.908 2.63-5.608 1.549-13.227 3.156-16.525 6.494-1.952 1.976-2.799 4.043-3.956 7.243-1.51 4.173-2.967 1.949-6.545 4.96-1.485 1.25-.641 1.487-2.996 2.759-1.36.735-2.39 1.31-2.848 2.9-.414 1.439 1.361 7.937 2.096 8.977z" fill="#D12221"/><path fill-rule="evenodd" clip-rule="evenodd" d="M115.452 32.491c6.127-.028 5.267-.017 6.44-5.437.458-2.124 1.442-7.988 2.167-9.583 4.74-.594 6.176 1.507 6.983-4.156l-11.534.016-4.056 19.16zM6.29 41.913c1.695-.296 3.416-.913 5.003-1.358.858-.24 1.658-.506 2.457-.736 1.1-.317 1.613-.251 2.112-1.039.532-.84 3.016-7.746 3.402-9.033-1.574.363-8.835 2.206-9.476 2.981-.299.361-3.204 8.167-3.499 9.185zm13.544-3.927c3.193-.617 7.323-2.135 10.605-3.05 4.918-1.37 5.904-1.564 7.21-6.636-3.553.822-7.196 2.1-10.747 3.123-.944.272-1.778.526-2.674.767-.497.134-.882.22-1.356.359l-1.182.555c-.374.389-1.73 4.178-1.856 4.882z" fill="#CD1920"/><path fill-rule="evenodd" clip-rule="evenodd" d="M166.237 27.233l-1.764.023c.333-1.477.92-3.187 1.399-4.638.576-1.747.655-3.553 2.14-3.928l-1.775 8.543zm-3.311 1.192c4.472.01 4.14.606 4.73-2.337.189-.943.379-1.85.586-2.827.43-2.026.928-3.863 1.199-5.893-3.63.138-3.524 1.444-4.467 4.358-.722 2.233-1.44 4.373-2.048 6.699z" fill="#EFEEED"/><path fill-rule="evenodd" clip-rule="evenodd" d="M22.954 29.803l13.636-3.968c2.381-.697 2.462-.224 3.103-2.9-4.872 2.068-2.313 1.42-8.513 3.262-1.52.452-2.944.895-4.445 1.316-3.29.921-3.295.519-3.78 2.29zm5.366-14.009c3.76-.864 8.819-2.565 12.883-3.715 1.936-.549 2.978-.314 3.53-2.217-2.723.51-6.018 1.727-8.733 2.506-1.354.388-2.795.82-4.233 1.228-3.486.99-3.017.525-3.448 2.198zm-6.246 16.252c2.367-.394 9.672-2.836 12.95-3.742 1.674-.462 3.177-.34 3.408-2.185l-15.058 4.373c-1.154.417-.937.295-1.3 1.554zm5.379-14.019L43.47 13.39l.4-1.294-12.775 3.697c-3.606 1.125-3.095.399-3.642 2.234z" fill="#CF1A20"/><path fill-rule="evenodd" clip-rule="evenodd" d="M150.623 22.545c.106-.9.302-1.707.468-2.588.339-1.794-.021-1.402 1.734-1.456l-1.021 4.06-1.18-.016zm-1.43 1.082c3.366.373 3.639.092 4.266-2.748.814-3.69.895-3.49-2.99-3.506l-1.276 6.254z" fill="#F1EDEC"/><path fill-rule="evenodd" clip-rule="evenodd" d="M60.684 22.495c.176-1.748.646-3.224 1.998-3.828l-.884 3.824-1.114.004zm-1.592 1.098l3.768-.004 1.24-6.146c-2.063-.146-3.123.343-3.675 1.732-.516 1.3-1.062 3.058-1.333 4.418zm77.105-1.087l-1.17-.013c.166-1.542.643-3.365 1.947-3.848l-.777 3.861zm.538 1.084c.769-.558.463-.165.756-1.43l.923-4.73c-2.056-.11-3.067.358-3.658 1.76-.426 1.009-1.08 3.263-1.304 4.401h3.283zm-43.802-1.095c.057-.835.284-1.518.546-2.258.371-1.048.473-1.225 1.37-1.56-.28 4.091-.839 3.797-1.916 3.818zM91.33 23.59l3.632-.034 1.373-6.058c-1.787-.274-3.102.305-3.69 1.637-.43.98-1.066 3.3-1.315 4.455zm-15.814 2.435c.455-.237.196-.436 1.77-.187.036 1.443-.587 1.665-2.089 1.737l.32-1.55zm-1.69 2.681c3.22-.03 5.175-.162 4.48-3.638-1.251-.57-1.77-.597-3.621-.465l-.86 4.103z" fill="#EFEEED"/><path fill-rule="evenodd" clip-rule="evenodd" d="M168.013 18.69c-1.485.375-1.565 2.18-2.141 3.927-.479 1.451-1.066 3.161-1.399 4.638l1.765-.023 1.775-8.542z" fill="#CF1A20"/><path fill-rule="evenodd" clip-rule="evenodd" d="M76.917 19.892c.053-.903.074-.99.469-1.612 1.952.003 1.89 1.618-.469 1.612zm-1.44 1.09c3.09.202 5.261-.597 4.005-3.612l-3.25-.319-.756 3.93z" fill="#F1EDEC"/><path fill-rule="evenodd" clip-rule="evenodd" d="M94.577 8.562c1.875-.28 1.887-2.132 3.452-3.173l-.443 2.342c0 1.397-.063.28.255.82 1.033-.697 1.103-3.48 1.295-4.816-1.04.293-1.186.589-1.834 1.378-.631.768-.746.965-1.517 1.649l.448-2.918c-1.193-.042-1.297 2.306-1.656 4.718zM79.737 8.5c1.392-.141 1.767-1.512 3.376-3.077-.06 1.138-.579 2.305-.254 3.096.832-.364.268.502.69-.71l.62-4.028c-1.562.141-1.464 1.747-3.298 3.056.101-.947.646-2.293.26-3.067-1.113.393-1.258 3.568-1.394 4.73zm34.887-.675c-.09-1.637.29-1.58 1.655-1.345-.032 1.263-.408 1.32-1.655 1.345zm-1.052.729c1.472-.01 3.048.176 3.47-1.01.763-2.147-1.154-1.489-2.059-2.18.283-1.482-.22-.684 1.008-.915 1.256-.236 1.015.536 1.088-.691-1.78.005-2.463-.498-2.83 1.012-.272 1.116-.519 2.6-.677 3.784zm-47.855-.792l-1.654.057c-.2-2.022-.071-3.545 2.082-3.295.363 1.385.064 2.131-.428 3.238zm-2.293.583c2.979.714 4.307-1.029 3.535-4.114-2.825-1.534-4.472 1.191-3.535 4.114zm21.452.208l.303-.305c.306-.595.012.14.241-.627.154-.515.07-.55.32-1.127l1.686-.085c-.02.162-.204 1.01-.208 1.062-.158 1.999-.195.416.251 1.083.555-.404.258.683.798-2.106l.35-1.959c-.08-.696-.1-.417-.283-.753-.443.446-.19-.072-.52.813-.183.494-.009.437-.344 1.073l-1.655.032c.156-1.013.462-1.229-.074-1.904-.646.469-.912 2.258-1.099 3.439-.27 1.698-.062.971.234 1.364zm-13.158.02c1.207-.41.475.6.978-1.004.398-1.268-.294-.54.656-1.18 1.955.653.064 1.133 1.44 2.165.283-.386.433.576.306-1.166-.041-.567-.3-.92-.215-1.394.11-.62.88-1.05.982-2.234-1.833.288-.361 1.74-2.804 1.92.166-.974.435-1.253.003-1.925-1.057.474-1.186 3.6-1.346 4.818zm33.34-.046c3.491-.152.636-4.14 3.694-4.03l-.714 3.904c1.152.09.439.443.848-.314.03-.055.277-1.308.309-1.48.192-1.016.44-1.816.388-2.851-4.13.034-2.015-.174-3.45 3.267-.583 1.4-.56.296-1.075 1.504zm-37.18.027c.668-.414.243.291.595-.874.235-.78-.122-.503.558-1.286 1.792.37.424.705 1.44 2.14.14-.073 1.207.49.016-2.64.763-.782.846-.843 1.262-2.151-2.3.707-.22 1.68-2.86 1.97.014-.112.163-.875.161-.938-.066-1.76.141-.297-.307-1.032-.595.68-.847 2.335-1.03 3.504-.19 1.217-.001 1.024.165 1.307zm33.709-.02c.81-.41.299.317.692-1.05.445-1.542-.409-.88 1.036-1.068l.322.3c.852 1.812-.324 1.19.83 1.825.47-.843.2-1.78-.19-2.556.516-.555 1.072-1.321 1.2-2.2-2.184.159.011 1.694-2.815 1.93.105-.862.367-1.354.077-1.955-.935.333-.736.987-.935 2.087-.22 1.21-.603 1.905-.217 2.687zM90.202 6.347l1.256.165c.234 1.376.037 1.365-1.586 1.255l.33-1.42zM88.93 8.513l2.573-.032c.174-.072 2.75-2.773-1.17-2.83.093-.97.38-1.23.017-1.883-1.145.392-1.253 3.53-1.42 4.745zM60.386 5.947c-.558 1.063-1.353 1.688-1.717 2.58 1.53-.063 1.094-.59 2.226-1.65.449 1.332.217 1.623 1.421 1.584l-.889-2.485c1.012-1.063 1.256-1.272 1.6-2.219-1.658.207-.762.291-1.887 1.493-.82-.947-.163-1.452-1.446-1.438l.692 2.134zM75.901 8.52c1.25.036 2.148.22 3.03-.286-.591-.472.904-.314-1.962-.459l.106-1.361c1.132-.018 1.528.305 1.984-.475-.676-.351-.239-.06-.816-.21-1.855-.482 1.12.452-.497-.124l-.432-.24c.633-2.216 1.565.15 2.328-1.435l-2.695-.183L75.9 8.52zm35.23-.866c-1.324.626-.718-.103-1.265.941 1.927-.018 1.787-.632 2.543-1.92.537-.915 1.401-1.959 1.528-2.93-1.54.256-.682 1.105-2.396 2.603-.117-1.131.029-2.515-1.154-2.548l.744 3.854z" fill="#CF2520"/><path fill-rule="evenodd" clip-rule="evenodd" d="M150.623 22.545l1.18.015 1.022-4.059c-1.755.054-1.395-.339-1.734 1.455-.167.882-.362 1.69-.468 2.59zm-57.689-.05c1.076-.022 1.636.273 1.915-3.819-.898.336-.999.513-1.37 1.56-.262.74-.488 1.424-.545 2.259z" fill="#CF1A20"/><path fill-rule="evenodd" clip-rule="evenodd" d="M92.786 8.57c1.1-.348.481.417.931-.696 0-.002.235-1.354.264-1.503.201-1.046.614-1.933.115-2.622-.943.575-1.14 3.417-1.31 4.82z" fill="#CF2520"/><path fill-rule="evenodd" clip-rule="evenodd" d="M136.974 18.645c-1.304.483-1.78 2.306-1.947 3.848l1.17.013.777-3.86zm-76.289 3.85l1.114-.004.883-3.824c-1.352.603-1.821 2.08-1.997 3.828zm14.831 3.53l-.319 1.55c1.502-.073 2.124-.294 2.089-1.738-1.574-.249-1.315-.05-1.77.188zm1.401-6.133c2.359.006 2.42-1.608.469-1.612-.396.622-.417.709-.469 1.612z" fill="#CF1A20"/><path fill-rule="evenodd" clip-rule="evenodd" d="M83.746 2.538c-1.574.487-.664.76-2.256.044.053.788.044 1.063 1.058 1.062 1.291-.002 1.12-.353 1.198-1.106z" fill="#C1181E"/><path fill-rule="evenodd" clip-rule="evenodd" d="M98.646 2.569c-1.506.565-.798.645-2.247-.006.09 1.7 1.91 1.34 2.247.006z" fill="#C6191F"/></svg>