<svg width="89" height="71" fill="none" xmlns="http://www.w3.org/2000/svg"><path fill-rule="evenodd" clip-rule="evenodd" d="M64.197 47.961l-.719.439c.135-1.249-.073-.33.519-.66 1.726-1.315 3.912-4.822 5.508-5.834.745.648 1.874 1.935 2.137 2.723-.955.72-6.181 3.074-7.445 3.332zm3.45-34.506l1.665.165c-.262 1.558-.791 3.173-1.547 4.12l-.119-4.285zm8.094-7.347l.394 1.06c.101.844.005.518-.147 1.146l-2.977.229c-1.268.162-3.465.697-5.26.988-6.273 1.022-5.047 3.168-1.886 10.953 1.605 3.954-.22 5.852-2.063 8.457-.97 1.37-1.697 2.443-1.78 4.448-.147 3.61-1.477 4.495-3.614 8.56-1.853 3.524-.213 3.455.208 4.238-.747 1.457-1.974 2.08-2.866 3.715-.705 1.291-1.334 2.971-1.804 4.43-1.605 4.982-1.737 4.948-5.35 7.36.09 2.472 6.675 9.84 8.107 8.552l.113-.803c-.166-.87-.99-.895-1.468-3.516-1.303-7.134.28-7.618 3.908-13.113.924 1.515.726 6.824 3.19 6.907.54-1.63-.39-1.77.117-3.315.306-.932.857-1.332 1.175-2.54.448-1.702.236-1.668 1.56-2.524 4.193-2.71 12.201-1.386 15.252-4.088 3.984-3.53-5.382-12.486-5.652-15.477-.18-1.984.953-4.566 2.147-5.574.866-.336 2.281-.341 3.304-.674l8.65-2.93c-.14-1.611-.272-1.53-.673-2.645-.35-.144-.217-.057-.68-.348-.052-.033-.172-.061-.21-.18-.04-.123-.137-.133-.206-.2l.05-.163c-3.668.204-.507 1.752-3.544 2.709-1.57.495-3.394.623-5.085.302 1.558-5.146 1.7-3.564.882-10.535 1.492-1.259.648-.742 2.948-1.356 1.376-4.843 1.758-.702 1.021-6.435-.208-1.614-.532-1.912-1.725-2.598-1.442-.83-2.413-.757-4.163-.573-2.338 2.457-1.886 1.298-1.873 5.533z" fill="#ED2124"/><path fill-rule="evenodd" clip-rule="evenodd" d="M38.922 45.475c-.363.314.218.021-.656.428-.545.254.068.01-.723.11l.53-.752c.89-3.531 8.49-13.773 1.731-15.267-3.135-.692-4.674 1.725-7.324 3.801l-6.084 5.216c.525.884.596 1.048 1.32 1.482l9.264-7.68c-1.904 5.578-6.307 10.997-4.087 14.13 2.536 3.578 10.893-.44 14.877-1.065-.595 1.07-3.431 3.135-4.666 4.165-1.064.889-3.75 2.891-4.368 3.89 1.054 1.4 2.545 3.004 3.651 4.334.418-.168 10.86-7.981 11.275-10.533.623-3.846-2.626-5.212-5.954-4.339-1.957.515-7.053 2.056-8.786 2.08zM4.921 10.624c-1.404 2.32-.175 2.775 2.876 6.504 1.68 2.055 3.263 3.74 4.839 5.765 1.374 1.764 3.239 4.35 6.872 3.532 2.522-.568 4.77-3.2 3.776-6.672-1.18-4.122-10.586-10.214-7.399-12.568 2.012-1.486 3.53 1.359 5.875 4.08.84.974 4.076 5.174 5.018 5.58 2.074-2.009.254-3.064-2.385-6.342-1.665-2.068-3.397-3.85-4.973-5.944-4.308-5.72-12.931.251-8.677 6.189.92 1.285 6.898 7.96 7.178 8.774.593 1.71-.79 3.105-2.525 2.52-2.198-.744-8.221-10.851-10.475-11.418z" fill="#005892"/><path fill-rule="evenodd" clip-rule="evenodd" d="M28.773 19.432c1.377 2.967-.087 2.91-1.839 4.444-1.507 1.32-2.672 2.167-4.217 3.58-4.635 4.238.366 7.05 1.77 9.778 1.192-.364 1.134-.394 1.948-1.343-1.244-3.33-3.655-1.042 3.817-7.445 1.67-1.432 3.59-3.1 5.269-4.318-.432-1.1-4.253-5.555-5-6.06-.897.463-1.01.803-1.748 1.364z" fill="#ED2124"/><path fill-rule="evenodd" clip-rule="evenodd" d="M37.063 21.225c.594-.655.436-.692 1.064-.203-.072.077-.035.246-.355.324-1.315.319-.338.208-.71-.12zm-1.511-.387c.318-.84.036-.814.699-.237l-.7.237zm1.702-1.307c-.43.295-1.26-.296-.185.948.602-.892.303-.302.185-.948zm1.172.99c.167-1.21-.102-.631.838-.938-.623 1.818-.48.697-.838.937zm-3.44-.411c.521-.04.163.132.5-.126.77-.592.04-.275-.084-.446l-.417.572zm2.325-1.024c.527.01.378-.54.73.16.321.636.121.063-.125.453l-.605-.613zm-1.487-.33c.159-.074-.276-.751.367-.027.362.408.097.06.296.643-.928-.408-.624-.552-.663-.616zm1.423-.158c-.175-1.404.121-.611-.666-.692.37 1.171.114.543.666.692zm-2.53.03c1.118-.164.551.054.92-1.013-.696.359-.859.008-.92 1.014zm3.279-1.04c1.44-.255-.272-.26.412.317l-.793-.112.38-.206zm-2.156-.42c.008.007-.407 1.232 1.064-.089-.788-.459-.304-.342-1.064.09zm-1.498 3.122h.453l.19-.18c.334.817-.576.17.567.728l-.312.394v.353c2.463 1.246 4.865-.496 4.64-2.543-.17-1.544-.051-.552-.43-.957l-.037.258c.04.881.352.304-.16.8-.015-.012-.402-.098-.504-.35-.607-.364-.731.543-.526-.47l.877-.273c-.034-.079-.096-.184-.12-.23a69.614 69.614 0 0 1-.118-.21c-.022-.038-.087-.132-.108-.168L38.618 17c-.078-.096.156-.908-1.818-.74-2.569.218-3.157 2.738-2.458 4.03z" fill="#F05152"/><path fill-rule="evenodd" clip-rule="evenodd" d="M63.995 47.74l.2.22c1.266-.257 6.492-2.612 7.444-3.332-.262-.787-1.391-2.075-2.137-2.724-1.595 1.014-3.78 4.52-5.507 5.836z" fill="#FBFDFF"/><path fill-rule="evenodd" clip-rule="evenodd" d="M12.745 27.777c.75.308.28-.673.737.624-.934 1.061-.9.413-1.293 1.527 1.253-.193 1.038-.658 1.606-.744.795-.12-.029-.192.525.216-.004.015-.988 1.217-1.149 1.498.585.722.173.538 1.083.993l-.376-.987c.545-.329.503-.135.949.185l-.073-.59c.082-.597-.05-.107.174-.437l.938.555-2.13-2.885c-.36-.386-.13-.082-.441-.528-1.157-.082-.102-.091-.565.397l.015.176z" fill="#457FA6"/><path fill-rule="evenodd" clip-rule="evenodd" d="M36.799 56.554c.183-.337.101-.385.317-.69l-.934.003c-1.639-.7 1.2-.18-1.608-3.104a.86.86 0 0 0-.057.134l-.131.457c-.398.917-.589.502-1.164 1.696 1.34-.61 1.08-1.074 2.366-.808-.325.57-.038.185-.432.62-.062.07-.28.237-.344.3l-.282.73c1.871.172 1.088.429.73 1.463.896-.281.905-.348 1.539-.801z" fill="#3A78A3"/><path fill-rule="evenodd" clip-rule="evenodd" d="M67.765 17.741c.756-.948 1.285-2.562 1.547-4.121l-1.665-.165.118 4.286z" fill="#FEF7FA"/><path fill-rule="evenodd" clip-rule="evenodd" d="M27.813 47.064c.616-.438-1-.461.634-.359.173.293.156.315.347.632l.443.667c-1.312.289-1.551 1.445.555 1.525-.487-.704.91-.477-.712-.548.422-1.108.634-.27 1.087-1.545-1.786-.95-.677-.578-1.517-1.564-2.161 1.455-1.278.632-1.674 1.732l.837-.54zm-6.469-7.004c-.248-1.283 1.376-2.19 1.133.097l-1.133-.096zm.904.788c.406-.244.362-.195.603-.453.055-.059.32-.437.373-.527l-.387-1.504-1.742.003c-.864 1.473-.603 2.33 1.153 2.481z" fill="#3A78A3"/><path fill-rule="evenodd" clip-rule="evenodd" d="M38.735 58.62l-1.22.78c.026.816-.184.652.613.51.407-.475.126-.248.747-.576l-.233 2.101c1.343-.486 1.67-1.018 1.816-1.8l-1.169.71.195-1.982-.75.258z" fill="#3276A0"/><path fill-rule="evenodd" clip-rule="evenodd" d="M37.914 57.208l.183 1.211c-.966.232-.855.238-1.532-.182.12-.973.3-1.141 1.349-1.03zm-1.16 1.737c1.101.277 1.464-.163 1.968-.593-.254-1.295-.525-1.83-1.922-1.8-.651.574-.407.156-.865 1.238l.82 1.155z" fill="#3677A1"/><path fill-rule="evenodd" clip-rule="evenodd" d="M5.783 19.513c-.169.202-.64.377-.165-.056.082-.076.928-.852.165.056zm-1.593.03c0 .569-.138.423.443.407l.148 1.172c.083-.07.2-.285.25-.212l1.525-1.247c-.355-1.125-.084-.767-.986-1.249l-1.38 1.129z" fill="#3A78A3"/><path fill-rule="evenodd" clip-rule="evenodd" d="M2.953 17.236c-.877.552-.352.23-.71-.079.697-.464.244-.246.71.08zm.126-.691c-.01-.474.295-.572.47.039.224.789-.463.29-.47-.04zm.036 1.558c.388-.695.684-.689 1.016-1.56l-.564-.821c-1.018.128-1.49.572-1.926 1.445.564.695.559.766 1.474.936z" fill="#3677A1"/><path fill-rule="evenodd" clip-rule="evenodd" d="M16.028 31.711c-.277.353-.646.385-.095-.171.305-.308.495-.337.095.171zm-1.775.18l.374.392c.64.354.168-.464.504.26.076.723-.141.584.497.584.571-1.546.188.156 1.168-1.292-.432-1.136-.106-.638-.93-1.218-.063.054-.68.648-.78.732-.547.462-.196.23-.833.542zm-6.076-8.784l-.696 1.028 1.19-.639-.29 1.945 1.894-1.046c0-.755.185-.596-.561-.466l-.61.57.375-2.064-1.302.672z" fill="#3A78A3"/><path fill-rule="evenodd" clip-rule="evenodd" d="M32.177 51.011c-.408-.112-.244.005-.504-.297.79-.29.435-.554.504.297zm-1.57-.247c-.066.727-.25.59.44.522.02.101.08.529.082.54.14.496.152.4.28.59.716-1.965 1.923-.023 1.062-2.585-1.081.197-1.192.485-1.865.933z" fill="#3273A0"/><path fill-rule="evenodd" clip-rule="evenodd" d="M32.668 53.073c.318-.782-.122-.405.858-.695l-.858.695zm-1.26-.656c.344.332-.01.137.58.469.577.325.14.044.68.187v1.225c.542-.411.433-.163.894-1.028.325-.608.352-.775.415-1.563l-2.57.71z" fill="#3A78A3"/><path fill-rule="evenodd" clip-rule="evenodd" d="M18.382 35.58c.064-.646.48-.045.483-.032.102.498-.523.44-.483.031zm-1.284-.327c.713 1.178.048-.662 1.36 1.499l.145.242c.036.06.097.165.158.24.404-1.197.851-1.19.806-2.532l-2.469.55zM3.115 18.103l-.224 1.083 1.033.475-.37-.939c.687-.234.759.247 1.005-.564.008-.025.028-.134.033-.153.005-.023.017-.11.042-.159.33.248.496.347.935.57l-.829-1.341c-1.068.415-.819.337-1.625 1.028zm4.253 3.885c.454-.109-.337.82-.292.173.069-.96-.748.08.292-.173zm-.882-.518c-.073.074-.284.317-.33.37-.041.047-.145.264-.177.21-.032-.058-.118.148-.18.218 1.173-.085.866.02 1.223.582.016.741-.216.648.32.648 0-.119.12-.423.143-.324.017.075.138-.11.202-.172l.729-1.69-1.93.158z" fill="#3C7AA4"/><path fill-rule="evenodd" clip-rule="evenodd" d="M25.382 43.519c-.354.506-.649.008-.31-.282.479-.41.647-.2.31.282zm-1.348-.48l.591.667c.467.787.27.142.245 1.274.082-.056.634-.35.688-.39.412-.919.632-1.049.554-2.08l-2.078.53z" fill="#3A78A3"/><path fill-rule="evenodd" clip-rule="evenodd" d="M30.752 49.233c-.803.849.535.228-.495.257-1.18.034.505.582-.375-.412l.87.155zm-1.674-.253c1.623.072.226-.156.712.55l.096 1.207.723-.228c.37-.912.6-1.011.44-2.036l-1.97.507z" fill="#3677A1"/><path fill-rule="evenodd" clip-rule="evenodd" d="M23.092 40.943l.561-.148c.035 1.52.083.39-.308.828-.128 1.009-.358.84.103 1.259l.578-.163c.849-.802.624-.246 1.184-1.295-.881.242-.352.014-.858.367-.5.532.57.156-.495.51-.715-1.31-.047-.437.022-.592l.403-1.57c-1.047.305-.257.03-.906.438-.052.03-.127.234-.163.178-.035-.05-.073.132-.121.188z" fill="#206E9D"/><path fill-rule="evenodd" clip-rule="evenodd" d="M21.159 37.161l.052-.548c-.496-.654-.203-.37-.981-.96-.43.769.445-.043-.745 1.33-.72.831-.15-.114-.628.962 1.501-.798 1.439-.984 2.302-.783z" fill="#417AA4"/><path fill-rule="evenodd" clip-rule="evenodd" d="M36.565 58.237c.677.42.566.414 1.532.182l-.183-1.212c-1.049-.111-1.228.056-1.35 1.03z" fill="#FBFDFF"/><path fill-rule="evenodd" clip-rule="evenodd" d="M15.601 33.468l.144.454.772-.43.595-.566-.001.768.347-.008.093-1.512c-1.304.332-.927.513-1.95 1.294z" fill="#3677A1"/><path fill-rule="evenodd" clip-rule="evenodd" d="M73.013 8.543l2.976-.229c.153-.628.249-.301.147-1.147l-.393-1.06.105 1.701c-1.36.52-1.91-.232-2.835.735z" fill="#F48989"/><path fill-rule="evenodd" clip-rule="evenodd" d="M14.253 31.89c.636-.311.287-.08.834-.543.099-.083.716-.677.78-.732l-.939-.555c-.223.332-.092-.16-.174.437l.073.59c-.446-.318-.404-.513-.949-.184l.375.988z" fill="#E4ECF2"/><path fill-rule="evenodd" clip-rule="evenodd" d="M3.924 19.66l.266-.116 1.381-1.129c-.439-.222-.605-.32-.935-.57-.025.05-.036.137-.042.16-.005.02-.026.13-.032.153-.247.811-.32.33-1.006.564l.368.939z" fill="#E5EAEF"/><path fill-rule="evenodd" clip-rule="evenodd" d="M10.052 27.034c.533.512-.452.655.733.329l.586-.532c.05-.014.128-.091.152-.034.028.072.15.004.19.017.064.02.433.17.524.22l.037-1.183-2.222 1.183z" fill="#196B9A"/><path fill-rule="evenodd" clip-rule="evenodd" d="M25.937 44.603c-.062.082-.269.45-.306.53-.043.089-.084.379-.115.332-.032-.05-.06.244-.09.365l.441.24.264-.312-.189-.466 1.167-.879c0-.684.159-.512-.55-.429l-.622.619z" fill="#3273A0"/><path fill-rule="evenodd" clip-rule="evenodd" d="M21.344 40.06l1.133.097c.243-2.287-1.382-1.38-1.133-.097z" fill="#FBFDFF"/><path fill-rule="evenodd" clip-rule="evenodd" d="M10.023 26.803l.028.232 2.224-1.182c-.476-1.444-.08-.51-.694-.795-.33.91-.035.457-.567.99-.263.266-.48.281-.991.755z" fill="#CBDAE3"/><path fill-rule="evenodd" clip-rule="evenodd" d="M1.083 16.745c1.17-.52 1.704-.66 1.96-1.74-.48.181-.58.19-.995.48-1.136.795-.504.195-.965 1.26zm11.662 11.033l-.017-.18-.076-.07c-.3.313.044.382-.538.523l-.715-.992-.25 1.772c.952-.221 1.268-.405 1.596-1.053z" fill="#2C739F"/><path fill-rule="evenodd" clip-rule="evenodd" d="M5.52 20.975c-.145.756-.33.6.388.6l.342-.36c.776-.665.589-.207.94-1.215-1.188.42-.765.507-1.67.975z" fill="#3273A0"/><path fill-rule="evenodd" clip-rule="evenodd" d="M21.095 38.368l.689-.794-.703-.067c-.585.46-.879.79-1.247 1.514 1.063-.307.407.018 1.26-.653z" fill="#29719F"/><path fill-rule="evenodd" clip-rule="evenodd" d="M22.248 40.848l.067.288.777-.193c.048-.056.086-.238.12-.187.036.056.111-.147.163-.178.648-.407-.142-.133.906-.438-.558-.512.81-.549-1.057-.27a6.88 6.88 0 0 1-.373.526c-.241.259-.198.21-.602.452z" fill="#A4BFD2"/><path fill-rule="evenodd" clip-rule="evenodd" d="M1.366 15.822l.037-1.7c-.403.41-.467-.512-.34 1.35-.104-.05-.263-.256-.31-.15-.103.224-.114-.39-.753-.025.815.85.865.644 1.366.525z" fill="#4C82AA"/><path fill-rule="evenodd" clip-rule="evenodd" d="M10.023 26.803c.512-.474.729-.49.992-.754.53-.533.236-.081.567-.991l-1.987 1.38c.54.768-.335.063.428.365zm7.075 8.45c.981-.693.375-.162.647-.894l-.66.09.026-.755-.369.008-.187 1.25.543.301z" fill="#2C739F"/><path fill-rule="evenodd" clip-rule="evenodd" d="M35.24 21.586v-.354l-.633-.2.188-.742h-.453l-.244 1.363 1.142-.067z" fill="#F48586"/><path fill-rule="evenodd" clip-rule="evenodd" d="M39.1 18.05l-.15.315.462-.022.038-.258.135-1.183-.968.098.136.442c.02.038.086.131.108.169l.117.21c.027.045.088.15.122.23z" fill="#EE2D31"/><path fill-rule="evenodd" clip-rule="evenodd" d="M7.483 24.135l.695-1.027-.49-.108c-.063.06-.184.247-.201.171-.023-.098-.143.206-.143.324-.537 0-.304.095-.32-.647l-.283.947.742.34z" fill="#98B4C9"/><path fill-rule="evenodd" clip-rule="evenodd" d="M11.399 27.059l.715.992c.582-.14.236-.21.538-.523-.577-.233-.606.634-.412-.493a6.783 6.783 0 0 0-.524-.22c-.04-.013-.162.055-.191-.016-.023-.058-.103.019-.152.033l.026.227z" fill="#85AAC3"/><path fill-rule="evenodd" clip-rule="evenodd" d="M23.448 42.882l.083.89 1.094-.066-.591-.666-.008-.32-.578.162z" fill="#7EA7C2"/><path fill-rule="evenodd" clip-rule="evenodd" d="M29.888 50.737l.197.89c1.79.025.422.085.962-.341-.69.069-.506.205-.44-.522l.002-.254-.721.227z" fill="#85AAC3"/><path fill-rule="evenodd" clip-rule="evenodd" d="M27.812 47.064c.081.055.19.042.236.17.048.136.418.29.469.324.33.217.312.23.72.446l-.444-.667c-.19-.317-.172-.34-.346-.632-1.634-.102-.019-.079-.635.36zM5.799 22.268c.062-.072.148-.277.18-.219.032.055.136-.162.177-.21.047-.052.259-.296.33-.37l-.236-.254-.342.36c-.719 0-.533.156-.389-.6-.446.507-.472-.175-.183.737.2.634.213.364.463.556zM24.87 44.98c.262.84.276.554.556.85.03-.122.057-.416.09-.365.032.047.072-.243.115-.333a6.2 6.2 0 0 1 .307-.529l-.38-.013c-.054.04-.607.334-.688.39z" fill="#95B5CA"/><path fill-rule="evenodd" clip-rule="evenodd" d="M1.365 15.822l.13-1.555c1.744.948.558.323.916.094-1.346-1.234-.972-.284-1.008-.238l-.038 1.7z" fill="#2C739F"/><path fill-rule="evenodd" clip-rule="evenodd" d="M34.716 18.63c1.119-.166.552.053.92-1.015-.695.359-.858.007-.92 1.014z" fill="#FEECE8"/><path fill-rule="evenodd" clip-rule="evenodd" d="M35.84 17.169c.007.007-.407 1.232 1.064-.09-.789-.46-.304-.342-1.064.09z" fill="#FDE4E1"/><path fill-rule="evenodd" clip-rule="evenodd" d="M38.426 20.522c.356-.243.215.88.838-.939-.938.307-.67-.272-.838.939z" fill="#FEEEEB"/><path fill-rule="evenodd" clip-rule="evenodd" d="M37.772 21.345c.32-.077.283-.246.354-.324-.626-.488-.47-.453-1.064.203.372.33-.605.441.71.121z" fill="#FEECE8"/><path fill-rule="evenodd" clip-rule="evenodd" d="M35.24 21.231l.311-.394c-1.142-.557-.233.091-.566-.728l-.19.181-.189.741.633.2z" fill="#ED2126"/><path fill-rule="evenodd" clip-rule="evenodd" d="M37.069 20.48c.6-.893.303-.302.185-.949-.43.297-1.26-.295-.185.949z" fill="#FDE4E1"/><path fill-rule="evenodd" clip-rule="evenodd" d="M21.08 37.507l.704.066c-.279-1.382-.13-.595-.573-.96l-.052.549-.078.345z" fill="#92AEC5"/><path fill-rule="evenodd" clip-rule="evenodd" d="M17.745 34.358l-.013-.501-.276-.172-.347.01-.026.755.662-.092z" fill="#98B4C9"/><path fill-rule="evenodd" clip-rule="evenodd" d="M39.413 18.344l-.463.022-.201.43c.103.25.489.337.503.35.513-.497.2.08.161-.802z" fill="#F48382"/><path fill-rule="evenodd" clip-rule="evenodd" d="M36.755 58.945l.763.457 1.218-.781-.015-.27c-.503.431-.866.871-1.966.594z" fill="#A7C1D1"/><path fill-rule="evenodd" clip-rule="evenodd" d="M38.922 45.476c-1.297.261-.414.242-.848-.215l-.53.753c.79-.1.178.142.722-.11.876-.407.294-.115.656-.428z" fill="#90B1C8"/><path fill-rule="evenodd" clip-rule="evenodd" d="M23.346 41.624c.392-.438.343.693.308-.829l-.562.149-.037.46.29.22z" fill="#90B2C9"/><path fill-rule="evenodd" clip-rule="evenodd" d="M38.749 18.796l.201-.43.151-.314-.877.273c-.208 1.014-.082.104.525.471z" fill="#FAC5C4"/><path fill-rule="evenodd" clip-rule="evenodd" d="M37.247 18.598c-.176-1.405.12-.611-.667-.692.37 1.172.114.544.667.692z" fill="#FDE8E6"/><path fill-rule="evenodd" clip-rule="evenodd" d="M17.745 34.358l.848-.402c-.386-.262.666-.545-.861-.1l.013.502z" fill="#3273A0"/><path fill-rule="evenodd" clip-rule="evenodd" d="M37.917 19.7c.245-.39.446.183.125-.455-.352-.698-.202-.148-.73-.158l.605.612z" fill="#FCDAD7"/><path fill-rule="evenodd" clip-rule="evenodd" d="M24.35 41.793l-.472-.082c-.07.155-.737-.719-.022.592 1.064-.355-.006.02.495-.51z" fill="#8BACC5"/><path fill-rule="evenodd" clip-rule="evenodd" d="M36.19 18.729c-.642-.725-.207-.047-.366.027.04.064-.266.208.663.617-.199-.584.066-.234-.296-.644z" fill="#FEECE8"/><path fill-rule="evenodd" clip-rule="evenodd" d="M3.08 16.545c.007.33.695.83.468.04-.174-.614-.48-.515-.469-.04z" fill="#C9D5E1"/><path fill-rule="evenodd" clip-rule="evenodd" d="M25.072 43.237c-.339.29-.045.789.31.283.337-.483.169-.693-.31-.283z" fill="#BFD2DF"/><path fill-rule="evenodd" clip-rule="evenodd" d="M25.868 46.07l.562.494c.25-1.584.148-.194-.297-.807l-.265.313z" fill="#9DBBCF"/><path fill-rule="evenodd" clip-rule="evenodd" d="M38.13 59.91c-.797.143-.588.307-.613-.51-.178.584-.694-.896-.063.758 1.296.336.247.16.675-.249z" fill="#B5C9D9"/><path fill-rule="evenodd" clip-rule="evenodd" d="M16.742 33.702l.368-.007.002-.769-.595.566.225.21z" fill="#85AAC3"/><path fill-rule="evenodd" clip-rule="evenodd" d="M64.197 47.962l-.2-.22c-.592.328-.383-.591-.519.66l.719-.44z" fill="#F15F60"/><path fill-rule="evenodd" clip-rule="evenodd" d="M15.601 33.469l.026-.341c-.638 0-.42.14-.496-.584l-.19.842.66.083z" fill="#85AAC3"/><path fill-rule="evenodd" clip-rule="evenodd" d="M34.985 20.11c.522-.04.164.133.5-.126.77-.592.04-.275-.083-.447l-.417.573z" fill="#FAC3C1"/><path fill-rule="evenodd" clip-rule="evenodd" d="M27.11 44.413l.301-.669c-1.698-.377-.185-.12-.852.24.709-.084.55-.255.55.429z" fill="#A7C1D1"/><path fill-rule="evenodd" clip-rule="evenodd" d="M18.382 35.58c-.04.41.584.467.483-.032-.001-.013-.418-.614-.483.031z" fill="#B8CDDA"/><path fill-rule="evenodd" clip-rule="evenodd" d="M2.244 17.157c.359.31-.166.631.71.08-.467-.326-.013-.544-.71-.08z" fill="#DFE6EB"/><path fill-rule="evenodd" clip-rule="evenodd" d="M22.315 41.136l.343.265.396.004.038-.462-.777.193z" fill="#1E6B9A"/><path fill-rule="evenodd" clip-rule="evenodd" d="M88.325 19.955c-.544-.728.074-.33-1.095-.728.069.066.165.076.205.199.04.118.159.147.21.18.463.292.33.205.68.35z" fill="#F69696"/><path fill-rule="evenodd" clip-rule="evenodd" d="M4.632 19.951c-.58.017-.443.163-.443-.407l-.266.117.025.677.684-.387z" fill="#759DBB"/><path fill-rule="evenodd" clip-rule="evenodd" d="M35.551 20.838l.7-.236c-.663-.578-.383-.604-.7.236z" fill="#F9B5B4"/><path fill-rule="evenodd" clip-rule="evenodd" d="M10.277 24.395l.318-.653c-1.754-.366-.19-.113-.88.189.745-.132.562-.29.562.464z" fill="#95B5CA"/><path fill-rule="evenodd" clip-rule="evenodd" d="M22.658 41.401l-.343-.265-.318.741.661-.476z" fill="#759DBB"/><path fill-rule="evenodd" clip-rule="evenodd" d="M32.669 53.074l.857-.696c-.98.29-.54-.087-.858.696z" fill="#B8CDDA"/><path fill-rule="evenodd" clip-rule="evenodd" d="M32.177 51.012c-.069-.852.286-.587-.504-.298.261.303.096.186.504.298z" fill="#D3DEE7"/><path fill-rule="evenodd" clip-rule="evenodd" d="M29.884 49.078c.88.996-.807.446.374.413 1.03-.029-.307.593.495-.258l-.87-.155z" fill="#ACC4D4"/><path fill-rule="evenodd" clip-rule="evenodd" d="M15.934 31.54c-.551.557-.183.525.095.172.399-.509.209-.48-.095-.172z" fill="#E9ECF1"/><path fill-rule="evenodd" clip-rule="evenodd" d="M37.615 17.793l.793.112c-.684-.578 1.029-.573-.412-.318l-.38.206z" fill="#FCD4D2"/><path fill-rule="evenodd" clip-rule="evenodd" d="M5.618 19.457c-.475.433-.004.259.165.056.763-.908-.083-.131-.165-.056z" fill="#E4ECF2"/><path fill-rule="evenodd" clip-rule="evenodd" d="M7.076 22.162c-.045.646.746-.283.293-.174-1.041.254-.224-.788-.293.174z" fill="#C9D7E2"/></svg>