<svg width="120" height="121" viewBox="0 0 120 121" fill="none" xmlns="http://www.w3.org/2000/svg">
<path fill-rule="evenodd" clip-rule="evenodd" d="M60 0C93.1369 0 120 26.8382 120 59.946C120 93.0538 93.1369 119.892 60 119.892C56.7267 119.892 53.516 119.626 50.3853 119.122L67.6739 110.406L50.3853 119.122C31.2602 116.044 15.1578 103.937 6.60564 87.3128L14.0759 73.1188L6.60492 87.3121C2.38353 79.1078 0 69.8052 0 59.946C0 26.8382 26.8631 0 60 0ZM12.4345 76.3424L14.0751 73.1188L12.4345 76.3424ZM14.0751 73.118L21.8643 57.8163C22.957 55.6694 24.697 54.054 26.7278 53.0859C24.697 54.054 22.957 55.6694 21.8643 57.8163L14.0751 73.118Z" transform="translate(0 0.5)" fill="#F2F6F4"/>
<path fill-rule="evenodd" clip-rule="evenodd" d="M29.7548 0H34.9869H29.7548ZM38.1947 76.379H52.7572C54.865 76.379 56.579 74.6658 56.579 72.5599V35.6114V15.2758V3.81985C56.579 1.71393 54.865 0 52.7572 0H34.984H29.7548H11.9845C9.8767 0 8.16194 1.71393 8.16194 3.81985V16.5496H9.43613C12.9484 16.5496 15.8071 19.4049 15.8071 22.9148C15.8071 25.0034 14.7805 26.8454 13.2191 28.0062C14.7805 29.1671 15.8071 31.0098 15.8071 33.0984C15.8071 35.1871 14.7805 37.029 13.2191 38.1899C14.7805 39.3507 15.8071 41.1934 15.8071 43.2821C15.8071 45.3707 14.7805 47.2134 13.2191 48.3742C14.7805 49.5344 15.8071 51.377 15.8071 53.4657C15.8071 56.9755 12.9484 59.8309 9.43613 59.8309H8.16194V72.5606C8.16194 74.6665 9.8767 76.3798 11.9838 76.3798H38.1947C-47.7434 -20.8715 38.1947 76.379 38.1947 76.379Z" transform="translate(25.4258 36.5803)" fill="#EE292A"/>
<path fill-rule="evenodd" clip-rule="evenodd" d="M31.7871 2.54609H37.0192H31.7871ZM61.1597 33.8838C62.1215 31.8297 64.0846 30.3064 66.4883 30.0036V78.4166C67.499 77.8348 68.4888 77.222 69.4621 76.5847V28.3615C69.4621 27.5409 68.797 26.8756 67.9749 26.8756C66.1017 26.8756 63.359 27.4654 61.1597 29.1901V28.0062H58.6106H61.1597V17.8219V6.36522C61.1597 2.85536 58.3011 0 54.7888 0H14.0161C10.5038 0 7.64515 2.85536 7.64515 6.36522V19.0949H6.37096C2.85865 19.0949 0 21.9503 0 25.4602C0 27.5488 1.02727 29.3908 2.58798 30.5516C1.02727 31.7125 0 33.5551 0 35.6438C0 37.7324 1.02727 39.5751 2.58798 40.736C1.02727 41.8961 0 43.7388 0 45.8274C0 47.9161 1.02727 49.7588 2.58798 50.9196C1.02727 52.0804 0 53.9224 0 56.0111C0 59.5209 2.85865 62.3763 6.37096 62.3763H7.64515V75.106C7.64515 77.3011 8.76312 79.2402 10.4599 80.3845C11.0639 80.6772 11.6736 80.9605 12.2877 81.2331C12.8377 81.3885 13.4172 81.4712 14.0154 81.4712H35.1763L40.2263 78.9251H14.0154C11.9083 78.9251 10.1935 77.2119 10.1935 75.106V62.3763H11.4677C14.98 62.3763 17.8387 59.5209 17.8387 56.0111C17.8387 53.9224 16.8114 52.0804 15.2507 50.9196C16.8114 49.7588 17.8387 47.9161 17.8387 45.8274C17.8387 43.7388 16.8114 41.8961 15.2507 40.736C16.8114 39.5751 17.8387 37.7324 17.8387 35.6438C17.8387 33.5551 16.8114 31.7125 15.2507 30.5516C16.8114 29.3908 17.8387 27.5488 17.8387 25.4602C17.8387 21.9503 14.98 19.0949 11.4677 19.0949H10.1935V6.36522C10.1935 4.2593 11.9083 2.54609 14.0161 2.54609H31.7871H37.0163H54.7895C56.8973 2.54609 58.6113 4.2593 58.6113 6.36522V17.8219V38.1568V75.106C58.6113 77.2119 56.8973 78.9251 54.7895 78.9251H40.227L35.177 81.4712H54.7895C58.3018 81.4712 61.1604 78.6159 61.1604 75.106V59.8302V57.2848V33.8838H61.1597ZM6.37168 29.2786C4.26386 29.2786 2.5491 27.5646 2.5491 25.4594C2.5491 23.3535 4.26386 21.6396 6.37168 21.6396H11.4684C13.5763 21.6396 15.291 23.3535 15.291 25.4594C15.291 27.5646 13.5763 29.2786 11.4684 29.2786H6.37168ZM6.37168 39.4629C4.26386 39.4629 2.5491 37.7497 2.5491 35.6438C2.5491 33.5379 4.26386 31.8247 6.37168 31.8247H11.4684C13.5763 31.8247 15.291 33.5379 15.291 35.6438C15.291 37.7497 13.5763 39.4629 11.4684 39.4629H6.37168ZM6.37168 49.6466C4.26386 49.6466 2.5491 47.9333 2.5491 45.8274C2.5491 43.7215 4.26386 42.0083 6.37168 42.0083H11.4684C13.5763 42.0083 15.291 43.7215 15.291 45.8274C15.291 47.9333 13.5763 49.6466 11.4684 49.6466H6.37168ZM6.37168 59.8302C4.26386 59.8302 2.5491 58.117 2.5491 56.0111C2.5491 53.9059 4.26386 52.1919 6.37168 52.1919H11.4684C13.5763 52.1919 15.291 53.9059 15.291 56.0111C15.291 58.117 13.5763 59.8302 11.4684 59.8302H6.37168Z" transform="translate(23.3916 34.0242)" fill="#000003"/>
<path d="M0 0H14.4948" transform="translate(51.2397 88.1543)" stroke="black" stroke-width="6.0001" stroke-miterlimit="22.9256"/>
<path fill-rule="evenodd" clip-rule="evenodd" d="M20.1308 0H1.05967C0.474402 0 0 0.472537 0 1.05871V21.1721C0 21.7568 0.474402 22.2308 1.05967 22.2308H20.1315C20.7168 22.2308 21.1904 21.7575 21.1904 21.1721V1.05871C21.1897 0.473256 20.716 0 20.1308 0ZM3.25314 20.1127C3.61093 16.8516 5.58196 14.1078 8.35567 13.1073C8.65586 13.2958 8.9834 13.4382 9.32751 13.5468C9.38006 13.5633 9.43261 13.582 9.4866 13.5957C9.65145 13.641 9.81847 13.6755 9.9898 13.7007C10.0193 13.705 10.0481 13.7057 10.0776 13.7093C10.249 13.7302 10.4196 13.7611 10.5959 13.7611C10.773 13.7611 10.9422 13.7302 11.1143 13.7093C11.1438 13.7057 11.1726 13.705 11.2028 13.7007C11.3734 13.6755 11.5419 13.641 11.7053 13.5957C11.7593 13.5813 11.8111 13.5633 11.8644 13.5468C12.2092 13.4382 12.536 13.295 12.8355 13.1073C15.6106 14.1085 17.5788 16.8516 17.9373 20.1127H3.25314ZM8.47589 9.52769V8.46898C8.47589 7.30166 9.42613 6.35227 10.5945 6.35227C11.7636 6.35227 12.7138 7.30166 12.7138 8.46898V9.52769C12.7138 10.1599 12.4295 10.7209 11.9882 11.1093C11.9788 11.1172 11.9666 11.1222 11.9572 11.1301C11.6801 11.3639 11.2194 11.6444 10.5938 11.6444C9.9682 11.6444 9.50748 11.3639 9.23104 11.1301C9.22169 11.1215 9.21017 11.1172 9.19937 11.1107C8.76024 10.7209 8.47589 10.1592 8.47589 9.52769ZM19.0711 16.3338C18.0698 14.1747 16.4162 12.4305 14.348 11.4516C14.6474 10.8712 14.8332 10.2239 14.8332 9.52697V8.46826C14.8332 6.1329 12.9327 4.23413 10.5952 4.23413C8.25776 4.23413 6.35655 6.1329 6.35655 8.46826V9.52697C6.35655 10.2239 6.54229 10.8712 6.84104 11.4516C4.77426 12.4312 3.11996 14.1754 2.11861 16.3338V2.11742H19.0704V16.3338H19.0711Z" transform="translate(47.4077 52.332)" fill="#000003"/>
<path d="M26.3657 0H0V3.10709H26.3657V0Z" transform="translate(45.3047 79.1631)" fill="black"/>
</svg>
