<svg width="120" height="121" viewBox="0 0 120 121" fill="none" xmlns="http://www.w3.org/2000/svg">
<path fill-rule="evenodd" clip-rule="evenodd" d="M60 0C93.1369 0 120 26.8382 120 59.946C120 93.0538 93.1369 119.892 60 119.892C56.7267 119.892 53.516 119.626 50.3853 119.122L67.6739 110.406L50.3853 119.122C31.2594 116.044 15.1571 103.937 6.60492 87.3128L14.0766 73.1188L6.6042 87.3121C2.38353 79.1078 0 69.8052 0 59.946C0 26.8382 26.8631 0 60 0ZM12.4352 76.3424L14.0759 73.1188L12.4352 76.3424ZM14.0759 73.118L21.8635 57.8163C22.9578 55.6694 24.697 54.054 26.7285 53.0859C24.697 54.054 22.9578 55.6694 21.8635 57.8163L14.0759 73.118Z" transform="translate(0 0.5)" fill="#F2F6F4"/>
<path fill-rule="evenodd" clip-rule="evenodd" d="M29.7552 0.000718839H34.9859H29.7552ZM38.1944 76.3798H52.7569C54.8647 76.3798 56.5802 74.6658 56.5802 72.5606V35.6114V15.2765V3.81913C56.5802 1.71322 54.8647 0 52.7569 0H34.9844H29.7552H11.9849C9.8771 0 8.16162 1.71322 8.16162 3.81913V16.5489H9.43653C12.9496 16.5489 15.8075 19.4042 15.8075 22.9141C15.8075 25.0027 14.7802 26.8454 13.2195 28.0063C14.7802 29.1664 15.8075 31.009 15.8075 33.0977C15.8075 35.1864 14.7802 37.029 13.2195 38.1899C14.7802 39.3507 15.8075 41.1927 15.8075 43.2813C15.8075 45.37 14.7802 47.2127 13.2195 48.3735C14.7802 49.5344 15.8075 51.3763 15.8075 53.465C15.8075 56.9748 12.9496 59.8309 9.43653 59.8309H8.16162V72.5599C8.16162 74.6658 9.8771 76.3798 11.9849 76.3798H38.1944C38.1944 76.3798 -47.743 -20.8707 38.1944 76.3798Z" transform="translate(25.8628 36.3125)" fill="#EE292A"/>
<path fill-rule="evenodd" clip-rule="evenodd" d="M31.7864 2.54681H37.0171H31.7864ZM61.159 33.8838C62.1208 31.8297 64.0839 30.3064 66.4876 30.0036V78.4166C67.4983 77.8348 68.4896 77.222 69.4629 76.5847V28.3623C69.4629 27.5416 68.7962 26.877 67.9756 26.877C66.101 26.877 63.3597 27.4661 61.159 29.1908V28.007H58.6113H61.159V17.8226V6.36522C61.159 2.85536 58.3004 0 54.7881 0H14.0161C10.5031 0 7.64515 2.85536 7.64515 6.36522V19.0949H6.37096C2.85721 19.0949 0 21.9503 0 25.4602C0 27.5488 1.02655 29.3915 2.58726 30.5523C1.02655 31.7125 0 33.5551 0 35.6438C0 37.7324 1.02655 39.5751 2.58726 40.736C1.02655 41.8968 0 43.7388 0 45.8274C0 47.9161 1.02655 49.7588 2.58726 50.9196C1.02655 52.0804 0 53.9224 0 56.011C0 59.5209 2.85721 62.377 6.37096 62.377H7.64515V75.1067C7.64515 77.3011 8.76312 79.2402 10.4592 80.3852C11.0631 80.6772 11.6722 80.9606 12.2869 81.2331C12.8377 81.3885 13.4164 81.4712 14.0154 81.4712H35.1763L40.2256 78.9258H14.0161C11.9083 78.9258 10.1928 77.2119 10.1928 75.106V62.377H11.4677C14.9807 62.377 17.8387 59.5209 17.8387 56.011C17.8387 53.9224 16.8114 52.0804 15.2507 50.9196C16.8114 49.7588 17.8387 47.9161 17.8387 45.8274C17.8387 43.7388 16.8114 41.8968 15.2507 40.736C16.8114 39.5751 17.8387 37.7324 17.8387 35.6438C17.8387 33.5551 16.8114 31.7125 15.2507 30.5523C16.8114 29.3915 17.8387 27.5488 17.8387 25.4602C17.8387 21.9503 14.9807 19.0949 11.4677 19.0949H10.1928V6.36594C10.1928 4.26002 11.9083 2.54681 14.0161 2.54681H31.7864H37.0156H54.7881C56.8959 2.54681 58.6113 4.26002 58.6113 6.36594V17.8233V38.1575V75.1074C58.6113 77.2126 56.8959 78.9266 54.7881 78.9266H40.2256L35.1763 81.4719H54.7881C58.3004 81.4719 61.159 78.6166 61.159 75.1067V59.8309V57.2848V33.8838ZM6.37168 29.2793C4.26386 29.2793 2.54838 27.5654 2.54838 25.4602C2.54838 23.3542 4.26386 21.641 6.37168 21.641H11.4677C13.5748 21.641 15.2903 23.3542 15.2903 25.4602C15.2903 27.5654 13.5748 29.2793 11.4677 29.2793H6.37168ZM6.37168 39.4629C4.26386 39.4629 2.54838 37.7497 2.54838 35.6438C2.54838 33.5379 4.26386 31.8247 6.37168 31.8247H11.4677C13.5748 31.8247 15.2903 33.5379 15.2903 35.6438C15.2903 37.7497 13.5748 39.4629 11.4677 39.4629H6.37168ZM6.37168 49.6473C4.26386 49.6473 2.54838 47.9333 2.54838 45.8274C2.54838 43.7222 4.26386 42.0083 6.37168 42.0083H11.4677C13.5748 42.0083 15.2903 43.7222 15.2903 45.8274C15.2903 47.9333 13.5748 49.6473 11.4677 49.6473H6.37168ZM6.37168 59.8309C4.26386 59.8309 2.54838 58.117 2.54838 56.011C2.54838 53.9059 4.26386 52.1919 6.37168 52.1919H11.4677C13.5748 52.1919 15.2903 53.9059 15.2903 56.011C15.2903 58.117 13.5748 59.8309 11.4677 59.8309H6.37168Z" transform="translate(23.8315 33.7666)" fill="#000003"/>
<path d="M26.3657 0H0V3.10709H26.3657V0Z" transform="translate(45.7427 58.0212)" fill="black"/>
<path d="M26.3657 0H0V3.10637H26.3657V0Z" transform="translate(45.7427 65.7776)" fill="black"/>
<path d="M26.3657 0H0V3.10637H26.3657V0Z" transform="translate(45.7427 73.4604)" fill="black"/>
<path d="M14.4948 0H0V4.3154H14.4948V0Z" transform="translate(51.6777 91.6917)" fill="black"/>
<path d="M26.3657 0H0V3.10709H26.3657V0Z" transform="translate(45.7427 81.2576)" fill="black"/>
</svg>
