<svg width="120" height="121" viewBox="0 0 120 121" fill="none" xmlns="http://www.w3.org/2000/svg">
<path fill-rule="evenodd" clip-rule="evenodd" d="M60.0004 0C93.1363 0 120 26.8382 120 59.946C120 93.0538 93.137 119.892 60.0004 119.892C56.7264 119.892 53.5157 119.626 50.3857 119.122L67.6743 110.406L50.3857 119.122C31.26 116.044 15.1577 103.937 6.6056 87.3136L14.0765 73.1188L6.60488 87.3128C2.38351 79.1085 0 69.8052 0 59.946C0 26.8382 26.8622 0 60.0004 0ZM12.4344 76.3424L14.075 73.1188L12.4344 76.3424ZM14.0758 73.118L21.8641 57.8163C22.9576 55.6694 24.6968 54.054 26.7283 53.0859C24.6968 54.054 22.9576 55.6694 21.8641 57.8163L14.0758 73.118Z" transform="translate(0 0.5)" fill="#F2F6F4"/>
<path fill-rule="evenodd" clip-rule="evenodd" d="M5.60281 0H72.5053C75.5864 0 78.1074 2.51876 78.1074 5.59708V42.1464C78.1074 45.2247 75.5864 47.7435 72.5053 47.7435H5.60281C2.52101 47.7435 0 45.2247 0 42.1464V5.59708C0 2.51876 2.52101 0 5.60281 0Z" transform="translate(20.9463 37.0024)" fill="#EE292A" stroke="#000003" stroke-width="4.32" stroke-miterlimit="22.9256"/>
<path fill-rule="evenodd" clip-rule="evenodd" d="M2.16899 5.50502H75.9399C77.132 5.50502 78.1082 4.53045 78.1082 3.33868V2.16633C78.1082 0.975282 77.1327 0 75.9399 0H2.16899C0.976154 0 0 0.974563 0 2.16633V3.33868C0.000719878 4.53045 0.976154 5.50502 2.16899 5.50502Z" transform="translate(20.9458 89.3928)" stroke="#000003" stroke-width="4.32" stroke-miterlimit="22.9256"/>
<path d="M21.0471 0H0V2.36124H21.0471V0Z" transform="translate(34.2183 55.6816)" fill="#000003"/>
<path d="M21.0471 0H0V2.36124H21.0471V0Z" transform="translate(61.0063 55.6816)" fill="#000003"/>
<path d="M9.56717 0H0V2.36124H9.56717V0Z" transform="translate(34.2183 61.5845)" fill="#000003"/>
<path d="M7.65374 0H0V2.36124H7.65374V0Z" transform="translate(49.5254 61.5845)" fill="#000003"/>
<path d="M9.56717 0H0V2.36124H9.56717V0Z" transform="translate(34.2183 67.4871)" fill="#000003"/>
<path d="M9.65068 0H0V2.36052H9.65068V0Z" transform="translate(34.2183 73.3901)" fill="#000003"/>
<path d="M17.2209 0H0V2.36052H17.2209V0Z" transform="translate(48.9717 73.3901)" fill="#000003"/>
<path d="M11.4806 0H0V2.36052H11.4806V0Z" transform="translate(69.0112 73.3901)" fill="#000003"/>
<path fill-rule="evenodd" clip-rule="evenodd" d="M9.45343 0H1.18204C0.529829 0 0 0.527197 0 1.18098V7.08373C0 7.73608 0.529109 8.26471 1.18204 8.26471H9.45343C10.1049 8.26471 10.6348 7.7368 10.6348 7.08373V1.18098C10.634 0.527197 10.1049 0 9.45343 0ZM8.27139 5.90275H2.36336V2.36125H8.27139V5.90275Z" transform="translate(33.7188 42.2249)" fill="#000003"/>
</svg>
