<svg width="120" height="121" viewBox="0 0 120 121" fill="none" xmlns="http://www.w3.org/2000/svg">
<path fill-rule="evenodd" clip-rule="evenodd" d="M59.9996 0C93.1363 0 120 26.8382 120 59.946C120 93.0538 93.137 119.892 59.9996 119.892C56.7264 119.892 53.5157 119.627 50.3849 119.122L67.6743 110.406L50.3842 119.122C31.2585 116.043 15.157 103.937 6.60416 87.3128L14.075 73.118L6.60416 87.3128C2.38351 79.1085 0 69.806 0 59.946C0 26.8382 26.8622 0 59.9996 0ZM12.4344 76.3424L14.075 73.1188L12.4344 76.3424ZM14.075 73.118L21.8634 57.8163C22.9569 55.6694 24.6961 54.054 26.7276 53.0866C24.6961 54.054 22.9569 55.6694 21.8634 57.8163L14.075 73.118Z" transform="translate(0 0.5)" fill="#F2F6F4"/>
<path fill-rule="evenodd" clip-rule="evenodd" d="M56.3542 77.1019C55.4853 77.5917 54.6034 78.0592 53.7093 78.5058V75.818C53.7093 70.3475 52.3157 66.1918 49.57 63.4688C48.1526 62.0627 46.5782 61.2442 45.2213 60.7666C45.168 60.7515 45.1162 60.7335 45.0651 60.712C43.2798 60.1107 41.9084 60.0992 41.8508 60.0992C41.8494 60.0992 41.8494 60.0992 41.8479 60.0992H40.0482C39.5234 66.1861 34.4015 70.9798 28.176 70.9798C21.9512 70.9798 16.8286 66.1861 16.3052 60.0992H14.5135C14.0247 60.0999 2.64411 60.2811 2.64411 75.8173V78.526H28.2264L28.2278 78.5252H53.6683V78.526H28.2271L28.2286 78.5252H0.196526L0 78.4267V75.8173C0 72.014 0.625573 68.7451 1.86016 66.0372C1.82777 65.9214 1.80905 65.8006 1.80905 65.674V23.7038C1.80905 15.3844 4.32862 9.09615 9.29866 5.01522C13.2321 1.78514 18.665 0.0553822 25.0229 0.0028781C25.0395 0.00215886 25.0553 0 25.0726 0C25.1208 0 25.1676 0.000721582 25.2159 0.000721582C25.2504 0.000721582 25.285 0 25.3195 0C25.3311 0 25.3419 0.00144003 25.3534 0.00215926C32.0173 0.038121 36.7541 1.35072 40.2426 4.12768C44.7289 7.70156 46.9115 13.5324 46.9115 21.9539V26.2477C47.7552 26.3103 48.7926 26.5333 49.6154 27.1741C50.3677 27.7596 50.819 28.596 50.9205 29.5922C50.9825 30.1978 51.0386 31.2234 50.8953 32.3555C51.7261 33.6515 52.1652 35.1526 52.1652 36.6975C52.1652 40.1534 49.9775 43.108 46.9123 44.2516V58.5888C48.3758 59.2001 49.9717 60.1402 51.4367 61.593C54.7013 64.8317 56.3563 69.6168 56.3563 75.818V77.1019H56.3542ZM41.84 57.4574C41.9271 57.4596 42.8817 57.4632 44.2638 57.7602V45.2046C44.1019 45.4815 43.9334 45.7598 43.7534 46.0403C42.1193 48.5727 39.4385 51.495 35.1963 53.247C35.2063 53.3139 35.2128 53.3823 35.2128 53.452V57.4574H41.84ZM44.2638 37.8331V23.2758H28.0004C27.6383 23.2758 27.2927 23.1284 27.0429 22.8673L25.2663 21.0074V21.9539C25.2663 22.6846 24.6745 23.2758 23.9438 23.2758H12.0896V37.8331C12.1846 38.374 12.8081 41.5163 14.8777 44.6896C17.8422 49.2352 22.2752 51.7352 28.0543 52.12H28.3005C34.0495 51.7374 38.4674 49.2596 41.4311 44.7586H33.8904C33.7651 44.7586 33.6428 44.7399 33.5276 44.7069C33.172 45.1672 32.6162 45.4649 31.9892 45.4649H30.5286C29.4545 45.4649 28.5842 44.5947 28.5842 43.5208C28.5842 42.4477 29.4545 41.5782 30.5286 41.5782H31.9892C32.5543 41.5782 33.0618 41.8199 33.4174 42.2046C33.5636 42.1485 33.7241 42.1162 33.8897 42.1162H42.8809C43.8492 39.9793 44.1933 38.2294 44.2638 37.8331ZM23.7855 58.7787C23.7855 59.5087 23.193 60.0999 22.4631 60.0999H18.9623C19.4756 64.7275 23.4119 68.338 28.1767 68.338C32.943 68.338 36.8786 64.7267 37.3919 60.0999H33.8911C33.1612 60.0999 32.5694 59.5087 32.5694 58.7787V54.1152C31.3039 54.4388 29.9289 54.6646 28.4301 54.761C28.4006 54.7632 28.3725 54.7639 28.3445 54.7639H28.0112C27.9831 54.7639 27.955 54.7632 27.9255 54.761C26.4267 54.6639 25.051 54.4388 23.7862 54.1152V58.7787H23.7855ZM49.5182 36.6975C49.5182 36.4709 49.5017 36.2458 49.4729 36.0228C49.4138 36.0969 49.3519 36.1696 49.2871 36.2408C48.6457 36.9506 47.8373 37.4289 46.9094 37.6584V37.9417V41.3279C48.4722 40.3756 49.5182 38.6567 49.5182 36.6975ZM47.9914 29.2613C47.73 29.057 47.319 28.9513 46.9101 28.9039V34.8231C47.0591 34.726 47.1981 34.6095 47.3262 34.4693C48.2736 33.4199 48.4442 31.3996 48.2865 29.8612C48.2512 29.5094 48.1159 29.3598 47.9914 29.2613ZM4.45388 23.7038L4.45316 62.0828C4.60577 61.9174 4.75839 61.7513 4.9182 61.593C9.07909 57.4661 14.296 57.4574 14.5228 57.4567H21.1392V53.4513C21.1392 53.3808 21.1464 53.3132 21.1565 53.2463C16.9135 51.4943 14.2327 48.5735 12.6 46.0396C10.0545 42.0917 9.48079 38.2913 9.45703 38.1316C9.44839 38.0683 9.44335 38.005 9.44335 37.941V21.9546C9.44335 21.2239 10.0351 20.6334 10.7658 20.6334H22.62V17.7097C22.62 17.1695 22.949 16.6833 23.4507 16.4827C23.9525 16.2827 24.5262 16.4064 24.8991 16.7977L28.564 20.6341H44.2394C43.7484 4.90302 34.4073 2.66764 25.2144 2.64391C17.4131 2.66692 4.45388 5.45827 4.45388 23.7038Z" transform="translate(33.0674 35.595)" fill="#000003"/>
<path fill-rule="evenodd" clip-rule="evenodd" d="M6.64303 12.2529H0.0165536V8.24745C0.0165536 8.17697 0.00935841 8.10936 0 8.04247C4.24224 6.29042 6.92306 3.36889 8.55718 0.835746C8.73715 0.555245 8.90561 0.276905 9.06758 0V12.5557C7.68469 12.2579 6.73013 12.255 6.64303 12.2529Z" transform="translate(68.2646 80.7993)" fill="#EE292A"/>
<path fill-rule="evenodd" clip-rule="evenodd" d="M0.684335 14.1538L4.34923 17.9902H20.0246C19.5336 2.25911 10.1925 0.0237347 0.999638 0C-1.04409 0.0064731 0.677856 14.1473 0.684335 14.1538Z" transform="translate(57.2837 38.238)" fill="#EE292A"/>
<path fill-rule="evenodd" clip-rule="evenodd" d="M21.641 1.23978C21.3487 1.23403 21.0557 1.23115 20.7634 1.22971C12.96 1.25273 0.000722228 4.04407 0.000722228 22.2896H0V60.6686C0.152614 60.5032 0.305228 60.3371 0.465041 60.1788C4.62593 56.0519 9.84289 56.0432 10.0696 56.0425H16.686V52.0371C16.686 51.9666 16.6932 51.899 16.7033 51.8321C12.4604 50.0801 9.77954 47.1593 8.14686 44.6254C5.60137 40.6775 5.02763 36.8771 5.00387 36.7174C4.99523 36.6541 4.99019 36.5908 4.99019 36.5268V20.5411C4.99019 19.8104 5.58193 19.2199 6.31261 19.2199H18.1668V16.2962C18.1668 15.7561 18.4958 15.2699 18.9976 15.0692C19.4993 14.8693 20.0731 14.993 20.446 15.3842L21.6395 16.6328C21.641 142.536 21.641 -15.3659 21.641 1.23978Z" transform="translate(37.521 37.0085)" fill="#EE292A"/>
<path fill-rule="evenodd" clip-rule="evenodd" d="M5.36237 0H1.31593C0.588857 0 0 0.589055 0 1.31476C0 2.04191 0.588857 2.63024 1.31593 2.63024H5.36237C6.08944 2.63024 6.6783 2.04191 6.6783 1.31476C6.6783 0.589055 6.08944 0 5.36237 0Z" transform="translate(70.9766 106.235)" fill="#000003"/>
</svg>
