<svg width="120" height="121" viewBox="0 0 120 121" fill="none" xmlns="http://www.w3.org/2000/svg">
<path fill-rule="evenodd" clip-rule="evenodd" d="M60 0C93.1369 0 120 26.8382 120 59.946C120 93.0538 93.1369 119.892 60 119.892C56.7267 119.892 53.516 119.626 50.3853 119.122L67.6739 110.406L50.3853 119.122C31.2602 116.044 15.1578 103.937 6.60564 87.3128L14.0766 73.1188L6.60492 87.3121C2.38353 79.1078 0 69.8052 0 59.946C0 26.8382 26.8631 0 60 0ZM12.4352 76.3424L14.0759 73.1188L12.4352 76.3424ZM14.0759 73.118L21.8643 57.8163C22.957 55.6694 24.697 54.054 26.7285 53.0859C24.697 54.054 22.957 55.6694 21.8643 57.8163L14.0759 73.118Z" transform="translate(0 0.5)" fill="#F2F6F4"/>
<path fill-rule="evenodd" clip-rule="evenodd" d="M31.7864 2.54681H37.0178H31.7864ZM61.1597 33.8845C62.1215 31.8304 64.0846 30.3071 66.4883 30.0036V78.4173C67.499 77.8355 68.4888 77.2227 69.4621 76.5847V28.363C69.4621 27.5416 68.797 26.877 67.9763 26.877C66.1017 26.877 63.3604 27.4661 61.1597 29.1908V28.007H58.6106H61.1597V17.8226V6.36522C61.1597 2.85608 58.3011 0 54.7888 0L14.0168 0.000718839C10.5038 0.000718839 7.64586 2.85608 7.64586 6.36522V19.0957H6.37095C2.85865 19.0957 0 21.9517 0 25.4609C0 27.5495 1.02727 29.3922 2.58798 30.553C1.02727 31.7139 0 33.5559 0 35.6452C0 37.7339 1.02727 39.5758 2.58798 40.7367C1.02727 41.8975 0 43.7402 0 45.8289C0 47.9175 1.02727 49.7595 2.58798 50.9203C1.02727 52.0812 0 53.9238 0 56.0125C0 59.5224 2.85865 62.3777 6.37095 62.3777H7.64586V75.1074C7.64586 77.3025 8.76384 79.2409 10.4599 80.3859C11.0639 80.6786 11.6736 80.962 12.2877 81.2346C12.8377 81.3892 13.4172 81.4726 14.0161 81.4726H35.1763L40.2263 78.9266H14.0168C11.909 78.9266 10.1942 77.2133 10.1942 75.1074V62.3777H11.4684C14.9815 62.3777 17.8394 59.5224 17.8394 56.0125C17.8394 53.9238 16.8121 52.0812 15.2514 50.9203C16.8121 49.7595 17.8394 47.9175 17.8394 45.8289C17.8394 43.7402 16.8121 41.8975 15.2514 40.7367C16.8121 39.5758 17.8394 37.7339 17.8394 35.6452C17.8394 33.5559 16.8121 31.7139 15.2514 30.553C16.8121 29.3922 17.8394 27.5495 17.8394 25.4609C17.8394 21.9517 14.9815 19.0957 11.4684 19.0957H10.1942V6.36594C10.1942 4.26074 11.909 2.54681 14.0168 2.54681H31.7871H37.0171H54.7895C56.8973 2.54681 58.6113 4.26074 58.6113 6.36594V17.8233V38.1575V75.1074C58.6113 77.2133 56.8973 78.9266 54.7895 78.9266H40.2263L35.1763 81.4726H54.7888C58.3011 81.4726 61.1597 78.6173 61.1597 75.1074V59.8316V57.2855V33.8845ZM44.4865 70.4418V67.8957H52.131V70.4418H44.4865ZM30.4719 70.4418V67.8957H41.9389V70.4418H30.4719ZM25.3751 70.4418V67.8957H27.9235V70.4418H25.3751ZM20.2784 70.4418V67.8957H22.8267V70.4418H20.2784ZM15.1823 70.4418V67.8957H17.7307V70.4418H15.1823ZM6.37167 29.28C4.26458 29.28 2.5491 27.5661 2.5491 25.4602C2.5491 23.355 4.26458 21.641 6.37167 21.641H11.4684C13.5763 21.641 15.291 23.355 15.291 25.4602C15.291 27.5661 13.5763 29.28 11.4684 29.28H6.37167ZM6.37167 39.4636C4.26458 39.4636 2.5491 37.7497 2.5491 35.6445C2.5491 33.5386 4.26458 31.8247 6.37167 31.8247H11.4684C13.5763 31.8247 15.291 33.5386 15.291 35.6445C15.291 37.7497 13.5763 39.4636 11.4684 39.4636H6.37167ZM6.37167 49.6473C4.26458 49.6473 2.5491 47.9341 2.5491 45.8281C2.5491 43.7222 4.26458 42.0083 6.37167 42.0083H11.4684C13.5763 42.0083 15.291 43.7222 15.291 45.8281C15.291 47.9341 13.5763 49.6473 11.4684 49.6473H6.37167ZM6.37167 59.8316C4.26458 59.8316 2.5491 58.1184 2.5491 56.0125C2.5491 53.9066 4.26458 52.1934 6.37167 52.1934H11.4684C13.5763 52.1934 15.291 53.9066 15.291 56.0125C15.291 58.1184 13.5763 59.8316 11.4684 59.8316H6.37167Z" transform="translate(23.7705 33.7935)" fill="#000003"/>
<path fill-rule="evenodd" clip-rule="evenodd" d="M31.7864 2.54681H37.0178H31.7864ZM61.1597 33.8845C62.1215 31.8304 64.0846 30.3071 66.4883 30.0036V78.4173C67.499 77.8355 68.4888 77.2227 69.4621 76.5847V28.363C69.4621 27.5416 68.797 26.877 67.9763 26.877C66.1017 26.877 63.3604 27.4661 61.1597 29.1908V28.007H58.6106H61.1597V17.8226V6.36522C61.1597 2.85608 58.3011 0 54.7888 0L14.0168 0.000718839C10.5038 0.000718839 7.64586 2.85608 7.64586 6.36522V19.0957H6.37095C2.85865 19.0957 0 21.9517 0 25.4609C0 27.5495 1.02727 29.3922 2.58798 30.553C1.02727 31.7139 0 33.5559 0 35.6452C0 37.7339 1.02727 39.5758 2.58798 40.7367C1.02727 41.8975 0 43.7402 0 45.8289C0 47.9175 1.02727 49.7595 2.58798 50.9203C1.02727 52.0812 0 53.9238 0 56.0125C0 59.5224 2.85865 62.3777 6.37095 62.3777H7.64586V75.1074C7.64586 77.3025 8.76384 79.2409 10.4599 80.3859C11.0639 80.6786 11.6736 80.962 12.2877 81.2346C12.8377 81.3892 13.4172 81.4726 14.0161 81.4726H35.1763L40.2263 78.9266H14.0168C11.909 78.9266 10.1942 77.2133 10.1942 75.1074V62.3777H11.4684C14.9815 62.3777 17.8394 59.5224 17.8394 56.0125C17.8394 53.9238 16.8121 52.0812 15.2514 50.9203C16.8121 49.7595 17.8394 47.9175 17.8394 45.8289C17.8394 43.7402 16.8121 41.8975 15.2514 40.7367C16.8121 39.5758 17.8394 37.7339 17.8394 35.6452C17.8394 33.5559 16.8121 31.7139 15.2514 30.553C16.8121 29.3922 17.8394 27.5495 17.8394 25.4609C17.8394 21.9517 14.9815 19.0957 11.4684 19.0957H10.1942V6.36594C10.1942 4.26074 11.909 2.54681 14.0168 2.54681H31.7871H37.0171H54.7895C56.8973 2.54681 58.6113 4.26074 58.6113 6.36594V17.8233V38.1575V75.1074C58.6113 77.2133 56.8973 78.9266 54.7895 78.9266H40.2263L35.1763 81.4726H54.7888C58.3011 81.4726 61.1597 78.6173 61.1597 75.1074V59.8316V57.2855V33.8845ZM44.4865 70.4418V67.8957H52.131V70.4418H44.4865ZM30.4719 70.4418V67.8957H41.9389V70.4418H30.4719ZM25.3751 70.4418V67.8957H27.9235V70.4418H25.3751ZM20.2784 70.4418V67.8957H22.8267V70.4418H20.2784ZM15.1823 70.4418V67.8957H17.7307V70.4418H15.1823ZM6.37167 29.28C4.26458 29.28 2.5491 27.5661 2.5491 25.4602C2.5491 23.355 4.26458 21.641 6.37167 21.641H11.4684C13.5763 21.641 15.291 23.355 15.291 25.4602C15.291 27.5661 13.5763 29.28 11.4684 29.28H6.37167ZM6.37167 39.4636C4.26458 39.4636 2.5491 37.7497 2.5491 35.6445C2.5491 33.5386 4.26458 31.8247 6.37167 31.8247H11.4684C13.5763 31.8247 15.291 33.5386 15.291 35.6445C15.291 37.7497 13.5763 39.4636 11.4684 39.4636H6.37167ZM6.37167 49.6473C4.26458 49.6473 2.5491 47.9341 2.5491 45.8281C2.5491 43.7222 4.26458 42.0083 6.37167 42.0083H11.4684C13.5763 42.0083 15.291 43.7222 15.291 45.8281C15.291 47.9341 13.5763 49.6473 11.4684 49.6473H6.37167ZM6.37167 59.8316C4.26458 59.8316 2.5491 58.1184 2.5491 56.0125C2.5491 53.9066 4.26458 52.1934 6.37167 52.1934H11.4684C13.5763 52.1934 15.291 53.9066 15.291 56.0125C15.291 58.1184 13.5763 59.8316 11.4684 59.8316H6.37167Z" transform="translate(23.7705 33.7935)" fill="#000003"/>
<path fill-rule="evenodd" clip-rule="evenodd" d="M4.9787 0H49.9936C52.7328 0 54.9723 2.23826 54.9723 4.97422V27.1504C54.9723 29.887 52.7328 32.1246 49.9936 32.1246H15.6625L6.01606 38.2388V32.1246H4.9787C2.24027 32.1246 0 29.887 0 27.1504V4.97422C0 2.23826 2.24027 0 4.9787 0Z" transform="translate(48.5513 48.541)" fill="#EE292A" stroke="black" stroke-width="3.3599" stroke-miterlimit="22.9256" stroke-linecap="round" stroke-linejoin="round"/>
<path d="M0 0H26.3657" transform="translate(58.3408 59.0879)" stroke="black" stroke-width="3.8401" stroke-miterlimit="22.9256"/>
<path d="M0 0H15.7107" transform="translate(58.3408 66.3699)" stroke="black" stroke-width="3.8401" stroke-miterlimit="22.9256"/>
</svg>
