<svg width="20" height="21" viewBox="0 0 20 21" fill="none" xmlns="http://www.w3.org/2000/svg">
<path d="M11.6969 2.00716C10.4021 0.712313 8.68329 0 6.85204 0C5.0208 0 3.30202 0.712313 2.00716 2.00716C0.712313 3.30202 0 5.0208 0 6.85204C0 8.68329 0.712313 10.4021 2.00716 11.6969C3.30202 12.9918 5.0208 13.7041 6.85204 13.7041C8.68329 13.7041 10.4021 12.9918 11.6969 11.6969C12.9918 10.4021 13.7041 8.68329 13.7041 6.85204C13.7041 5.0208 12.9918 3.30202 11.6969 2.00716ZM11.1461 11.1461C9.99833 12.2939 8.47277 12.9254 6.85204 12.9254C5.23132 12.9254 3.70576 12.2939 2.55798 11.1461C0.190335 8.77846 0.190335 4.92563 2.55798 2.55798C3.70576 1.41021 5.23132 0.778641 6.85204 0.778641C8.47277 0.778641 9.99833 1.41021 11.1461 2.55798C13.5138 4.92563 13.5138 8.77846 11.1461 11.1461Z" transform="translate(19.3892 10.3717) scale(-1.00045 0.99955) rotate(-45)" fill="#888888"/>
<path d="M6.15343 0.114633C6.00059 -0.0382111 5.75546 -0.0382111 5.60261 0.114633L3.13403 2.58322L0.66545 0.114633C0.512606 -0.0382111 0.267478 -0.0382111 0.114633 0.114633C-0.0382111 0.267478 -0.0382111 0.512606 0.114633 0.66545L2.58322 3.13403L0.114633 5.60261C-0.0382111 5.75546 -0.0382111 6.00059 0.114633 6.15343C0.189614 6.22841 0.290549 6.26878 0.3886 6.26878C0.486651 6.26878 0.587586 6.23129 0.662566 6.15343L3.13115 3.68485L5.59973 6.15343C5.67471 6.22841 5.77565 6.26878 5.8737 6.26878C5.97463 6.26878 6.07268 6.23129 6.14766 6.15343C6.30051 6.00059 6.30051 5.75546 6.14766 5.60261L3.68485 3.13403L6.15343 0.66545C6.30627 0.512606 6.30627 0.267478 6.15343 0.114633Z" transform="translate(14.1284 10.3717) scale(-1.00045 0.99955) rotate(-45)" fill="#888888"/>
</svg>
