<svg width="102" height="31" viewBox="0 0 102 31" fill="none" xmlns="http://www.w3.org/2000/svg">
<path d="M98.3711 29.973H3.57302C1.60329 29.973 0 28.3784 0 26.4264V3.54131C0 1.58857 1.60329 0 3.57302 0H98.3711C100.34 0 102 1.58857 102 3.54131V26.4264C102 28.3784 100.34 29.973 98.3711 29.973Z" transform="translate(0 0.692078)" fill="#A6A6A6"/>
<path d="M100.596 25.7603C100.596 27.3459 99.3012 28.6302 97.6994 28.6302H2.90058C1.29956 28.6302 0 27.3459 0 25.7603V2.87366C0 1.28884 1.29956 0 2.90058 0H97.6986C99.3012 0 100.595 1.28884 100.595 2.87366L100.596 25.7603Z" transform="translate(0.672363 1.35959)" fill="black"/>
<path d="M13.0984 5.55482C13.0765 3.13975 15.0923 1.96481 15.1845 1.91011C14.0428 0.259344 12.2733 0.0337971 11.6515 0.0158133C10.1653 -0.139297 8.72372 0.897769 7.96665 0.897769C7.19447 0.897769 6.02865 0.0307998 4.77216 0.0562768C3.15527 0.0810045 1.64265 1.00942 0.81305 2.45112C-0.899039 5.39072 0.37785 9.71058 2.01816 12.0867C2.83869 13.2504 3.79749 14.5497 5.05247 14.504C6.28025 14.4538 6.73887 13.7277 8.22052 13.7277C9.68856 13.7277 10.1192 14.504 11.3991 14.4748C12.7168 14.4538 13.5464 13.3058 14.3382 12.1316C15.2865 10.7978 15.6673 9.48428 15.6824 9.41684C15.6514 9.40635 13.1233 8.44946 13.0984 5.55482Z" transform="translate(9.66504 9.96194)" fill="white"/>
<path d="M2.88743 3.06399C3.54778 2.24498 3.9996 1.13073 3.87418 0C2.9184 0.0419622 1.72312 0.655659 1.0348 1.45669C0.425827 2.16255 -0.118173 3.31951 0.0223601 4.40753C1.096 4.48696 2.19836 3.87026 2.88743 3.06399Z" transform="translate(17.458 5.35065)" fill="white"/>
<path d="M8.48867 9.97202H6.7728L5.83289 7.0429H2.56587L1.67053 9.97202H0L3.2368 0H5.236L8.48867 9.97202ZM5.54956 5.81401L4.69956 3.21011C4.60964 2.9441 4.44115 2.31766 4.19258 1.33155H4.16235C4.06338 1.75567 3.90395 2.3821 3.68484 3.21011L2.84995 5.81401H5.54956Z" transform="translate(32.043 14.3269)" fill="white"/>
<path d="M6.98209 3.65446C6.98209 4.87735 6.64889 5.84398 5.98249 6.55359C5.3856 7.18528 4.6444 7.50074 3.75964 7.50074C2.80462 7.50074 2.11858 7.16055 1.70076 6.48016H1.67053V10.268H0.0596878V2.51473C0.0596878 1.74593 0.0392889 0.956888 0 0.147617H1.41667L1.50658 1.28734H1.5368C2.074 0.428614 2.88924 0 3.98329 0C4.83858 0 5.55258 0.334947 6.12378 1.00559C6.69649 1.67699 6.98209 2.55969 6.98209 3.65446ZM5.34102 3.7129C5.34102 3.01303 5.18236 2.43606 4.86351 1.98196C4.5152 1.50839 4.04751 1.2716 3.4612 1.2716C3.06378 1.2716 2.70262 1.40348 2.38 1.6635C2.05662 1.92576 1.84506 2.26821 1.74609 2.69232C1.69622 2.89015 1.67129 3.052 1.67129 3.17938V4.3783C1.67129 4.90133 1.83298 5.34269 2.15636 5.70311C2.47973 6.06354 2.89982 6.24337 3.41662 6.24337C4.02333 6.24337 4.49555 6.01108 4.83329 5.548C5.17178 5.08417 5.34102 4.47272 5.34102 3.7129Z" transform="translate(41.8735 16.9607)" fill="white"/>
<path d="M6.98133 3.65446C6.98133 4.87735 6.64813 5.84398 5.98098 6.55359C5.38484 7.18528 4.64364 7.50074 3.75889 7.50074C2.80387 7.50074 2.11782 7.16055 1.70076 6.48016H1.67053V10.268H0.0596907V2.51473C0.0596907 1.74593 0.0392889 0.956888 0 0.147617H1.41667L1.50658 1.28734H1.5368C2.07324 0.428614 2.88849 0 3.98329 0C4.83782 0 5.55182 0.334947 6.12454 1.00559C6.69498 1.67699 6.98133 2.55969 6.98133 3.65446ZM5.34027 3.7129C5.34027 3.01303 5.18084 2.43606 4.862 1.98196C4.51369 1.50839 4.04751 1.2716 3.46045 1.2716C3.06227 1.2716 2.70187 1.40348 2.37849 1.6635C2.05511 1.92576 1.84431 2.26821 1.74533 2.69232C1.69622 2.89015 1.67053 3.052 1.67053 3.17938V4.3783C1.67053 4.90133 1.83222 5.34269 2.15409 5.70311C2.47747 6.06279 2.89756 6.24337 3.41587 6.24337C4.02258 6.24337 4.4948 6.01108 4.83254 5.548C5.17103 5.08417 5.34027 4.47272 5.34027 3.7129Z" transform="translate(50.2134 16.9607)" fill="white"/>
<path d="M6.23787 7.32165C6.23787 8.16989 5.94094 8.86002 5.3448 9.39279C4.68974 9.97501 3.77778 10.2657 2.60592 10.2657C1.52396 10.2657 0.656578 10.0589 0 9.64456L0.373247 8.31301C1.08045 8.73713 1.8564 8.94993 2.70187 8.94993C3.30858 8.94993 3.7808 8.81356 4.12005 8.5423C4.45778 8.27105 4.62627 7.90688 4.62627 7.45279C4.62627 7.04815 4.48724 6.70721 4.20844 6.43071C3.93116 6.1542 3.468 5.89719 2.82125 5.65965C1.0608 5.00849 0.181337 4.0546 0.181337 2.80023C0.181337 1.98047 0.489603 1.30832 1.10689 0.785293C1.72191 0.261515 2.54244 0 3.56849 0C4.48347 0 5.24356 0.158108 5.85027 0.473573L5.44756 1.7759C4.88089 1.47018 4.24018 1.31731 3.52316 1.31731C2.95649 1.31731 2.51374 1.45594 2.1964 1.73169C1.92818 1.97822 1.79369 2.2787 1.79369 2.63463C1.79369 3.02877 1.94707 3.35473 2.25533 3.611C2.52356 3.84778 3.01089 4.10405 3.71809 4.38055C4.5832 4.72599 5.21863 5.12988 5.62738 5.59296C6.03463 6.05454 6.23787 6.63227 6.23787 7.32165Z" transform="translate(60.2803 14.1807)" fill="white"/>
<path d="M4.41546 2.99055H2.63991V6.48166C2.63991 7.36961 2.95271 7.81321 3.57982 7.81321C3.86769 7.81321 4.10644 7.78848 4.29533 7.73903L4.33991 8.95218C4.02257 9.06983 3.60475 9.12902 3.0872 9.12902C2.45102 9.12902 1.95387 8.93645 1.59498 8.55204C1.2376 8.16689 1.05777 7.52097 1.05777 6.61354V2.98906H0V1.79014H1.05777V0.473573L2.63991 0V1.79014H4.41546V2.99055Z" transform="translate(67.4287 15.3167)" fill="white"/>
<path d="M7.10147 3.68293C7.10147 4.78819 6.78262 5.69562 6.14645 6.40523C5.47929 7.13582 4.59378 7.49999 3.48991 7.49999C2.42609 7.49999 1.57911 7.15006 0.947465 6.45019C0.315821 5.75032 0 4.86686 0 3.80207C0 2.68783 0.324888 1.77515 0.976933 1.06554C1.62747 0.355181 2.50542 0 3.60929 0C4.67311 0 5.52915 0.349935 6.17515 1.05055C6.7932 1.73019 7.10147 2.60765 7.10147 3.68293ZM5.43017 3.73463C5.43017 3.07148 5.28738 2.50275 4.998 2.02842C4.66026 1.45444 4.17746 1.1682 3.55186 1.1682C2.90435 1.1682 2.41249 1.45519 2.07476 2.02842C1.78538 2.50349 1.64258 3.08122 1.64258 3.76461C1.64258 4.42776 1.78538 4.9965 2.07476 5.47007C2.42307 6.04405 2.90964 6.3303 3.53751 6.3303C4.15253 6.3303 4.63533 6.03806 4.98364 5.45508C5.28058 4.97177 5.43017 4.39704 5.43017 3.73463Z" transform="translate(72.7539 16.9615)" fill="white"/>
<path d="M3.87902 1.5526C3.7196 1.52338 3.5496 1.50839 3.37129 1.50839C2.80462 1.50839 2.3664 1.72045 2.05813 2.14532C1.78991 2.51998 1.65542 2.99355 1.65542 3.56529V7.33814H0.0453315L0.0604458 2.41208C0.0604458 1.58332 0.0400444 0.828753 0 0.148366H1.40307L1.462 1.52413H1.50658C1.67658 1.0513 1.9448 0.670646 2.312 0.385153C2.67089 0.128135 3.05849 0 3.47631 0C3.62515 0 3.75965 0.0104902 3.87902 0.0292233V1.5526Z" transform="translate(81.2124 16.9607)" fill="white"/>
<path d="M6.44338 3.41617C6.44338 3.70241 6.42449 3.9437 6.38445 4.14077H1.55191C1.5708 4.85113 1.80427 5.39439 2.25307 5.76905C2.66031 6.104 3.18694 6.27185 3.83369 6.27185C4.5492 6.27185 5.202 6.1587 5.78907 5.93165L6.04142 7.04066C5.35538 7.33739 4.54542 7.485 3.6108 7.485C2.48653 7.485 1.60405 7.1568 0.961824 6.50114C0.321113 5.84548 0 4.96502 0 3.86052C0 2.77625 0.298448 1.87331 0.896092 1.15321C1.52169 0.384403 2.36716 0 3.43098 0C4.47591 0 5.26698 0.384403 5.80418 1.15321C6.22955 1.76391 6.44338 2.51923 6.44338 3.41617ZM4.90734 3.00179C4.91791 2.52822 4.81289 2.11909 4.59453 1.77365C4.31573 1.3293 3.88734 1.1075 3.31085 1.1075C2.78422 1.1075 2.35583 1.32406 2.02867 1.75867C1.76045 2.1041 1.60102 2.51848 1.55191 3.00104H4.90734V3.00179Z" transform="translate(85.8521 16.9472)" fill="white"/>
<path d="M4.06036 2.37011C4.06036 3.25207 3.79365 3.91597 3.26098 4.36182C2.7676 4.7732 2.06645 4.97926 1.15827 4.97926C0.707956 4.97926 0.322622 4.95978 0 4.92082V0.101908C0.420844 0.0344687 0.874178 0 1.36378 0C2.22889 0 2.88093 0.186582 3.32067 0.559745C3.81329 0.981615 4.06036 1.58482 4.06036 2.37011ZM3.22547 2.39184C3.22547 1.82011 3.07285 1.38175 2.7676 1.07603C2.46236 0.771055 2.01658 0.618193 1.42951 0.618193C1.18018 0.618193 0.967867 0.634678 0.791822 0.669147V4.3326C0.889289 4.34758 1.0676 4.35433 1.32676 4.35433C1.93271 4.35433 2.4004 4.18723 2.72982 3.85303C3.05925 3.51883 3.22547 3.03177 3.22547 2.39184Z" transform="translate(32.9995 5.8222)" fill="white"/>
<path d="M3.4884 1.80887C3.4884 2.35213 3.332 2.79723 3.0192 3.14641C2.69129 3.50534 2.25685 3.68443 1.71436 3.68443C1.19151 3.68443 0.775201 3.51283 0.464668 3.16814C0.15489 2.8242 0 2.39035 0 1.86732C0 1.32031 0.159421 0.871465 0.479777 0.523029C0.800132 0.174593 1.2308 0 1.77329 0C2.29613 0 2.71622 0.171595 3.03431 0.515535C3.33653 0.849734 3.4884 1.28135 3.4884 1.80887ZM2.66711 1.83435C2.66711 1.50839 2.59609 1.22889 2.4548 0.995852C2.28858 0.714106 2.05209 0.573233 1.74458 0.573233C1.42649 0.573233 1.18471 0.714106 1.01849 0.995852C0.876444 1.22889 0.806179 1.51289 0.806179 1.84858C0.806179 2.17454 0.8772 2.45404 1.01849 2.68708C1.19 2.96882 1.42876 3.1097 1.73702 3.1097C2.03924 3.1097 2.27649 2.96658 2.44724 2.67959C2.59382 2.44205 2.66711 2.1603 2.66711 1.83435Z" transform="translate(37.998 7.1535)" fill="white"/>
<path d="M5.16044 0L4.046 3.53232H3.32067L2.85902 1.99845C2.74191 1.61554 2.64671 1.23489 2.57267 0.857228H2.55831C2.48955 1.24538 2.39436 1.62529 2.27196 1.99845L1.7816 3.53232H1.04795L0 0H0.813733L1.21644 1.67924C1.31391 2.07638 1.394 2.45479 1.45822 2.81297H1.47258C1.53151 2.51773 1.62898 2.14157 1.76649 1.68673L2.27196 0.000749628H2.9172L3.40151 1.65076C3.51862 2.05315 3.61382 2.44055 3.68711 2.81371H3.70902C3.76267 2.45029 3.84351 2.06289 3.9508 1.65076L4.38298 0.000749628H5.16044V0Z" transform="translate(42.2617 7.22546)" fill="white"/>
<path d="M3.12195 3.6065H2.33013V1.58332C2.33013 0.959885 2.09137 0.648166 1.61235 0.648166C1.37737 0.648166 1.18773 0.733589 1.0404 0.905184C0.894577 1.07678 0.820532 1.2791 0.820532 1.51064V3.60575H0.0287069V1.08352C0.0287069 0.773303 0.0188889 0.436856 0 0.0726846H0.695865L0.73289 0.624937H0.7548C0.846978 0.453342 0.984489 0.311719 1.16507 0.198571C1.37964 0.0666902 1.61991 0 1.88284 0C2.21529 0 2.49182 0.106404 2.71169 0.319962C2.9852 0.581476 3.12195 0.971874 3.12195 1.49041V3.6065Z" transform="translate(48.4053 7.15128)" fill="white"/>
<path d="M0.791064 5.15311H0V0H0.791064V5.15311Z" transform="translate(52.9199 5.60468)" fill="white"/>
<path d="M3.4884 1.80887C3.4884 2.35213 3.332 2.79723 3.0192 3.14641C2.69129 3.50534 2.25609 3.68443 1.71436 3.68443C1.19076 3.68443 0.774443 3.51283 0.464665 3.16814C0.154887 2.8242 0 2.39035 0 1.86732C0 1.32031 0.159424 0.871465 0.479779 0.523029C0.800135 0.174593 1.2308 0 1.77253 0C2.29613 0 2.71547 0.171595 3.03431 0.515535C3.33653 0.849734 3.4884 1.28135 3.4884 1.80887ZM2.66636 1.83435C2.66636 1.50839 2.59533 1.22889 2.45405 0.995852C2.28858 0.714106 2.05133 0.573233 1.74458 0.573233C1.42573 0.573233 1.18396 0.714106 1.01849 0.995852C0.876444 1.22889 0.806179 1.51289 0.806179 1.84858C0.806179 2.17454 0.8772 2.45404 1.01849 2.68708C1.19 2.96882 1.42876 3.1097 1.73702 3.1097C2.03925 3.1097 2.27573 2.96658 2.44649 2.67959C2.59382 2.44205 2.66636 2.1603 2.66636 1.83435Z" transform="translate(54.8843 7.1535)" fill="white"/>
<path d="M2.924 3.60425H2.21302L2.15409 3.19737H2.13218C1.88889 3.52183 1.54209 3.68443 1.09178 3.68443C0.755555 3.68443 0.483558 3.57728 0.278802 3.36447C0.0929358 3.17114 0 2.93061 0 2.64512C0 2.21351 0.181333 1.88455 0.546266 1.65676C0.910444 1.42896 1.42271 1.31731 2.08231 1.32256V1.25662C2.08231 0.791287 1.836 0.558996 1.34262 0.558996C0.991289 0.558996 0.681514 0.646667 0.414048 0.820511L0.25311 0.304975C0.584044 0.101908 0.992803 0 1.47485 0C2.40569 0 2.87262 0.487061 2.87262 1.46118V2.76201C2.87262 3.11494 2.89 3.39594 2.924 3.60425ZM2.10195 2.39035V1.84559C1.22853 1.8306 0.791825 2.06814 0.791825 2.55745C0.791825 2.74178 0.841689 2.87965 0.943689 2.97182C1.04569 3.06399 1.17565 3.1097 1.33053 3.1097C1.50431 3.1097 1.66676 3.055 1.81484 2.94635C1.96369 2.83694 2.05511 2.69832 2.08911 2.52822C2.09742 2.49001 2.10195 2.44355 2.10195 2.39035Z" transform="translate(59.2808 7.1535)" fill="white"/>
<path d="M3.4 5.15311H2.69733L2.66031 4.58587H2.6384C2.414 5.01748 2.03169 5.23328 1.49449 5.23328C1.06533 5.23328 0.707953 5.06618 0.42462 4.73199C0.141286 4.39779 0 3.96393 0 3.43116C0 2.85942 0.153378 2.39634 0.461645 2.04266C0.760089 1.71296 1.12577 1.5481 1.56097 1.5481C2.03924 1.5481 2.37395 1.70771 2.56435 2.02767H2.57946V0H3.37204V4.20146C3.37204 4.5454 3.38111 4.86237 3.4 5.15311ZM2.57946 3.66345V3.07448C2.57946 2.97257 2.57191 2.89015 2.55755 2.8272C2.51297 2.63837 2.41702 2.47952 2.2712 2.35138C2.12386 2.22325 1.94631 2.1588 1.74155 2.1588C1.44613 2.1588 1.21493 2.27495 1.04493 2.50799C0.876441 2.74103 0.791065 3.03851 0.791065 3.40193C0.791065 3.75112 0.871908 4.03436 1.03435 4.25242C1.20586 4.48471 1.43706 4.60085 1.72644 4.60085C1.98635 4.60085 2.19413 4.50419 2.35204 4.31012C2.50467 4.13103 2.57946 3.91522 2.57946 3.66345Z" transform="translate(63.3042 5.60468)" fill="white"/>
<path d="M3.4884 1.80887C3.4884 2.35213 3.332 2.79723 3.0192 3.14641C2.69129 3.50534 2.2576 3.68443 1.71436 3.68443C1.19227 3.68443 0.77596 3.51283 0.464671 3.16814C0.154893 2.8242 0 2.39035 0 1.86732C0 1.32031 0.159424 0.871465 0.479779 0.523029C0.800135 0.174593 1.2308 0 1.77404 0C2.29613 0 2.71698 0.171595 3.03432 0.515535C3.33654 0.849734 3.4884 1.28135 3.4884 1.80887ZM2.66787 1.83435C2.66787 1.50839 2.59684 1.22889 2.45556 0.995852C2.28858 0.714106 2.05285 0.573233 1.74458 0.573233C1.42725 0.573233 1.18547 0.714106 1.01849 0.995852C0.876444 1.22889 0.806179 1.51289 0.806179 1.84858C0.806179 2.17454 0.8772 2.45404 1.01849 2.68708C1.19 2.96882 1.42876 3.1097 1.73702 3.1097C2.03925 3.1097 2.27725 2.96658 2.448 2.67959C2.59383 2.44205 2.66787 2.1603 2.66787 1.83435Z" transform="translate(69.9878 7.1535)" fill="white"/>
<path d="M3.1212 3.6065H2.33013V1.58332C2.33013 0.959885 2.09138 0.648166 1.6116 0.648166C1.37662 0.648166 1.18698 0.733589 1.0404 0.905184C0.893821 1.07678 0.820532 1.2791 0.820532 1.51064V3.60575H0.0279575V1.08352C0.0279575 0.773303 0.0188889 0.436856 0 0.0726846H0.69511L0.732135 0.624937H0.754045C0.846979 0.453342 0.984489 0.311719 1.16431 0.198571C1.37964 0.0666902 1.61916 0 1.88285 0C2.21454 0 2.49106 0.106404 2.71093 0.319962C2.9852 0.581476 3.1212 0.971874 3.1212 1.49041V3.6065Z" transform="translate(74.6128 7.15128)" fill="white"/>
<path d="M2.1692 1.46793H1.29729V3.18388C1.29729 3.61999 1.45217 3.83804 1.75893 3.83804C1.90097 3.83804 2.01884 3.82605 2.11178 3.80132L2.13218 4.39704C1.97578 4.45549 1.77026 4.48471 1.51715 4.48471C1.20435 4.48471 0.961062 4.39029 0.785018 4.20146C0.608218 4.01263 0.520574 3.69492 0.520574 3.24907V1.46793H0V0.879707H0.520574V0.232291L1.29653 0V0.878958H2.16844V1.46793H2.1692Z" transform="translate(80.8936 6.34644)" fill="white"/>
<path d="M3.09325 5.15311H2.30067V3.14492C2.30067 2.51174 2.06191 2.19477 1.58365 2.19477C1.21645 2.19477 0.965601 2.37836 0.828089 2.74553C0.804667 2.82271 0.791065 2.91712 0.791065 3.02802V5.15236H0V0H0.791065V2.12883H0.806179C1.05551 1.74143 1.41289 1.5481 1.87605 1.5481C2.20396 1.5481 2.4752 1.65451 2.69053 1.86807C2.95875 2.13408 3.09325 2.52972 3.09325 3.05275V5.15311Z" transform="translate(84.1611 5.60468)" fill="white"/>
<path d="M3.16653 1.67774C3.16653 1.81861 3.15596 1.937 3.13707 2.03367H0.762358C0.772935 2.38285 0.88627 2.64886 1.10614 2.8332C1.30711 2.99805 1.56627 3.08047 1.8836 3.08047C2.23494 3.08047 2.55529 3.02502 2.84391 2.91337L2.96782 3.45888C2.63009 3.60425 2.23267 3.67694 1.77253 3.67694C1.22098 3.67694 0.786533 3.51583 0.472222 3.19362C0.1564 2.87141 0 2.43905 0 1.89654C0 1.36377 0.145823 0.92017 0.439734 0.566489C0.746489 0.18883 1.16129 0 1.68489 0C2.19716 0 2.58627 0.18883 2.8492 0.566489C3.06151 0.866219 3.16653 1.23713 3.16653 1.67774ZM2.41098 1.47467C2.41702 1.24163 2.36489 1.04081 2.2576 0.871465C2.12009 0.653411 1.9108 0.54401 1.62747 0.54401C1.36907 0.54401 1.15827 0.650414 0.997333 0.863971C0.865866 1.03407 0.788046 1.23713 0.762358 1.47467H2.41098Z" transform="translate(88.4121 7.14679)" fill="white"/>
</svg>
