<svg width="13" height="18" viewBox="0 0 13 18" fill="none" xmlns="http://www.w3.org/2000/svg">
<path d="M12.8229 4.06632L8.95436 0.17793C8.71833 -0.0593102 8.33553 -0.0593102 8.0995 0.17793C7.86342 0.41522 7.86342 0.799879 8.0995 1.03717L10.9362 3.88838H0.604466C0.270656 3.88838 0 4.16042 0 4.49594C0 4.83141 0.270656 5.1035 0.604466 5.1035H10.9362L8.0996 7.95472C7.86352 8.19201 7.86352 8.57667 8.0996 8.81396C8.21759 8.9325 8.37233 8.9919 8.52703 8.9919C8.68172 8.9919 8.83642 8.9325 8.95446 8.81396L12.8229 4.92556C13.059 4.68827 13.059 4.30361 12.8229 4.06632Z" transform="translate(0 9.75781) scale(1 -1)" fill="#C4C4C4"/>
<path d="M12.8229 4.06632L8.95436 0.17793C8.71833 -0.0593102 8.33553 -0.0593102 8.0995 0.17793C7.86342 0.41522 7.86342 0.799879 8.0995 1.03717L10.9362 3.88838H0.604466C0.270656 3.88838 0 4.16042 0 4.49594C0 4.83141 0.270656 5.1035 0.604466 5.1035H10.9362L8.0996 7.95472C7.86352 8.19201 7.86352 8.57667 8.0996 8.81396C8.21759 8.9325 8.37233 8.9919 8.52703 8.9919C8.68172 8.9919 8.83642 8.9325 8.95446 8.81396L12.8229 4.92556C13.059 4.68827 13.059 4.30361 12.8229 4.06632Z" transform="translate(13 8.75873) scale(-1 1)" fill="#C4C4C4"/>
</svg>
