<svg width="15" height="15" viewBox="0 0 15 15" fill="none" xmlns="http://www.w3.org/2000/svg">
<rect width="13.7041" height="13.7041" fill="black" fill-opacity="0" transform="matrix(1 0 0.000900678 -1 0.836426 14.5381)"/>
<rect width="13.7041" height="13.7041" fill="black" fill-opacity="0" transform="matrix(1 0 0.000900678 -1 0.836426 14.5381)"/>
<rect width="13.7041" height="13.7041" fill="black" fill-opacity="0" transform="matrix(1 0 0.000900678 -1 0.836426 14.5381)"/>
<path d="M12.5352 12.5309C11.2391 13.8258 9.51972 14.5381 7.68847 14.5381C5.85722 14.5381 4.13908 13.8258 2.8454 12.5309C1.55171 11.2361 0.840948 9.51729 0.842597 7.68604C0.844247 5.8548 1.55811 4.13602 2.85413 2.84117C4.15014 1.54632 5.86956 0.834003 7.70081 0.834003C9.53206 0.834003 11.2502 1.54632 12.5439 2.84117C13.8376 4.13602 14.5483 5.8548 14.5467 7.68604C14.545 9.51729 13.8312 11.2361 12.5352 12.5309ZM11.9926 3.39198C10.8458 2.24421 9.32084 1.61264 7.70011 1.61264C6.07938 1.61264 4.55325 2.24421 3.40445 3.39198C1.03467 5.75963 1.0312 9.61246 3.39671 11.9801C4.54345 13.1279 6.06844 13.7594 7.68917 13.7594C9.3099 13.7594 10.836 13.1279 11.9848 11.9801C14.3546 9.61246 14.3581 5.75963 11.9926 3.39198Z" fill="#888888"/>
<path d="M10.7116 10.7052C10.5587 10.858 10.3135 10.858 10.1608 10.7052L7.69446 8.23661L5.22366 10.7052C5.07068 10.858 4.82555 10.858 4.67284 10.7052C4.52014 10.5523 4.52036 10.3072 4.67334 10.1544L7.14414 7.68579L4.67778 5.21721C4.52508 5.06437 4.5253 4.81924 4.67828 4.6664C4.75333 4.59142 4.8543 4.55104 4.95235 4.55104C5.0504 4.55104 5.1513 4.58853 5.22621 4.6664L7.69257 7.13498L10.1634 4.6664C10.2384 4.59142 10.3394 4.55104 10.4374 4.55104C10.5384 4.55104 10.6364 4.58853 10.7113 4.6664C10.864 4.81924 10.8638 5.06437 10.7108 5.21721L8.24578 7.68579L10.7121 10.1544C10.8648 10.3072 10.8646 10.5523 10.7116 10.7052Z" fill="#888888"/>
</svg>
