<svg width="24" height="25" viewBox="0 0 24 25" fill="none" xmlns="http://www.w3.org/2000/svg">
<ellipse cx="12" cy="11.9892" rx="12" ry="11.9892" transform="translate(0 0.510254)" fill="#FFE000"/>
<path d="M21.1 10.7903C21.1 16.473 16.489 21.0806 10.8 21.0806C5.11104 21.0806 0.5 16.473 0.5 10.7903C0.5 5.10754 5.11104 0.5 10.8 0.5C16.489 0.5 21.1 5.10754 21.1 10.7903Z" transform="translate(1.2002 1.70917)" stroke="#FFBD00"/>
<path d="M2.662 6.404V9H3.795V6.404H6.171V5.315H3.795V2.708H2.662V5.315H0.275V6.404H2.662ZM6.92931 8.076C7.55631 8.747 8.48031 9.132 9.43731 9.132C10.2403 9.132 10.9113 8.879 11.4503 8.373C11.9893 7.856 12.2533 7.218 12.2533 6.448C12.2533 5.722 12.0003 5.117 11.5053 4.622C11.0103 4.127 10.3393 3.885 9.50331 3.885C9.16231 3.885 8.88731 3.94 8.66731 4.061H8.64531L8.70031 3.698L8.82131 2.411H11.7033V1.19H7.58931L7.22631 5.15L8.01831 5.436C8.39231 5.216 8.79931 5.106 9.22831 5.106C10.1413 5.106 10.7903 5.656 10.7903 6.459C10.7903 6.855 10.6473 7.174 10.3503 7.427C10.0643 7.669 9.72331 7.79 9.32731 7.79C8.70031 7.79 8.13931 7.526 7.66631 7.009L6.92931 8.076Z" transform="translate(5 7.50397)" fill="#FAA61A"/>
</svg>
