<svg width="6" height="13" viewBox="0 0 6 13" fill="none" xmlns="http://www.w3.org/2000/svg">
<path d="M0.191577 6.38545H1.49357V11.7958C1.49357 11.9026 1.57932 11.9892 1.68515 11.9892H3.89273C3.99856 11.9892 4.08431 11.9026 4.08431 11.7958V6.41093H5.58106C5.67838 6.41093 5.76026 6.33722 5.77137 6.23964L5.9987 4.24781C6.00494 4.19301 5.98774 4.13813 5.95142 4.09702C5.91505 4.05587 5.86302 4.03231 5.80842 4.03231H4.08438V2.78374C4.08438 2.40735 4.28516 2.21649 4.68118 2.21649C4.73762 2.21649 5.80842 2.21649 5.80842 2.21649C5.91425 2.21649 6 2.1299 6 2.02312V0.194805C6 0.0879852 5.91425 0.00143097 5.80842 0.00143097H4.25493C4.24397 0.000889521 4.21964 0 4.18377 0C3.91422 0 2.9773 0.0534099 2.2372 0.740662C1.41717 1.50225 1.53116 2.41412 1.5584 2.57222V4.03228H0.191577C0.0857499 4.03228 0 4.11883 0 4.22565V6.19203C0 6.29885 0.0857499 6.38545 0.191577 6.38545Z" transform="translate(0 0.7146)" fill="#C4C4C4"/>
</svg>
