<svg width="68" height="21" viewBox="0 0 68 21" fill="none" xmlns="http://www.w3.org/2000/svg">
<path d="M5.49977 0C2.46715 0 0 2.41822 0 5.39063C0 7.51455 0.907316 9.66295 2.62387 11.6036C3.90595 13.0532 5.17654 13.8744 5.23005 13.9087C5.31196 13.9612 5.4059 13.9874 5.49984 13.9874C5.59371 13.9874 5.68765 13.9612 5.76962 13.9087C5.82307 13.8744 7.09385 13.0532 8.37594 11.6037C10.0926 9.66295 11 7.51455 11 5.39063C10.9999 2.41822 8.53253 0 5.49977 0ZM5.49977 12.9109C4.48826 12.1722 0.98607 9.32923 0.98607 5.39063C0.98607 2.95108 3.01086 0.966385 5.49977 0.966385C7.98887 0.966385 10.0139 2.95108 10.0139 5.39063C10.0139 9.32923 6.51135 12.1722 5.49977 12.9109Z" transform="translate(0 2.76321)" fill="#888888"/>
<path d="M2.1829 0C0.979233 0 0 0.959749 0 2.13951C0 3.31895 0.979233 4.27851 2.1829 4.27851C3.38656 4.27851 4.36572 3.31895 4.36572 2.13951C4.36572 0.959814 3.38649 0 2.1829 0ZM2.1829 3.31212C1.52295 3.31212 0.98607 2.78609 0.98607 2.13951C0.98607 1.49261 1.52295 0.966385 2.1829 0.966385C2.84277 0.966385 3.37966 1.49261 3.37966 2.13951C3.37966 2.78609 2.84277 3.31212 2.1829 3.31212Z" transform="translate(3.31738 6.01343)" fill="#888888"/>
<path d="M10.0488 9.98926C10.0488 11.5889 9.64323 12.8467 8.83203 13.7627C8.02539 14.6787 6.90202 15.1367 5.46191 15.1367C3.98991 15.1367 2.85286 14.6878 2.05078 13.79C1.25326 12.8877 0.854492 11.6162 0.854492 9.97559C0.854492 8.34863 1.25553 7.08854 2.05762 6.19531C2.8597 5.29753 3.99902 4.84863 5.47559 4.84863C6.91113 4.84863 8.03223 5.30436 8.83887 6.21582C9.64551 7.12728 10.0488 8.38509 10.0488 9.98926ZM2.08496 9.98926C2.08496 11.3428 2.37207 12.3704 2.94629 13.0723C3.52507 13.7695 4.36361 14.1182 5.46191 14.1182C6.56934 14.1182 7.4056 13.7695 7.9707 13.0723C8.53581 12.375 8.81836 11.3473 8.81836 9.98926C8.81836 8.64486 8.53581 7.6263 7.9707 6.93359C7.41016 6.23633 6.57845 5.8877 5.47559 5.8877C4.36816 5.8877 3.52507 6.23861 2.94629 6.94043C2.37207 7.6377 2.08496 8.65397 2.08496 9.98926ZM17.165 8.47852H14.7314V15H13.5967V8.47852H11.1904V7.50781H17.165V8.47852ZM23.0166 7.50781H24.2607L21.0273 11.124L24.5273 15H23.2012L19.7832 11.2061V15H18.6484V7.50781H19.7832V11.1514L23.0166 7.50781ZM24.7324 7.50781H25.9492L27.5898 11.7803C27.9499 12.7555 28.1732 13.4596 28.2598 13.8926H28.3145C28.3737 13.6602 28.4967 13.2637 28.6836 12.7031C28.875 12.138 29.4948 10.4062 30.543 7.50781H31.7598L28.54 16.0391C28.221 16.8822 27.8473 17.4792 27.4189 17.8301C26.9951 18.1855 26.4733 18.3633 25.8535 18.3633C25.5072 18.3633 25.1654 18.3245 24.8281 18.2471V17.3379C25.0788 17.3926 25.359 17.4199 25.6689 17.4199C26.4482 17.4199 27.0042 16.9824 27.3369 16.1074L27.7539 15.041L24.7324 7.50781ZM39.4844 17.5908H38.3838V15H33.1475V17.5908H32.0537V14.0225H32.6416C33.2523 13.193 33.7308 12.2201 34.0771 11.1035C34.4235 9.98698 34.6035 8.78841 34.6172 7.50781H38.4111V14.0225H39.4844V17.5908ZM37.3174 14.0225V8.40332H35.6357C35.5765 9.41504 35.3805 10.4404 35.0479 11.4795C34.7197 12.514 34.3096 13.3617 33.8174 14.0225H37.3174ZM45.5957 15L45.3701 13.9336H45.3154C44.9417 14.403 44.568 14.722 44.1943 14.8906C43.8252 15.0547 43.3626 15.1367 42.8066 15.1367C42.0638 15.1367 41.4805 14.9453 41.0566 14.5625C40.6374 14.1797 40.4277 13.6351 40.4277 12.9287C40.4277 11.4157 41.6377 10.6227 44.0576 10.5498L45.3291 10.5088V10.0439C45.3291 9.45605 45.2015 9.02311 44.9463 8.74512C44.6956 8.46257 44.2923 8.32129 43.7363 8.32129C43.112 8.32129 42.4056 8.5127 41.6172 8.89551L41.2686 8.02734C41.6377 7.82682 42.041 7.6696 42.4785 7.55566C42.9206 7.44173 43.3626 7.38477 43.8047 7.38477C44.6979 7.38477 45.3587 7.58301 45.7871 7.97949C46.2201 8.37598 46.4365 9.01172 46.4365 9.88672V15H45.5957ZM43.0322 14.2002C43.7386 14.2002 44.2923 14.0065 44.6934 13.6191C45.099 13.2318 45.3018 12.6895 45.3018 11.9922V11.3154L44.167 11.3633C43.2646 11.3952 42.613 11.5365 42.2119 11.7871C41.8154 12.0332 41.6172 12.4183 41.6172 12.9424C41.6172 13.3525 41.7402 13.6647 41.9863 13.8789C42.237 14.0931 42.5856 14.2002 43.0322 14.2002Z" transform="translate(20 0.765015)" fill="#888888"/>
</svg>
