<svg width="11" height="15" viewBox="0 0 11 15" fill="none" xmlns="http://www.w3.org/2000/svg">
<rect width="11" height="13.9874" fill="black" fill-opacity="0" transform="translate(0 0.763184)"/>
<rect width="11" height="13.9874" fill="black" fill-opacity="0" transform="translate(0 0.763184)"/>
<path d="M5.49977 0.763184C2.46715 0.763184 0 3.1814 0 6.15381C0 8.27773 0.907316 10.4261 2.62387 12.3668C3.90595 13.8163 5.17654 14.6376 5.23005 14.6719C5.31196 14.7244 5.4059 14.7506 5.49984 14.7506C5.59371 14.7506 5.68765 14.7244 5.76962 14.6719C5.82307 14.6376 7.09385 13.8163 8.37594 12.3669C10.0926 10.4261 11 8.27773 11 6.15381C10.9999 3.1814 8.53253 0.763184 5.49977 0.763184ZM5.49977 13.6741C4.48826 12.9354 0.98607 10.0924 0.98607 6.15381C0.98607 3.71427 3.01086 1.72957 5.49977 1.72957C7.98887 1.72957 10.0139 3.71427 10.0139 6.15381C10.0139 10.0924 6.51135 12.9354 5.49977 13.6741Z" fill="#888888"/>
<path d="M5.50028 4.01318C4.29662 4.01318 3.31738 4.97293 3.31738 6.1527C3.31738 7.33214 4.29662 8.29169 5.50028 8.29169C6.70394 8.29169 7.68311 7.33214 7.68311 6.1527C7.68311 4.973 6.70387 4.01318 5.50028 4.01318ZM5.50028 7.32531C4.84033 7.32531 4.30345 6.79927 4.30345 6.1527C4.30345 5.5058 4.84033 4.97957 5.50028 4.97957C6.16016 4.97957 6.69704 5.5058 6.69704 6.1527C6.69704 6.79927 6.16016 7.32531 5.50028 7.32531Z" fill="#888888"/>
</svg>
