<svg width="80" height="50" viewBox="0 0 80 50" fill="none" xmlns="http://www.w3.org/2000/svg">
<path fill-rule="evenodd" clip-rule="evenodd" d="M44.3998 21.7133C46.2816 18.0394 47.3783 14.273 47.5665 11.2473C47.7557 8.31393 47.2211 4.88735 45.7796 3.09668C40.5438 -3.41748 28.661 2.32526 28.9432 2.60276C28.9432 2.60276 33.1131 1.0586 37.0628 0.812385C48.9773 -0.824122 45.7796 15.0756 42.2366 20.7564C40.1363 24.1523 30.8865 35.5447 27.3447 38.3853C25.4945 39.836 22.3588 42.1209 19.098 43.6951C16.0574 45.1774 12.8903 45.9798 10.3196 46.4119C5.05216 47.3076 2.1682 44.1588 1.38421 41.411C0.568758 38.6935 1.35275 33.1675 1.35275 33.1675C1.35275 33.1675 1.10181 33.1991 0.443211 35.7606C-0.685355 40.145 0.0989361 46.2268 5.64813 48.4192C7.52908 49.1599 9.50471 49.1289 13.5489 48.3571C22.2649 46.7204 29.7271 39.4651 33.9282 35.8532C36.6558 33.5068 41.3591 27.7338 44.3998 21.7133ZM67.0681 40.0213H64.0263L59.5429 45.1153L61.9262 45.0839L62.7727 44.004L64.4036 44.0346H65.3431L65.5322 45.0839L68.4158 45.0228L67.0681 40.0213ZM63.5573 42.9852L64.4036 41.9971L64.8428 41.472L65.2181 42.9852H63.5573ZM57.4738 39.9596H54.464L50.8272 43.9114L50.1691 43.9419L49.5725 45.9183H51.7368L51.9568 45.0538H56.8473L56.5962 45.9183H58.8855L59.418 43.9726H58.7594L57.4738 39.9596ZM54.464 43.9728L52.9904 43.9421L54.464 42.2756L55.3106 41.3185L55.9691 44.0042L54.464 43.9728ZM35.3704 39.9596H38.3805L39.7293 45.0839H36.8435L36.1232 41.5036L33.1755 45.0538L30.8553 45.0228L35.3704 39.9596ZM44.934 40.0213H47.9746L49.3222 45.0228L46.4386 45.0839L46.2497 44.0346H45.3092L43.6795 44.004L42.8321 45.0839L40.4497 45.1153L44.934 40.0213ZM44.4638 42.9852L45.3092 41.9971L45.7484 41.472L46.1249 42.9852H44.4638Z" transform="translate(11.5845 0.972092)" fill="black"/>
<path fill-rule="evenodd" clip-rule="evenodd" d="M6.29012 12.7408L12.3417 1.87298C12.3417 1.87298 13.3447 0.51471 14.4422 0.113439C15.5395 -0.25685 16.605 0.298288 16.1347 1.50269C15.6649 2.7071 10.0214 12.7408 10.0214 12.7408H18.3924C18.3924 12.7408 18.8316 12.9566 18.7691 13.3893C18.7372 13.8216 18.549 14.1917 18.2669 14.5925C18.0158 14.9634 16.9191 16.9389 16.8242 17.6493C16.762 18.3288 16.762 19.7792 17.0132 20.273C18.6121 23.1449 21.6532 20.3667 23.0956 18.7922C25.3529 16.2913 29.1469 11.135 28.2063 7.43044C27.9232 6.41162 27.5161 5.70158 26.3564 5.45432C25.2277 5.20781 23.2526 5.7631 21.8728 7.12166C20.493 8.51077 19.49 9.80797 18.9883 10.4257C18.4549 11.0423 16.7934 11.876 16.3548 11.8143C15.9155 11.7836 15.6959 11.6907 15.6959 11.3825C15.6959 11.1046 15.7904 10.5792 16.3229 9.90047C16.8242 9.19013 18.1728 7.64671 19.49 6.3501C20.8067 5.05305 23.9109 2.73778 26.4193 1.96607C28.8956 1.22505 31.1217 1.81117 31.8427 2.98489C32.5326 4.15757 33.1598 6.16466 31.6546 10.3326C31.2157 11.5672 30.4945 12.8949 29.7109 14.1607C27.7984 17.2178 25.2277 20.0267 23.4084 21.6012C21.4649 23.2992 13.6268 28.3933 12.5291 22.9286C12.2784 21.6317 12.4354 20.4897 12.8118 19.3165C13.1875 18.1438 13.9718 16.4766 13.9403 16.4766H8.14005C8.14005 16.4766 4.94223 23.2376 4.62821 23.9784C4.31479 24.6889 3.56257 26.4486 2.7161 26.88C1.90065 27.3125 1.17959 27.5909 0.803698 27.4367C0.395897 27.3125 -0.105688 26.5716 0.0195575 26.078C0.145255 25.6151 4.44049 16.5076 4.44049 16.5076L1.61825 16.4766C1.61825 16.4766 0.928492 16.6305 1.08565 15.9824C1.2109 15.334 1.83803 14.5008 2.46561 13.8828C3.12375 13.2651 4.37772 12.802 4.37772 12.802L6.29012 12.7408ZM28.6763 18.1023C28.6763 18.1023 27.7669 19.8004 27.0776 21.2821C26.7318 22.0232 25.5096 24.1227 27.0776 24.4005C27.4533 24.4624 28.0806 24.1227 28.6137 23.8449C29.1469 23.5364 29.8676 22.5167 30.2754 21.6842C30.6825 20.8502 32.0308 17.8555 32.0308 17.8555L37.4552 17.7934C37.5174 17.7934 37.173 18.8123 37.016 19.1825C36.8906 19.5846 36.7971 20.6645 36.8596 21.5293C36.9222 22.3628 37.3923 23.0114 38.1135 23.4432C38.8662 23.8753 40.1196 23.5053 40.9037 23.351C41.6875 23.1651 43.9758 22.1157 43.9758 22.1157C43.9758 22.1157 44.102 22.6713 44.2578 22.9492C44.3839 23.2588 44.8854 23.629 45.4816 23.7215C46.046 23.8449 46.7979 23.629 47.5187 23.3816C48.2402 23.1345 50.1842 21.9927 50.8425 21.5293C51.4699 21.0358 54.1973 18.627 54.1973 18.627C54.0712 20.1098 53.7269 20.8502 54.4484 22.1778C55.2008 23.5053 57.9601 23.1966 59.1509 22.7334C59.8092 22.486 60.6248 21.4058 60.6248 21.4058C61.0318 22.5167 61.408 22.9808 62.4426 23.5364C64.6688 24.7092 68.808 22.7951 70.5318 21.591C71.6916 20.7574 73.4795 19.3372 73.9497 18.5344C74.42 17.7314 73.4474 17.4229 72.5079 17.7009C71.5665 17.9483 70.9092 18.5344 70.4069 19.0286C69.152 20.2634 66.2367 21.7147 64.9509 19.7388C63.7284 17.9176 66.4248 13.2243 67.9306 12.1124C68.714 11.5573 70.1559 11.1252 71.0024 11.1252C71.8797 11.1252 72.226 12.2366 72.226 12.885C72.226 13.5332 72.1 14.0267 72.5079 14.2436C72.8832 14.4899 73.5736 14.15 74.5139 13.626C75.4235 13.1011 76.0809 12.0199 76.1751 11.6189C76.2382 11.2178 75.8929 10.3222 75.2666 9.42671C74.6392 8.53182 74.0119 8.22275 72.7893 8.16108C71.5665 8.09957 70.4069 8.43873 69.4663 8.77878C66.1115 9.95175 63.6343 13.0079 61.8795 15.9102C60.9697 17.4539 60.5938 19.5845 60.5938 19.5845C59.465 19.5845 58.2415 19.677 57.9601 18.2879C57.8661 17.8245 58.3664 16.2809 58.7747 15.3238C59.1509 14.3972 61.5021 10.7235 61.6594 9.89024C61.8164 9.02514 60.6248 9.11823 59.7152 9.612C58.8055 10.0748 57.6151 11.8042 57.2699 12.2055C56.9565 12.6071 55.6389 14.1499 55.1377 14.6755C54.6363 15.2001 52.5984 17.2997 51.7838 18.0408C50.9681 18.7509 49.087 20.3864 48.46 20.1704C47.8329 19.9241 47.9269 19.2139 48.052 18.4416C48.1466 17.6395 48.8044 16.0337 49.4627 14.5519C50.1211 13.07 52.1591 10.1989 52.6924 9.24186C53.257 8.28456 52.3793 8.03731 51.3138 8.46971C50.2157 8.90137 49.2447 10.2601 48.6162 11.0936C47.9899 11.8966 46.8919 13.7489 46.39 14.6446C45.9198 15.54 44.416 19.2139 44.416 19.2139C44.416 19.2139 43.2238 19.8624 42.691 20.0476C42.1887 20.2632 41.4995 20.3253 41.1554 20.2326C40.7786 20.1097 40.5278 19.5845 40.4339 19.0594C40.3708 18.5658 40.622 17.7007 40.622 17.7007C40.622 17.7007 41.3428 17.2381 41.7508 16.991C42.1577 16.7135 43.0985 15.9412 43.2864 15.416C43.475 14.8918 43.0675 14.8918 43.0675 14.8918L41.9072 14.7983C41.9072 14.7983 43.475 12.144 43.6627 11.9588C43.8507 11.743 44.6352 10.6928 45.0744 10.3222C45.5444 9.98259 45.9829 8.96333 45.6376 8.5628C45.3243 8.1304 44.1334 8.50084 43.475 8.9952C42.8162 9.48867 41.9388 10.4764 41.0601 11.4337C40.2138 12.4218 38.7717 14.8608 38.7717 14.8608L33.6924 14.9225C33.6924 14.9225 35.4802 12.0502 35.8874 11.4955C36.295 10.9706 36.6085 10.1369 36.5148 9.51906C36.4198 8.90137 35.5424 8.87083 34.6959 9.27195C33.8491 9.67381 32.8777 11.0324 32.2816 11.8967C31.6862 12.7608 29.9932 15.6022 29.9932 15.6022C29.9932 15.6022 29.5541 15.8795 29.1148 16.1262C28.7074 16.373 28.2063 16.8366 28.0181 17.3617C27.8295 17.8863 28.6763 18.1023 28.6763 18.1023Z" transform="translate(0 14.4163)" fill="#EB2E2E"/>
</svg>
