<svg width="13" height="13" viewBox="0 0 13 13" fill="none" xmlns="http://www.w3.org/2000/svg">
<path d="M8.74511 5.93734C8.67132 4.55602 7.60431 3.72518 6.31579 3.72518H6.26727C4.78035 3.72518 3.95586 4.84914 3.95586 6.12598C3.95586 7.55535 4.95332 8.45834 6.26166 8.45834C7.71988 8.45834 8.67898 7.43131 8.74838 6.21672L8.7451 5.93734H8.74511ZM6.2745 2.48873C7.268 2.48873 8.20226 2.9109 8.88801 3.57196V3.57443C8.88801 3.2572 9.11021 3.01793 9.41856 3.01793L9.49664 3.01743C9.97888 3.01743 10.0782 3.45626 10.0782 3.59508L10.0804 8.52861C10.0463 8.85175 10.4272 9.01857 10.6383 8.81112C11.4626 7.99698 12.4484 4.62572 10.126 2.67285C7.96159 0.851761 5.0574 1.15173 3.51289 2.17514C1.87083 3.26368 0.82037 5.67321 1.84087 7.93614C2.95345 10.4042 6.13685 11.1404 8.02899 10.406C8.98707 10.0343 9.42942 11.2792 8.43441 11.686C6.93109 12.3014 2.74623 12.2393 0.791477 8.98414C-0.529311 6.78633 -0.459322 2.9192 3.04389 0.915752C5.72353 -0.617385 9.25671 -0.193051 11.3871 1.94565C13.614 4.18145 13.4839 8.3684 11.3121 9.99592C10.3279 10.7356 8.86608 10.016 8.8753 8.9384L8.8653 8.58612C8.18004 9.23972 7.26799 9.62108 6.27448 9.62108C4.31153 9.62108 2.58425 7.96124 2.58425 6.07399C2.58425 4.1686 4.31153 2.48872 6.27448 2.48872" transform="translate(0 0.7146)" fill="#C4C4C4"/>
</svg>
