<svg width="12" height="10" viewBox="0 0 12 10" fill="none" xmlns="http://www.w3.org/2000/svg">
<path d="M1.15176 2.77166C1.30356 2.87382 1.76113 3.17722 2.52451 3.68172C3.28791 4.18622 3.87273 4.57467 4.27898 4.8471C4.32362 4.87696 4.41845 4.94188 4.56351 5.04193C4.7086 5.14205 4.82916 5.22296 4.92509 5.28467C5.02109 5.34637 5.13714 5.41557 5.27337 5.49219C5.40954 5.56873 5.53791 5.62631 5.65844 5.66442C5.779 5.70285 5.8906 5.72189 5.99326 5.72189H5.99999H6.00674C6.1094 5.72189 6.22105 5.70283 6.3416 5.66442C6.46209 5.62631 6.59058 5.56866 6.72663 5.49219C6.86277 5.41548 6.97882 5.34634 7.07482 5.28467C7.17082 5.22296 7.29128 5.14205 7.43642 5.04193C7.58146 4.94179 7.67641 4.87696 7.72104 4.8471C8.13168 4.57467 9.17642 3.88279 10.8549 2.77153C11.1808 2.55448 11.4531 2.29259 11.6718 1.98603C11.8907 1.67961 12 1.35815 12 1.02184C12 0.740801 11.8939 0.500227 11.6818 0.300141C11.4698 0.10001 11.2186 0 10.9285 0H1.07138C0.727655 0 0.463134 0.110679 0.277867 0.332038C0.0926222 0.553442 0 0.830185 0 1.16225C0 1.43047 0.122808 1.72112 0.368307 2.03404C0.613783 2.34697 0.87502 2.59287 1.15176 2.77166Z" transform="translate(0 0.815445)" fill="white"/>
<path d="M11.3303 0.555589C9.86613 1.50068 8.75438 2.23517 7.99555 2.75891C7.74109 2.93766 7.53467 3.07719 7.37614 3.17718C7.21761 3.27723 7.00678 3.37941 6.74333 3.48367C6.47999 3.58809 6.23456 3.64014 6.00684 3.64014H6.00001H5.99328C5.76561 3.64014 5.52004 3.58809 5.25669 3.48367C4.99334 3.37941 4.78237 3.27723 4.62388 3.17718C4.46545 3.07719 4.25895 2.93766 4.00452 2.75891C3.40181 2.33744 2.29245 1.60291 0.676407 0.555589C0.421878 0.393909 0.196432 0.208586 0 0V5.07061C0 5.35178 0.104865 5.59222 0.314714 5.79233C0.524515 5.9925 0.776792 6.09256 1.07145 6.09256H10.9286C11.2232 6.09256 11.4755 5.9925 11.6853 5.79233C11.8952 5.59215 12 5.3518 12 5.07061V0C11.808 0.204269 11.5849 0.389592 11.3303 0.555589Z" transform="translate(0 3.71478)" fill="white"/>
</svg>
