<svg width="7" height="13" viewBox="0 0 7 13" fill="none" xmlns="http://www.w3.org/2000/svg">
<path d="M2.92617 2.40714C2.02245 2.31021 1.20761 2.0813 0.50998 1.52016C0.423417 1.45034 0.334046 1.38304 0.255053 1.30506C-0.0502978 1.00346 -0.0810649 0.65803 0.160554 0.302055C0.367255 -0.00256376 0.714239 -0.0840549 1.0749 0.0908563C1.14473 0.124759 1.21127 0.167074 1.27501 0.212528C2.57516 1.13128 4.36124 1.15665 5.66627 0.253839C5.79557 0.151881 5.93378 0.0687569 6.09396 0.0263162C6.40542 -0.0559285 6.69587 0.0617253 6.86301 0.341985C7.05397 0.662049 7.05152 0.974453 6.81625 1.22294C6.45535 1.60391 6.02132 1.87952 5.53905 2.07189C5.08304 2.2537 4.58357 2.34524 4.08922 2.40601C4.16381 2.48951 4.19898 2.53057 4.24562 2.57879C4.91687 3.27241 5.59106 3.96314 6.26013 4.65889C6.48807 4.89595 6.53569 5.1899 6.41018 5.46564C6.27295 5.76699 5.96576 5.96526 5.66456 5.94404C5.47373 5.93048 5.3249 5.83279 5.19268 5.6958C4.68612 5.17157 4.17004 4.657 3.67374 4.12285C3.5293 3.96753 3.45983 3.99691 3.33237 4.13177C2.82276 4.67132 2.30485 5.20258 1.78388 5.73083C1.54996 5.96802 1.27159 6.01071 1.0003 5.87523C0.71192 5.73146 0.528416 5.42872 0.542579 5.12448C0.552346 4.91868 0.650752 4.76147 0.788105 4.62047C1.4524 3.93827 2.11487 3.25432 2.77759 2.571C2.82142 2.52555 2.86232 2.47733 2.92617 2.40714Z" transform="translate(0 6.75217)" fill="#C4C4C4"/>
<path d="M2.92488 6.06841C1.31266 6.06276 -0.00935122 4.68821 4.98314e-05 3.02749C0.00932879 1.34845 1.33219 -0.00463395 2.96028 1.19282e-05C4.59167 0.00453224 5.9011 1.37708 5.89292 3.07358C5.88462 4.7309 4.55345 6.07419 2.92488 6.06841ZM4.3901 3.03151C4.38729 2.20693 3.74875 1.55048 2.94856 1.54973C2.14166 1.54885 1.49738 2.21723 1.50361 3.04934C1.50959 3.87078 2.15362 4.52259 2.95601 4.51958C3.75595 4.51669 4.39278 3.85597 4.3901 3.03151Z" transform="translate(0.551758 0.7146)" fill="#C4C4C4"/>
</svg>
