<svg width="12" height="13" viewBox="0 0 12 13" fill="none" xmlns="http://www.w3.org/2000/svg">
<path d="M9.1232 6.78003C8.73115 6.39333 8.24171 6.39333 7.85216 6.78003C7.555 7.07442 7.25785 7.36881 6.96568 7.6682C6.88577 7.75052 6.81835 7.76799 6.72096 7.7131C6.52869 7.60832 6.32392 7.52349 6.13913 7.40873C5.27763 6.86735 4.55596 6.17129 3.91669 5.38791C3.59956 4.99872 3.31738 4.58208 3.12011 4.11305C3.08016 4.01825 3.08765 3.95588 3.16506 3.87854C3.46222 3.59163 3.75188 3.29724 4.04405 3.00285C4.45108 2.5937 4.45108 2.11469 4.04155 1.70304C3.80932 1.46852 3.57709 1.239 3.34485 1.00448C3.10513 0.76498 2.8679 0.522981 2.62568 0.285971C2.23363 -0.0957387 1.7442 -0.0957386 1.35465 0.288466C1.05499 0.582857 0.767822 0.884732 0.463173 1.17413C0.180998 1.44108 0.038662 1.76791 0.00869654 2.14962C-0.0387488 2.77083 0.113576 3.35712 0.328328 3.92843C0.767822 5.11099 1.43705 6.16131 2.24862 7.12432C3.34485 8.42663 4.65335 9.45699 6.18408 10.2005C6.87329 10.5348 7.58747 10.7917 8.36407 10.8341C8.89846 10.8641 9.36292 10.7294 9.73499 10.3127C9.9897 10.0283 10.2769 9.76885 10.5466 9.49691C10.9461 9.09275 10.9486 8.60376 10.5516 8.20459C10.0771 7.72807 9.60015 7.25405 9.1232 6.78003Z" transform="translate(0 2.00162)" fill="white"/>
<path d="M2.70688 3.54766L3.62832 3.39048C3.48349 2.54473 3.08395 1.77882 2.47715 1.17008C1.83539 0.528905 1.02382 0.124742 0.12985 0L0 0.925585C0.691703 1.02288 1.32098 1.33474 1.81791 1.83121C2.28736 2.30024 2.59451 2.89401 2.70688 3.54766Z" transform="translate(5.93945 3.24559)" fill="white"/>
<path d="M4.02536 1.94098C2.96159 0.878183 1.61564 0.207072 0.12985 0L0 0.925585C1.28352 1.10521 2.44718 1.68651 3.36612 2.60212C4.23762 3.47281 4.80946 4.57304 5.01672 5.78303L5.93816 5.62586C5.69594 4.22376 5.0342 2.95139 4.02536 1.94098Z" transform="translate(6.06152 0.850555)" fill="white"/>
</svg>
