<svg width="11" height="15" viewBox="0 0 11 15" fill="none" xmlns="http://www.w3.org/2000/svg">
<path d="M5.49977 0C2.46715 0 0 2.41822 0 5.39063C0 7.51455 0.907316 9.66295 2.62387 11.6036C3.90595 13.0532 5.17654 13.8744 5.23005 13.9087C5.31196 13.9612 5.4059 13.9874 5.49984 13.9874C5.59371 13.9874 5.68765 13.9612 5.76962 13.9087C5.82307 13.8744 7.09385 13.0532 8.37594 11.6037C10.0926 9.66295 11 7.51455 11 5.39063C10.9999 2.41822 8.53253 0 5.49977 0ZM5.49977 12.9109C4.48826 12.1722 0.98607 9.32923 0.98607 5.39063C0.98607 2.95108 3.01086 0.966385 5.49977 0.966385C7.98887 0.966385 10.0139 2.95108 10.0139 5.39063C10.0139 9.32923 6.51135 12.1722 5.49977 12.9109Z" transform="translate(0 0.763214)" fill="#888888"/>
<path d="M2.1829 0C0.979233 0 0 0.959749 0 2.13951C0 3.31895 0.979233 4.27851 2.1829 4.27851C3.38656 4.27851 4.36572 3.31895 4.36572 2.13951C4.36572 0.959814 3.38649 0 2.1829 0ZM2.1829 3.31212C1.52295 3.31212 0.98607 2.78609 0.98607 2.13951C0.98607 1.49261 1.52295 0.966385 2.1829 0.966385C2.84277 0.966385 3.37966 1.49261 3.37966 2.13951C3.37966 2.78609 2.84277 3.31212 2.1829 3.31212Z" transform="translate(3.31738 4.01343)" fill="#888888"/>
</svg>
