<svg width="14" height="15" viewBox="0 0 14 15" fill="none" xmlns="http://www.w3.org/2000/svg">
<path d="M10.119 1.7346C8.99946 0.616019 7.51095 0 5.92761 0C4.34427 0 2.85573 0.616019 1.73616 1.7346C0.616574 2.85316 0 4.34035 0 5.92224C0 7.50416 0.616574 8.99135 1.73616 10.1099C2.85573 11.2285 4.34429 11.8445 5.92761 11.8445C7.51092 11.8445 8.99946 11.2285 10.119 10.1099C11.2386 8.99135 11.8552 7.50416 11.8552 5.92224C11.8552 4.34035 11.2386 2.85316 10.119 1.7346ZM5.92758 10.7145C3.28275 10.7145 1.13105 8.56468 1.13105 5.92224C1.13105 3.2798 3.28278 1.13003 5.92761 1.13003C8.57243 1.13003 10.7241 3.2798 10.7241 5.92224C10.7241 8.56468 8.5724 10.7145 5.92758 10.7145Z" transform="translate(0 0.952286)" fill="#888888"/>
<path d="M4.68311 3.87983L0.965398 0.165492C0.744543 -0.0551642 0.386477 -0.0551642 0.165621 0.165492C-0.055207 0.386149 -0.055207 0.743893 0.165621 0.96455L3.88331 4.67889C3.99372 4.78923 4.13848 4.84439 4.28321 4.84439C4.42794 4.84439 4.5727 4.78923 4.68311 4.67889C4.90394 4.45823 4.90394 4.10049 4.68311 3.87983Z" transform="translate(9.15137 10.0953)" fill="#888888"/>
</svg>
