<svg width="14" height="15" viewBox="0 0 14 15" fill="none" xmlns="http://www.w3.org/2000/svg">
<rect width="14" height="13.9874" fill="black" fill-opacity="0" transform="translate(0 0.97998)"/>
<rect width="11.8552" height="11.8445" fill="black" fill-opacity="0" transform="translate(0 0.97998)"/>
<rect width="11.8552" height="11.8445" fill="black" fill-opacity="0" transform="translate(0 0.97998)"/>
<path d="M10.119 2.71458C8.99946 1.596 7.51095 0.97998 5.92761 0.97998C4.34427 0.97998 2.85573 1.596 1.73616 2.71458C0.616574 3.83314 0 5.32033 0 6.90222C0 8.48414 0.616574 9.97133 1.73616 11.0899C2.85573 12.2084 4.34429 12.8245 5.92761 12.8245C7.51092 12.8245 8.99946 12.2084 10.119 11.0899C11.2386 9.97133 11.8552 8.48414 11.8552 6.90222C11.8552 5.32033 11.2386 3.83314 10.119 2.71458ZM5.92758 11.6944C3.28275 11.6944 1.13105 9.54466 1.13105 6.90222C1.13105 4.25978 3.28278 2.11001 5.92761 2.11001C8.57243 2.11001 10.7241 4.25978 10.7241 6.90222C10.7241 9.54466 8.5724 11.6944 5.92758 11.6944Z" fill="#EB2E2E"/>
<rect width="4.84873" height="4.84439" fill="black" fill-opacity="0" transform="translate(9.15137 10.123)"/>
<rect width="4.84873" height="4.84439" fill="black" fill-opacity="0" transform="translate(9.15137 10.123)"/>
<path d="M13.8345 14.0029L10.1168 10.2885C9.89591 10.0679 9.53784 10.0679 9.31699 10.2885C9.09616 10.5092 9.09616 10.8669 9.31699 11.0876L13.0347 14.8019C13.1451 14.9123 13.2898 14.9674 13.4346 14.9674C13.5793 14.9674 13.7241 14.9123 13.8345 14.8019C14.0553 14.5813 14.0553 14.2235 13.8345 14.0029Z" fill="#EB2E2E"/>
</svg>
