<svg width="53" height="20" viewBox="0 0 53 20" fill="none" xmlns="http://www.w3.org/2000/svg">
<path d="M5.49977 0C2.46715 0 0 2.41822 0 5.39063C0 7.51455 0.907316 9.66295 2.62387 11.6036C3.90595 13.0532 5.17654 13.8744 5.23005 13.9087C5.31196 13.9612 5.4059 13.9874 5.49984 13.9874C5.59371 13.9874 5.68765 13.9612 5.76962 13.9087C5.82307 13.8744 7.09385 13.0532 8.37594 11.6037C10.0926 9.66295 11 7.51455 11 5.39063C10.9999 2.41822 8.53253 0 5.49977 0ZM5.49977 12.9109C4.48826 12.1722 0.98607 9.32923 0.98607 5.39063C0.98607 2.95108 3.01086 0.966385 5.49977 0.966385C7.98887 0.966385 10.0139 2.95108 10.0139 5.39063C10.0139 9.32923 6.51135 12.1722 5.49977 12.9109Z" transform="translate(0 3.76321)" fill="#888888"/>
<path d="M2.1829 0C0.979233 0 0 0.959749 0 2.13951C0 3.31895 0.979233 4.27851 2.1829 4.27851C3.38656 4.27851 4.36572 3.31895 4.36572 2.13951C4.36572 0.959814 3.38649 0 2.1829 0ZM2.1829 3.31212C1.52295 3.31212 0.98607 2.78609 0.98607 2.13951C0.98607 1.49261 1.52295 0.966385 2.1829 0.966385C2.84277 0.966385 3.37966 1.49261 3.37966 2.13951C3.37966 2.78609 2.84277 3.31212 2.1829 3.31212Z" transform="translate(3.31738 7.01343)" fill="#888888"/>
<path d="M8.56543 15H7.15723L2.53613 9.93457V15H1.37402V5.00586H2.53613V9.8457L7.04102 5.00586H8.37402L3.95117 9.85938L8.56543 15ZM8.58594 7.50781H9.80273L11.4434 11.7803C11.8034 12.7555 12.0267 13.4596 12.1133 13.8926H12.168C12.2272 13.6602 12.3503 13.2637 12.5371 12.7031C12.7285 12.138 13.3483 10.4062 14.3965 7.50781H15.6133L12.3936 16.0391C12.0745 16.8822 11.7008 17.4792 11.2725 17.8301C10.8486 18.1855 10.3268 18.3633 9.70703 18.3633C9.36068 18.3633 9.01888 18.3245 8.68164 18.2471V17.3379C8.93229 17.3926 9.21257 17.4199 9.52246 17.4199C10.3018 17.4199 10.8577 16.9824 11.1904 16.1074L11.6074 15.041L8.58594 7.50781ZM23.3379 17.5908H22.2373V15H17.001V17.5908H15.9072V14.0225H16.4951C17.1058 13.193 17.5843 12.2201 17.9307 11.1035C18.277 9.98698 18.457 8.78841 18.4707 7.50781H22.2646V14.0225H23.3379V17.5908ZM21.1709 14.0225V8.40332H19.4893C19.43 9.41504 19.234 10.4404 18.9014 11.4795C18.5732 12.514 18.1631 13.3617 17.6709 14.0225H21.1709ZM29.4492 15L29.2236 13.9336H29.1689C28.7952 14.403 28.4215 14.722 28.0479 14.8906C27.6787 15.0547 27.2161 15.1367 26.6602 15.1367C25.9173 15.1367 25.334 14.9453 24.9102 14.5625C24.4909 14.1797 24.2812 13.6351 24.2812 12.9287C24.2812 11.4157 25.4912 10.6227 27.9111 10.5498L29.1826 10.5088V10.0439C29.1826 9.45605 29.055 9.02311 28.7998 8.74512C28.5492 8.46257 28.1458 8.32129 27.5898 8.32129C26.9655 8.32129 26.2591 8.5127 25.4707 8.89551L25.1221 8.02734C25.4912 7.82682 25.8945 7.6696 26.332 7.55566C26.7741 7.44173 27.2161 7.38477 27.6582 7.38477C28.5514 7.38477 29.2122 7.58301 29.6406 7.97949C30.0736 8.37598 30.29 9.01172 30.29 9.88672V15H29.4492ZM26.8857 14.2002C27.5921 14.2002 28.1458 14.0065 28.5469 13.6191C28.9525 13.2318 29.1553 12.6895 29.1553 11.9922V11.3154L28.0205 11.3633C27.1182 11.3952 26.4665 11.5365 26.0654 11.7871C25.6689 12.0332 25.4707 12.4183 25.4707 12.9424C25.4707 13.3525 25.5938 13.6647 25.8398 13.8789C26.0905 14.0931 26.4391 14.2002 26.8857 14.2002Z" transform="translate(20 0.76593)" fill="#888888"/>
</svg>
