<svg width="12" height="11" viewBox="0 0 12 11" fill="none" xmlns="http://www.w3.org/2000/svg">
<path d="M11.728 1.15303C11.5395 1.23806 11.3457 1.30982 11.1477 1.36808C11.3821 1.09843 11.5609 0.781153 11.67 0.433956C11.6945 0.356132 11.6691 0.270947 11.6062 0.220049C11.5434 0.169111 11.4561 0.163009 11.3869 0.204696C10.9663 0.458363 10.5126 0.640661 10.0368 0.74726C9.55755 0.271026 8.90661 0 8.23368 0C6.81324 0 5.6576 1.17515 5.6576 2.6196C5.6576 2.73337 5.66469 2.8465 5.6787 2.95806C3.91606 2.80068 2.27737 1.91966 1.15208 0.515953C1.11198 0.465921 1.0502 0.438956 0.986947 0.444113C0.923657 0.449151 0.866793 0.485445 0.834818 0.541225C0.606587 0.939478 0.485929 1.39497 0.485929 1.85841C0.485929 2.48962 0.707541 3.08851 1.09901 3.55648C0.979979 3.51456 0.86447 3.46216 0.754225 3.39993C0.695038 3.36643 0.622806 3.36694 0.564006 3.40123C0.505168 3.43551 0.468278 3.49858 0.466729 3.5675C0.466458 3.57912 0.466458 3.59073 0.466458 3.6025C0.466458 4.54469 0.965115 5.39296 1.7275 5.8553C1.662 5.84865 1.59654 5.839 1.53151 5.82637C1.46447 5.81334 1.39553 5.83723 1.35031 5.88923C1.30502 5.9412 1.29004 6.01363 1.31091 6.07976C1.5931 6.9757 2.31964 7.6347 3.19796 7.83562C2.46948 8.29961 1.63642 8.54265 0.76189 8.54265C0.579413 8.54265 0.395891 8.53175 0.216278 8.51014C0.127053 8.49935 0.0417371 8.55293 0.0113501 8.63921C-0.0190369 8.72554 0.0131695 8.82179 0.0890789 8.87127C1.21255 9.60381 2.5116 9.991 3.84572 9.991C6.46845 9.991 8.10916 8.73329 9.02367 7.6782C10.1641 6.36259 10.8181 4.62122 10.8181 2.90063C10.8181 2.82875 10.817 2.75616 10.8148 2.68381C11.2648 2.33909 11.6521 1.9219 11.9673 1.4424C12.0152 1.36958 12.01 1.27333 11.9546 1.20629C11.8992 1.13921 11.8068 1.11752 11.728 1.15303Z" transform="translate(0 0.712799)" fill="#C4C4C4"/>
</svg>
