<svg width="20" height="5" viewBox="0 0 20 5" fill="none" xmlns="http://www.w3.org/2000/svg">
<path fill-rule="evenodd" clip-rule="evenodd" d="M4 1.9982C4 3.10178 3.10449 3.9964 2 3.9964C0.895508 3.9964 0 3.10178 0 1.9982C0 0.894623 0.895508 0 2 0C3.10449 0 4 0.894623 4 1.9982ZM12 1.9982C12 3.10178 11.1045 3.9964 10 3.9964C8.89551 3.9964 8 3.10178 8 1.9982C8 0.894623 8.89551 0 10 0C11.1045 0 12 0.894623 12 1.9982ZM18 3.9964C19.1045 3.9964 20 3.10178 20 1.9982C20 0.894623 19.1045 0 18 0C16.8955 0 16 0.894623 16 1.9982C16 3.10178 16.8955 3.9964 18 3.9964Z" transform="translate(0 0.763214)" fill="#E30613"/>
</svg>
