<svg width="14" height="15" viewBox="0 0 14 15" fill="none" xmlns="http://www.w3.org/2000/svg">
<path d="M4.29799 8.58107C1.92849 8.58107 -7.51017e-08 6.65629 -7.51017e-08 4.29097C-7.51017e-08 1.92565 1.92762 0 4.29799 0C6.66748 0 8.5951 1.92477 8.5951 4.2901C8.5951 6.65542 6.66748 8.58107 4.29799 8.58107ZM4.29799 1.18179C2.58037 1.18179 1.183 2.57598 1.183 4.29097C1.183 6.00596 2.58037 7.40016 4.29799 7.40016C6.01473 7.40016 7.41211 6.00596 7.41211 4.29097C7.41211 2.57598 6.01473 1.18179 4.29799 1.18179Z" transform="translate(2.70312 0.952286)" fill="#888888"/>
<path d="M0.590862 4.25426C0.469237 4.25426 0.347612 4.21755 0.242613 4.14062C-0.0216367 3.94832 -0.0785116 3.57858 0.113988 3.31547C1.63298 1.23948 4.2081 2.00066e-07 7.00197 2.00066e-07C9.79234 2.00066e-07 12.3657 1.23773 13.8856 3.3111C14.079 3.57421 14.0212 3.94395 13.7578 4.13713C13.4936 4.32943 13.1235 4.27261 12.931 4.00951C11.6333 2.23945 9.41696 1.18266 7.00197 1.18266C4.58523 1.18266 2.36798 2.2412 1.07036 4.01388C0.953111 4.17035 0.772861 4.25426 0.590862 4.25426Z" transform="translate(0 10.6854)" fill="#888888"/>
</svg>
