<svg width="14" height="15" viewBox="0 0 14 15" fill="none" xmlns="http://www.w3.org/2000/svg">
<rect width="14" height="13.9874" fill="black" fill-opacity="0" transform="translate(0 0.952148)"/>
<path d="M7.00111 9.53322C4.63162 9.53322 2.70312 7.60844 2.70312 5.24312C2.70312 2.8778 4.63074 0.952148 7.00111 0.952148C9.37061 0.952148 11.2982 2.87692 11.2982 5.24225C11.2982 7.60757 9.37061 9.53322 7.00111 9.53322ZM7.00111 2.13394C5.28349 2.13394 3.88612 3.52813 3.88612 5.24312C3.88612 6.95811 5.28349 8.3523 7.00111 8.3523C8.71786 8.3523 10.1152 6.95811 10.1152 5.24312C10.1152 3.52813 8.71786 2.13394 7.00111 2.13394Z" fill="#EB2E2E"/>
<path d="M0.590862 14.9393C0.469237 14.9393 0.347612 14.9026 0.242613 14.8257C-0.0216367 14.6334 -0.0785116 14.2636 0.113988 14.0005C1.63298 11.9245 4.2081 10.6851 7.00197 10.6851C9.79234 10.6851 12.3657 11.9228 13.8856 13.9962C14.079 14.2593 14.0212 14.629 13.7578 14.8222C13.4936 15.0145 13.1235 14.9577 12.931 14.6946C11.6333 12.9245 9.41696 11.8677 7.00197 11.8677C4.58523 11.8677 2.36798 12.9263 1.07036 14.6989C0.953111 14.8554 0.772861 14.9393 0.590862 14.9393Z" fill="#EB2E2E"/>
</svg>
