<svg width="12" height="8" viewBox="0 0 12 8" fill="none" xmlns="http://www.w3.org/2000/svg">
<path fill-rule="evenodd" clip-rule="evenodd" d="M10.3277 4.44691C10.7258 4.84715 11.1459 5.22371 11.5029 5.66431C11.6606 5.86011 11.8099 6.06215 11.9241 6.28938C12.086 6.61238 11.9394 6.96784 11.6582 6.98712L9.90998 6.98631C9.45909 7.02484 9.0994 6.8379 8.79696 6.52042C8.55491 6.26652 8.33077 5.99629 8.09803 5.73383C8.00262 5.62655 7.90275 5.52561 7.78345 5.44582C7.5448 5.28629 7.33765 5.33513 7.20127 5.59147C7.06237 5.85219 7.03086 6.14089 7.01722 6.43145C6.99849 6.8554 6.87406 6.96686 6.46055 6.98627C5.57684 7.02919 4.73814 6.8915 3.95903 6.43239C3.27213 6.02764 2.73947 5.45626 2.27585 4.80939C1.37317 3.5498 0.681895 2.16572 0.0606041 0.742857C-0.0792435 0.422286 0.0230301 0.250204 0.366479 0.244114C0.93679 0.232704 1.50702 0.233516 2.078 0.243302C2.3098 0.246794 2.46325 0.383711 2.55275 0.609228C2.8613 1.39058 3.23885 2.13396 3.71277 2.82302C3.83897 3.00647 3.96766 3.18992 4.15092 3.31904C4.35365 3.46201 4.50801 3.41463 4.60338 3.18204C4.6639 3.03457 4.6904 2.87572 4.70404 2.71777C4.74922 2.17437 4.75518 1.63189 4.67593 1.09039C4.62728 0.75244 4.44244 0.533664 4.115 0.469712C3.94791 0.437106 3.97279 0.373073 4.05369 0.274851C4.19421 0.10545 4.32637 0 4.58982 0H6.56555C6.87659 0.063221 6.94566 0.207123 6.98824 0.529441L6.98994 2.7896C6.98655 2.91438 7.05046 3.28465 7.26869 3.36724C7.44335 3.42604 7.55848 3.28213 7.66327 3.16808C8.13632 2.65102 8.47393 2.03996 8.77555 1.40723C8.9094 1.129 9.02449 0.840064 9.13603 0.551367C9.21867 0.337138 9.34834 0.231729 9.58266 0.236399L11.4842 0.238145C11.5406 0.238145 11.5976 0.238997 11.6522 0.248621C11.9726 0.304858 12.0604 0.446811 11.9615 0.769047C11.8056 1.27461 11.5022 1.69592 11.2055 2.11918C10.8884 2.57107 10.5493 3.00749 10.2348 3.46205C9.94586 3.87715 9.96881 4.08639 10.3277 4.44691Z" transform="translate(0 0.711914)" fill="#C4C4C4"/>
</svg>
