<svg width="11" height="14" viewBox="0 0 11 14" fill="none" xmlns="http://www.w3.org/2000/svg">
<rect width="11" height="14" fill="black" fill-opacity="0"/>
<rect width="11" height="14" fill="black" fill-opacity="0"/>
<rect width="11" height="14" fill="black" fill-opacity="0"/>
<path d="M10.0463 5.32286H9.51319V3.87714C9.51319 1.74 7.71244 0 5.49704 0C3.28164 0 1.48088 1.74 1.48088 3.87429V5.32H0.950727C0.426494 5.32 0 5.73143 0 6.23714V13.0829C0 13.5886 0.426494 14 0.950727 14H10.0493C10.5735 14 11 13.5886 11 13.0829V6.23714C10.997 5.73429 10.5705 5.32286 10.0463 5.32286ZM2.68928 3.87429C2.68928 2.38 3.94803 1.16571 5.49704 1.16571C7.04604 1.16571 8.30479 2.38 8.30479 3.87429V5.31714H2.68928V3.87429ZM9.78568 12.8343H1.2084V6.48857H9.78864V12.8343H9.78568Z" fill="#888888"/>
<path d="M5.49678 11.9628C5.83146 11.9628 6.10098 11.7028 6.10098 11.38V9.87711C6.10098 9.55425 5.83146 9.29425 5.49678 9.29425C5.1621 9.29425 4.89258 9.55425 4.89258 9.87711V11.38C4.89258 11.7 5.1621 11.9628 5.49678 11.9628Z" fill="#888888"/>
</svg>
