<svg width="14" height="14" viewBox="0 0 14 14" fill="none" xmlns="http://www.w3.org/2000/svg">
<rect width="14" height="13.9874" fill="black" fill-opacity="0"/>
<path d="M7.00111 8.58107C4.63162 8.58107 2.70312 6.65629 2.70312 4.29097C2.70312 1.92565 4.63074 0 7.00111 0C9.37061 0 11.2982 1.92477 11.2982 4.2901C11.2982 6.65542 9.37061 8.58107 7.00111 8.58107ZM7.00111 1.18179C5.28349 1.18179 3.88612 2.57598 3.88612 4.29097C3.88612 6.00596 5.28349 7.40016 7.00111 7.40016C8.71786 7.40016 10.1152 6.00596 10.1152 4.29097C10.1152 2.57598 8.71786 1.18179 7.00111 1.18179Z" fill="#888888"/>
<path d="M0.590862 13.9874C0.469237 13.9874 0.347612 13.9507 0.242613 13.8737C-0.0216367 13.6814 -0.0785116 13.3117 0.113988 13.0486C1.63298 10.9726 4.2081 9.73312 7.00197 9.73312C9.79234 9.73312 12.3657 10.9709 13.8856 13.0442C14.079 13.3073 14.0212 13.6771 13.7578 13.8703C13.4936 14.0626 13.1235 14.0057 12.931 13.7426C11.6333 11.9726 9.41696 10.9158 7.00197 10.9158C4.58523 10.9158 2.36798 11.9743 1.07036 13.747C0.953111 13.9035 0.772861 13.9874 0.590862 13.9874Z" fill="#888888"/>
</svg>
