<svg width="20" height="21" fill="none" xmlns="http://www.w3.org/2000/svg"><path d="M9.695 3.523a6.81 6.81 0 0 1 4.847 2.006 6.797 6.797 0 0 1 2.007 4.843 6.8 6.8 0 0 1-2.007 4.843 6.81 6.81 0 0 1-4.847 2.005 6.81 6.81 0 0 1-4.848-2.005 6.797 6.797 0 0 1-2.007-4.843 6.8 6.8 0 0 1 2.007-4.843 6.81 6.81 0 0 1 4.848-2.006zm-6.076 6.849c0 1.622.633 3.147 1.78 4.292a6.04 6.04 0 0 0 4.296 1.778c3.35 0 6.075-2.723 6.075-6.07a6.029 6.029 0 0 0-1.779-4.293 6.04 6.04 0 0 0-4.296-1.777c-3.35 0-6.076 2.723-6.076 6.07z" fill="#888"/><path d="M9.694 6.104c.216 0 .39.173.39.389v3.49h3.493a.388.388 0 1 1 0 .778h-3.493v3.49a.392.392 0 1 1-.665.277.38.38 0 0 1-.112-.275v-3.49H5.814a.392.392 0 0 1-.275-.112.375.375 0 0 1-.113-.275.39.39 0 0 1 .39-.39l3.489-.004v-3.49c0-.215.173-.388.39-.388z" fill="#888"/></svg>