<svg width="102" height="31" fill="none" xmlns="http://www.w3.org/2000/svg"><path d="M98.371 30.665H3.573C1.603 30.665 0 29.07 0 27.118V4.233C0 2.281 1.603.693 3.573.693h94.798C100.34.692 102 2.28 102 4.232v22.885c0 1.952-1.66 3.547-3.629 3.547z" fill="#A6A6A6"/><path d="M101.268 27.12c0 1.585-1.294 2.87-2.896 2.87h-94.8c-1.6 0-2.9-1.285-2.9-2.87V4.233c0-1.585 1.3-2.873 2.9-2.873h94.799a2.885 2.885 0 0 1 2.896 2.873l.001 22.887z" fill="#000"/><path d="M22.763 15.517c-.021-2.415 1.994-3.59 2.087-3.645-1.142-1.65-2.912-1.876-3.533-1.894-1.487-.155-2.928.882-3.685.882-.772 0-1.938-.867-3.195-.842-1.617.025-3.13.953-3.959 2.395-1.712 2.94-.435 7.26 1.205 9.636.82 1.163 1.78 2.463 3.035 2.417 1.227-.05 1.686-.776 3.168-.776 1.468 0 1.898.776 3.178.747 1.318-.021 2.147-1.17 2.94-2.343.948-1.334 1.328-2.648 1.343-2.715-.03-.01-2.559-.968-2.584-3.862zm-2.418-7.102c.66-.82 1.113-1.934.987-3.064-.956.042-2.15.655-2.84 1.456-.608.706-1.152 1.863-1.012 2.951 1.074.08 2.176-.537 2.865-1.343zm20.187 15.884h-1.716l-.94-2.93h-3.267l-.895 2.93h-1.671l3.237-9.972h1.999l3.253 9.972zm-2.94-4.158l-.85-2.604c-.09-.266-.258-.892-.506-1.879h-.03c-.1.425-.26 1.051-.478 1.879l-.835 2.604h2.7zm11.264.474c0 1.223-.334 2.19-1 2.9-.597.631-1.338.946-2.223.946-.955 0-1.64-.34-2.059-1.02h-.03v3.788h-1.61v-7.754c0-.768-.021-1.557-.06-2.367h1.416l.09 1.14h.03c.538-.859 1.353-1.287 2.447-1.287.855 0 1.57.335 2.14 1.005.573.672.859 1.554.859 2.65zm-1.641.059c0-.7-.16-1.277-.478-1.731a1.653 1.653 0 0 0-1.402-.71c-.398 0-.759.131-1.082.391a1.815 1.815 0 0 0-.633 1.029c-.05.198-.075.36-.075.487v1.199c0 .523.161.964.485 1.325.323.36.743.54 1.26.54.607 0 1.079-.232 1.417-.695.338-.464.508-1.076.508-1.835zm9.98-.059c0 1.223-.333 2.19-1 2.9-.597.631-1.338.946-2.223.946-.955 0-1.64-.34-2.058-1.02h-.03v3.788h-1.61v-7.754c0-.768-.021-1.557-.06-2.367h1.416l.09 1.14h.03c.537-.859 1.352-1.287 2.447-1.287.854 0 1.568.335 2.14 1.005.571.672.858 1.554.858 2.65zm-1.641.059c0-.7-.16-1.277-.479-1.731a1.651 1.651 0 0 0-1.401-.71c-.398 0-.759.131-1.082.391a1.814 1.814 0 0 0-.633 1.029c-.05.198-.075.36-.075.487v1.199c0 .523.162.964.483 1.325.324.36.744.54 1.262.54.607 0 1.08-.232 1.417-.695.338-.464.508-1.076.508-1.835zm10.964.828c0 .849-.297 1.539-.893 2.071-.655.583-1.567.873-2.739.873-1.082 0-1.95-.206-2.606-.62l.374-1.332a4.443 4.443 0 0 0 2.328.637c.607 0 1.08-.137 1.418-.408.338-.271.507-.635.507-1.09 0-.404-.14-.745-.418-1.022-.278-.276-.74-.533-1.387-.77-1.76-.652-2.64-1.606-2.64-2.86 0-.82.308-1.492.925-2.015.615-.524 1.436-.785 2.462-.785.915 0 1.675.158 2.282.473l-.403 1.303c-.567-.306-1.208-.459-1.925-.459-.566 0-1.009.139-1.326.414a1.18 1.18 0 0 0-.403.903c0 .394.153.72.462.977.268.236.755.493 1.462.77.866.345 1.5.749 1.91 1.212.407.461.61 1.039.61 1.728zm5.326-3.195H70.07v3.491c0 .888.312 1.332.94 1.332.287 0 .526-.025.715-.074l.045 1.213c-.318.118-.736.177-1.253.177-.636 0-1.133-.193-1.492-.577-.358-.385-.538-1.031-.538-1.939v-3.624H67.43v-1.2h1.057V15.79l1.583-.473v1.79h1.775v1.2zm8.011 2.337c0 1.106-.318 2.013-.955 2.723-.667.73-1.552 1.094-2.656 1.094-1.064 0-1.911-.35-2.543-1.05-.631-.7-.947-1.583-.947-2.647 0-1.115.325-2.027.977-2.737.65-.71 1.528-1.066 2.632-1.066 1.064 0 1.92.35 2.566 1.051.618.68.926 1.557.926 2.632zm-1.67.052c0-.663-.144-1.232-.433-1.706-.338-.574-.82-.86-1.446-.86-.648 0-1.14.287-1.477.86-.29.475-.433 1.053-.433 1.736 0 .663.143 1.232.433 1.706.348.574.835.86 1.462.86.615 0 1.098-.292 1.447-.875.296-.484.446-1.058.446-1.72zm6.906-2.183a2.82 2.82 0 0 0-.507-.044c-.567 0-1.005.212-1.313.637-.269.375-.403.848-.403 1.42v3.773h-1.61l.015-4.926c0-.829-.02-1.584-.06-2.264h1.402l.06 1.376h.044a2.46 2.46 0 0 1 .805-1.14 1.958 1.958 0 0 1 1.165-.384c.149 0 .283.01.402.029v1.523zm7.204 1.85c0 .287-.018.528-.058.725h-4.833c.019.71.252 1.254.701 1.628.407.335.934.503 1.58.503.716 0 1.37-.113 1.956-.34l.253 1.109c-.687.297-1.496.444-2.431.444-1.124 0-2.007-.328-2.65-.984-.64-.655-.96-1.536-.96-2.64 0-1.085.298-1.987.895-2.708.626-.768 1.471-1.153 2.535-1.153 1.045 0 1.836.385 2.373 1.153.426.611.64 1.366.64 2.263zm-1.536-.414c.011-.474-.094-.883-.312-1.228-.28-.445-.708-.666-1.284-.666-.527 0-.955.216-1.282.65-.268.346-.428.76-.477 1.243h3.355v.001zM37.06 8.192c0 .882-.267 1.546-.8 1.992-.493.411-1.194.617-2.102.617-.45 0-.836-.019-1.159-.058V5.924a8.679 8.679 0 0 1 1.364-.102c.865 0 1.517.187 1.957.56.493.422.74 1.025.74 1.81zm-.835.022c0-.572-.153-1.01-.458-1.316-.305-.305-.75-.458-1.338-.458-.25 0-.462.017-.638.051v3.664c.098.015.276.022.535.022.606 0 1.074-.168 1.403-.502.33-.334.496-.821.496-1.461zm5.261.748c0 .544-.156.989-.469 1.338-.328.359-.762.538-1.305.538-.522 0-.939-.172-1.25-.516-.31-.344-.464-.778-.464-1.301 0-.547.16-.996.48-1.344.32-.349.75-.523 1.293-.523.523 0 .943.171 1.261.515.303.334.454.766.454 1.293zm-.82.026c0-.326-.072-.606-.213-.839-.166-.281-.403-.422-.71-.422-.319 0-.56.14-.727.422-.142.233-.212.517-.212.853 0 .326.071.606.212.839.172.281.41.422.719.422.302 0 .54-.143.71-.43.147-.237.22-.52.22-.845zm6.756-1.763l-1.114 3.533h-.726l-.461-1.534a11.401 11.401 0 0 1-.287-1.141h-.014a8.299 8.299 0 0 1-.286 1.14l-.49 1.535h-.734l-1.048-3.533h.813l.403 1.68c.098.397.178.775.242 1.133h.014c.06-.295.157-.671.294-1.126l.506-1.686h.645l.484 1.65c.117.403.213.79.286 1.163h.022c.053-.363.134-.75.242-1.163l.432-1.65h.777zm4.105 3.533h-.792V8.735c0-.624-.238-.936-.717-.936a.717.717 0 0 0-.572.257.907.907 0 0 0-.22.606v2.095h-.792V8.235c0-.31-.01-.647-.029-1.011h.696l.037.552h.022c.092-.171.23-.313.41-.426.215-.132.455-.199.718-.199.333 0 .61.107.829.32.273.262.41.652.41 1.17v2.117zm2.184 0h-.791V5.605h.791v5.153zm4.662-1.796c0 .544-.157.989-.47 1.338-.327.359-.763.538-1.304.538-.524 0-.94-.172-1.25-.516-.31-.344-.465-.778-.465-1.301 0-.547.16-.996.48-1.344.32-.349.751-.523 1.293-.523.523 0 .943.171 1.262.515.302.334.454.766.454 1.293zm-.822.026c0-.326-.071-.606-.213-.839-.165-.281-.402-.422-.71-.422-.318 0-.56.14-.725.422-.142.233-.213.517-.213.853 0 .326.071.606.213.839.171.281.41.422.718.422.303 0 .539-.143.71-.43.147-.237.22-.52.22-.845zm4.654 1.77h-.711l-.06-.407h-.021c-.243.324-.59.487-1.04.487-.337 0-.609-.107-.813-.32a.999.999 0 0 1-.28-.72c0-.431.182-.76.547-.988.364-.228.877-.34 1.536-.334V8.41c0-.465-.246-.698-.74-.698-.35 0-.66.088-.928.262l-.161-.516c.33-.203.74-.304 1.222-.304.93 0 1.397.487 1.397 1.46v1.302c0 .352.018.633.052.842zm-.822-1.214v-.545c-.874-.015-1.31.223-1.31.712 0 .184.05.322.151.414a.557.557 0 0 0 .387.138.804.804 0 0 0 .485-.163.669.669 0 0 0 .287-.556zm5.321 1.214h-.702l-.037-.567h-.022c-.225.431-.607.647-1.144.647-.43 0-.787-.167-1.07-.501-.284-.335-.425-.768-.425-1.301 0-.572.154-1.035.462-1.389.298-.33.664-.494 1.1-.494.477 0 .812.16 1.003.48h.015V5.604h.792v4.201c0 .344.01.661.028.952zm-.82-1.49V8.68a.893.893 0 0 0-.308-.723.782.782 0 0 0-.53-.193.815.815 0 0 0-.697.35c-.168.233-.254.53-.254.894 0 .349.081.632.244.85a.817.817 0 0 0 .692.349c.26 0 .467-.097.625-.291a.963.963 0 0 0 .228-.647zm7.592-.306c0 .544-.156.989-.469 1.338-.328.359-.762.538-1.305.538-.522 0-.938-.172-1.25-.516-.31-.344-.464-.778-.464-1.301 0-.547.16-.996.48-1.344.32-.349.75-.523 1.294-.523.522 0 .943.171 1.26.515.302.334.454.766.454 1.293zm-.82.026c0-.326-.071-.606-.213-.839-.167-.281-.402-.422-.71-.422-.318 0-.56.14-.727.422-.142.233-.212.517-.212.853 0 .326.071.606.212.839.172.281.41.422.719.422.302 0 .54-.143.71-.43.147-.237.22-.52.22-.845zm5.078 1.77h-.791V8.735c0-.624-.239-.936-.719-.936a.715.715 0 0 0-.57.257.904.904 0 0 0-.22.606v2.095h-.793V8.235c0-.31-.01-.647-.028-1.011h.695l.037.552h.022a1.15 1.15 0 0 1 .41-.426 1.35 1.35 0 0 1 .719-.199c.331 0 .608.107.828.32.274.262.41.652.41 1.17v2.117zm5.329-2.944h-.872V9.53c0 .436.155.654.462.654.142 0 .26-.012.352-.036l.02.595a1.793 1.793 0 0 1-.614.088c-.313 0-.556-.094-.732-.283-.177-.189-.265-.507-.265-.952V7.814h-.52v-.588h.52V6.58l.776-.233v.88h.872v.588zm4.191 2.944h-.792V8.75c0-.634-.239-.95-.717-.95-.367 0-.618.183-.756.55a.98.98 0 0 0-.037.283v2.124h-.79V5.605h.79v2.129h.015a1.2 1.2 0 0 1 1.07-.581c.328 0 .6.106.815.32.268.266.402.661.402 1.184v2.1zm4.325-1.933c0 .14-.01.259-.03.355h-2.375c.011.35.124.616.344.8.201.165.46.247.778.247.351 0 .671-.055.96-.167l.124.546c-.338.145-.735.218-1.195.218-.552 0-.986-.161-1.3-.484-.317-.322-.473-.754-.473-1.297 0-.532.146-.976.44-1.33.307-.377.721-.566 1.245-.566.512 0 .901.189 1.164.566.213.3.318.67.318 1.112zm-.756-.204a1.05 1.05 0 0 0-.153-.603c-.138-.218-.347-.327-.63-.327a.754.754 0 0 0-.63.32c-.132.17-.21.373-.236.61h1.65z" fill="#fff"/></svg>