<svg width="13" height="18" fill="none" xmlns="http://www.w3.org/2000/svg"><path d="M12.823 5.691L8.954 9.58a.602.602 0 0 1-.854 0 .61.61 0 0 1 0-.86l2.836-2.85H.604A.606.606 0 0 1 0 5.261c0-.336.27-.608.604-.608h10.332L8.1 1.804A.61.61 0 0 1 8.527.765a.6.6 0 0 1 .427.178l3.869 3.888a.61.61 0 0 1 0 .86zM.177 12.825l3.869-3.888a.602.602 0 0 1 .854 0 .61.61 0 0 1 0 .859l-2.836 2.851h10.332c.333 0 .604.272.604.608 0 .335-.27.607-.604.607H2.064L4.9 16.713a.61.61 0 0 1-.427 1.038.601.601 0 0 1-.427-.178L.177 13.684a.61.61 0 0 1 0-.859z" fill="#C4C4C4"/></svg>