<svg width="15" height="15" fill="none" xmlns="http://www.w3.org/2000/svg"><path d="M.836 14.538H14.54L14.553.834H.849z"/><path d="M.836 14.538H14.54L14.553.834H.849z"/><path d="M.836 14.538H14.54L14.553.834H.849z"/><path d="M12.535 12.53a6.81 6.81 0 0 1-4.847 2.008 6.797 6.797 0 0 1-4.843-2.007A6.797 6.797 0 0 1 .843 7.686a6.81 6.81 0 0 1 2.011-4.845A6.81 6.81 0 0 1 7.701.834c1.831 0 3.55.712 4.843 2.007a6.797 6.797 0 0 1 2.003 4.845 6.81 6.81 0 0 1-2.012 4.845zm-.542-9.138A6.029 6.029 0 0 0 7.7 1.612a6.04 6.04 0 0 0-4.296 1.78 6.079 6.079 0 0 0-.007 8.588 6.028 6.028 0 0 0 4.292 1.78 6.04 6.04 0 0 0 4.296-1.78 6.08 6.08 0 0 0 .008-8.588z" fill="#888"/><path d="M10.712 10.705a.388.388 0 0 1-.551 0L7.694 8.237l-2.47 2.468a.388.388 0 0 1-.551 0 .388.388 0 0 1 0-.55l2.471-2.47-2.466-2.468a.392.392 0 1 1 .275-.666.38.38 0 0 1 .273.115l2.467 2.469 2.47-2.469a.392.392 0 0 1 .274-.115c.101 0 .2.038.274.115a.388.388 0 0 1 0 .551L8.246 7.686l2.466 2.468a.388.388 0 0 1 0 .551z" fill="#888"/></svg>