<svg width="24" height="25" fill="none" xmlns="http://www.w3.org/2000/svg"><ellipse cx="12" cy="11.989" rx="12" ry="11.989" transform="translate(0 .51)" fill="#FFE000"/><path d="M22.3 12.5c0 5.682-4.61 10.29-10.3 10.29-5.689 0-10.3-4.608-10.3-10.29C1.7 6.816 6.311 2.21 12 2.21c5.69 0 10.3 4.607 10.3 10.29z" stroke="#FFBD00"/><path d="M7.662 13.908v2.596h1.133v-2.596h2.376v-1.089H8.795v-2.607H7.662v2.607H5.275v1.089h2.387zm4.267 1.672c.627.671 1.551 1.056 2.508 1.056.803 0 1.474-.253 2.013-.759.54-.517.803-1.155.803-1.925a2.48 2.48 0 0 0-.748-1.826c-.495-.495-1.166-.737-2.002-.737-.34 0-.616.055-.836.176h-.022l.055-.363.121-1.287h2.882V8.694H12.59l-.363 3.96.792.286c.374-.22.781-.33 1.21-.33.913 0 1.562.55 1.562 1.353 0 .396-.143.715-.44.968a1.532 1.532 0 0 1-1.023.363c-.627 0-1.188-.264-1.66-.781l-.738 1.067z" fill="#FAA61A"/></svg>