<svg width="6" height="13" fill="none" xmlns="http://www.w3.org/2000/svg"><path d="M.192 7.1h1.302v5.41c0 .107.085.194.191.194h2.208a.192.192 0 0 0 .191-.194V7.126h1.497c.097 0 .18-.074.19-.172L6 4.962a.195.195 0 0 0-.048-.15.19.19 0 0 0-.143-.065H4.084V3.498c0-.376.201-.567.597-.567h1.127A.192.192 0 0 0 6 2.738V.909a.192.192 0 0 0-.192-.193H4.255L4.184.715c-.27 0-1.207.053-1.947.74-.82.762-.706 1.674-.679 1.832v1.46H.192A.192.192 0 0 0 0 4.94v1.967c0 .106.086.193.192.193z" fill="#C4C4C4"/></svg>