<svg width="68" height="21" fill="none" xmlns="http://www.w3.org/2000/svg"><path d="M5.5 2.763c-3.033 0-5.5 2.418-5.5 5.39 0 2.125.907 4.273 2.624 6.214 1.282 1.45 2.553 2.27 2.606 2.305a.5.5 0 0 0 .54 0c.053-.034 1.324-.856 2.606-2.305C10.093 12.427 11 10.277 11 8.154c0-2.973-2.467-5.39-5.5-5.39zm0 12.911C4.488 14.935.986 12.092.986 8.154c0-2.44 2.025-4.424 4.514-4.424 2.489 0 4.514 1.984 4.514 4.424 0 3.938-3.503 6.781-4.514 7.52z" fill="#888"/><path d="M5.5 6.013c-1.203 0-2.183.96-2.183 2.14 0 1.18.98 2.139 2.183 2.139 1.204 0 2.183-.96 2.183-2.14 0-1.179-.98-2.139-2.183-2.139zm0 3.313c-.66 0-1.197-.526-1.197-1.173S4.84 6.98 5.5 6.98s1.197.526 1.197 1.173S6.16 9.326 5.5 9.326zm24.549 1.428c0 1.6-.406 2.858-1.217 3.774-.807.916-1.93 1.374-3.37 1.374-1.472 0-2.61-.45-3.411-1.347-.798-.902-1.197-2.174-1.197-3.814 0-1.627.402-2.887 1.204-3.78.802-.898 1.941-1.347 3.418-1.347 1.435 0 2.556.455 3.363 1.367.807.911 1.21 2.17 1.21 3.773zm-7.964 0c0 1.354.287 2.381.861 3.083.58.698 1.418 1.046 2.516 1.046 1.107 0 1.944-.348 2.509-1.046.565-.697.847-1.725.847-3.083 0-1.344-.282-2.363-.847-3.055-.56-.698-1.393-1.046-2.495-1.046-1.108 0-1.95.35-2.53 1.052-.574.698-.861 1.714-.861 3.05zm15.08-1.51h-2.434v6.521h-1.134V9.244H31.19v-.971h5.975v.97zm5.852-.971h1.244l-3.234 3.616 3.5 3.876h-1.326l-3.418-3.794v3.794h-1.135V8.273h1.135v3.643l3.234-3.643zm1.715 0h1.217l1.64 4.272c.36.976.584 1.68.67 2.113h.055c.06-.233.183-.63.37-1.19.191-.565.81-2.297 1.859-5.195h1.217l-3.22 8.531c-.319.843-.693 1.44-1.121 1.791-.424.356-.946.533-1.565.533a4.57 4.57 0 0 1-1.026-.116v-.91c.25.056.531.083.84.083.78 0 1.336-.438 1.669-1.313l.417-1.066-3.022-7.533zm14.752 10.083h-1.1v-2.591h-5.236v2.59h-1.094v-3.567h.588c.61-.83 1.089-1.803 1.435-2.92a12.53 12.53 0 0 0 .54-3.595h3.794v6.515h1.073v3.568zm-2.167-3.568v-5.62h-1.681a12.457 12.457 0 0 1-.588 3.077c-.328 1.034-.738 1.882-1.23 2.543h3.5zm8.279.977l-.226-1.066h-.055c-.373.469-.747.788-1.12.957-.37.164-.832.246-1.388.246-.743 0-1.327-.192-1.75-.574-.42-.383-.63-.928-.63-1.634 0-1.513 1.21-2.306 3.63-2.38l1.272-.04v-.465c0-.588-.128-1.02-.383-1.299-.25-.282-.654-.424-1.21-.424-.624 0-1.33.192-2.119.575l-.348-.869c.369-.2.772-.357 1.21-.471a5.29 5.29 0 0 1 1.326-.171c.893 0 1.554.198 1.982.595.433.396.65 1.032.65 1.907v5.113h-.841zm-2.564-.8c.707 0 1.26-.193 1.661-.58.406-.388.609-.93.609-1.628v-.677l-1.135.048c-.902.032-1.554.174-1.955.424-.397.246-.595.631-.595 1.155 0 .41.123.723.37.937.25.214.599.321 1.045.321z" fill="#888"/></svg>