<svg width="11" height="15" fill="none" xmlns="http://www.w3.org/2000/svg"><path d="M0 .763h11V14.75H0z"/><path d="M0 .763h11V14.75H0z"/><path d="M5.5.763C2.467.763 0 3.181 0 6.153c0 2.125.907 4.273 2.624 6.214 1.282 1.45 2.553 2.27 2.606 2.305a.5.5 0 0 0 .54 0c.053-.034 1.324-.856 2.606-2.305C10.093 10.427 11 8.277 11 6.154 11 3.18 8.533.764 5.5.764zm0 12.911C4.488 12.935.986 10.092.986 6.154c0-2.44 2.025-4.424 4.514-4.424 2.489 0 4.514 1.984 4.514 4.424 0 3.938-3.503 6.781-4.514 7.52z" fill="#888"/><path d="M5.5 4.013c-1.203 0-2.183.96-2.183 2.14 0 1.18.98 2.139 2.183 2.139 1.204 0 2.183-.96 2.183-2.14 0-1.179-.98-2.139-2.183-2.139zm0 3.312c-.66 0-1.197-.526-1.197-1.172 0-.647.537-1.173 1.197-1.173s1.197.526 1.197 1.173c0 .646-.537 1.172-1.197 1.172z" fill="#888"/></svg>