<svg width="80" height="50" fill="none" xmlns="http://www.w3.org/2000/svg"><path fill-rule="evenodd" clip-rule="evenodd" d="M55.984 22.685c1.882-3.674 2.979-7.44 3.167-10.466.19-2.933-.345-6.36-1.787-8.15-5.236-6.514-17.118-.772-16.836-.494 0 0 4.17-1.544 8.12-1.79C60.561.147 57.363 16.047 53.82 21.727c-2.1 3.396-11.35 14.789-14.892 17.63-1.85 1.45-4.986 3.735-8.247 5.31-3.04 1.481-6.207 2.284-8.778 2.716-5.267.896-8.151-2.253-8.935-5-.816-2.718-.032-8.244-.032-8.244s-.25.031-.91 2.593c-1.128 4.384-.344 10.466 5.206 12.658 1.88.741 3.856.71 7.9-.062 8.716-1.637 16.179-8.892 20.38-12.504 2.727-2.346 7.43-8.12 10.471-14.14zm22.669 18.308H75.61l-4.484 5.094 2.384-.031.846-1.08 1.631.03h.94l.189 1.05L80 45.995l-1.347-5.002zm-3.511 2.964l.846-.988.44-.525.375 1.513h-1.661zm-6.084-3.025h-3.01l-3.636 3.951-.658.031-.597 1.976h2.164l.22-.864h4.89l-.25.864h2.289l.533-1.945h-.66l-1.285-4.013zm-3.01 4.013l-1.473-.03 1.474-1.667.846-.957.659 2.685-1.505-.031zm-19.093-4.013h3.01l1.349 5.124h-2.886l-.72-3.58-2.948 3.55-2.32-.031 4.515-5.063zm9.564.061h3.04l1.348 5.002-2.884.061-.189-1.05h-.94l-1.63-.03-.847 1.08-2.383.031 4.485-5.094zm-.47 2.964l.845-.988.439-.525.376 1.513h-1.66z" fill="#000"/><path fill-rule="evenodd" clip-rule="evenodd" d="M6.29 27.157l6.052-10.868s1.003-1.358 2.1-1.76c1.098-.37 2.163.186 1.693 1.39-.47 1.204-6.114 11.238-6.114 11.238h8.371s.44.216.377.649c-.032.432-.22.802-.502 1.203-.251.37-1.348 2.346-1.443 3.057-.062.68-.062 2.13.19 2.623 1.598 2.872 4.64.094 6.082-1.48 2.257-2.501 6.05-7.658 5.11-11.362-.283-1.02-.69-1.73-1.85-1.976-1.128-.247-3.103.308-4.483 1.667-1.38 1.39-2.383 2.686-2.885 3.304-.533.617-2.195 1.45-2.633 1.389-.44-.031-.66-.124-.66-.432 0-.278.095-.804.628-1.482.501-.71 1.85-2.254 3.167-3.55 1.317-1.298 4.42-3.613 6.93-4.385 2.476-.74 4.702-.155 5.423 1.02.69 1.172 1.317 3.179-.188 7.347-.44 1.235-1.16 2.562-1.944 3.828-1.913 3.057-4.483 5.866-6.303 7.44-1.943 1.698-9.781 6.793-10.879 1.328-.25-1.297-.094-2.439.283-3.612.376-1.173 1.16-2.84 1.128-2.84h-5.8s-3.198 6.76-3.512 7.502c-.313.71-1.065 2.47-1.912 2.901-.815.433-1.536.711-1.912.557-.408-.124-.91-.865-.784-1.359.125-.463 4.42-9.57 4.42-9.57l-2.822-.031s-.69.154-.532-.494c.125-.649.752-1.482 1.38-2.1.658-.618 1.912-1.08 1.912-1.08l1.912-.062zm22.386 5.362s-.91 1.698-1.598 3.18c-.346.74-1.568 2.84 0 3.118.375.062 1.003-.278 1.536-.556.533-.308 1.254-1.328 1.661-2.16.408-.834 1.756-3.83 1.756-3.83l5.424-.061c.062 0-.282 1.019-.439 1.389-.125.402-.219 1.482-.156 2.347.062.833.532 1.482 1.254 1.914.752.432 2.006.062 2.79-.093.783-.186 3.072-1.235 3.072-1.235s.126.556.282.834c.126.31.627.68 1.224.772.564.123 1.316-.093 2.037-.34.721-.247 2.665-1.389 3.324-1.852.627-.494 3.354-2.903 3.354-2.903-.126 1.483-.47 2.224.251 3.551.753 1.328 3.512 1.019 4.703.556.658-.248 1.474-1.328 1.474-1.328.407 1.111.783 1.575 1.818 2.13 2.226 1.174 6.365-.74 8.089-1.945 1.16-.833 2.948-2.253 3.418-3.056.47-.803-.503-1.112-1.442-.834-.941.248-1.599.834-2.101 1.328-1.255 1.235-4.17 2.686-5.456.71-1.223-1.821 1.474-6.514 2.98-7.626.783-.555 2.225-.987 3.071-.987.878 0 1.224 1.11 1.224 1.76 0 .648-.126 1.141.282 1.358.375.246 1.066-.094 2.006-.618.91-.525 1.567-1.606 1.661-2.007.063-.4-.282-1.296-.908-2.192-.628-.895-1.255-1.204-2.478-1.266-1.222-.061-2.382.278-3.323.618-3.354 1.173-5.832 4.23-7.586 7.132C60.97 31.87 60.593 34 60.593 34c-1.129 0-2.352.092-2.634-1.297-.094-.463.406-2.007.815-2.964.376-.927 2.727-4.6 2.884-5.433.157-.866-1.034-.772-1.944-.279-.91.463-2.1 2.192-2.445 2.594-.314.401-1.631 1.944-2.132 2.47-.502.524-2.54 2.624-3.354 3.365-.816.71-2.697 2.346-3.324 2.13-.627-.247-.533-.957-.408-1.73.095-.801.752-2.407 1.41-3.889.66-1.482 2.697-4.353 3.23-5.31.565-.957-.313-1.204-1.378-.772-1.098.432-2.07 1.79-2.698 2.624-.626.803-1.724 2.655-2.226 3.55-.47.896-1.974 4.57-1.974 4.57s-1.192.649-1.725.834c-.502.215-1.192.278-1.536.185-.376-.123-.627-.648-.721-1.173-.063-.494.188-1.359.188-1.359s.72-.463 1.129-.71c.407-.277 1.348-1.05 1.535-1.575.189-.524-.218-.524-.218-.524l-1.16-.093s1.567-2.655 1.755-2.84c.188-.216.972-1.266 1.411-1.637.47-.34.909-1.358.564-1.759-.314-.432-1.505-.062-2.163.432-.659.494-1.536 1.482-2.415 2.439-.846.988-2.288 3.427-2.288 3.427l-5.08.062s1.788-2.873 2.195-3.427c.408-.525.721-1.359.628-1.977-.095-.617-.973-.648-1.82-.247-.846.402-1.817 1.76-2.413 2.625-.596.864-2.289 3.705-2.289 3.705s-.439.278-.878.524c-.408.247-.909.71-1.097 1.236-.189.525.658.74.658.74z" fill="#EB2E2E"/></svg>