<svg width="12" height="10" fill="none" xmlns="http://www.w3.org/2000/svg"><path d="M1.152 3.587c.152.102.61.406 1.373.91a325.996 325.996 0 0 1 2.039 1.36 7.005 7.005 0 0 0 .71.45c.136.077.264.135.384.173.121.038.233.057.335.057h.014c.102 0 .214-.019.335-.057.12-.038.249-.096.385-.172a7.135 7.135 0 0 0 .71-.45l.284-.195c.41-.273 1.455-.965 3.134-2.076a3.11 3.11 0 0 0 .817-.786A1.63 1.63 0 0 0 12 1.837a.957.957 0 0 0-.318-.721 1.06 1.06 0 0 0-.754-.3H1.072c-.343 0-.608.11-.793.331-.185.222-.278.499-.278.83 0 .269.123.56.368.872.246.313.507.56.784.738z" fill="#fff"/><path d="M11.33 4.27c-1.464.945-2.576 1.68-3.334 2.204-.255.178-.461.318-.62.418-.158.1-.37.202-.633.306a2.006 2.006 0 0 1-.736.157h-.014c-.227 0-.473-.052-.736-.157a3.898 3.898 0 0 1-.633-.306c-.159-.1-.365-.24-.62-.418C3.403 6.052 2.293 5.318.677 4.27A3.506 3.506 0 0 1 0 3.715v5.07a.96.96 0 0 0 .315.722c.21.2.462.3.756.3h9.858c.294 0 .546-.1.756-.3A.96.96 0 0 0 12 8.785v-5.07c-.192.204-.415.39-.67.555z" fill="#fff"/></svg>