<svg width="13" height="13" fill="none" xmlns="http://www.w3.org/2000/svg"><path d="M8.745 6.652C8.671 5.27 7.605 4.44 6.315 4.44h-.048c-1.487 0-2.311 1.124-2.311 2.4 0 1.43.997 2.333 2.306 2.333 1.458 0 2.417-1.027 2.486-2.242l-.003-.28zm-2.47-3.449c.993 0 1.927.422 2.613 1.084v.002c0-.317.222-.556.53-.556l.079-.001c.482 0 .581.439.581.578l.002 4.933c-.034.323.347.49.558.283.825-.814 1.81-4.186-.512-6.139-2.164-1.82-5.069-1.52-6.613-.497C1.87 3.978.82 6.388 1.84 8.65c1.112 2.469 4.296 3.205 6.188 2.47.958-.371 1.4.874.405 1.28-1.503.616-5.688.554-7.643-2.701C-.529 7.5-.459 3.634 3.044 1.63 5.724.097 9.257.522 11.387 2.66c2.227 2.236 2.097 6.423-.075 8.05-.984.74-2.446.02-2.437-1.057l-.01-.352a3.732 3.732 0 0 1-2.59 1.035c-1.963 0-3.69-1.66-3.69-3.547 0-1.906 1.727-3.586 3.69-3.586" fill="#C4C4C4"/></svg>