<svg width="7" height="13" fill="none" xmlns="http://www.w3.org/2000/svg"><path d="M2.926 9.16c-.904-.098-1.718-.327-2.416-.888-.087-.07-.176-.137-.255-.215C-.05 7.756-.08 7.41.161 7.054c.206-.304.553-.386.914-.211.07.034.136.076.2.122 1.3.918 3.086.944 4.391.041a1.18 1.18 0 0 1 .428-.228.664.664 0 0 1 .769.316c.191.32.189.633-.047.881-.36.381-.795.657-1.277.85-.456.18-.955.272-1.45.333.075.084.11.125.157.173.67.694 1.345 1.384 2.014 2.08.228.237.276.531.15.807-.137.301-.444.5-.745.478-.191-.013-.34-.111-.472-.248-.507-.524-1.023-1.039-1.52-1.573-.144-.155-.213-.126-.34.009-.51.54-1.028 1.07-1.55 1.599-.233.237-.511.28-.783.144a.818.818 0 0 1-.457-.75c.01-.206.108-.363.245-.504l1.99-2.05c.043-.045.084-.093.148-.164z" fill="#C4C4C4"/><path d="M3.477 6.783C1.864 6.777.542 5.403.552 3.743.562 2.062 1.884.71 3.512.714c1.631.004 2.94 1.377 2.933 3.073-.009 1.658-1.34 3-2.968 2.995zm1.465-3.037C4.939 2.922 4.3 2.266 3.5 2.264c-.807 0-1.45.668-1.445 1.5.006.821.65 1.473 1.453 1.47.8-.003 1.437-.663 1.434-1.488z" fill="#C4C4C4"/></svg>