<svg width="12" height="13" fill="none" xmlns="http://www.w3.org/2000/svg"><path d="M9.123 8.782c-.392-.387-.881-.387-1.27 0-.298.294-.595.588-.887.888-.08.082-.148.1-.245.045-.192-.105-.397-.19-.582-.305-.861-.541-1.583-1.237-2.222-2.02-.317-.39-.6-.806-.797-1.275-.04-.095-.032-.158.045-.235.297-.287.587-.581.88-.876.406-.409.406-.888-.003-1.3-.233-.234-.465-.463-.697-.698-.24-.24-.477-.481-.72-.718-.391-.382-.88-.382-1.27.002-.3.294-.587.596-.892.886a1.445 1.445 0 0 0-.454.975c-.048.621.105 1.208.32 1.779.439 1.183 1.108 2.233 1.92 3.196a11.882 11.882 0 0 0 3.935 3.076c.69.334 1.403.591 2.18.634.534.03.999-.105 1.371-.522.255-.284.542-.544.812-.815.4-.405.402-.894.005-1.293-.475-.476-.952-.95-1.429-1.424zm-.477-1.989l.922-.157a4.113 4.113 0 0 0-1.151-2.22 4.098 4.098 0 0 0-2.348-1.17l-.13.925a3.18 3.18 0 0 1 1.818.906c.47.469.777 1.063.89 1.716zm1.441-4.001A6.797 6.797 0 0 0 6.19.85l-.13.925a5.895 5.895 0 0 1 3.367 1.677 5.88 5.88 0 0 1 1.65 3.18L12 6.477a6.836 6.836 0 0 0-1.913-3.684z" fill="#fff"/></svg>