<svg width="14" height="15" fill="none" xmlns="http://www.w3.org/2000/svg"><path d="M0 .98h14v13.987H0z"/><path d="M0 .98h11.855v11.845H0z"/><path d="M0 .98h11.855v11.845H0z"/><path d="M10.119 2.715A5.891 5.891 0 0 0 5.928.98a5.891 5.891 0 0 0-4.192 1.735A5.88 5.88 0 0 0 0 6.902a5.88 5.88 0 0 0 1.736 4.188 5.892 5.892 0 0 0 4.192 1.735 5.892 5.892 0 0 0 4.191-1.735 5.88 5.88 0 0 0 1.736-4.188 5.88 5.88 0 0 0-1.736-4.187zm-4.191 8.98A4.8 4.8 0 0 1 1.13 6.901 4.8 4.8 0 0 1 5.928 2.11a4.8 4.8 0 0 1 4.796 4.792 4.8 4.8 0 0 1-4.796 4.792z" fill="#EB2E2E"/><path d="M9.151 10.123h4.85v4.844H9.15z"/><path d="M9.151 10.123h4.85v4.844H9.15z"/><path d="M13.835 14.003l-3.718-3.714a.566.566 0 0 0-.8.799l3.718 3.714a.564.564 0 0 0 .8 0 .565.565 0 0 0 0-.8z" fill="#EB2E2E"/></svg>