<svg width="14" height="15" fill="none" xmlns="http://www.w3.org/2000/svg"><path d="M10.119 2.687A5.891 5.891 0 0 0 5.928.952a5.891 5.891 0 0 0-4.192 1.735A5.88 5.88 0 0 0 0 6.875a5.88 5.88 0 0 0 1.736 4.187 5.891 5.891 0 0 0 4.192 1.735 5.891 5.891 0 0 0 4.191-1.735 5.88 5.88 0 0 0 1.736-4.187 5.88 5.88 0 0 0-1.736-4.188zm-4.191 8.98A4.8 4.8 0 0 1 1.13 6.875a4.8 4.8 0 0 1 4.797-4.793 4.8 4.8 0 0 1 4.796 4.793 4.8 4.8 0 0 1-4.796 4.792z" fill="#888"/><path d="M13.834 13.975l-3.717-3.714a.566.566 0 0 0-.8.799l3.718 3.714a.564.564 0 0 0 .8 0 .565.565 0 0 0 0-.799z" fill="#888"/></svg>