<svg width="53" height="20" fill="none" xmlns="http://www.w3.org/2000/svg"><path d="M5.5 3.763c-3.033 0-5.5 2.418-5.5 5.39 0 2.125.907 4.273 2.624 6.214 1.282 1.45 2.553 2.27 2.606 2.305a.5.5 0 0 0 .54 0c.053-.034 1.324-.856 2.606-2.305C10.093 13.427 11 11.277 11 9.154c0-2.973-2.467-5.39-5.5-5.39zm0 12.911C4.488 15.935.986 13.092.986 9.154c0-2.44 2.025-4.424 4.514-4.424 2.489 0 4.514 1.984 4.514 4.424 0 3.938-3.503 6.781-4.514 7.52z" fill="#888"/><path d="M5.5 7.013c-1.203 0-2.183.96-2.183 2.14 0 1.18.98 2.139 2.183 2.139 1.204 0 2.183-.96 2.183-2.14 0-1.179-.98-2.139-2.183-2.139zm0 3.313c-.66 0-1.197-.526-1.197-1.173S4.84 7.98 5.5 7.98s1.197.526 1.197 1.173-.537 1.173-1.197 1.173zm23.065 5.44h-1.408l-4.62-5.065v5.065h-1.163V5.772h1.162v4.84l4.505-4.84h1.333l-4.423 4.853 4.614 5.14zm.02-7.492h1.218l1.64 4.272c.36.975.584 1.68.67 2.113h.055c.06-.233.182-.63.37-1.19.19-.565.81-2.297 1.859-5.195h1.216l-3.22 8.531c-.319.843-.692 1.44-1.12 1.791-.424.355-.946.533-1.566.533a4.57 4.57 0 0 1-1.025-.116v-.91c.25.056.53.083.84.083.78 0 1.336-.438 1.668-1.313l.417-1.066-3.021-7.533zm14.753 10.083h-1.1v-2.591H37v2.59h-1.094v-3.568h.588c.61-.83 1.09-1.802 1.436-2.919a12.55 12.55 0 0 0 .54-3.595h3.794v6.514h1.073v3.569zm-2.167-3.569V9.17h-1.682a12.462 12.462 0 0 1-.588 3.076c-.328 1.035-.738 1.883-1.23 2.543h3.5zm8.278.978l-.225-1.066h-.055c-.374.469-.747.788-1.121.957-.37.164-.832.246-1.388.246-.743 0-1.326-.192-1.75-.575-.42-.382-.629-.927-.629-1.633 0-1.513 1.21-2.306 3.63-2.38l1.272-.04v-.465c0-.588-.128-1.021-.383-1.299-.25-.282-.654-.424-1.21-.424-.625 0-1.33.192-2.12.574l-.348-.868c.37-.2.773-.357 1.21-.471a5.29 5.29 0 0 1 1.326-.171c.893 0 1.554.198 1.983.594.433.397.649 1.033.649 1.908v5.113h-.84zm-2.563-.8c.706 0 1.26-.194 1.66-.581.407-.387.61-.93.61-1.627v-.677l-1.136.048c-.902.032-1.554.173-1.955.424-.396.246-.594.631-.594 1.155 0 .41.123.723.369.937.25.214.6.321 1.046.321z" fill="#888"/></svg>