<svg width="12" height="11" fill="none" xmlns="http://www.w3.org/2000/svg"><path d="M11.728 1.866a4.5 4.5 0 0 1-.58.215 2.63 2.63 0 0 0 .522-.934.199.199 0 0 0-.064-.214.19.19 0 0 0-.22-.016c-.42.254-.873.436-1.35.543A2.566 2.566 0 0 0 8.235.713c-1.42 0-2.576 1.175-2.576 2.62 0 .113.007.226.02.338a6.563 6.563 0 0 1-4.526-2.442.192.192 0 0 0-.317.025 2.652 2.652 0 0 0-.35 1.317c0 .631.223 1.23.614 1.698a2.164 2.164 0 0 1-.345-.156.19.19 0 0 0-.19.001.197.197 0 0 0-.097.166v.035c0 .942.498 1.79 1.26 2.253a2.187 2.187 0 0 1-.195-.029.192.192 0 0 0-.182.063.2.2 0 0 0-.04.19 2.592 2.592 0 0 0 1.888 1.756 4.501 4.501 0 0 1-2.982.675.194.194 0 0 0-.205.129.199.199 0 0 0 .078.232 6.863 6.863 0 0 0 3.757 1.12c2.622 0 4.263-1.258 5.178-2.313a7.402 7.402 0 0 0 1.79-4.994c.45-.345.838-.762 1.153-1.242a.2.2 0 0 0-.012-.236.191.191 0 0 0-.227-.053z" fill="#C4C4C4"/></svg>