<svg width="12" height="8" fill="none" xmlns="http://www.w3.org/2000/svg"><path fill-rule="evenodd" clip-rule="evenodd" d="M10.328 5.159c.398.4.818.777 1.175 1.217.158.196.307.398.421.625.162.323.015.679-.266.698H9.91c-.45.038-.81-.15-1.113-.467-.242-.254-.466-.524-.699-.786a1.672 1.672 0 0 0-.315-.288c-.238-.16-.445-.111-.582.145-.139.261-.17.55-.184.84-.019.424-.143.536-.556.555-.884.043-1.723-.095-2.502-.554-.687-.404-1.22-.976-1.683-1.623C1.373 4.261.682 2.878.06 1.455-.08 1.135.023.962.366.956c.57-.011 1.141-.01 1.712 0 .232.003.385.14.475.365.308.781.686 1.525 1.16 2.214.126.183.255.367.438.496.203.143.357.096.452-.137.06-.148.087-.306.101-.464a7.12 7.12 0 0 0-.028-1.628c-.049-.338-.234-.556-.561-.62-.167-.033-.142-.097-.061-.195.14-.17.272-.275.536-.275h1.976c.31.063.38.207.422.53l.002 2.26c-.003.124.06.495.279.577.174.059.29-.085.394-.199.473-.517.81-1.128 1.113-1.76.133-.28.248-.568.36-.857.083-.214.212-.32.447-.315l1.901.002c.057 0 .114 0 .168.01.32.057.408.199.31.521-.156.506-.46.927-.756 1.35-.318.452-.657.888-.971 1.343-.29.415-.266.624.093.985z" fill="#C4C4C4"/></svg>