<svg width="120" height="121" fill="none" xmlns="http://www.w3.org/2000/svg"><path fill-rule="evenodd" clip-rule="evenodd" d="M60 .17c33.136 0 60 26.837 60 59.945 0 33.108-26.863 59.946-60 59.946-3.274 0-6.485-.265-9.615-.77l17.288-8.716-17.288 8.716c-19.126-3.078-35.229-15.185-43.78-31.81l7.47-14.193-7.47 14.193C2.382 79.278 0 69.974 0 60.114 0 27.007 26.862.17 60 .17zM12.433 76.51l1.64-3.223-1.64 3.223zm1.641-3.224l7.79-15.302-7.79 15.302z" fill="#F2F6F4"/><path fill-rule="evenodd" clip-rule="evenodd" d="M55.178 36.24h5.232-5.232zm29.374 31.338a6.817 6.817 0 0 1 5.328-3.881v48.413c1.01-.582 2-1.194 2.974-1.832V62.056c0-.822-.665-1.487-1.487-1.487-1.873 0-4.615.59-6.815 2.314V61.7h-2.55 2.55V40.059c0-3.51-2.859-6.366-6.371-6.366H37.408c-3.512 0-6.37 2.855-6.37 6.365v12.73h-1.274c-3.513 0-6.371 2.856-6.371 6.365 0 2.09 1.026 3.931 2.588 5.093-1.561 1.16-2.588 3.002-2.588 5.091 0 2.09 1.026 3.931 2.588 5.092-1.561 1.161-2.588 3.003-2.588 5.092 0 2.088 1.026 3.931 2.588 5.092-1.561 1.16-2.588 3.003-2.588 5.092 0 3.51 2.858 6.365 6.37 6.365h1.275v12.73a6.36 6.36 0 0 0 2.814 5.278 57.59 57.59 0 0 0 1.828.848 6.32 6.32 0 0 0 1.728.24h21.16l5.05-2.548h-26.21a3.825 3.825 0 0 1-3.823-3.818V96.07h1.275c3.512 0 6.37-2.856 6.37-6.365 0-2.089-1.026-3.931-2.587-5.092 1.56-1.16 2.588-3.004 2.588-5.092 0-2.089-1.027-3.93-2.588-5.092 1.56-1.16 2.588-3.003 2.588-5.092 0-2.089-1.027-3.931-2.588-5.091 1.56-1.162 2.588-3.004 2.588-5.093 0-3.509-2.858-6.365-6.371-6.365h-1.275v-12.73a3.826 3.826 0 0 1 3.823-3.819h40.773a3.825 3.825 0 0 1 3.822 3.82V108.8a3.824 3.824 0 0 1-3.822 3.818H63.618l-5.05 2.547h19.613c3.513 0 6.371-2.856 6.371-6.365V67.578zm-16.674 36.557v-2.546h7.645v2.546h-7.645zm-14.015 0v-2.546H65.33v2.546H53.863zm-5.096 0v-2.546h2.548v2.546h-2.548zm-5.097 0v-2.546h2.549v2.546H43.67zm-5.097 0v-2.546h2.549v2.546h-2.549zm21.19-27.22h-1.809v1.702H55.8v-1.702h-1.385v-1.748H55.8v-.583h-1.385v-1.748H55.8v-4.852h3.446c1.305 0 2.154.052 2.551.16.61.16 1.12.506 1.531 1.04.411.535.617 1.225.617 2.072 0 .653-.12 1.2-.355 1.646a2.947 2.947 0 0 1-.9 1.05 3.11 3.11 0 0 1-1.114.501c-.512.102-1.253.154-2.224.154h-1.397v.56h1.81v1.748zm-1.809-7.133h1.033c.773 0 1.286.025 1.54.071.35.065.635.224.862.475.226.253.34.572.34.961a1.396 1.396 0 0 1-.912 1.354c-.285.11-.847.167-1.692.167h-1.172v-3.028h.001zm1.225-13.507c4.705 0 8.966 1.906 12.05 4.986a16.97 16.97 0 0 1 4.991 12.04c0 4.7-1.907 8.957-4.991 12.038a16.996 16.996 0 0 1-12.05 4.987 16.993 16.993 0 0 1-12.05-4.987A16.966 16.966 0 0 1 42.138 73.3c0-4.7 1.907-8.957 4.991-12.039a17 17 0 0 1 12.05-4.986zm10.423 6.613A14.672 14.672 0 0 1 73.92 73.3c0 4.067-1.65 7.748-4.317 10.414a14.698 14.698 0 0 1-10.423 4.313 14.702 14.702 0 0 1-10.423-4.313A14.671 14.671 0 0 1 44.44 73.3c0-4.068 1.65-7.748 4.317-10.413a14.698 14.698 0 0 1 10.423-4.314 14.7 14.7 0 0 1 10.423 4.314zm-39.838.085a3.826 3.826 0 0 1-3.823-3.82 3.826 3.826 0 0 1 3.823-3.82h5.096a3.826 3.826 0 0 1 3.823 3.82 3.826 3.826 0 0 1-3.823 3.82h-5.096zm0 10.183a3.825 3.825 0 0 1-3.823-3.819 3.826 3.826 0 0 1 3.823-3.819h5.096a3.826 3.826 0 0 1 3.823 3.82 3.825 3.825 0 0 1-3.823 3.818h-5.096zm0 10.185a3.826 3.826 0 0 1-3.823-3.82 3.825 3.825 0 0 1 3.823-3.82h5.096a3.826 3.826 0 0 1 3.823 3.82 3.826 3.826 0 0 1-3.823 3.82h-5.096zm0 10.183a3.825 3.825 0 0 1-3.823-3.819 3.826 3.826 0 0 1 3.823-3.82h5.096a3.826 3.826 0 0 1 3.823 3.82 3.825 3.825 0 0 1-3.823 3.82h-5.096z" fill="#000003"/><path fill-rule="evenodd" clip-rule="evenodd" d="M59.764 76.915h-1.81v1.702H55.8v-1.702h-1.384v-1.748H55.8v-.583h-1.384v-1.748H55.8v-4.852h3.446c1.306 0 2.155.052 2.552.16.61.16 1.12.506 1.53 1.04.412.535.617 1.225.617 2.072 0 .653-.119 1.2-.354 1.646a2.947 2.947 0 0 1-.901 1.05c-.365.252-.736.42-1.113.5-.512.103-1.254.155-2.224.155h-1.397v.56h1.809v1.748zm-1.81-7.134v3.03h1.173c.844 0 1.406-.057 1.691-.168a1.394 1.394 0 0 0 .912-1.353c0-.39-.113-.708-.34-.961a1.492 1.492 0 0 0-.861-.475c-.255-.046-.767-.072-1.54-.072h-1.034zm11.649-6.893a14.701 14.701 0 0 0-10.423-4.314 14.702 14.702 0 0 0-10.423 4.314A14.67 14.67 0 0 0 44.44 73.3c0 4.067 1.65 7.748 4.317 10.413a14.698 14.698 0 0 0 10.423 4.314c4.07 0 7.755-1.649 10.423-4.314A14.67 14.67 0 0 0 73.919 73.3a14.67 14.67 0 0 0-4.316-10.413z" fill="#EE292A"/></svg>