<svg width="77" height="54" fill="none" xmlns="http://www.w3.org/2000/svg"><path fill-rule="evenodd" clip-rule="evenodd" d="M55.142 50.704l-17.391-9.14-29.49-15.5 46.88 24.64zm-17.39-9.136l-18.158-9.544 18.159 9.544zm17.392 9.14l-5.862-3.08 5.862 3.08zM37.7 40.504c0-.002.002-6.23.002.004 0 .352.032.713.093 1.08l-18.234-9.584c-.487 2.424-2.833 3.223-5.656 1.74-1.986-1.045-3.736-2.971-4.77-5.043l-.073-.151-.002-.004-.071-.152-.002-.004-.07-.152-.001-.004-.066-.152-.002-.005-.063-.152-.002-.004-.06-.153-.002-.005-.057-.152a8.66 8.66 0 0 1-.416-1.548L3.984 23.82c-1.074-.67-1.792-1.389-2.184-2.146l-.026-.052-.002-.004-.026-.052-.002-.004-.024-.053-.002-.005-.023-.053-.002-.004-.022-.053-.002-.004-.021-.054-.002-.004-.02-.053a3.056 3.056 0 0 1-.186-1.008V14.97l.003.002-.003-.002c.075-.046.946-3.394 1.02-3.44C8.964 7.494 15.47 2.97 22.228 1.36c4.494-1.072 10.3-.144 17.88 3.491 8.01 4.018 14.876 10.956 21.117 19.494 3.744 2.094 7.624 5.279 11.567 8.98.917.86 1.499 1.5 1.846 2.173l.029.056.002.004.028.057.002.004.026.058.002.004.025.057.002.005.024.058.002.004.022.058.002.005.02.06c.186.507.257 1.06.254 1.756l-.015 2.85c-.005.962-.22 1.522-.627 1.767L58.66 51.81l-3.517-1.098-.025-.017-6.01-3.16c-.486 2.425-2.833 3.224-5.656 1.74-1.986-1.044-3.736-2.97-4.77-5.042l-.073-.151-.002-.004-.071-.152-.002-.004-.07-.152-.001-.005-.066-.152-.002-.004-.063-.153-.002-.004-.06-.153-.002-.005-.057-.152c-.327-.899-.51-1.795-.51-2.639zM15.84 29.015s-.002.953-.002-.004c0-.719.002-1.37.002.004zM8.158 24.92c0-.214.064-2.127.004-.225 0 .018.037.924.036.943l.064.427H8.26l-.011-.007a8.849 8.849 0 0 1-.092-1.138z" fill="#fff"/><path fill-rule="evenodd" clip-rule="evenodd" d="M36.205 39.684l-12.012-6.291c-.107-2.179-.278-6.507-.192-8.629 6.754 3.5 9.602 6.81 12.204 14.92z" fill="#ED1C24"/><path d="M44.413 46.975c-.456 0-.928-.125-1.402-.375-1.432-.753-2.512-2.432-2.512-3.906 0-1.323.87-2.247 2.115-2.247.457 0 .928.126 1.402.375 1.432.753 2.512 2.433 2.512 3.905 0 .633-.197 1.183-.569 1.59-.387.426-.936.658-1.546.658zm-1.75-4.366a.913.913 0 0 0-.004.085c0 .605.581 1.587 1.357 1.996.166.086.283.114.348.123a.906.906 0 0 0 .004-.084c0-.604-.581-1.586-1.358-1.996a1.078 1.078 0 0 0-.347-.124z" fill="#000"/><path d="M46.187 51.282c-1.007 0-2.076-.293-3.176-.872-3.547-1.864-6.326-6.134-6.326-9.72 0-2.72 1.67-4.549 4.156-4.549 1.007 0 2.075.294 3.176.872 3.547 1.865 6.326 6.134 6.326 9.72 0 1.341-.393 2.478-1.135 3.29-.752.824-1.797 1.26-3.02 1.26zM40.84 38.3c-1.736 0-1.996 1.499-1.996 2.39 0 2.76 2.368 6.337 5.171 7.81.776.408 1.526.624 2.17.624.61 0 1.09-.186 1.426-.555.373-.408.57-1.043.57-1.835 0-2.761-2.368-6.337-5.172-7.81-.775-.408-1.525-.624-2.169-.624zm-25.973-6.855c-.457 0-.928-.126-1.403-.375-1.432-.753-2.512-2.431-2.512-3.905 0-1.323.87-2.247 2.115-2.247.457 0 .928.126 1.402.375 1.432.753 2.512 2.432 2.512 3.905 0 .633-.197 1.183-.57 1.59-.385.424-.934.657-1.544.657zm-1.75-4.366a.912.912 0 0 0-.004.085c0 .605.58 1.587 1.357 1.994a1.1 1.1 0 0 0 .348.125.93.93 0 0 0 .004-.085c0-.604-.581-1.586-1.358-1.995a1.086 1.086 0 0 0-.347-.124z" fill="#000"/><path d="M16.64 35.752c-1.007 0-2.076-.293-3.176-.872-3.547-1.864-6.326-6.134-6.326-9.72 0-2.72 1.67-4.549 4.156-4.549 1.006 0 2.075.293 3.175.871 3.547 1.866 6.326 6.136 6.326 9.72 0 1.341-.393 2.478-1.135 3.29-.751.825-1.796 1.26-3.02 1.26zM11.294 22.77c-1.737 0-1.996 1.499-1.996 2.391 0 2.76 2.368 6.336 5.17 7.81.777.408 1.527.623 2.17.623.61 0 1.09-.186 1.427-.555.373-.408.57-1.043.57-1.835 0-2.76-2.368-6.337-5.172-7.811-.775-.407-1.525-.623-2.17-.623z" fill="#000"/><path d="M58.33 53.164c-.983 0-2.176-.522-3.645-1.327l-5.846-3.072a1.08 1.08 0 1 1 1.006-1.91l5.862 3.08c1.98 1.086 2.54 1.097 2.678 1.065-.012-.017.093-.23.096-.843l.015-2.85c.003-.595.535-1.08 1.086-1.073a1.08 1.08 0 0 1 1.074 1.085l-.015 2.85c-.003.5-.011 2.017-1.17 2.698a2.199 2.199 0 0 1-1.14.297zm-1.038-9.125c-.265 0-.531-.097-.74-.293-4.452-4.178-8.06-6.982-11.354-8.825a1.076 1.076 0 0 1-.345-.306c-6.81-9.314-13.59-15.583-20.73-19.165C15.87 11.493 9.51 10.63 4.7 12.822a1.085 1.085 0 0 1-.733.059c-.894-.244-1.116-.103-1.118-.102-.267.204-.267 1.725-.267 2.373v5.302c.013.903.698 1.793 2.036 2.63l4.208 2.209a1.078 1.078 0 1 1-1.005 1.91l-4.278-2.25c-2.07-1.292-3.096-2.787-3.12-4.485v-5.317c0-1.592 0-3.237 1.117-4.088.803-.613 1.815-.539 2.616-.36 5.379-2.28 12.228-1.36 20.92 2.808 7.422 3.723 14.414 10.147 21.384 19.642 3.395 1.93 7.08 4.802 11.572 9.019.435.407.456 1.09.048 1.524a1.078 1.078 0 0 1-.788.343zm-19.48-1.209c-.168 0-.34-.04-.501-.125l-18.16-9.544a1.078 1.078 0 1 1 1.006-1.91l18.159 9.545a1.078 1.078 0 0 1-.503 2.034z" fill="#000"/><path d="M22.526 23.95c-.172 0-.344-.042-.501-.125L10.968 18.04a1.08 1.08 0 0 1-.427-.405l-2.313-3.888a1.077 1.077 0 0 1 .004-1.109 1.07 1.07 0 0 1 .982-.52c3.124.168 6.354.34 13.742 3.552.394.17.649.56.649.989l.001 6.21c0 .378-.197.728-.521.923a1.077 1.077 0 0 1-.559.157zm-10.284-7.68l9.204 4.817-.001-3.717c-5.08-2.157-7.911-2.733-10.31-2.958l1.107 1.858zM39.88 33.385c-.174 0-.347-.042-.505-.125l-14.843-7.828a1.08 1.08 0 0 1-.576-.955l.001-6.252a1.08 1.08 0 0 1 1.66-.91c6.025 3.818 10.57 7.309 15.957 13.85a1.078 1.078 0 0 1-.33 1.64l-.86.454a1.075 1.075 0 0 1-.505.126zm-13.764-9.558L37.632 29.9c-3.779-4.17-7.22-6.879-11.515-9.695v3.622zm33.46 24.565c-.169 0-.341-.04-.502-.125-2.298-1.208-3.323-2.961-3.323-5.684a1.079 1.079 0 1 1 2.16 0c0 1.92.588 2.944 2.169 3.775a1.078 1.078 0 0 1-.504 2.034zM2.67 16.664c-.41 0-.83-.104-1.236-.319a1.078 1.078 0 1 1 1.005-1.91c.142.077.336.177.657-.216.484-.589.523-1.445.39-1.61a1.09 1.09 0 0 1 .14-1.52 1.07 1.07 0 0 1 1.503.12c1.002 1.174.607 3.169-.333 4.344-.585.729-1.34 1.11-2.126 1.11z" fill="#000"/><path d="M59.578 48.392a1.08 1.08 0 0 1-.535-2.016l15.56-8.855a1.08 1.08 0 0 1 1.069 1.875l-15.56 8.855a1.08 1.08 0 0 1-.534.141zM45.96 34.83a1.078 1.078 0 0 1-.558-2.003l15.328-9.223a1.08 1.08 0 1 1 1.114 1.849l-15.328 9.222a1.073 1.073 0 0 1-.556.155z" fill="#000"/><path d="M58.614 53.134a1.08 1.08 0 0 1-.559-2.003l15.881-9.573c-.012 0 .105-.197.11-.851l.014-2.85c.008-1.454-.3-2.02-1.944-3.562-4.453-4.18-8.06-6.983-11.355-8.825a1.077 1.077 0 0 1-.345-.306c-6.81-9.316-13.59-15.585-20.729-19.166-6.92-3.318-12.695-4.466-17.146-3.407-5.659 1.35-11.308 4.913-16.77 8.358-.969.61-1.937 1.22-2.905 1.82a1.08 1.08 0 1 1-1.137-1.835c.962-.597 1.924-1.203 2.888-1.81 5.612-3.54 11.415-7.2 17.423-8.632C27.053-.705 33.137.464 40.638 4.06 48.06 7.783 55.05 14.206 62.021 23.701c3.395 1.93 7.08 4.803 11.572 9.02 1.862 1.746 2.638 2.848 2.626 5.146l-.015 2.85c-.002.495-.01 1.998-1.149 2.686L59.17 52.977a1.057 1.057 0 0 1-.556.157z" fill="#000"/><path d="M33.765 21.58a1.078 1.078 0 0 1-.559-2.002l14.891-8.97a1.079 1.079 0 1 1 1.115 1.846l-14.891 8.971a1.073 1.073 0 0 1-.556.155zm26.197 26.594a1.08 1.08 0 0 1-.558-2.003c.387-.233.328-.646.209-.953-.248-.64-1.108-1.495-2.481-1.226a1.08 1.08 0 0 1-.417-2.117c2.394-.47 4.284.934 4.914 2.566.545 1.412.099 2.851-1.11 3.578a1.082 1.082 0 0 1-.557.155zm14.914-8.734h-.037c-2.376-.082-3.53-1.37-3.815-2.548-.333-1.37.393-2.782 1.85-3.597a1.081 1.081 0 0 1 1.47.414c.293.52.107 1.178-.414 1.469-.598.334-.907.796-.808 1.206.095.39.62.859 1.79.899a1.08 1.08 0 0 1-.036 2.156zm-47.529-9.164a1.08 1.08 0 0 1-.54-.144l-1.545-.893a1.08 1.08 0 1 1 1.08-1.87l1.546.892a1.08 1.08 0 0 1-.541 2.015z" fill="#000"/></svg>