<svg width="120" height="121" fill="none" xmlns="http://www.w3.org/2000/svg"><path fill-rule="evenodd" clip-rule="evenodd" d="M60 .17c33.137 0 60 26.837 60 59.945 0 33.107-26.862 59.946-60 59.946a60.58 60.58 0 0 1-9.615-.77l17.289-8.717-17.289 8.716c-19.126-3.078-35.228-15.184-43.78-31.808l7.47-14.194-7.47 14.194C2.384 79.277 0 69.975 0 60.115 0 27.007 26.862.17 60 .17zM12.434 76.51l1.641-3.223-1.64 3.223zm1.641-3.224l7.788-15.302-7.788 15.302z" fill="#F2F6F4"/><path fill-rule="evenodd" clip-rule="evenodd" d="M84.953 66.185l-.018.2c.024-.323.07-.642.136-.953a26.746 26.746 0 0 1 1.383 8.512c0 7.396-3 14.093-7.852 18.939a26.739 26.739 0 0 1-18.956 7.844c-3.442 0-6.727-.645-9.742-1.82a26.843 26.843 0 0 1-7.458-4.414c.02-.214.03-.43.03-.65 0-2.248-1.105-4.232-2.786-5.48 1.68-1.25 2.787-3.234 2.787-5.483 0-2.25-1.106-4.233-2.787-5.483 1.68-1.25 2.787-3.233 2.787-5.482 0-2.25-1.106-4.233-2.787-5.483 1.68-1.249 2.787-3.232 2.787-5.481a6.837 6.837 0 0 0-2.459-5.253 26.871 26.871 0 0 1 8.371-6.071 26.74 26.74 0 0 1 11.256-2.465 26.74 26.74 0 0 1 18.957 7.844 26.782 26.782 0 0 1 6.348 10.076l.003 1.103zm9.59 42.947v-51.24c0-.883-.717-1.6-1.602-1.6-2.153 0-5.37.724-7.808 2.882a29.546 29.546 0 0 0-6.762-7.954l2.468-4.223a1.459 1.459 0 0 0-.525-1.999l-5.36-3.128a1.463 1.463 0 0 0-2.002.525l-2.444 4.18a29.357 29.357 0 0 0-9.55-2.037V44.4c4.147-.698 7.316-4.31 7.316-8.65 0-4.837-3.938-8.771-8.78-8.771-4.842 0-8.78 3.935-8.78 8.772 0 4.34 3.17 7.951 7.317 8.649v.153A29.322 29.322 0 0 0 48.73 46.6l-2.457-4.204a1.462 1.462 0 0 0-2.002-.525l-5.36 3.128a1.459 1.459 0 0 0-.526 2l2.49 4.261a29.706 29.706 0 0 0-3.253 3.137 6.841 6.841 0 0 0-2.006-.299h-5.487c-3.783 0-6.86 3.075-6.86 6.854 0 2.249 1.106 4.232 2.786 5.481-1.68 1.25-2.786 3.234-2.786 5.483 0 2.249 1.106 4.232 2.787 5.482-1.68 1.25-2.787 3.234-2.787 5.483 0 2.249 1.106 4.233 2.787 5.483-1.68 1.248-2.787 3.232-2.787 5.48 0 3.78 3.077 6.854 6.86 6.854H31.5v12.177-12.177h4.115a6.864 6.864 0 0 0 5.976-3.492 29.409 29.409 0 0 0 7.347 4.168 29.416 29.416 0 0 0 10.705 2.008c8.136 0 15.502-3.296 20.834-8.622 5.331-5.327 8.628-12.685 8.628-20.814 0-4.18-.872-8.155-2.444-11.756a7.323 7.323 0 0 1 4.677-2.53v51.58a59.584 59.584 0 0 0 3.204-2.107zM73.184 47.795a29.605 29.605 0 0 1 2.826 1.669l1.566-2.68-2.834-1.653-1.558 2.664zm-27.127.028l-1.573-2.692-2.835 1.655 1.586 2.712a29.415 29.415 0 0 1 2.822-1.674zm23.872 46.92l2.538-1.457-1.464-2.548-2.538 1.455 1.464 2.55zm9.108-8.018l1.462-2.533-2.487-1.432-1.461 2.532 2.486 1.433zm3.87-11.501v-2.925h-2.926v2.925h2.926zm-4.952-10.425l2.55-1.465-1.458-2.534-2.55 1.464 1.458 2.535zm-6.952-8.018l1.465-2.549-2.537-1.456-1.465 2.548 2.537 1.457zM60.958 97.154v-2.925h-2.926v2.925h2.926zm0-43.86V50.37h-2.926v2.924h2.926zm-3.904 18.855a2.924 2.924 0 0 0 2.441 4.535 2.924 2.924 0 0 0 .177-5.842l-9.109-18.199-2.617 1.307 9.108 18.2zm6.83-34.936v-2.924h-8.78v2.924h2.927v4.2a5.857 5.857 0 0 1-4.39-5.662 5.857 5.857 0 0 1 5.854-5.848 5.856 5.856 0 0 1 5.852 5.848c0 2.72-1.868 5.012-4.39 5.663v-4.201h2.928zM30.13 65.063h5.488a4.12 4.12 0 0 0 4.116-4.112 4.12 4.12 0 0 0-4.116-4.113H30.13a4.12 4.12 0 0 0-4.115 4.113 4.12 4.12 0 0 0 4.115 4.112zm0 10.964h5.488a4.118 4.118 0 0 0 4.116-4.112 4.118 4.118 0 0 0-4.116-4.112H30.13a4.118 4.118 0 0 0-4.115 4.112 4.118 4.118 0 0 0 4.115 4.111zm0 10.965h5.488a4.118 4.118 0 0 0 4.116-4.112 4.118 4.118 0 0 0-4.116-4.112H30.13a4.118 4.118 0 0 0-4.115 4.112 4.118 4.118 0 0 0 4.115 4.112zm0 10.965h5.488a4.12 4.12 0 0 0 4.116-4.113 4.12 4.12 0 0 0-4.116-4.112H30.13a4.12 4.12 0 0 0-4.115 4.112 4.12 4.12 0 0 0 4.115 4.113z" fill="#000003"/><path fill-rule="evenodd" clip-rule="evenodd" d="M84.953 66.185l-.018.2c.024-.323.07-.642.136-.953a26.746 26.746 0 0 1 1.382 8.512c0 7.396-3 14.093-7.85 18.939a26.739 26.739 0 0 1-18.957 7.844c-3.442 0-6.727-.645-9.742-1.82a26.842 26.842 0 0 1-7.458-4.414c.02-.214.03-.43.03-.65 0-2.248-1.105-4.232-2.786-5.48 1.68-1.25 2.787-3.234 2.787-5.483 0-2.25-1.106-4.233-2.787-5.483 1.68-1.25 2.787-3.233 2.787-5.482 0-2.25-1.106-4.233-2.787-5.483 1.68-1.249 2.787-3.232 2.787-5.481a6.837 6.837 0 0 0-2.459-5.253 26.871 26.871 0 0 1 8.371-6.071 26.74 26.74 0 0 1 11.256-2.465 26.74 26.74 0 0 1 18.957 7.844 26.782 26.782 0 0 1 6.348 10.076l.002 1.103zM69.928 94.743l2.538-1.457-1.464-2.548-2.538 1.455 1.464 2.55zm9.108-8.018l1.462-2.532-2.487-1.433-1.461 2.532 2.486 1.433zm3.87-11.501v-2.925H79.98v2.925h2.926zm-4.952-10.425l2.55-1.465-1.458-2.533-2.55 1.463 1.458 2.535zm-6.952-8.018l1.465-2.548-2.537-1.457-1.465 2.548 2.537 1.457zM60.958 97.154v-2.925h-2.926v2.925h2.926zm0-43.86V50.37h-2.926v2.924h2.926zm-3.905 18.855a2.924 2.924 0 0 0 2.441 4.535 2.924 2.924 0 0 0 .178-5.842l-9.109-18.199-2.617 1.307 9.107 18.2z" fill="#EE292A"/></svg>