<svg width="120" height="121" fill="none" xmlns="http://www.w3.org/2000/svg"><path d="M60 120.061c33.137 0 60-26.839 60-59.946S93.137.17 60 .17 0 27.008 0 60.115s26.863 59.946 60 59.946z" fill="#F2F6F4"/><path fill-rule="evenodd" clip-rule="evenodd" d="M81.963 115.917c-.84.33-1.69.641-2.548.934V89.23a3.826 3.826 0 0 0-3.823-3.82H59.108c.629 5.016 4.925 8.911 10.113 8.911h2.549v2.546h-2.55c-.43 0-.855-.023-1.274-.065v.065H42.465v20.367h-.711a61.069 61.069 0 0 1-1.837-.618V96.867h-15.29c-3.513 0-6.371-2.856-6.371-6.365V49.766c0-3.51 2.858-6.365 6.37-6.365h12.742v-1.273c0-3.51 2.858-6.365 6.371-6.365 2.09 0 3.934 1.026 5.097 2.585 1.162-1.56 3.005-2.585 5.096-2.585 2.092 0 3.935 1.026 5.097 2.585 1.162-1.56 3.005-2.585 5.097-2.585 2.09 0 3.935 1.026 5.096 2.585 1.163-1.56 3.006-2.585 5.097-2.585 3.513 0 6.37 2.855 6.37 6.365V43.4h12.742c3.513 0 6.371 2.855 6.371 6.365v40.736c0 3.51-2.858 6.365-6.371 6.365H81.963v19.05zm-11.467-73.79v5.093a3.825 3.825 0 0 0 3.823 3.819 3.826 3.826 0 0 0 3.823-3.82v-5.091a3.826 3.826 0 0 0-3.823-3.82 3.826 3.826 0 0 0-3.823 3.82zm-10.193 0v5.093a3.826 3.826 0 0 0 3.823 3.819 3.826 3.826 0 0 0 3.823-3.82v-5.091a3.826 3.826 0 0 0-3.823-3.82 3.826 3.826 0 0 0-3.823 3.82zm-10.193 0v5.093a3.825 3.825 0 0 0 3.822 3.819 3.825 3.825 0 0 0 3.823-3.82v-5.091a3.825 3.825 0 0 0-3.823-3.82 3.826 3.826 0 0 0-3.822 3.82zm-10.194 0v5.093a3.826 3.826 0 0 0 3.823 3.819 3.825 3.825 0 0 0 3.823-3.82v-5.091a3.825 3.825 0 0 0-3.823-3.82 3.827 3.827 0 0 0-3.823 3.82zm57.337 48.375V49.766a3.826 3.826 0 0 0-3.823-3.82H80.69v1.274c0 3.51-2.859 6.365-6.372 6.365-2.09 0-3.934-1.026-5.097-2.585-1.16 1.56-3.005 2.585-5.096 2.585-2.09 0-3.935-1.026-5.096-2.585-1.162 1.56-3.007 2.585-5.097 2.585-2.09 0-3.934-1.026-5.097-2.585-1.162 1.56-3.006 2.585-5.097 2.585-3.512 0-6.37-2.855-6.37-6.365v-1.273H24.626a3.826 3.826 0 0 0-3.823 3.819v40.736a3.825 3.825 0 0 0 3.823 3.82H61.61c-3.106-2.323-5.13-6.018-5.13-10.185 0-.704.572-1.273 1.275-1.273h17.837c3.514 0 6.371 2.855 6.371 6.365v5.092h11.468a3.826 3.826 0 0 0 3.822-3.82z" fill="#000"/><path fill-rule="evenodd" clip-rule="evenodd" d="M21.046 91.839a3.829 3.829 0 0 0 3.58 2.481H61.61c-3.106-2.322-5.129-6.017-5.129-10.183 0-.704.571-1.273 1.274-1.273h17.838c3.513 0 6.37 2.854 6.37 6.364v5.092H93.43a3.825 3.825 0 0 0 3.823-3.819V49.766a3.826 3.826 0 0 0-3.823-3.82H80.69v1.274c0 3.51-2.859 6.365-6.372 6.365-2.09 0-3.934-1.026-5.097-2.585-1.16 1.56-3.005 2.585-5.096 2.585-2.09 0-3.935-1.026-5.096-2.585-1.162 1.56-3.007 2.585-5.097 2.585-2.09 0-3.934-1.026-5.097-2.585-1.162 1.56-3.005 2.585-5.097 2.585-3.512 0-6.37-2.855-6.37-6.365v-1.273H24.625a3.83 3.83 0 0 0-3.58 2.482 3.469 3.469 0 0 0-.24 1.197v41.003c.023.438.098.843.24 1.21z" fill="#EE292A"/><path fill-rule="evenodd" clip-rule="evenodd" d="M48.835 57.404H25.901c-.704 0-1.274.57-1.274 1.273v24.187c0 .704.57 1.273 1.274 1.273h22.934c.703 0 1.274-.569 1.274-1.273V58.677c0-.704-.57-1.273-1.274-1.273zM28.538 81.591c.43-3.922 2.801-7.221 6.137-8.425.36.226.754.397 1.168.527.064.021.126.043.191.06.2.054.4.096.606.127.035.005.07.006.105.01.207.026.41.062.623.062.213 0 .417-.036.624-.061.035-.005.07-.006.105-.01.206-.031.407-.072.605-.127.065-.018.128-.04.192-.06a5.065 5.065 0 0 0 1.167-.528c3.337 1.204 5.706 4.503 6.136 8.425H28.538zm6.282-12.73v-1.274a2.55 2.55 0 0 1 2.548-2.545 2.55 2.55 0 0 1 2.549 2.545v1.274c0 .76-.341 1.435-.871 1.901-.012.01-.028.016-.04.026a2.52 2.52 0 0 1-1.638.619 2.527 2.527 0 0 1-1.638-.619c-.012-.01-.026-.015-.038-.024a2.533 2.533 0 0 1-.872-1.903zm12.741 8.185c-1.204-2.596-3.193-4.693-5.679-5.87a5.03 5.03 0 0 0 .583-2.315v-1.274a5.1 5.1 0 0 0-5.097-5.091 5.1 5.1 0 0 0-5.097 5.091v1.274c0 .838.223 1.616.582 2.314-2.485 1.178-4.474 3.276-5.678 5.87V59.95H47.56v17.096z" fill="#000003"/><path d="M38.643 86.682H27.176v2.546h11.467v-2.546zm7.644 0H41.19v2.546h5.097v-2.546zm22.934-29.278H55.206v2.546h14.015v-2.546zm17.839 0H73.044v2.546H87.06v-2.546zM61.577 63.77h-6.37v2.545h6.37v-2.546zm8.919 0H65.4v2.545h5.097v-2.546zm-8.919 6.364h-6.37v2.545h6.37v-2.545zm-3.823 6.364h-2.548v2.546h2.548v-2.546zm5.096 0h-2.547v2.546h2.548v-2.546zm5.098 0h-2.549v2.546h2.549v-2.546zm14.015 0H70.496v2.546h11.467v-2.546zm10.193 0H84.51v2.546h7.645v-2.546z" fill="#000003"/><path fill-rule="evenodd" clip-rule="evenodd" d="M92.156 63.77h-8.92c-.703 0-1.274.568-1.274 1.272v6.366c0 .704.57 1.273 1.274 1.273h8.92c.703 0 1.274-.57 1.274-1.273v-6.366c0-.704-.571-1.273-1.274-1.273zm-1.274 6.364H84.51v-3.82h6.372v3.82z" fill="#000003"/></svg>