<svg width="120" height="121" fill="none" xmlns="http://www.w3.org/2000/svg"><path fill-rule="evenodd" clip-rule="evenodd" d="M60 .17c33.137 0 60 26.837 60 59.945 0 33.108-26.863 59.946-60 59.946-3.274 0-6.484-.265-9.615-.77l17.289-8.716-17.29 8.716c-19.124-3.079-35.227-15.186-43.779-31.81l7.47-14.194-7.47 14.194C2.383 79.278 0 69.974 0 60.115 0 27.007 26.863.17 60 .17zM12.435 76.51l1.64-3.223-1.64 3.223zm1.64-3.224l7.789-15.302-7.789 15.302z" fill="#F2F6F4"/><path fill-rule="evenodd" clip-rule="evenodd" d="M83.09 93.821h3.4-3.4zm34.245-51.424c.32 1.033.61 2.078.874 3.133L82.01 25.04a4.367 4.367 0 0 0-2.795-.495 1.075 1.075 0 0 1-.087.01v.003a3.395 3.395 0 0 0-1.335.398L51.535 39.103a1.08 1.08 0 0 1-.123.068 3.445 3.445 0 0 0-1.61 2.022 3.448 3.448 0 0 0 .299 2.701l.248.458a3.448 3.448 0 0 0 2.092 1.733c.833.249 1.757.19 2.58-.233a1.13 1.13 0 0 1 .124-.066l14.045-7.569c.4-.214.869-.168 1.215.079l16.56 11.335a1.148 1.148 0 0 1-.717 2.093l-23.378.007c.089.324.214.7.38 1.109 1.085 2.64 3.93 6.492 10.413 6.489l6.34-.003c.347 0 .659.155.87.401h.001l3.497 4.088h2.918c1.445 0 2.758.59 3.708 1.54a5.23 5.23 0 0 1 1.542 3.706v5.119h25.797a58.23 58.23 0 0 1-.598 2.299h-25.2v9.347h2.056a4.49 4.49 0 0 1 3.183 1.322 4.482 4.482 0 0 1 1.323 3.18v6.297a4.482 4.482 0 0 1-1.323 3.18 4.49 4.49 0 0 1-3.183 1.322h-2.055v4.446c0 1.444-.59 2.755-1.542 3.705a5.238 5.238 0 0 1-3.708 1.54H67.19l.483-.242-.483.243H30.724a5.234 5.234 0 0 1-3.709-1.54 5.229 5.229 0 0 1-1.54-3.706V69.06c0-1.444.589-2.756 1.54-3.705a5.237 5.237 0 0 1 3.71-1.54h4.558a17.69 17.69 0 0 1-2.537-9.152c0-4.873 1.966-9.29 5.15-12.505a17.742 17.742 0 0 1 12.46-5.268h.454l25.895-13.954a5.687 5.687 0 0 1 2.234-.668 6.638 6.638 0 0 1 2.117.028c.71.126 1.412.37 2.076.741l34.202 19.361zm-51.54 21.417H81.35l-1.878-2.198-5.81.002c-2.516.002-4.579-.49-6.262-1.265a17.711 17.711 0 0 1-1.606 3.461zM52.11 59.046v-1.748h-1.808v-.56h1.396c.971 0 1.712-.052 2.225-.153a3.13 3.13 0 0 0 1.112-.502 2.94 2.94 0 0 0 .902-1.05c.235-.445.354-.992.354-1.645 0-.846-.206-1.537-.617-2.071-.411-.535-.921-.881-1.53-1.043-.397-.106-1.247-.158-2.552-.158h-3.446v4.852h-1.384v1.748h1.384v.583h-1.384v1.747h1.384v1.703h2.156v-1.703h1.808zm-1.808-7.134v3.03h1.172c.845 0 1.406-.057 1.692-.169.285-.111.508-.285.669-.524a1.44 1.44 0 0 0 .242-.83c0-.388-.113-.707-.339-.96a1.49 1.49 0 0 0-.861-.475c-.255-.047-.769-.072-1.542-.072h-1.033zm15.069 7.258c-2.235-1.618-3.539-3.747-4.242-5.46a11.456 11.456 0 0 1-.583-1.822c-.128-.577-.164-1.048-.135-1.311.08-.744.49-1.14 1.193-1.14v.004h3.53a15.483 15.483 0 0 0-2.859-4.89l-6.108 3.292h-.001a5.746 5.746 0 0 1-4.382.444 5.743 5.743 0 0 1-3.42-2.776l-.003-.003-.318-.59v-.001a5.732 5.732 0 0 1-.444-4.378c.121-.405.287-.797.495-1.168a15.467 15.467 0 0 0-8.571 4.404 15.419 15.419 0 0 0-4.476 10.888c0 4.269 1.733 8.143 4.54 10.948a15.443 15.443 0 0 0 10.954 4.53c3.569 0 6.853-1.201 9.468-3.22a15.517 15.517 0 0 0 5.362-7.751zm2.179-9.73l15.064-.005-12.95-8.864-5.325 2.869a17.827 17.827 0 0 1 1.837 2.734 17.638 17.638 0 0 1 1.374 3.265zM36.928 66.112h-6.204c-.81 0-1.546.333-2.082.866a2.939 2.939 0 0 0-.867 2.081v8.075h62.46v-8.076a2.94 2.94 0 0 0-.865-2.08 2.947 2.947 0 0 0-2.083-.866h-23.14a17.863 17.863 0 0 1-2.736 2.62A17.728 17.728 0 0 1 50.54 72.44a17.743 17.743 0 0 1-13.612-6.327zm53.309 19.712v-6.391H27.776v26.138c0 .81.332 1.545.867 2.08a2.939 2.939 0 0 0 2.082.866h56.564c.81 0 1.546-.332 2.082-.867.534-.533.866-1.27.866-2.079v-4.446h-8.656a4.49 4.49 0 0 1-3.184-1.322 4.483 4.483 0 0 1-1.323-3.18v-6.297a4.48 4.48 0 0 1 1.323-3.18 4.49 4.49 0 0 1 3.184-1.322h8.656zm4.356 2.3H81.58a2.2 2.2 0 0 0-1.556.647c-.401.4-.648.95-.648 1.555v6.296c0 .605.248 1.155.648 1.555.4.4.951.648 1.556.648h13.014a2.2 2.2 0 0 0 1.557-.648c.4-.4.649-.95.649-1.555v-6.296c0-.605-.25-1.155-.65-1.555-.4-.4-.95-.648-1.556-.648zm-62.47 6.244v2.299h6.795v-2.299h-6.796zm0 6.79v2.298h13.59v-2.299h-13.59z" fill="#000003"/><path fill-rule="evenodd" clip-rule="evenodd" d="M83.091 93.821h3.398-3.398zm-3.716-3.493c0 88.718 0-88.772 0 0zM36.928 66.113h-6.204c-.81 0-1.546.333-2.082.866a2.94 2.94 0 0 0-.867 2.081v8.075h62.46v-8.076a2.94 2.94 0 0 0-.865-2.08 2.947 2.947 0 0 0-2.083-.866h-23.14a17.865 17.865 0 0 1-2.736 2.62 17.728 17.728 0 0 1-10.871 3.708 17.743 17.743 0 0 1-13.612-6.328zm53.309 19.713v-6.392H27.776v26.138c0 .81.332 1.545.867 2.08a2.939 2.939 0 0 0 2.082.866h56.564c.81 0 1.546-.331 2.082-.867.534-.533.866-1.27.866-2.079v-4.446h-8.656a4.49 4.49 0 0 1-3.184-1.322 4.482 4.482 0 0 1-1.323-3.18v-6.297c0-1.239.506-2.365 1.323-3.18a4.49 4.49 0 0 1 3.184-1.322h8.656zm-58.115 8.543h6.796v2.299h-6.796v-2.299zm0 6.79h13.591v2.299H32.122v-2.3z" fill="#EE292A"/></svg>