<svg width="120" height="121" fill="none" xmlns="http://www.w3.org/2000/svg"><path fill-rule="evenodd" clip-rule="evenodd" d="M60 .17c33.137 0 60 26.837 60 59.944 0 33.108-26.862 59.947-60 59.947a60.58 60.58 0 0 1-9.615-.77l17.29-8.717-17.29 8.715c-19.126-3.077-35.228-15.183-43.78-31.807l7.47-14.195-7.47 14.195C2.383 79.277 0 69.975 0 60.114 0 27.007 26.862.17 60 .17zM12.434 76.51l1.64-3.223-1.64 3.223zm1.641-3.224l7.79-15.302-7.79 15.302z" fill="#F2F6F4"/><path fill-rule="evenodd" clip-rule="evenodd" d="M24.087 88.275h12.836l-.01 5.126h5.13l.068-5.126h12.723v28.77l-4.45 2.244c1.466.237 2.95.42 4.45.55v-2.793l-4.45 2.243a59.732 59.732 0 0 1-26.298-11.154v-19.86z" fill="#EE292A"/><path fill-rule="evenodd" clip-rule="evenodd" d="M98.479 106.107c-.837.7-1.692 1.38-2.566 2.033V48.55H84.37v6.407c0 .707-.573 1.281-1.282 1.281l-7.695.001c-.71 0-1.283-.575-1.283-1.282v-6.406H57.435v67.185l-2.565 1.293v2.813c.85.073 1.705.128 2.565.164v-4.27l-2.565 1.293V88.276H44.609v6.406c0 .708-.575 1.281-1.283 1.281h-7.695a1.282 1.282 0 0 1-1.283-1.28v-6.407H24.087v19.86a60.699 60.699 0 0 1-2.565-2.029V86.993c0-.707.574-1.28 1.283-1.28h1.283V61.364c0-.708.574-1.282 1.282-1.282h25.653c.707 0 1.282.576 1.282 1.282v24.347h2.565V47.27c0-.707.574-1.282 1.283-1.282h41.043c.71 0 1.283.575 1.283 1.282v58.837zm-7.697 5.469v-3.55l1.66 1.657 1.813-1.812-3.848-3.844a1.282 1.282 0 0 0-1.814 0l-3.848 3.844 1.813 1.812 1.66-1.656v4.595h.744a58.33 58.33 0 0 0 1.82-1.046zm-8.977 4.401v-.792h-2.566v-2.724a5.137 5.137 0 0 0 3.849-4.964v-2.563c0-.708-.574-1.281-1.282-1.281H74.11c-.709 0-1.283.573-1.283 1.28v2.564a5.135 5.135 0 0 0 3.849 4.963v2.725H74.11v2.563h2.445a60.201 60.201 0 0 0 5.249-1.77zm-17.958-3.474l3.827-1.93-3.827 1.93v2.682h-2.564v2.564h3.848c.708 0 1.282-.573 1.282-1.281v-5.126h2.565c.71 0 1.283-.573 1.283-1.282v-1.281a5.134 5.134 0 0 0-5.13-5.126A5.133 5.133 0 0 0 60 108.779v1.28c0 .71.573 1.283 1.282 1.283h2.565v1.161zm-21.803 4.82v-2.138h-2.565v1.271c.846.307 1.702.597 2.565.867zm2.565.425h2.565v-2.563h-2.565v2.563zm5.13 0h2.565v-2.563H49.74v2.563zM34.35 83.15h2.564v-2.564h-2.565v2.564zm5.13 0h2.565v-2.564H39.48v2.564zm5.13 0h2.565v-2.564H44.61v2.564zm17.956 25.628h5.13a2.566 2.566 0 0 0-2.565-2.563 2.566 2.566 0 0 0-2.565 2.563zm17.957-1.281v-1.281h-5.13v1.28a2.567 2.567 0 0 0 2.564 2.564 2.569 2.569 0 0 0 2.566-2.563zm1.283-53.82V48.55h-5.13v5.126h5.13zm-48.739 8.969h-6.413v23.066h23.085V62.646h-6.413v6.407c0 .708-.575 1.282-1.283 1.282h-7.696a1.283 1.283 0 0 1-1.282-1.282v-6.407h.001zm7.696 5.126v-5.126H35.63v5.126h5.13zm1.282 25.63v-5.126h-5.13v5.126h5.13z" fill="#F2F6F4"/><path fill-rule="evenodd" clip-rule="evenodd" d="M98.479 106.107c-.837.7-1.692 1.38-2.566 2.033V48.55H84.37v6.407c0 .707-.573 1.281-1.282 1.281l-7.695.001c-.71 0-1.283-.575-1.283-1.282v-6.406H57.435v67.185l-2.565 1.293v2.813c.85.073 1.705.128 2.565.164v-4.27l-2.565 1.293V88.276H44.609v6.406c0 .708-.575 1.281-1.283 1.281h-7.695a1.282 1.282 0 0 1-1.283-1.28v-6.407H24.087v19.86a60.699 60.699 0 0 1-2.565-2.029V86.993c0-.707.574-1.28 1.283-1.28h1.283V61.364c0-.708.574-1.282 1.282-1.282h25.653c.707 0 1.282.576 1.282 1.282v24.347h2.565V47.27c0-.707.574-1.282 1.283-1.282h41.043c.71 0 1.283.575 1.283 1.282v58.837zm-7.697 5.469v-3.55l1.66 1.657 1.813-1.812-3.848-3.844a1.282 1.282 0 0 0-1.814 0l-3.848 3.844 1.813 1.812 1.66-1.656v4.595h.744a58.33 58.33 0 0 0 1.82-1.046zm-8.977 4.401v-.792h-2.566v-2.724a5.137 5.137 0 0 0 3.849-4.964v-2.563c0-.708-.574-1.281-1.282-1.281H74.11c-.709 0-1.283.573-1.283 1.28v2.564a5.135 5.135 0 0 0 3.849 4.963v2.725H74.11v2.563h2.445a60.201 60.201 0 0 0 5.249-1.77zm-17.958-3.474l3.827-1.93-3.827 1.93v2.682h-2.564v2.564h3.848c.708 0 1.282-.573 1.282-1.281v-5.126h2.565c.71 0 1.283-.573 1.283-1.282v-1.281a5.134 5.134 0 0 0-5.13-5.126A5.133 5.133 0 0 0 60 108.779v1.28c0 .71.573 1.283 1.282 1.283h2.565v1.161zm-21.803 4.82v-2.138h-2.565v1.271c.846.307 1.702.597 2.565.867zm2.565.425h2.565v-2.563h-2.565v2.563zm5.13 0h2.565v-2.563H49.74v2.563zM34.35 83.15h2.564v-2.564h-2.565v2.564zm5.13 0h2.565v-2.564H39.48v2.564zm5.13 0h2.565v-2.564H44.61v2.564zm17.956 25.628h5.13a2.566 2.566 0 0 0-2.565-2.563 2.566 2.566 0 0 0-2.565 2.563zm17.957-1.281v-1.281h-5.13v1.28a2.567 2.567 0 0 0 2.564 2.564 2.569 2.569 0 0 0 2.566-2.563zm1.283-53.82V48.55h-5.13v5.126h5.13zm-48.739 8.969h-6.413v23.066h23.085V62.646h-6.413v6.407c0 .708-.575 1.282-1.283 1.282h-7.696a1.283 1.283 0 0 1-1.282-1.282v-6.407h.001zm7.696 5.126v-5.126H35.63v5.126h5.13zm1.282 25.63v-5.126h-5.13v5.126h5.13z" fill="#000003"/><path d="M40.761 62.646h-5.13v5.126h5.13v-5.126zM81.804 48.55h-5.13v5.126h5.13V48.55z" fill="#EE292A"/></svg>