<svg width="11" height="14" fill="none" xmlns="http://www.w3.org/2000/svg"><path d="M0 0h11v13.987H0z"/><path d="M0 0h11v13.987H0z"/><path d="M5.5 0C2.467 0 0 2.418 0 5.39c0 2.125.907 4.273 2.624 6.214 1.282 1.45 2.553 2.27 2.606 2.305a.5.5 0 0 0 .54 0c.053-.035 1.324-.856 2.606-2.305C10.093 9.663 11 7.514 11 5.39 11 2.418 8.533 0 5.5 0zm0 12.91C4.488 12.173.986 9.33.986 5.39.986 2.952 3.011.967 5.5.967c2.489 0 4.514 1.985 4.514 4.425 0 3.938-3.503 6.781-4.514 7.52z" fill="#888"/><path d="M5.5 3.25c-1.203 0-2.183.96-2.183 2.14 0 1.18.98 2.139 2.183 2.139 1.204 0 2.183-.96 2.183-2.14 0-1.179-.98-2.139-2.183-2.139zm0 3.312c-.66 0-1.197-.526-1.197-1.172 0-.647.537-1.173 1.197-1.173s1.197.526 1.197 1.173c0 .646-.537 1.172-1.197 1.172z" fill="#888"/></svg>