<svg width="14" height="14" fill="none" xmlns="http://www.w3.org/2000/svg"><path d="M0 0h14v13.987H0z"/><path d="M0 0h11.855v11.845H0z"/><path d="M0 0h11.855v11.845H0z"/><path d="M10.119 1.735A5.891 5.891 0 0 0 5.928 0a5.891 5.891 0 0 0-4.192 1.735A5.88 5.88 0 0 0 0 5.922a5.88 5.88 0 0 0 1.736 4.188 5.891 5.891 0 0 0 4.192 1.735 5.891 5.891 0 0 0 4.191-1.735 5.88 5.88 0 0 0 1.736-4.188 5.88 5.88 0 0 0-1.736-4.187zm-4.191 8.98A4.8 4.8 0 0 1 1.13 5.921 4.8 4.8 0 0 1 5.928 1.13a4.8 4.8 0 0 1 4.796 4.792 4.8 4.8 0 0 1-4.796 4.792z" fill="#888"/><path d="M9.151 9.143h4.85v4.844H9.15z"/><path d="M9.151 9.143h4.85v4.844H9.15z"/><path d="M13.835 13.023l-3.718-3.714a.566.566 0 0 0-.8.799l3.718 3.714a.564.564 0 0 0 .8 0 .565.565 0 0 0 0-.8z" fill="#888"/></svg>