<svg width="14" height="13" fill="none" xmlns="http://www.w3.org/2000/svg"><path d="M0 0h14v13H0z"/><path d="M0 0h14v13H0z"/><path d="M0 0h14v13H0z"/><path d="M13.971 4.91a.584.584 0 0 0-.475-.391l-4.125-.587L7.524.293c-.199-.39-.856-.39-1.055 0l-1.846 3.64-4.12.586a.584.584 0 0 0-.474.39.563.563 0 0 0 .149.587l2.98 2.833-.701 4.002a.564.564 0 0 0 .234.56.6.6 0 0 0 .62.043l3.687-1.889 3.692 1.89a.6.6 0 0 0 .62-.045.567.567 0 0 0 .233-.561l-.706-4 2.985-2.833a.56.56 0 0 0 .149-.587zM9.793 7.718a.565.565 0 0 0-.17.507l.557 3.154-2.91-1.49a.604.604 0 0 0-.548.001l-2.906 1.49.553-3.154A.563.563 0 0 0 4.2 7.72L1.85 5.486l3.248-.463a.586.586 0 0 0 .443-.313l1.455-2.868L8.452 4.71a.588.588 0 0 0 .443.313l3.251.463-2.353 2.233z" fill="#EB2E2E"/></svg>