<svg width="120" height="120" fill="none" xmlns="http://www.w3.org/2000/svg"><path fill-rule="evenodd" clip-rule="evenodd" d="M60 0c33.137 0 60 26.863 60 60s-26.863 60-60 60c-3.273 0-6.484-.266-9.615-.77l17.289-8.725-17.289 8.725c-19.126-3.082-35.228-15.2-43.78-31.838l7.47-14.207-7.47 14.207C2.383 79.18 0 69.869 0 60 0 26.863 26.863 0 60 0zM12.434 76.411l1.641-3.227-1.64 3.227zm1.641-3.227l7.79-15.315-7.79 15.316z" fill="#F2F6F4"/><path fill-rule="evenodd" clip-rule="evenodd" d="M55.179 36.103h5.231-5.231zM84.55 67.47a6.819 6.819 0 0 1 5.329-3.884v48.457a60.12 60.12 0 0 0 2.975-1.834V61.942c0-.821-.666-1.487-1.488-1.487-1.874 0-4.616.59-6.816 2.316v-1.185h-2.548 2.548V39.925a6.378 6.378 0 0 0-6.37-6.37H37.408a6.378 6.378 0 0 0-6.37 6.37v12.742h-1.275a6.378 6.378 0 0 0-6.37 6.37c0 2.091 1.026 3.935 2.587 5.097-1.56 1.162-2.587 3.006-2.587 5.097 0 2.09 1.027 3.934 2.587 5.096-1.56 1.162-2.587 3.006-2.587 5.097 0 2.09 1.027 3.934 2.587 5.096-1.56 1.162-2.587 3.006-2.587 5.097a6.378 6.378 0 0 0 6.37 6.37h1.275v12.742a6.37 6.37 0 0 0 2.814 5.283 59.83 59.83 0 0 0 1.828.85c.55.154 1.13.237 1.728.237h21.16l5.05-2.548h-26.21a3.827 3.827 0 0 1-3.822-3.822V95.987h1.274a6.378 6.378 0 0 0 6.37-6.37c0-2.091-1.026-3.935-2.587-5.097 1.56-1.162 2.588-3.006 2.588-5.096 0-2.091-1.027-3.935-2.588-5.097 1.56-1.162 2.588-3.006 2.588-5.096 0-2.091-1.027-3.935-2.588-5.097 1.56-1.162 2.588-3.006 2.588-5.097a6.378 6.378 0 0 0-6.371-6.37h-1.274V39.925a3.827 3.827 0 0 1 3.822-3.822h40.773a3.827 3.827 0 0 1 3.822 3.822v68.803a3.827 3.827 0 0 1-3.822 3.823H63.618l-5.05 2.548h19.613a6.378 6.378 0 0 0 6.37-6.37V67.468zm-42.41 5.728c0-55.437 0 55.437 0 0zM29.763 62.86a3.827 3.827 0 0 1-3.822-3.822 3.827 3.827 0 0 1 3.822-3.823h5.097a3.827 3.827 0 0 1 3.822 3.823 3.827 3.827 0 0 1-3.822 3.822h-5.097zm0 10.193a3.827 3.827 0 0 1-3.822-3.822 3.827 3.827 0 0 1 3.822-3.823h5.097a3.827 3.827 0 0 1 3.822 3.823 3.827 3.827 0 0 1-3.822 3.822h-5.097zm0 10.193a3.827 3.827 0 0 1-3.822-3.822 3.827 3.827 0 0 1 3.822-3.823h5.097a3.827 3.827 0 0 1 3.822 3.823 3.827 3.827 0 0 1-3.822 3.822h-5.097zm0 10.193a3.827 3.827 0 0 1-3.822-3.822 3.827 3.827 0 0 1 3.822-3.823h5.097a3.827 3.827 0 0 1 3.822 3.823 3.827 3.827 0 0 1-3.822 3.822h-5.097z" fill="#000003"/><path fill-rule="evenodd" clip-rule="evenodd" d="M53.785 58.372a5.454 5.454 0 0 0 5.443-5.443 5.454 5.454 0 0 0-5.443-5.443 5.454 5.454 0 0 0-5.443 5.443 5.454 5.454 0 0 0 5.443 5.443z" fill="#EE292A"/><path fill-rule="evenodd" clip-rule="evenodd" d="M60.284 58.372a5.454 5.454 0 0 0 5.443-5.443 5.454 5.454 0 0 0-5.443-5.443 5.454 5.454 0 0 0-5.443 5.443 5.454 5.454 0 0 0 5.443 5.443z" fill="#000003"/><path d="M56.382 75.318h-9.679v2.548h9.679v-2.548zm5.453 0h-2.598v2.548h2.598v-2.548zm4.792 0h-2.598v2.548h2.598v-2.548zm-2.944 6.133h-16.98V84h16.98v-2.55zm3.802 6.062H52.279v2.549h15.206v-2.549zm-18.119.105h-2.597v2.549h2.597v-2.549z" fill="#000003"/></svg>