<svg width="120" height="120" fill="none" xmlns="http://www.w3.org/2000/svg"><path d="M60 120c33.137 0 60-26.863 60-60S93.137 0 60 0 0 26.863 0 60s26.863 60 60 60z" fill="#F2F6F4"/><path fill-rule="evenodd" clip-rule="evenodd" d="M21.302 91.789a3.83 3.83 0 0 0 3.58 2.483h36.984c-3.107-2.325-5.13-6.022-5.13-10.193 0-.704.571-1.274 1.274-1.274h17.838a6.378 6.378 0 0 1 6.371 6.37v5.098h11.467a3.827 3.827 0 0 0 3.823-3.823V49.678a3.827 3.827 0 0 0-3.823-3.823H80.945v1.274a6.378 6.378 0 0 1-6.37 6.371c-2.092 0-3.935-1.027-5.097-2.588-1.162 1.561-3.006 2.588-5.097 2.588-2.09 0-3.935-1.027-5.096-2.588-1.162 1.561-3.006 2.588-5.097 2.588-2.09 0-3.935-1.027-5.097-2.588-1.162 1.561-3.005 2.588-5.096 2.588a6.378 6.378 0 0 1-6.37-6.37v-1.275H24.882a3.83 3.83 0 0 0-3.58 2.484 3.49 3.49 0 0 0-.24 1.198v41.04c.022.439.097.845.24 1.212z" fill="#EE292A"/><path fill-rule="evenodd" clip-rule="evenodd" d="M82.131 115.791c-.84.33-1.69.642-2.548.935V89.079a3.827 3.827 0 0 0-3.823-3.823H59.276c.63 5.02 4.925 8.92 10.114 8.92h2.548v2.547H69.39c-.43 0-.855-.022-1.274-.065v.065H42.633v20.387h-.712a60.514 60.514 0 0 1-1.836-.62V96.723h-15.29a6.378 6.378 0 0 1-6.37-6.37V49.58a6.378 6.378 0 0 1 6.37-6.37h12.741v-1.274a6.378 6.378 0 0 1 6.371-6.371c2.091 0 3.935 1.027 5.097 2.588 1.162-1.561 3.005-2.588 5.096-2.588s3.935 1.027 5.097 2.588c1.162-1.561 3.005-2.588 5.096-2.588s3.935 1.027 5.097 2.588c1.162-1.561 3.005-2.588 5.096-2.588a6.378 6.378 0 0 1 6.371 6.37v1.275h12.741a6.378 6.378 0 0 1 6.371 6.37v40.773a6.378 6.378 0 0 1-6.37 6.37H82.13v19.068zM70.664 41.936v5.096a3.827 3.827 0 0 0 3.822 3.823 3.827 3.827 0 0 0 3.823-3.823v-5.096a3.827 3.827 0 0 0-3.823-3.823 3.827 3.827 0 0 0-3.822 3.823zm-10.193 0v5.096a3.827 3.827 0 0 0 3.822 3.823 3.827 3.827 0 0 0 3.823-3.823v-5.096a3.827 3.827 0 0 0-3.823-3.823 3.827 3.827 0 0 0-3.822 3.823zm-10.193 0v5.096a3.827 3.827 0 0 0 3.822 3.823 3.827 3.827 0 0 0 3.822-3.823v-5.096a3.827 3.827 0 0 0-3.822-3.823 3.827 3.827 0 0 0-3.822 3.823zm-10.193 0v5.096a3.827 3.827 0 0 0 3.822 3.823 3.827 3.827 0 0 0 3.822-3.823v-5.096a3.827 3.827 0 0 0-3.822-3.823 3.827 3.827 0 0 0-3.822 3.823zM97.42 90.353V49.58a3.827 3.827 0 0 0-3.823-3.823h-12.74v1.274a6.378 6.378 0 0 1-6.372 6.37c-2.09 0-3.934-1.026-5.096-2.587-1.162 1.56-3.006 2.588-5.097 2.588-2.09 0-3.934-1.027-5.096-2.588-1.162 1.56-3.006 2.588-5.097 2.588-2.09 0-3.934-1.027-5.096-2.588-1.162 1.56-3.006 2.588-5.097 2.588a6.378 6.378 0 0 1-6.37-6.37v-1.275H24.794a3.827 3.827 0 0 0-3.822 3.822v40.773a3.827 3.827 0 0 0 3.822 3.822h36.983c-3.106-2.325-5.13-6.023-5.13-10.193 0-.705.571-1.274 1.275-1.274H75.76a6.378 6.378 0 0 1 6.37 6.37v5.097H93.6a3.827 3.827 0 0 0 3.822-3.822z" fill="#000"/><path fill-rule="evenodd" clip-rule="evenodd" d="M86.74 54.46a6.118 6.118 0 0 0-3.08.834 6.118 6.118 0 0 0-3.08-.833 6.167 6.167 0 0 0-6.16 6.16 6.167 6.167 0 0 0 6.16 6.159 6.119 6.119 0 0 0 3.08-.833 6.119 6.119 0 0 0 3.08.833 6.167 6.167 0 0 0 6.16-6.16 6.167 6.167 0 0 0-6.16-6.16zm-1.76 6.16a4.383 4.383 0 0 1-1.32 3.135 4.383 4.383 0 0 1 0-6.27 4.383 4.383 0 0 1 1.32 3.135zm-8.8 0c0-2.426 1.974-4.4 4.4-4.4.556 0 1.083.115 1.573.304a6.128 6.128 0 0 0-1.572 4.096c0 1.574.598 3.007 1.572 4.096-.49.19-1.017.304-1.572.304a4.405 4.405 0 0 1-4.4-4.4zm10.56 4.4a4.353 4.353 0 0 1-1.572-.303 6.128 6.128 0 0 0 1.572-4.097 6.128 6.128 0 0 0-1.572-4.096 4.353 4.353 0 0 1 1.572-.303c2.426 0 4.4 1.973 4.4 4.4 0 2.425-1.974 4.4-4.4 4.4zm-55.836-1.224h8.472c.78 0 1.416-.636 1.416-1.416v-5.96c0-.78-.636-1.416-1.416-1.416h-8.472c-.78 0-1.416.636-1.416 1.416v5.96c0 .78.636 1.416 1.416 1.416zm2.352-3.768h-2.512v-1.256h2.512v1.256zm-2.512 2.352v-1.096h2.512v1.096c0 .054.01.107.016.16h-2.368a.16.16 0 0 1-.16-.16zm8.792-2.352h-2.512v-1.096a.16.16 0 0 1 .16-.16h2.192c.054 0 .106-.01.16-.016v1.272zm-.16 2.512h-2.369c.007-.053.017-.106.017-.16v-1.096h2.512v1.096a.16.16 0 0 1-.16.16zm0-6.28a.16.16 0 0 1 .16.16v.936a.16.16 0 0 1-.16.16h-2.192c-.78 0-1.416.635-1.416 1.416v3.448a.16.16 0 0 1-.16.16h-.936a.16.16 0 0 1-.16-.16v-5.96a.16.16 0 0 1 .16-.16h4.704zm-8.472 0h2.368c-.006.053-.016.106-.016.16v1.096h-2.512V56.42a.16.16 0 0 1 .16-.16z" fill="#000003"/><path d="M40.483 82.924h-9.679v2.549h9.679v-2.549zm13.87 0h-9.679v2.549h9.679v-2.549z" fill="#000003"/></svg>