<svg width="120" height="120" fill="none" xmlns="http://www.w3.org/2000/svg"><path fill-rule="evenodd" clip-rule="evenodd" d="M60 0c33.137 0 60 26.838 60 59.946s-26.863 59.946-60 59.946c-3.274 0-6.484-.265-9.615-.77l17.289-8.716-17.29 8.716c-19.124-3.079-35.227-15.186-43.779-31.81l7.47-14.194-7.47 14.194C2.383 79.11 0 69.805 0 59.946 0 26.838 26.863 0 60 0zM12.435 76.342l1.64-3.223-1.64 3.223zm1.64-3.224l7.789-15.302-7.789 15.302z" fill="#F2F6F4"/><path fill-rule="evenodd" clip-rule="evenodd" d="M83.091 93.652h3.399-3.399zm34.244-51.424c.32 1.033.61 2.078.875 3.133L82.009 24.87a4.367 4.367 0 0 0-2.795-.495 1.075 1.075 0 0 1-.086.01v.003a3.395 3.395 0 0 0-1.336.398L51.536 38.934a1.08 1.08 0 0 1-.124.068 3.445 3.445 0 0 0-1.61 2.022 3.448 3.448 0 0 0 .3 2.701l.248.458a3.448 3.448 0 0 0 2.092 1.733c.832.249 1.757.19 2.58-.233a1.13 1.13 0 0 1 .123-.066l14.045-7.569c.4-.214.87-.168 1.216.079l16.56 11.335a1.148 1.148 0 0 1-.717 2.093l-23.379.007c.09.324.214.7.381 1.109 1.084 2.64 3.93 6.492 10.412 6.489l6.34-.003c.347 0 .66.155.87.401h.002l3.496 4.088h2.918c1.446 0 2.759.59 3.709 1.54a5.23 5.23 0 0 1 1.541 3.706v5.119h25.798c-.186.772-.384 1.54-.599 2.299H92.54v9.347h2.055a4.49 4.49 0 0 1 3.184 1.322 4.482 4.482 0 0 1 1.323 3.18v6.297a4.482 4.482 0 0 1-1.323 3.18 4.49 4.49 0 0 1-3.184 1.322H92.54v4.446c0 1.444-.59 2.755-1.541 3.705a5.238 5.238 0 0 1-3.709 1.54H67.192l.482-.242-.482.243H30.725a5.234 5.234 0 0 1-3.71-1.54 5.229 5.229 0 0 1-1.54-3.706V68.89c0-1.444.59-2.756 1.54-3.705a5.237 5.237 0 0 1 3.71-1.54h4.558a17.69 17.69 0 0 1-2.537-9.152c0-4.873 1.966-9.29 5.15-12.505a17.742 17.742 0 0 1 12.46-5.268h.454l25.895-13.954a5.687 5.687 0 0 1 2.235-.668 6.638 6.638 0 0 1 2.117.028c.71.126 1.412.37 2.075.741l34.203 19.361zm-51.54 21.417H81.35l-1.879-2.198-5.809.002c-2.517.002-4.58-.49-6.262-1.265a17.711 17.711 0 0 1-1.606 3.461zM52.11 58.877v-1.748h-1.808v-.56h1.397c.97 0 1.712-.052 2.224-.153.377-.082.748-.25 1.112-.502a2.93 2.93 0 0 0 .902-1.05c.235-.445.355-.992.355-1.645 0-.846-.206-1.537-.618-2.071-.41-.535-.92-.881-1.53-1.043-.397-.106-1.246-.158-2.552-.158h-3.445V54.8h-1.385v1.748h1.385v.583h-1.385v1.747h1.385v1.703h2.155v-1.703h1.808zm-1.807-7.134v3.03h1.171c.845 0 1.407-.057 1.693-.169.284-.111.507-.285.668-.524a1.44 1.44 0 0 0 .243-.83c0-.388-.114-.707-.34-.96a1.49 1.49 0 0 0-.86-.475c-.256-.047-.77-.072-1.542-.072h-1.033zm15.068 7.258c-2.235-1.618-3.538-3.747-4.242-5.46a11.456 11.456 0 0 1-.582-1.822c-.128-.577-.164-1.048-.136-1.311.08-.744.491-1.14 1.193-1.14v.004h3.53a15.483 15.483 0 0 0-2.859-4.89l-6.107 3.292h-.002a5.746 5.746 0 0 1-4.382.444 5.743 5.743 0 0 1-3.42-2.776l-.002-.003-.318-.59-.001-.001a5.732 5.732 0 0 1-.443-4.378c.12-.405.286-.797.494-1.168a15.467 15.467 0 0 0-8.57 4.404 15.419 15.419 0 0 0-4.476 10.888 15.43 15.43 0 0 0 4.54 10.948 15.443 15.443 0 0 0 10.953 4.53c3.57 0 6.853-1.201 9.468-3.22A15.517 15.517 0 0 0 65.371 59zm2.18-9.73l15.064-.005-12.95-8.864-5.325 2.869a17.827 17.827 0 0 1 1.836 2.734 17.638 17.638 0 0 1 1.374 3.265zM36.928 65.943h-6.204c-.81 0-1.547.333-2.082.866a2.939 2.939 0 0 0-.868 2.081v8.075h62.461V68.89c0-.809-.332-1.544-.866-2.08a2.947 2.947 0 0 0-2.082-.866h-23.14a17.863 17.863 0 0 1-2.737 2.62 17.728 17.728 0 0 1-10.87 3.708 17.743 17.743 0 0 1-13.612-6.328zm53.308 19.712v-6.391h-62.46v26.138c0 .81.332 1.545.867 2.08a2.939 2.939 0 0 0 2.081.866H87.29c.81 0 1.546-.332 2.083-.867.534-.533.866-1.27.866-2.079v-4.446H81.58a4.49 4.49 0 0 1-3.183-1.322 4.483 4.483 0 0 1-1.323-3.18v-6.297a4.48 4.48 0 0 1 1.323-3.18 4.49 4.49 0 0 1 3.183-1.322h8.656zm4.357 2.3H81.58a2.2 2.2 0 0 0-1.557.647c-.4.4-.648.95-.648 1.555v6.296c0 .605.248 1.155.648 1.555.4.4.952.648 1.557.648h13.014c.606 0 1.155-.248 1.556-.648s.65-.95.65-1.555v-6.296c0-.605-.25-1.155-.65-1.555-.4-.4-.95-.648-1.556-.648zM32.123 94.2v2.3h6.796v-2.3h-6.796zm0 6.79v2.299h13.59v-2.3h-13.59z" fill="#000003"/><path fill-rule="evenodd" clip-rule="evenodd" d="M83.091 93.652h3.399-3.398zm-3.716-3.493c0 88.718 0-88.772 0 0zM36.93 65.944h-6.204c-.81 0-1.547.333-2.082.866a2.94 2.94 0 0 0-.868 2.081v8.075h62.461V68.89a2.94 2.94 0 0 0-.866-2.08 2.947 2.947 0 0 0-2.082-.866h-23.14a17.865 17.865 0 0 1-2.737 2.62 17.728 17.728 0 0 1-10.87 3.707 17.743 17.743 0 0 1-13.612-6.327zm53.308 19.712v-6.391h-62.46v26.138c0 .809.332 1.545.867 2.08a2.939 2.939 0 0 0 2.081.866H87.29c.81 0 1.546-.332 2.083-.867.534-.533.866-1.27.866-2.08v-4.445H81.58a4.49 4.49 0 0 1-3.183-1.322 4.482 4.482 0 0 1-1.323-3.18v-6.297c0-1.24.506-2.366 1.323-3.18a4.49 4.49 0 0 1 3.183-1.322h8.656zM32.123 94.2h6.796v2.3h-6.796v-2.3zm0 6.789h13.59v2.3h-13.59v-2.3z" fill="#EE292A"/></svg>