<svg width="120" height="120" viewBox="0 0 120 120" fill="none" xmlns="http://www.w3.org/2000/svg">
<path fill-rule="evenodd" clip-rule="evenodd" d="M59.9999 0C93.1369 0 120 26.8629 120 60.0001C120 93.1371 93.1369 120 59.9999 120C56.7266 120 53.5159 119.734 50.3851 119.23L67.6736 110.505L50.3851 119.23C31.2591 116.148 15.1573 104.03 6.60466 87.392L14.0754 73.1845L6.60466 87.392C2.38329 79.1802 0 69.8686 0 60.0001C0 26.8629 26.8629 0 59.9999 0ZM12.4344 76.411L14.0754 73.1845L12.4344 76.411ZM14.0754 73.1845L21.8641 57.8687C22.9571 55.7195 24.6967 54.1028 26.7282 53.1342C24.6967 54.1028 22.9573 55.7195 21.8641 57.8687L14.0754 73.1845Z" fill="#F2F6F4"/>
<path fill-rule="evenodd" clip-rule="evenodd" d="M31.7861 2.54836H37.0174H31.7861ZM61.1587 33.9143C62.1199 31.858 64.0836 30.3337 66.4873 30.0304V78.4871C67.4986 77.9052 68.4888 77.2913 69.4619 76.6534V28.3872C69.4617 27.5658 68.796 26.8999 67.9746 26.8999C66.1008 26.8999 63.3586 27.49 61.1587 29.2157V28.0311H58.6103H61.1587V17.838V6.37069C61.1587 2.85795 58.3007 0 54.7879 0H14.0155C10.5027 0 7.6448 2.85781 7.6448 6.37055V19.1119H6.37069C2.85781 19.1119 0 21.9699 0 25.4826C0 27.5735 1.02685 29.4172 2.58781 30.5792C1.02699 31.7413 0 33.585 0 35.6758C0 37.7666 1.02699 39.6103 2.58781 40.7724C1.02699 41.9343 0 43.778 0 45.8688C0 47.9596 1.02699 49.8033 2.58781 50.9654C1.02699 52.1273 0 53.971 0 56.062C0 59.5747 2.85781 62.4327 6.37069 62.4327H7.64494L7.6448 75.174C7.6448 77.3708 8.76261 79.3116 10.4592 80.4572C11.063 80.7501 11.6722 81.0332 12.2871 81.3063C12.837 81.4615 13.4167 81.5446 14.0155 81.5446H35.1759L40.2254 78.9963H14.0155C11.9081 78.9963 10.1932 77.2812 10.1932 75.1738L10.1933 62.4325H11.4674C14.9803 62.4325 17.8381 59.5747 17.8381 56.0618C17.8381 53.971 16.8113 52.1273 15.2503 50.9653C16.8113 49.8032 17.8381 47.9595 17.8381 45.8687C17.8381 43.7779 16.8113 41.9342 15.2503 40.7722C16.8113 39.6102 17.8381 37.7665 17.8381 35.6757C17.8381 33.5848 16.8113 31.7411 15.2503 30.5791C16.8113 29.417 17.8381 27.5735 17.8381 25.4825C17.8381 21.9696 14.9803 19.1118 11.4674 19.1118H10.1933V6.37042C10.1933 4.26302 11.9082 2.54795 14.0156 2.54795H31.7861H37.0152H54.788C56.8954 2.54795 58.6103 4.26302 58.6103 6.37042V17.8376V38.1906V75.1736C58.6103 77.281 56.8951 78.996 54.7879 78.996H40.2254L35.1759 81.5443H54.7879C58.3007 81.5443 61.1587 78.6865 61.1587 75.1735V59.8845V57.3361V33.9143ZM18.746 39.6432C18.746 -15.7937 18.746 95.0801 18.746 39.6432V39.6432ZM6.37069 29.3052C4.26329 29.3052 2.54822 27.5902 2.54822 25.4828C2.54822 23.3754 4.26343 21.6603 6.37069 21.6603H11.4673C13.5747 21.6603 15.2896 23.3754 15.2896 25.4828C15.2896 27.5902 13.5745 29.3052 11.4673 29.3052H6.37069ZM6.37069 39.4983C4.26329 39.4983 2.54822 37.7833 2.54822 35.6759C2.54822 33.5685 4.26343 31.8535 6.37069 31.8535H11.4673C13.5747 31.8535 15.2896 33.5685 15.2896 35.6759C15.2896 37.7833 13.5745 39.4983 11.4673 39.4983H6.37069ZM6.37069 49.6914C4.26329 49.6914 2.54822 47.9764 2.54822 45.869C2.54822 43.7616 4.26343 42.0466 6.37069 42.0466H11.4673C13.5747 42.0466 15.2896 43.7617 15.2896 45.869C15.2896 47.9764 13.5745 49.6914 11.4673 49.6914H6.37069ZM6.37069 59.8845C4.26329 59.8845 2.54822 58.1694 2.54822 56.062C2.54822 53.9546 4.26343 52.2395 6.37069 52.2395H11.4673C13.5747 52.2395 15.2896 53.9546 15.2896 56.062C15.2896 58.1694 13.5745 59.8845 11.4673 59.8845H6.37069Z" transform="translate(23.3926 33.5548)" fill="#000003"/>
<path fill-rule="evenodd" clip-rule="evenodd" d="M5.44302 10.886C8.44097 10.886 10.886 8.44083 10.886 5.44302C10.886 2.44521 8.44083 0 5.44302 0C2.44521 0 0 2.44521 0 5.44302C0 8.44083 2.44507 10.886 5.44302 10.886Z" transform="translate(48.3418 47.4863)" fill="#EE292A"/>
<path fill-rule="evenodd" clip-rule="evenodd" d="M5.44302 10.886C8.44097 10.886 10.886 8.44083 10.886 5.44302C10.886 2.44521 8.44083 0 5.44302 0C2.44521 0 0 2.44521 0 5.44302C0 8.44083 2.44507 10.886 5.44302 10.886Z" transform="translate(54.8408 47.4863)" fill="#000003"/>
<path d="M9.67851 0H0V2.54836H9.67851V0Z" transform="translate(46.7031 75.3176)" fill="#000003"/>
<path d="M2.5974 0H0V2.54836H2.5974V0Z" transform="translate(59.2373 75.3176)" fill="#000003"/>
<path d="M2.5974 0H0V2.54836H2.5974V0Z" transform="translate(64.0293 75.3176)" fill="#000003"/>
<path d="M16.9803 0H0V2.54835H16.9803V0Z" transform="translate(46.7031 81.4515)" fill="#000003"/>
<path d="M15.2055 0H0V2.54835H15.2055V0Z" transform="translate(52.2793 87.5132)" fill="#000003"/>
<path d="M2.59726 0H0V2.54836H2.59726V0Z" transform="translate(46.7686 87.6183)" fill="#000003"/>
</svg>
