<svg width="120" height="120" viewBox="0 0 120 120" fill="none" xmlns="http://www.w3.org/2000/svg">
<path d="M60 120C93.1371 120 120 93.1371 120 60C120 26.8629 93.1371 0 60 0C26.8629 0 0 26.8629 0 60C0 93.1371 26.8629 120 60 120Z" fill="#F2F6F4"/>
<path fill-rule="evenodd" clip-rule="evenodd" d="M0.239865 45.9335C0.783701 47.3829 2.18343 48.4174 3.82014 48.4174H40.8032C37.6969 46.092 35.6738 42.3945 35.6738 38.2242C35.6738 37.5195 36.2445 36.9501 36.9479 36.9501H54.7859C58.2986 36.9501 61.1566 39.808 61.1566 43.3208V48.4174H72.6237C74.7313 48.4174 76.4462 46.7023 76.4462 44.5949V3.82247C76.4462 1.71507 74.7311 0 72.6239 0H59.8823V1.27425C59.8823 4.78713 57.0245 7.64495 53.5116 7.64495C51.4208 7.64495 49.5771 6.61796 48.4152 5.05713C47.2531 6.61796 45.4094 7.64495 43.3186 7.64495C41.2276 7.64495 39.3839 6.61796 38.222 5.05713C37.0601 6.61796 35.2164 7.64495 33.1256 7.64495C31.0347 7.64495 29.191 6.61796 28.029 5.05713C26.867 6.61796 25.0233 7.64495 22.9325 7.64495C19.4196 7.64495 16.5618 4.787 16.5618 1.27425V0H3.82042C2.1837 0 0.783837 1.03452 0.24 2.48384C0.0847946 2.88192 0.017397 3.24289 0.000547645 3.68165L0 44.7222C0.0223288 45.1605 0.0978094 45.567 0.239865 45.9335Z" transform="translate(21.0625 45.8551)" fill="#EE292A"/>
<path fill-rule="evenodd" clip-rule="evenodd" d="M63.7069 80.2264C62.8667 80.557 62.0167 80.868 61.1586 81.1611V53.514C61.1586 51.4066 59.4436 49.6915 57.3362 49.6915H40.8513C41.4808 54.7116 45.7772 58.6104 50.9655 58.6104H53.5138V61.1588H50.9655C50.5348 61.1588 50.1105 61.1359 49.6913 61.0938V61.1588H24.2087V81.545H23.4969C22.8803 81.3481 22.2681 81.1414 21.6605 80.9257V61.1588H6.3707C2.85781 61.1588 0 58.301 0 54.7881V14.0156C0 10.5029 2.85781 7.64495 6.3707 7.64495H19.1121V6.37084C19.1121 2.85795 21.9699 0.000133776 25.4828 0.000133776C27.5738 0.000133776 29.4175 1.02713 30.5794 2.58795C31.7413 1.02713 33.585 0.000133776 35.6758 0.000133776C37.7668 0.000133776 39.6105 1.02713 40.7724 2.58795C41.9343 1.02713 43.778 0.000133776 45.8689 0.000133776C47.9598 0.000133776 49.8035 1.02712 50.9655 2.58781C52.1274 1.02699 53.9711 0 56.062 0C59.5749 0 62.4328 2.85795 62.4328 6.3707V7.64481H75.1741C78.687 7.64481 81.5448 10.5028 81.5448 14.0155V54.7879C81.5448 58.3008 78.687 61.1586 75.1741 61.1586H63.7069V80.2264ZM52.2397 6.37084V11.4674C52.2397 13.5748 53.9548 15.2898 56.062 15.2898C58.1693 15.2898 59.8844 13.5748 59.8844 11.4674V6.37084C59.8844 4.26343 58.1693 2.5485 56.062 2.5485C53.9548 2.5485 52.2397 4.26343 52.2397 6.37084ZM42.0465 6.37084V11.4674C42.0465 13.5748 43.7616 15.2898 45.869 15.2898C47.9764 15.2898 49.6913 13.5748 49.6913 11.4674V6.37084C49.6913 4.26343 47.9763 2.5485 45.869 2.5485C43.7615 2.5485 42.0465 4.26343 42.0465 6.37084ZM31.8534 6.37084V11.4674C31.8534 13.5748 33.5684 15.2898 35.6757 15.2898C37.7832 15.2898 39.4982 13.5748 39.4982 11.4674V6.37084C39.4982 4.26343 37.7831 2.5485 35.6757 2.5485C33.5684 2.5485 31.8534 4.26343 31.8534 6.37084ZM21.6603 6.37084V11.4674C21.6603 13.5748 23.3754 15.2898 25.4827 15.2898C27.5902 15.2898 29.305 13.5748 29.305 11.4674V6.37084C29.305 4.26343 27.5901 2.5485 25.4827 2.5485C23.3754 2.5485 21.6603 4.26343 21.6603 6.37084ZM78.9965 54.7881V14.0158C78.9965 11.9084 77.2814 10.1933 75.1741 10.1933H62.4328V11.4674C62.4328 14.9803 59.5749 17.8381 56.062 17.8381C53.9711 17.8381 52.1274 16.8111 50.9655 15.2503C49.8035 16.8111 47.9598 17.8381 45.8689 17.8381C43.778 17.8381 41.9343 16.8111 40.7724 15.2503C39.6105 16.8111 37.7668 17.8381 35.6758 17.8381C33.585 17.8381 31.7413 16.8111 30.5794 15.2503C29.4175 16.8111 27.5738 17.8381 25.4828 17.8381C21.9699 17.8381 19.1121 14.9802 19.1121 11.4674V10.1933H6.3707C4.2633 10.1933 2.54836 11.9084 2.54836 14.0156V54.7881C2.54836 56.8955 4.26343 58.6104 6.3707 58.6104L43.3538 58.6105C40.2475 56.2852 38.2242 52.5877 38.2242 48.4174C38.2242 47.7127 38.795 47.1433 39.4984 47.1433H57.3363C60.8492 47.1433 63.707 50.0012 63.707 53.514V58.6104L75.1743 58.6105C77.2814 58.6105 78.9965 56.8955 78.9965 54.7881Z" transform="translate(18.4243 35.5647)" fill="black"/>
<path fill-rule="evenodd" clip-rule="evenodd" d="M12.3192 0C11.1965 0 10.1467 0.307121 9.23947 0.833286C8.33221 0.307121 7.28248 0 6.15974 0C2.76398 0 0 2.76302 0 6.1596C0 9.55619 2.76398 12.3193 6.15974 12.3193C7.28248 12.3193 8.33221 12.0122 9.23947 11.4861C10.1467 12.0122 11.1965 12.3193 12.3192 12.3193C15.715 12.3193 18.4789 9.55632 18.4789 6.1596C18.4789 2.76302 15.715 0 12.3192 0ZM10.5595 6.1596C10.5595 7.38632 10.0526 8.49495 9.23947 9.29399C8.42632 8.49495 7.91947 7.38618 7.91947 6.1596C7.91947 4.93302 8.42632 3.82425 9.23947 3.02521C10.0525 3.82425 10.5595 4.93302 10.5595 6.1596ZM1.75973 6.1596C1.75973 3.73357 3.73343 1.75987 6.1596 1.75987C6.7148 1.75987 7.24179 1.87425 7.73207 2.06343C6.75809 3.15288 6.1596 4.58631 6.1596 6.1596C6.1596 7.73303 6.75796 9.16646 7.73207 10.2558C7.24193 10.445 6.7148 10.5593 6.1596 10.5593C3.73343 10.5595 1.75973 8.58564 1.75973 6.1596ZM12.3192 10.5595C11.764 10.5595 11.237 10.4451 10.7467 10.2559C11.7207 9.16646 12.3192 7.73303 12.3192 6.15974C12.3192 4.58645 11.7208 3.15302 10.7467 2.06357C11.2369 1.87439 11.764 1.76 12.3192 1.76C14.7452 1.76 16.7191 3.73371 16.7191 6.15974C16.7191 8.58577 14.7452 10.5595 12.3192 10.5595Z" transform="translate(74.4209 54.4606)" fill="#000003"/>
<path fill-rule="evenodd" clip-rule="evenodd" d="M1.41603 8.79139H5.18385H6.1196H9.88742C10.668 8.79139 11.3035 8.15591 11.3035 7.37536V2.35165V1.41603C11.3035 0.635482 10.668 0 9.88742 0H5.18385H1.41603C0.635619 0 0 0.635482 0 1.41603V7.37536C0 8.15591 0.635482 8.79139 1.41603 8.79139ZM3.76782 5.02371H1.25589V3.76782H3.76782V5.02371ZM1.25589 7.37536V6.2796H3.76782V7.37536C3.76782 7.43002 3.77782 7.48221 3.78412 7.5355H1.41603C1.32754 7.5355 1.25589 7.46399 1.25589 7.37536ZM10.0474 5.02371H7.5355V3.92782C7.5355 3.83932 7.607 3.76768 7.69563 3.76768H9.88728C9.9418 3.76768 9.99399 3.75768 10.0474 3.75138V5.02371ZM9.88728 7.5355H7.5192C7.5255 7.48221 7.5355 7.43002 7.5355 7.37536V6.2796H10.0474V7.37536C10.0474 7.46399 9.97591 7.5355 9.88728 7.5355ZM9.88728 1.25576C9.97577 1.25576 10.0474 1.3274 10.0474 1.41589V2.35151C10.0474 2.44014 9.97591 2.51165 9.88728 2.51165H7.69563C6.91508 2.51165 6.2796 3.14713 6.2796 3.92768V7.37522C6.2796 7.46371 6.2081 7.53536 6.11947 7.53536H5.18371C5.09522 7.53536 5.02357 7.46385 5.02357 7.37522V1.41589C5.02357 1.3274 5.09508 1.25576 5.18371 1.25576H9.88728ZM1.41603 1.25576H3.78412C3.77782 1.30918 3.76782 1.36137 3.76782 1.41589V2.51179H1.25589V1.41589C1.25589 1.3274 1.32754 1.25576 1.41603 1.25576Z" transform="translate(29.4883 55.0043)" fill="#000003"/>
<path d="M9.67852 0H0V2.54837H9.67852V0Z" transform="translate(30.8042 82.9243)" fill="#000003"/>
<path d="M9.67838 0H0V2.54837H9.67838V0Z" transform="translate(44.6743 82.9243)" fill="#000003"/>
</svg>
