<svg width="120" height="121" viewBox="0 0 120 121" fill="none" xmlns="http://www.w3.org/2000/svg">
<path fill-rule="evenodd" clip-rule="evenodd" d="M59.9993 0C93.1362 0 120 26.8382 120 59.946C120 93.0538 93.1369 119.892 59.9993 119.892C56.726 119.892 53.5153 119.627 50.3845 119.122L67.6732 110.406L50.3845 119.122C31.2587 116.044 15.1564 103.937 6.6042 87.3128L14.0751 73.1188L6.6042 87.3121C2.38281 79.1085 1.44683e-08 69.8045 1.44683e-08 59.9453C-0.000719868 26.8382 26.8624 0 59.9993 0ZM12.4338 76.3424L14.0744 73.1188L12.4338 76.3424ZM14.0751 73.118L21.8643 57.8163C22.957 55.6694 24.697 54.054 26.7278 53.0859C24.6963 54.0533 22.957 55.6687 21.8643 57.8163L14.0751 73.118Z" transform="translate(0 0.169067)" fill="#F2F6F4"/>
<path fill-rule="evenodd" clip-rule="evenodd" d="M31.7857 2.54609H37.0171H31.7857ZM61.159 33.8845C62.1201 31.8297 64.0839 30.3064 66.4876 30.0036V78.4166C67.4983 77.8348 68.4881 77.2227 69.4614 76.5847V28.3623C69.4614 27.5409 68.7962 26.8756 67.9741 26.8756C66.101 26.8756 63.359 27.4654 61.159 29.1894V28.0063H58.6099H61.159V17.8226V6.36522C61.159 2.85536 58.3004 0 54.7881 0H14.0154C10.5031 0 7.64515 2.85464 7.64515 6.3645V19.0949H6.37096C2.85793 19.0949 0 21.9503 0 25.4602C0 27.5488 1.02655 29.3908 2.58798 30.5523C1.02727 31.7125 0 33.5551 0 35.6438C0 37.7332 1.02655 39.5751 2.58798 40.736C1.02727 41.8968 0 43.7388 0 45.8274C0 47.9161 1.02655 49.7588 2.58798 50.9196C1.02727 52.0804 0 53.9231 0 56.0118C0 59.5209 2.85793 62.377 6.37096 62.377H7.64515V75.1067C7.64515 77.3011 8.76241 79.2402 10.4592 80.3845C11.0631 80.6779 11.6722 80.9606 12.2869 81.2331C12.8369 81.3885 13.4164 81.4719 14.0154 81.4719H35.1763L40.2256 78.9251H14.0154C11.9083 78.9251 10.1928 77.2126 10.1928 75.1067V62.377H11.467C14.9793 62.377 17.838 59.5209 17.838 56.0118C17.838 53.9231 16.8114 52.0804 15.25 50.9196C16.8107 49.7588 17.838 47.9161 17.838 45.8274C17.838 43.7388 16.8114 41.8968 15.25 40.736C16.8107 39.5751 17.838 37.7332 17.838 35.6438C17.838 33.5551 16.8114 31.7125 15.25 30.5523C16.8107 29.3908 17.838 27.5488 17.838 25.4602C17.838 21.951 14.98 19.0949 11.467 19.0949H10.1928V6.36522C10.1928 4.26002 11.9076 2.54609 14.0154 2.54609H31.7857H37.0149H54.7881C56.8952 2.54609 58.6099 4.2593 58.6099 6.36522V17.8226V38.1568V75.1067C58.6099 77.2126 56.8952 78.9251 54.7881 78.9251H40.2256L35.1763 81.4719H54.7888C58.3011 81.4719 61.1597 78.6159 61.1597 75.1067V59.8309V57.2848V33.8845H61.159ZM44.4858 70.4418V67.8957H52.1303V70.4418H44.4858ZM30.4704 70.4418V67.8957H41.9374V70.4418H30.4704ZM25.3744 70.4418V67.8957H27.9228V70.4418H25.3744ZM20.2776 70.4418V67.8957H22.826V70.4418H20.2776ZM15.1809 70.4418V67.8957H17.7293V70.4418H15.1809ZM36.3706 43.2216H34.5615V44.9241H32.4062V43.2216H31.0219V41.4739H32.4062V40.8906H31.0219V39.1429H32.4062V34.2909H35.8523C37.1574 34.2909 38.0069 34.3427 38.4035 34.4499C39.0133 34.6103 39.5237 34.9569 39.9347 35.4913C40.3458 36.0257 40.551 36.7162 40.551 37.5627C40.551 38.2158 40.4322 38.7631 40.1968 39.209C39.9592 39.6542 39.659 40.0031 39.2955 40.2584C38.9305 40.5108 38.5598 40.6784 38.1825 40.7597C37.6707 40.8618 36.9292 40.9136 35.9588 40.9136H34.5615V41.4732H36.3706V43.2216ZM34.5615 36.0883H35.5946C36.3677 36.0883 36.8803 36.1135 37.1351 36.1602C37.4843 36.2249 37.7693 36.3839 37.9968 36.6349C38.2221 36.8881 38.3366 37.2067 38.3366 37.5958C38.3366 37.9123 38.2552 38.187 38.094 38.4244C37.932 38.6646 37.7103 38.8379 37.4245 38.9494C37.1394 39.0602 36.5772 39.117 35.7328 39.117H34.5608V36.0883H34.5615ZM35.7868 22.5818C40.4919 22.5818 44.7529 24.4878 47.8362 27.5682C50.9194 30.6494 52.8278 34.9066 52.8278 39.6068C52.8278 44.3084 50.9201 48.5648 47.8362 51.646C44.7522 54.7272 40.4919 56.6332 35.7868 56.6332C31.0809 56.6332 26.8206 54.7279 23.7367 51.646C20.6527 48.5641 18.745 44.3084 18.745 39.6068C18.745 34.9066 20.6527 30.6494 23.7367 27.5682C26.8206 24.4878 31.0816 22.5818 35.7868 22.5818ZM46.2099 29.1944C48.8771 31.8592 50.5264 35.5402 50.5264 39.6075C50.5264 43.6748 48.8771 47.3558 46.2099 50.0213C43.5428 52.6868 39.8577 54.3345 35.7868 54.3345C31.7158 54.3345 28.0315 52.686 25.3636 50.0213C22.6957 47.3565 21.0465 43.6748 21.0465 39.6075C21.0465 35.5402 22.6964 31.8599 25.3636 29.1944C28.0308 26.5289 31.7158 24.8812 35.7868 24.8812C39.8577 24.8812 43.5428 26.5297 46.2099 29.1944ZM6.37096 29.2793C4.26314 29.2793 2.54838 27.5654 2.54838 25.4594C2.54838 23.3542 4.26314 21.6403 6.37096 21.6403H11.4677C13.5748 21.6403 15.2903 23.3535 15.2903 25.4594C15.2903 27.5654 13.5755 29.2793 11.4677 29.2793H6.37096ZM6.37096 39.4629C4.26314 39.4629 2.54838 37.7497 2.54838 35.6438C2.54838 33.5386 4.26314 31.8247 6.37096 31.8247H11.4677C13.5748 31.8247 15.2903 33.5386 15.2903 35.6438C15.2903 37.7497 13.5755 39.4629 11.4677 39.4629H6.37096ZM6.37096 49.6473C4.26314 49.6473 2.54838 47.9333 2.54838 45.8274C2.54838 43.7215 4.26314 42.0083 6.37096 42.0083H11.4677C13.5748 42.0083 15.2903 43.7215 15.2903 45.8274C15.2903 47.9333 13.5755 49.6473 11.4677 49.6473H6.37096ZM6.37096 59.8309C4.26314 59.8309 2.54838 58.1177 2.54838 56.0118C2.54838 53.9059 4.26314 52.1919 6.37096 52.1919H11.4677C13.5748 52.1919 15.2903 53.9059 15.2903 56.0118C15.2903 58.1177 13.5755 59.8309 11.4677 59.8309H6.37096Z" transform="translate(23.3926 33.6933)" fill="#000003"/>
<path fill-rule="evenodd" clip-rule="evenodd" d="M15.3241 18.3405H13.5151V20.0429H11.3597V18.3405H9.97541V16.5927H11.3597V16.0094H9.97541V14.2617H11.3597V9.40974H14.8058C16.111 9.40974 16.9604 9.46152 17.3571 9.56869C17.9668 9.72908 18.4772 10.0757 18.8883 10.6101C19.2993 11.1445 19.5045 11.835 19.5045 12.6815C19.5045 13.3346 19.3857 13.8819 19.1503 14.3279C18.9127 14.7731 18.6125 15.1219 18.249 15.3772C17.884 15.6297 17.5133 15.7972 17.1361 15.8785C16.6242 15.9807 15.8828 16.0324 14.9124 16.0324H13.5151V16.592H15.3241V18.3405ZM13.5151 11.2071V14.2365H14.687C15.5315 14.2365 16.0937 14.1797 16.3788 14.0689C16.6638 13.9574 16.8863 13.7841 17.0482 13.5439C17.2095 13.3065 17.2908 13.0318 17.2908 12.7153C17.2908 12.3262 17.1771 12.0076 16.9511 11.7544C16.7236 11.5027 16.4385 11.3445 16.0894 11.2797C15.8345 11.2337 15.322 11.2078 14.5488 11.2078H13.5151V11.2071ZM25.1635 4.31325C22.4963 1.64849 18.8112 0 14.7403 0C10.6694 0 6.98502 1.64849 4.31713 4.31325C1.64925 6.97801 0 10.659 0 14.7263C0 18.7936 1.64997 22.4746 4.31713 25.1401C6.9843 27.8056 10.6694 29.4533 14.7403 29.4533C18.8112 29.4533 22.4956 27.8049 25.1635 25.1401C27.8314 22.4753 29.4799 18.7936 29.4799 14.7263C29.4799 10.659 27.8306 6.97801 25.1635 4.31325Z" transform="translate(44.4395 58.5744)" fill="#EE292A"/>
</svg>
