<svg width="76" height="54" viewBox="0 0 76 54" fill="none" xmlns="http://www.w3.org/2000/svg">
<path fill-rule="evenodd" clip-rule="evenodd" d="M53.702 49.7632L36.311 40.6234L6.821 25.1224L53.702 49.7632ZM36.313 40.6274L18.154 31.083L36.313 40.6274ZM53.704 49.7682L47.842 46.687L53.704 49.7682ZM36.261 39.5624C36.261 39.5604 36.263 33.332 36.263 39.5664C36.263 39.9181 36.295 40.2797 36.356 40.6464L18.122 31.062C17.635 33.4868 15.289 34.2851 12.466 32.8015C10.48 31.7574 8.72999 29.8311 7.69699 27.759L7.623 27.6081L7.621 27.6041L7.55 27.4523L7.548 27.4483L7.479 27.2964L7.47701 27.2924L7.411 27.1406L7.409 27.1356L7.34599 26.9837L7.34399 26.9797L7.284 26.8268L7.282 26.8218L7.22499 26.669C7.03499 26.1504 6.89399 25.6309 6.80899 25.1214L2.54399 22.8794C1.47099 22.208 0.752001 21.4907 0.360001 20.7333L0.334 20.6814L0.332001 20.6774L0.306 20.6254L0.304001 20.6214L0.279999 20.5685L0.278 20.5635L0.255005 20.5105L0.252991 20.5065L0.231003 20.4536L0.229004 20.4496L0.207993 20.3956L0.205994 20.3916L0.186005 20.3387C0.0660046 20.009 0.005 19.6733 0 19.3306V14.0284L0.00299072 14.0304L0 14.0284C0.075 13.9824 0.946004 10.6344 1.02 10.5875C7.524 6.55212 14.03 2.02918 20.788 0.41763C25.282 -0.653405 31.088 0.274754 38.669 3.90948C46.678 7.92686 53.544 14.8656 59.785 23.4029C63.529 25.497 67.409 28.6822 71.352 32.3828C72.269 33.2431 72.851 33.8825 73.198 34.5559L73.227 34.6128L73.229 34.6168L73.257 34.6738L73.259 34.6778L73.285 34.7357L73.287 34.7397L73.312 34.7967L73.314 34.8016L73.338 34.8596L73.34 34.8636L73.362 34.9216L73.364 34.9265L73.385 34.9855C73.57 35.493 73.641 36.0465 73.638 36.7419L73.623 39.5924C73.618 40.5545 73.403 41.114 72.996 41.3597L57.22 50.8692L53.703 49.7712L53.678 49.7542L47.668 46.595C47.182 49.0198 44.835 49.8181 42.012 48.3345C40.026 47.2904 38.276 45.3642 37.243 43.292L37.169 43.1412L37.167 43.1371L37.096 42.9853L37.094 42.9813L37.025 42.8294L37.023 42.8244L36.957 42.6726L36.955 42.6686L36.892 42.5157L36.89 42.5117L36.83 42.3588L36.828 42.3538L36.771 42.201C36.444 41.3028 36.261 40.4066 36.261 39.5624ZM14.4 28.0747C14.4 28.0747 14.398 29.0269 14.398 28.0707C14.398 27.3514 14.4 26.7 14.4 28.0747ZM6.718 23.9784C6.718 23.7646 6.782 21.8513 6.722 23.7536C6.722 23.7716 6.759 24.6778 6.758 24.6967L6.82199 25.1234L6.821 25.1224L6.81 25.1164C6.749 24.7497 6.718 24.1942 6.718 23.9784Z" transform="translate(1.01709 0.901611)" fill="white"/>
<path fill-rule="evenodd" clip-rule="evenodd" d="M12.2274 14.9196L0.215376 8.62824C0.108376 6.4502 -0.06261 2.12209 0.02339 0C6.77739 3.49885 9.62538 6.80888 12.2274 14.9196Z" transform="translate(23.5547 24.7252)" fill="#ED1C24"/>
<path d="M3.914 6.52811C3.458 6.52811 2.98601 6.40225 2.51201 6.15248C1.08001 5.40015 0 3.72067 0 2.247C0 0.924191 0.870005 0 2.11501 0C2.57201 0 3.04301 0.125887 3.51701 0.374662C4.94901 1.12798 6.02901 2.80747 6.02901 4.28014C6.02901 4.91257 5.83201 5.46308 5.46001 5.86971C5.07301 6.29533 4.524 6.52811 3.914 6.52811ZM2.164 2.16205C2.162 2.18403 2.16 2.21203 2.16 2.247C2.16 2.85145 2.74101 3.83358 3.51701 4.24221C3.68301 4.32913 3.80001 4.35707 3.86501 4.36606C3.86701 4.34408 3.869 4.31612 3.869 4.28215C3.869 3.6777 3.288 2.6956 2.511 2.28596C2.346 2.19904 2.229 2.17105 2.164 2.16205Z" transform="translate(40.0762 40.4082)" fill="black"/>
<path d="M9.502 15.1414C9.501 15.1414 9.502 15.1414 9.502 15.1414C8.495 15.1414 7.426 14.8476 6.326 14.2691C2.779 12.4048 0 8.13465 0 4.54888C0 1.82833 1.67001 0 4.15601 0C5.16301 0 6.231 0.293721 7.332 0.8722C10.879 2.73652 13.658 7.00568 13.658 10.5924C13.658 11.9332 13.265 13.0702 12.523 13.8825C11.771 14.7058 10.726 15.1414 9.502 15.1414ZM4.155 2.15809C2.419 2.15809 2.159 3.65668 2.159 4.54888C2.159 7.30839 4.527 10.8852 7.33 12.3589C8.106 12.7665 8.856 12.9823 9.5 12.9823C10.109 12.9823 10.589 12.7955 10.926 12.4268C11.299 12.0192 11.496 11.3838 11.496 10.5915C11.496 7.83096 9.12801 4.25516 6.32401 2.78149C5.54901 2.37386 4.799 2.15809 4.155 2.15809Z" transform="translate(36.2622 36.1019)" fill="black"/>
<path d="M3.91501 6.52711C3.45801 6.52711 2.98701 6.40124 2.51201 6.15147C1.08001 5.39915 0 3.72064 0 2.24697C0 0.92416 0.870005 0 2.11501 0C2.57201 0 3.043 0.125887 3.517 0.374662C4.949 1.12798 6.02901 2.80647 6.02901 4.28014C6.02901 4.91257 5.83201 5.46311 5.46001 5.86974C5.07401 6.29336 4.52501 6.52711 3.91501 6.52711ZM2.16501 2.16105C2.16301 2.18303 2.16101 2.21102 2.16101 2.24599C2.16101 2.85045 2.74201 3.83256 3.51801 4.2402C3.68401 4.32712 3.801 4.35609 3.866 4.36509C3.868 4.3431 3.87001 4.31411 3.87001 4.28014C3.87001 3.67568 3.28901 2.69359 2.51201 2.28496C2.34601 2.19804 2.23001 2.17004 2.16501 2.16105Z" transform="translate(10.5288 24.8792)" fill="black"/>
<path d="M9.502 15.1414C8.495 15.1414 7.426 14.8476 6.326 14.2691C2.779 12.4048 0 8.13468 0 4.54891C0 1.82836 1.67001 0 4.15601 0C5.16201 0 6.23099 0.292745 7.33099 0.871224C10.878 2.73654 13.657 7.0067 13.657 10.5915C13.657 11.9323 13.264 13.0692 12.522 13.8815C11.771 14.7057 10.726 15.1414 9.502 15.1414ZM4.15601 2.15806C2.41901 2.15806 2.16 3.65671 2.16 4.54891C2.16 7.30842 4.52799 10.8852 7.33099 12.3589C8.10699 12.7665 8.85701 12.9823 9.50101 12.9823C10.11 12.9823 10.59 12.7955 10.927 12.4268C11.3 12.0192 11.497 11.3838 11.497 10.5915C11.497 7.83196 9.129 4.25519 6.325 2.78051C5.55 2.37388 4.80001 2.15806 4.15601 2.15806Z" transform="translate(6.71484 20.572)" fill="black"/>
<path d="M57.908 43.6773C56.924 43.6773 55.731 43.1558 54.262 42.3505L48.416 39.2783C47.888 39.0005 47.686 38.3481 47.963 37.8206C48.24 37.2941 48.892 37.0913 49.422 37.368L55.284 40.4492C57.265 41.5342 57.825 41.5452 57.962 41.5133C57.95 41.4963 58.055 41.2844 58.058 40.671L58.073 37.8206C58.076 37.2251 58.608 36.7415 59.159 36.7475C59.755 36.7505 60.236 37.2361 60.233 37.8326L60.218 40.683C60.215 41.1816 60.207 42.6992 59.049 43.3806C58.702 43.5844 58.324 43.6773 57.908 43.6773ZM56.869 34.5525C56.604 34.5525 56.338 34.4556 56.13 34.2598C51.677 30.0815 48.069 27.2771 44.775 25.4347C44.639 25.3588 44.522 25.2549 44.43 25.129C37.621 15.8144 30.841 9.54506 23.701 5.96328C15.446 2.00685 9.08699 1.14362 4.27699 3.33565C4.04599 3.43955 3.78599 3.46152 3.54399 3.39458C2.64999 3.1508 2.42799 3.29169 2.42599 3.29269C2.15899 3.4965 2.159 5.01713 2.159 5.66555V10.9678C2.172 11.871 2.85699 12.7602 4.19499 13.5984L8.403 15.8064C8.931 16.0832 9.133 16.7366 8.856 17.2631C8.579 17.7896 7.92499 17.9924 7.39799 17.7157L3.12 15.4667C1.05 14.1749 0.024 12.6792 0 10.9818V5.66454C0 4.07298 -1.0848e-05 2.42748 1.11699 1.57625C1.91999 0.963798 2.932 1.03772 3.733 1.21655C9.112 -1.06439 15.961 -0.143215 24.654 4.02503C32.075 7.74767 39.067 14.1719 46.037 23.6664C49.432 25.5966 53.117 28.469 57.609 32.6852C58.044 33.0928 58.065 33.7762 57.657 34.2098C57.443 34.4376 57.156 34.5525 56.869 34.5525ZM37.39 33.3436C37.221 33.3436 37.049 33.3036 36.888 33.2187L18.729 23.6743C18.201 23.3976 17.999 22.7442 18.276 22.2177C18.552 21.6901 19.206 21.4863 19.734 21.7651L37.893 31.3094C38.421 31.5862 38.623 32.2396 38.346 32.7661C38.154 33.1338 37.779 33.3436 37.39 33.3436Z" transform="translate(0 9.44739)" fill="black"/>
<path d="M14.4498 11.832C14.2778 11.832 14.1058 11.791 13.9488 11.7081L2.89176 5.92232C2.71476 5.8294 2.56676 5.68953 2.46476 5.51769L0.151759 1.63017C-0.0522407 1.28847 -0.0502429 0.860874 0.155757 0.521181C0.361757 0.181487 0.728767 -0.0203509 1.13777 0.00162926C4.26177 0.168479 7.49176 0.34034 14.8798 3.55245C15.2738 3.72329 15.5288 4.11193 15.5288 4.54154L15.5298 10.752C15.5298 11.1296 15.3328 11.4803 15.0088 11.6751C14.8378 11.779 14.6438 11.832 14.4498 11.832ZM4.16577 4.15289L13.3698 8.96956L13.3688 5.25291C8.28977 3.09585 5.45776 2.51937 3.05876 2.29458L4.16577 4.15289Z" transform="translate(7.65332 12.0781)" fill="black"/>
<path d="M15.923 16.2383C15.75 16.2383 15.577 16.1963 15.419 16.1134L0.576004 8.28542C0.222004 8.09859 0 7.73093 0 7.33029L0.00100708 1.0789C0.00100708 0.685259 0.216005 0.323601 0.561005 0.133772C0.907005 -0.0560566 1.327 -0.0430717 1.66 0.167738C7.686 3.9863 12.23 7.47717 17.618 14.0193C17.824 14.269 17.907 14.5997 17.843 14.9174C17.779 15.2352 17.575 15.5069 17.288 15.6588L16.428 16.1124C16.27 16.1963 16.097 16.2383 15.923 16.2383ZM2.16 6.68088L13.676 12.7534C9.89701 8.58314 6.45501 5.8746 2.16101 3.05814L2.16 6.68088Z" transform="translate(23.5332 17.1073)" fill="black"/>
<path d="M3.825 6.88784C3.656 6.88784 3.484 6.84787 3.323 6.76295C1.025 5.55504 0 3.80159 0 1.07904C0 0.482582 0.482987 0 1.07999 0C1.67699 0 2.15999 0.482582 2.15999 1.07904C2.15999 2.99931 2.74799 4.02241 4.32899 4.85366C4.85699 5.13041 5.059 5.78383 4.782 6.31035C4.588 6.67802 4.213 6.88784 3.825 6.88784Z" transform="translate(55.3281 41.4652)" fill="black"/>
<path d="M1.81312 5.8281C1.40212 5.8281 0.983123 5.72419 0.577123 5.50938C0.049123 5.23263 -0.15288 4.57921 0.12412 4.05269C0.40012 3.52516 1.05411 3.32134 1.58211 3.60009C1.72411 3.67602 1.91811 3.77595 2.23911 3.38331C2.72311 2.79484 2.76212 1.93861 2.62812 1.77276C2.25612 1.31417 2.31412 0.630793 2.76912 0.253133C3.22412 -0.124527 3.88912 -0.0755756 4.27212 0.37302C5.27412 1.54696 4.87912 3.54216 3.93912 4.7171C3.35412 5.44644 2.59912 5.8281 1.81312 5.8281Z" transform="translate(0.434082 10.7965)" fill="black"/>
<path d="M1.08056 11.0127C0.705562 11.0127 0.340566 10.8168 0.141566 10.4681C-0.153434 9.94958 0.027558 9.29122 0.545558 8.99648L16.1056 0.141424C16.6266 -0.153311 17.2835 0.027579 17.5785 0.545113C17.8735 1.06365 17.6926 1.72201 17.1746 2.01675L1.61456 10.8718C1.44456 10.9677 1.26156 11.0127 1.08056 11.0127Z" transform="translate(58.0742 37.3403)" fill="black"/>
<path d="M1.08113 11.3811C0.715128 11.3811 0.357118 11.1952 0.155118 10.8585C-0.152882 10.348 0.0121143 9.6846 0.523114 9.37788L15.8511 0.155204C16.3601 -0.152518 17.0251 0.0113455 17.3331 0.522885C17.6411 1.03342 17.4761 1.69682 16.9651 2.00354L1.63713 11.2263C1.46313 11.3312 1.27113 11.3811 1.08113 11.3811Z" transform="translate(44.4561 23.4102)" fill="black"/>
<path d="M57.3968 53.0947C57.0308 53.0947 56.6738 52.9089 56.4708 52.5732C56.1628 52.0627 56.3268 51.3993 56.8378 51.0915L72.7188 41.5192C72.7068 41.5192 72.8238 41.3223 72.8278 40.6679L72.8428 37.8175C72.8508 36.3638 72.5418 35.7983 70.8988 34.2557C66.4458 30.0765 62.8378 27.273 59.5438 25.4307C59.4078 25.3547 59.2908 25.2508 59.1988 25.1249C52.3888 15.8093 45.6088 9.54 38.4698 5.95922C31.5488 2.64121 25.7748 1.49325 21.3238 2.55229C15.6648 3.90207 10.0158 7.46485 4.5528 10.9097C3.5848 11.5202 2.61679 12.1307 1.64879 12.7291C1.14279 13.0418 0.476795 12.886 0.161795 12.3794C-0.152205 11.8729 0.00480109 11.2085 0.511801 10.8938C1.4738 10.2983 2.4358 9.69185 3.3998 9.0844C9.0118 5.54559 14.8148 1.88588 20.8228 0.453169C25.8358 -0.743753 31.9198 0.425208 39.4208 4.02097C46.8418 7.74361 53.8328 14.1668 60.8038 23.6623C64.1988 25.5925 67.8828 28.4649 72.3758 32.6811C74.2378 34.4275 75.0138 35.5296 75.0018 37.8275L74.9868 40.6779C74.9848 41.1725 74.9768 42.6761 73.8378 43.3635L57.9528 52.9379C57.7788 53.0448 57.5868 53.0947 57.3968 53.0947Z" transform="translate(0.794434)" fill="black"/>
<path d="M1.08139 11.1288C0.715385 11.1288 0.35839 10.943 0.15539 10.6073C-0.15261 10.0967 0.0113794 9.43433 0.522379 9.12661L15.4134 0.15569C15.9234 -0.153032 16.5884 0.0118241 16.8954 0.522364C17.2034 1.0329 17.0394 1.6953 16.5284 2.00302L1.63738 10.9739C1.46338 11.0789 1.27139 11.1288 1.08139 11.1288Z" transform="translate(32.2607 10.4124)" fill="black"/>
<path d="M4.11848 6.39144C3.75248 6.39144 3.39447 6.2046 3.19247 5.8689C2.88447 5.35836 3.04949 4.69496 3.56049 4.38824C3.94749 4.15545 3.88849 3.74184 3.76949 3.43512C3.52149 2.79469 2.66148 1.94047 1.28848 2.20923C0.701483 2.32813 0.135478 1.94346 0.0204775 1.35899C-0.0945225 0.774512 0.286475 0.207018 0.871475 0.0921218C3.26548 -0.378454 5.15548 1.02627 5.78548 2.6578C6.33048 4.07053 5.88448 5.5092 4.67548 6.23655C4.50048 6.34145 4.30748 6.39144 4.11848 6.39144Z" transform="translate(55.4204 41.7438)" fill="black"/>
<path d="M3.93187 6.28188C3.91987 6.28188 3.90685 6.28188 3.89485 6.28188C1.51885 6.20095 0.365852 4.9131 0.0798519 3.73516C-0.253148 2.3654 0.472865 0.952659 1.93087 0.137393C2.45187 -0.153345 3.10987 0.0324658 3.40087 0.551998C3.69287 1.07253 3.50686 1.72997 2.98586 2.02071C2.38786 2.35441 2.07887 2.81696 2.17787 3.22659C2.27287 3.61624 2.79885 4.08584 3.96785 4.1258C4.56385 4.14678 5.03085 4.64536 5.01085 5.24083C4.99085 5.8223 4.51187 6.28188 3.93187 6.28188Z" transform="translate(70.521 33.1182)" fill="black"/>
<path d="M2.62525 3.05239C2.44225 3.05239 2.25625 3.00644 2.08625 2.90753L0.540243 2.01533C0.0232428 1.7176 -0.152753 1.05718 0.144247 0.540644C0.441247 0.0241098 1.10124 -0.153726 1.62024 0.145005L3.16625 1.03721C3.68325 1.33494 3.85925 1.99536 3.56225 2.51189C3.36125 2.85858 2.99825 3.05239 2.62525 3.05239Z" transform="translate(24.2988 27.1849)" fill="black"/>
</svg>
