<svg width="120" height="121" viewBox="0 0 120 121" fill="none" xmlns="http://www.w3.org/2000/svg">
<path fill-rule="evenodd" clip-rule="evenodd" d="M60 0C93.1369 0 120 26.8379 120 59.946C120 93.0526 93.1376 119.892 60 119.892C56.7267 119.892 53.516 119.625 50.3853 119.121L67.6739 110.405L50.3853 119.121C31.2594 116.043 15.1571 103.937 6.60492 87.3132L14.0751 73.1186L6.60492 87.3125C2.38353 79.1076 0 69.8058 0 59.946C0 26.8379 26.8624 0 60 0ZM12.4345 76.3422L14.0751 73.1186L12.4345 76.3422ZM14.0751 73.1179L21.8635 57.8164C22.957 55.6702 24.6963 54.0541 26.7278 53.086C24.6963 54.0541 22.9563 55.6702 21.8635 57.8164L14.0751 73.1179Z" transform="translate(0 0.169067)" fill="#F2F6F4"/>
<path fill-rule="evenodd" clip-rule="evenodd" d="M61.6831 39.2057L61.6658 39.4063C61.6896 39.0834 61.7356 38.7641 61.8011 38.4527C62.6974 41.1274 63.184 43.99 63.184 46.9654C63.184 54.3612 60.1836 61.0579 55.333 65.904C50.4817 70.7502 43.7796 73.7479 36.3764 73.7479C32.9346 73.7479 29.6498 73.1035 26.6349 71.929C23.903 70.8631 21.3877 69.3628 19.1762 67.5137C19.1964 67.3001 19.2072 67.0836 19.2072 66.8649C19.2072 64.6159 18.1014 62.6323 16.4205 61.3837C18.1007 60.1337 19.2072 58.1501 19.2072 55.9011C19.2072 53.652 18.1014 51.6684 16.4205 50.4184C18.1007 49.1684 19.2072 47.1848 19.2072 44.9357C19.2072 42.6867 18.1014 40.7031 16.4205 39.4531C18.1007 38.2045 19.2072 36.2209 19.2072 33.9719C19.2072 31.8646 18.2504 29.9766 16.7488 28.7194C19.1042 26.1899 21.9442 24.1178 25.1196 22.6477C28.539 21.0661 32.3515 20.1829 36.3756 20.1829C43.7789 20.1829 50.4803 23.1806 55.3323 28.0268C58.1456 30.8375 60.3362 34.2711 61.6802 38.1031L61.6831 39.2057ZM71.2733 82.1528V30.9137C71.2726 30.0298 70.5564 29.3135 69.6716 29.3135C67.5184 29.3135 64.3006 30.037 61.8638 32.1947C60.5766 29.9809 59.008 27.9505 57.2083 26.1517C56.5374 25.4814 55.834 24.8449 55.1019 24.2415L57.5697 20.0182C57.9778 19.3198 57.7432 18.4265 57.0449 18.0195L51.6839 14.8908C50.9849 14.4838 50.0901 14.7182 49.6827 15.4159L47.2387 19.5967C44.2627 18.4165 41.0484 17.7066 37.688 17.5592V17.4211C41.8359 16.7227 45.0041 13.1115 45.0041 8.77167C45.0041 3.93416 41.0664 0 36.2245 0C31.3825 0 27.4448 3.93488 27.4448 8.77167C27.4448 13.1115 30.6137 16.7234 34.7617 17.4211V17.5743C31.4927 17.7505 28.3641 18.4611 25.4601 19.6197L23.0031 15.4159C22.5949 14.7175 21.7001 14.483 21.0018 14.8908L15.6409 18.0195C14.9426 18.4265 14.7072 19.3205 15.1154 20.0182L17.6062 24.2803C16.4428 25.2419 15.3551 26.2913 14.3523 27.4169C13.7181 27.2227 13.0443 27.1184 12.3467 27.1184H11.2597H8.23113V85.8956C8.23113 53.5557 8.23113 -36.7531 8.23113 27.1184H6.85904C3.07678 27.1184 0 30.1931 0 33.9719C0 36.2209 1.10574 38.2045 2.78594 39.4531C1.10574 40.7031 0 42.6867 0 44.9357C0 47.1848 1.10574 49.1684 2.78666 50.4184C1.10646 51.6684 0 53.652 0 55.9011C0 58.1501 1.10574 60.1337 2.78666 61.3837C1.10646 62.6323 0 64.6159 0 66.8649C0 70.6437 3.07678 73.7184 6.85904 73.7184H8.23113V85.8949V73.7184H12.3467C14.9073 73.7184 17.1447 72.3095 18.3224 70.2266C20.5404 71.9477 23.011 73.3581 25.6696 74.3945C28.9925 75.6898 32.6035 76.4019 36.3749 76.4019C44.5103 76.4019 51.8761 73.1064 57.2083 67.7798C62.5397 62.4532 65.8368 55.0948 65.8368 46.9661C65.8368 42.7867 64.965 38.8115 63.3928 35.2097C64.5417 33.8582 66.1787 32.9197 68.0692 32.6809V84.2601C69.1612 83.5912 70.2295 82.8885 71.2733 82.1528ZM49.9145 20.8165C50.8892 21.3207 51.8322 21.8795 52.74 22.4851L54.3065 19.806L51.4723 18.1518L49.9145 20.8165ZM22.7879 20.8446L21.2142 18.1525L18.38 19.8067L19.9659 22.5189C20.8715 21.9105 21.8139 21.3516 22.7879 20.8446ZM46.6599 67.764L49.1975 66.3075L47.7332 63.7593L45.1956 65.2143L46.6599 67.764ZM55.7678 59.746L57.2299 57.2136L54.7427 55.7809L53.2813 58.3133L55.7678 59.746ZM59.6379 48.2449V45.3205H56.7116V48.2449H59.6379ZM54.6858 37.8205L57.2357 36.3554L55.7779 33.8216L53.2273 35.2852L54.6858 37.8205ZM47.7339 29.8025L49.1989 27.2536L46.662 25.7972L45.1964 28.3447L47.7339 29.8025ZM37.6887 70.1748V67.2504H34.7624V70.1748H37.6887ZM37.6887 26.315V23.3914H34.7624V26.315H37.6887ZM33.7841 45.1702C33.4774 45.6327 33.2989 46.1872 33.2989 46.7827C33.2989 48.3981 34.609 49.7057 36.2252 49.7057C37.8413 49.7057 39.1515 48.3981 39.1515 46.7827C39.1515 45.2278 37.9363 43.9562 36.4023 43.8634L27.2936 25.6641L24.6768 26.9709L33.7841 45.1702ZM40.615 10.2339V7.3102H31.8353V10.2339H34.7617V14.4348C32.2399 13.7839 30.3718 11.4918 30.3718 8.77167C30.3718 5.54738 32.9965 2.92365 36.2252 2.92365C39.4531 2.92365 42.0778 5.54666 42.0778 8.77167C42.0778 11.4918 40.2097 13.7839 37.688 14.4348V10.2339H40.615ZM6.85976 38.0837H12.3474C14.6165 38.0837 16.463 36.2382 16.463 33.9719C16.463 31.7049 14.6165 29.8586 12.3474 29.8586H6.85976C4.59069 29.8586 2.74419 31.7042 2.74419 33.9719C2.74419 36.2374 4.59069 38.0837 6.85976 38.0837ZM6.85976 49.0476H12.3474C14.6165 49.0476 16.463 47.2035 16.463 44.9357C16.463 42.668 14.6165 40.8239 12.3474 40.8239H6.85976C4.59069 40.8239 2.74419 42.668 2.74419 44.9357C2.74419 47.2035 4.59069 49.0476 6.85976 49.0476ZM6.85976 60.0129H12.3474C14.6165 60.0129 16.463 58.1688 16.463 55.9011C16.463 53.6333 14.6165 51.7892 12.3474 51.7892H6.85976C4.59069 51.7892 2.74419 53.6333 2.74419 55.9011C2.74419 58.1688 4.59069 60.0129 6.85976 60.0129ZM6.85976 70.9782H12.3474C14.6165 70.9782 16.463 69.1326 16.463 66.8649C16.463 64.5994 14.6165 62.7531 12.3474 62.7531H6.85976C4.59069 62.7531 2.74419 64.5986 2.74419 66.8649C2.74419 69.1326 4.59069 70.9782 6.85976 70.9782Z" transform="translate(23.2695 26.9789)" fill="#000003"/>
<path fill-rule="evenodd" clip-rule="evenodd" d="M45.2626 19.0228L45.2453 19.2235C45.2691 18.9005 45.3151 18.5812 45.3806 18.2698C46.2769 20.9446 46.7635 23.8071 46.7635 26.7825C46.7635 34.1783 43.7631 40.875 38.9125 45.7211C34.0612 50.5673 27.3591 53.565 19.9559 53.565C16.5141 53.565 13.2293 52.9206 10.2144 51.7461C7.48245 50.6802 4.96719 49.1799 2.75571 47.3308C2.77587 47.1172 2.78666 46.9007 2.78666 46.682C2.78666 44.433 1.68092 42.4494 0 41.2008C1.6802 39.9508 2.78666 37.9672 2.78666 35.7182C2.78666 33.4691 1.68092 31.4855 0 30.2355C1.6802 28.9855 2.78666 27.0019 2.78666 24.7529C2.78666 22.5038 1.68092 20.5202 0 19.2702C1.6802 18.0216 2.78666 16.038 2.78666 13.789C2.78666 11.6817 1.82994 9.79369 0.328267 8.53649C2.68372 6.00697 5.52366 3.93488 8.69906 2.46479C12.1185 0.88321 15.931 0 19.9551 0C27.3584 0 34.0598 2.99773 38.9118 7.84387C41.7251 10.6546 43.9157 14.0882 45.2597 17.9202L45.2626 19.0228ZM30.2394 47.5811L32.7769 46.1246L31.3127 43.5764L28.7751 45.0314L30.2394 47.5811ZM39.3473 39.5631L40.8094 37.0307L38.3222 35.5981L36.8608 38.1304L39.3473 39.5631ZM43.2174 28.062V25.1376H40.2911V28.062H43.2174ZM38.2653 17.6376L40.8151 16.1725L39.3574 13.6387L36.8068 15.1023L38.2653 17.6376ZM31.3134 9.61964L32.7784 7.0707L30.2415 5.61427L28.7758 8.16177L31.3134 9.61964ZM21.2682 49.9919V47.0675H18.3419V49.9919H21.2682ZM21.2682 6.13211V3.20846H18.3419V6.13211H21.2682ZM17.3636 24.9873C17.0569 25.4498 16.8784 26.0043 16.8784 26.5998C16.8784 28.2152 18.1885 29.5228 19.8047 29.5228C21.4208 29.5228 22.731 28.2152 22.731 26.5998C22.731 25.0449 21.5158 23.7733 19.9818 23.6805L10.8731 5.48122L8.25632 6.78805L17.3636 24.9873Z" transform="translate(39.6899 47.1618)" fill="#EE292A"/>
</svg>
