<svg width="120" height="121" viewBox="0 0 120 121" fill="none" xmlns="http://www.w3.org/2000/svg">
<path d="M60 119.892C93.1371 119.892 120 93.0532 120 59.946C120 26.8387 93.1371 0 60 0C26.8629 0 0 26.8387 0 59.946C0 93.0532 26.8629 119.892 60 119.892Z" transform="translate(0 0.169067)" fill="#F2F6F4"/>
<path fill-rule="evenodd" clip-rule="evenodd" d="M63.7067 80.1543C62.8673 80.4844 62.0164 80.7958 61.159 81.0886V53.4671C61.159 51.3612 59.4435 49.6473 57.3357 49.6473H40.8519C41.481 54.6632 45.7773 58.5586 50.9655 58.5586H53.5139V61.1047H50.9655C50.535 61.1047 50.1103 61.0816 49.6913 61.0392V61.1047H24.2089V81.4719H23.4977C22.8814 81.2756 22.2688 81.0684 21.6612 80.8534V61.1047H6.37096C2.85793 61.1047 0 58.2486 0 54.7394V14.0035C0 10.4943 2.85793 7.63826 6.37096 7.63826H19.1121V6.36522C19.1121 2.85536 21.9701 0 25.4831 0C27.5736 0 29.4173 1.02635 30.5799 2.58565C31.7418 1.02635 33.5854 0 35.6766 0C37.7679 0 39.6115 1.02635 40.7734 2.58565C41.9353 1.02635 43.7782 0 45.8702 0C47.9607 0 49.805 1.02635 50.9662 2.58565C52.1288 1.02635 53.9724 0 56.063 0C59.576 0 62.4339 2.85536 62.4339 6.36522V7.63826H75.1751C78.6881 7.63826 81.5461 10.4936 81.5461 14.0035V54.7394C81.5461 58.2486 78.6881 61.1047 75.1751 61.1047H63.7074V80.1543H63.7067ZM52.2404 6.36522V11.4574C52.2404 13.5633 53.9552 15.2765 56.063 15.2765C58.1708 15.2765 59.8863 13.5633 59.8863 11.4574V6.36522C59.8863 4.2593 58.1708 2.54609 56.063 2.54609C53.9552 2.54609 52.2404 4.26002 52.2404 6.36522ZM42.0476 6.36522V11.4574C42.0476 13.5633 43.7631 15.2765 45.8702 15.2765C47.9773 15.2765 49.6927 13.5633 49.6927 11.4574V6.36522C49.6927 4.2593 47.9773 2.54609 45.8702 2.54609C43.7631 2.54609 42.0476 4.26002 42.0476 6.36522ZM31.8541 6.36522V11.4574C31.8541 13.5633 33.5688 15.2765 35.6766 15.2765C37.7844 15.2765 39.4992 13.5633 39.4992 11.4574V6.36522C39.4992 4.2593 37.7844 2.54609 35.6766 2.54609C33.5688 2.54681 31.8541 4.26002 31.8541 6.36522ZM21.6605 6.36522V11.4574C21.6605 13.5633 23.376 15.2765 25.4831 15.2765C27.5909 15.2765 29.3057 13.5633 29.3057 11.4574V6.36522C29.3057 4.2593 27.5909 2.54609 25.4831 2.54609C23.376 2.54681 21.6605 4.26002 21.6605 6.36522ZM78.997 54.7394V14.0035C78.997 11.8983 77.2822 10.1844 75.1744 10.1844H62.4332V11.4574C62.4332 14.9673 59.5753 17.8226 56.0622 17.8226C53.9717 17.8226 52.1281 16.797 50.9655 15.2377C49.8043 16.797 47.96 17.8226 45.8694 17.8226C43.7782 17.8226 41.9346 16.797 40.7727 15.2377C39.6108 16.797 37.7664 17.8226 35.6759 17.8226C33.5854 17.8226 31.7418 16.797 30.5791 15.2377C29.4173 16.797 27.5736 17.8226 25.4824 17.8226C21.9701 17.8226 19.1114 14.9673 19.1114 11.4574V10.1844H6.37096C4.26386 10.1844 2.54838 11.8983 2.54838 14.0035V54.7394C2.54838 56.8454 4.26314 58.5586 6.37096 58.5586H43.3542C40.2479 56.2362 38.225 52.5415 38.225 48.3749C38.225 47.6708 38.7959 47.1019 39.4992 47.1019H57.3364C60.8502 47.1019 63.7074 49.9565 63.7074 53.4664V58.5586H75.1751C77.2822 58.5579 78.997 56.8446 78.997 54.7394Z" transform="translate(18.2559 35.7625)" fill="black"/>
<path fill-rule="evenodd" clip-rule="evenodd" d="M0.24044 45.8922C0.783951 47.34 2.18412 48.3735 3.82041 48.3735H40.8036C37.6973 46.0511 35.6745 42.3564 35.6745 38.1899C35.6745 37.4858 36.2453 36.9168 36.9487 36.9168H54.7859C58.2996 36.9168 61.1569 39.7715 61.1569 43.2813V48.3735H72.6246C74.7324 48.3735 76.4471 46.6603 76.4471 44.5544V3.81913C76.4471 1.71394 74.7324 0 72.6246 0H59.8834V1.27304C59.8834 4.78291 57.0255 7.63826 53.5124 7.63826C51.4219 7.63826 49.5783 6.61264 48.4157 5.05334C47.2545 6.61264 45.4102 7.63826 43.3196 7.63826C41.2284 7.63826 39.3847 6.61264 38.2229 5.05334C37.061 6.61264 35.2166 7.63826 33.1261 7.63826C31.0356 7.63826 29.1919 6.61264 28.0293 5.05334C26.8674 6.61264 25.0238 7.63826 22.9326 7.63826C19.4203 7.63826 16.5616 4.78291 16.5616 1.27304V0H3.82041C2.18412 0 0.783951 1.03426 0.24044 2.48208C0.0849458 2.87981 0.0172768 3.24015 0.000719487 3.67888L0 44.6824C0.0230362 45.1197 0.0986236 45.5253 0.24044 45.8922Z" transform="translate(20.8057 45.9468)" fill="#EE292A"/>
<path fill-rule="evenodd" clip-rule="evenodd" d="M24.2089 0H1.27419C0.570867 0 0 0.568912 0 1.27304V25.4602C0 26.1643 0.570867 26.7332 1.27419 26.7332H24.2082C24.9115 26.7332 25.4824 26.1643 25.4824 25.4602V1.27232C25.4831 0.568912 24.9122 0 24.2089 0ZM3.91184 24.1864C4.34233 20.2644 6.7129 16.9653 10.0481 15.7613C10.4088 15.9878 10.8025 16.159 11.2165 16.2892C11.2806 16.3101 11.3425 16.3316 11.408 16.3496C11.6067 16.4028 11.8068 16.4453 12.0134 16.4762C12.0487 16.4805 12.0832 16.482 12.1185 16.4863C12.3251 16.5114 12.5288 16.5481 12.7419 16.5481C12.955 16.5481 13.1587 16.5114 13.3653 16.4863C13.4006 16.482 13.4352 16.4805 13.4704 16.4762C13.677 16.4453 13.8779 16.4043 14.0759 16.3496C14.1406 16.3316 14.2033 16.3101 14.2673 16.2892C14.6813 16.1583 15.0736 15.9878 15.4343 15.7613C18.7716 16.9653 21.1401 20.2644 21.5705 24.1864H3.91184ZM10.1935 11.4567V10.1829C10.1935 8.77969 11.3367 7.63754 12.7419 7.63754C14.1471 7.63754 15.2903 8.77969 15.2903 10.1829V11.4567C15.2903 12.2169 14.9491 12.8915 14.4192 13.3583C14.407 13.3684 14.3919 13.3734 14.3804 13.3842C14.0485 13.6662 13.4942 14.0028 12.7419 14.0028C11.9904 14.0028 11.436 13.6654 11.1035 13.3842C11.0919 13.3734 11.0775 13.3691 11.0653 13.3598C10.5348 12.8915 10.1935 12.2162 10.1935 11.4567ZM22.9347 19.6416C21.7304 17.0458 19.7413 14.9486 17.2556 13.7712C17.6148 13.0728 17.838 12.2946 17.838 11.4567V10.1829C17.838 7.37502 15.5523 5.09145 12.7412 5.09145C9.93077 5.09145 7.64443 7.37502 7.64443 10.1829V11.4567C7.64443 12.2946 7.86759 13.0728 8.22681 13.7712C5.74106 14.9486 3.75203 17.0466 2.54838 19.6416V2.54536H22.9347V19.6416Z" transform="translate(24.6265 57.4042)" fill="#000003"/>
<path d="M11.467 0H0V2.54608H11.467V0Z" transform="translate(27.1758 86.6823)" fill="#000003"/>
<path d="M5.09676 0H0V2.54608H5.09676V0Z" transform="translate(41.1899 86.6823)" fill="#000003"/>
<path d="M14.0154 0H0V2.54608H14.0154V0Z" transform="translate(55.2061 57.4042)" fill="#000003"/>
<path d="M14.0154 0H0V2.54608H14.0154V0Z" transform="translate(73.0444 57.4042)" fill="#000003"/>
<path d="M6.37095 0H0V2.54537H6.37095V0Z" transform="translate(55.2061 63.7694)" fill="#000003"/>
<path d="M5.09677 0H0V2.54537H5.09677V0Z" transform="translate(65.3994 63.7694)" fill="#000003"/>
<path d="M6.37095 0H0V2.54537H6.37095V0Z" transform="translate(55.2061 70.1339)" fill="#000003"/>
<path d="M2.54838 0H0V2.54609H2.54838V0Z" transform="translate(55.2061 76.4984)" fill="#000003"/>
<path d="M2.54766 0H0V2.54609H2.54766V0Z" transform="translate(60.3032 76.4984)" fill="#000003"/>
<path d="M2.54838 0H0V2.54609H2.54838V0Z" transform="translate(65.3994 76.4984)" fill="#000003"/>
<path d="M11.467 0H0V2.54609H11.467V0Z" transform="translate(70.4956 76.4984)" fill="#000003"/>
<path d="M7.64515 0H0V2.54609H7.64515V0Z" transform="translate(84.5107 76.4984)" fill="#000003"/>
<path fill-rule="evenodd" clip-rule="evenodd" d="M10.1943 0H1.27419C0.570864 0 0 0.568912 0 1.27304V7.63826C0 8.34239 0.570864 8.91131 1.27419 8.91131H10.1943C10.8976 8.91131 11.4684 8.34239 11.4684 7.63826V1.27304C11.4677 0.568912 10.8969 0 10.1943 0ZM8.92006 6.3645H2.54838V2.54465H8.92006V6.3645Z" transform="translate(81.9619 63.7694)" fill="#000003"/>
</svg>
