<svg width="40" height="57" viewBox="0 0 40 57" fill="none" xmlns="http://www.w3.org/2000/svg">
<path d="M20 0C8.97194 0 0 9.08985 0 20.2627C0 34.1286 17.898 54.4846 18.6601 55.3444C19.3758 56.152 20.6255 56.1506 21.3399 55.3444C22.102 54.4846 40 34.1286 40 20.2627C39.9998 9.08985 31.028 0 20 0ZM20 30.4575C14.4515 30.4575 9.9376 25.8841 9.9376 20.2627C9.9376 14.6413 14.4516 10.0681 20 10.0681C25.5484 10.0681 30.0623 14.6414 30.0623 20.2628C30.0623 25.8843 25.5484 30.4575 20 30.4575Z" transform="translate(0 0.683716)" fill="#E60E19"/>
</svg>
