<svg width="120" height="121" viewBox="0 0 120 121" fill="none" xmlns="http://www.w3.org/2000/svg">
<path fill-rule="evenodd" clip-rule="evenodd" d="M60.0004 0C93.1367 0 120 26.8382 120 59.946C120 93.0538 93.1367 119.892 60.0004 119.892C56.7263 119.892 53.5156 119.627 50.3848 119.122L67.6736 110.406L50.3848 119.122C31.2596 116.043 15.1572 103.936 6.60496 87.3121L14.0759 73.118L6.60424 87.3121C2.38354 79.1085 0 69.8052 0 59.946C0 26.8382 26.8626 0 60.0004 0ZM12.4346 76.3424L14.0752 73.1188L12.4346 76.3424ZM14.0752 73.118L21.8637 57.8163C22.9572 55.6694 24.6964 54.054 26.7279 53.0859C24.6964 54.0533 22.9572 55.6687 21.8637 57.8163L14.0752 73.118Z" transform="translate(0 0.169067)" fill="#F2F6F4"/>
<path fill-rule="evenodd" clip-rule="evenodd" d="M57.6168 71.6255H61.0154H57.6168ZM91.8604 20.2017C92.1807 21.2338 92.4708 22.2796 92.735 23.3347L56.5341 2.84297C56.1036 2.60275 55.6486 2.4438 55.1858 2.36253C54.6977 2.27622 54.2089 2.27334 53.7388 2.34814C53.7107 2.35246 53.6826 2.35605 53.6531 2.35821V2.36109C53.4213 2.38051 53.1917 2.42366 52.9671 2.49055C52.7446 2.55672 52.5272 2.6459 52.3177 2.75882L26.0613 16.9076C26.021 16.9328 25.98 16.9558 25.9375 16.9752C25.1327 17.4283 24.5762 18.1663 24.3278 18.9977C24.078 19.8298 24.1371 20.7533 24.5611 21.5754C24.5856 21.6157 24.6072 21.6567 24.6266 21.6984L24.875 22.1566C24.8994 22.1968 24.9217 22.2386 24.9426 22.2803C25.3961 23.0851 26.1348 23.6403 26.9669 23.8892C27.7998 24.1381 28.7242 24.0798 29.5477 23.6562C29.588 23.631 29.6291 23.6094 29.6708 23.59L43.7158 16.0215C44.1153 15.8072 44.5847 15.8532 44.931 16.0999L61.4912 27.435C62.0146 27.7925 62.1492 28.506 61.7922 29.0296C61.556 29.3748 61.1637 29.5517 60.7742 29.528L37.3959 29.5352C37.4845 29.8596 37.6097 30.235 37.7767 30.6442C38.8609 33.2845 41.7066 37.136 48.1885 37.1332L54.5285 37.1303C54.8755 37.1303 55.1879 37.2856 55.3988 37.5316L55.4003 37.5309L58.8968 41.6197H61.8145C63.26 41.6197 64.5731 42.2088 65.5233 43.1596C66.4736 44.109 67.0646 45.4216 67.0646 46.8651V51.9839H92.8624C92.6767 52.7564 92.4788 53.5238 92.2635 54.2833H67.0646V63.6305H69.1199C70.3602 63.6305 71.4876 64.1361 72.3032 64.9524C73.1203 65.7673 73.6264 66.8936 73.6264 68.1329V74.429C73.6264 75.6683 73.1203 76.7946 72.3032 77.6095C71.4876 78.4258 70.3602 78.9314 69.1199 78.9314H67.0646V83.3777C67.0646 84.8212 66.4743 86.1324 65.5233 87.0825C64.5724 88.0326 63.2593 88.6231 61.8145 88.6231H41.7174L42.1997 88.38L41.7174 88.6231H5.25013C3.8046 88.6231 2.49225 88.0333 1.54128 87.0825C0.590306 86.1317 0 84.8205 0 83.3777V46.8637C0 45.4195 0.589586 44.1076 1.54128 43.1582C2.49225 42.2081 3.80532 41.6183 5.25013 41.6183H9.80845C8.19734 38.942 7.27157 35.8098 7.27157 32.4661C7.27157 27.5932 9.23758 23.1757 12.4216 19.9615C15.6035 16.7486 20.0071 14.7434 24.8821 14.6931H25.0859H25.3357L51.2307 0.739216C51.582 0.549338 51.9448 0.400457 52.312 0.291134C52.6942 0.177495 53.0794 0.104852 53.4652 0.0717673C54.1671 -0.0310832 54.8827 -0.02461 55.5824 0.0990983C56.2922 0.224964 56.9941 0.469504 57.6578 0.840628L91.8604 20.2017ZM40.3201 41.6183H55.8761L53.9979 39.4203L48.1885 39.4225C45.6717 39.4239 43.6093 38.932 41.9262 38.1574C41.5137 39.375 40.9738 40.5337 40.3201 41.6183ZM26.6358 36.8498V35.1021H24.8274V34.5425H26.224C27.1951 34.5425 27.9359 34.4907 28.4485 34.3893C28.825 34.3073 29.1964 34.139 29.5607 33.8873C29.9249 33.6327 30.2244 33.2831 30.4627 32.8379C30.6974 32.392 30.8169 31.8454 30.8169 31.1923C30.8169 30.3458 30.611 29.6553 30.1999 29.1209C29.7889 28.5865 29.2785 28.2398 28.6695 28.0787C28.2728 27.9723 27.4233 27.9205 26.1175 27.9205H22.6721V32.7725H21.2878V34.5202H22.6721V35.1028H21.2878V36.8505H22.6721V38.5529H24.8274V36.8498H26.6358ZM24.8282 29.7164V32.7458H25.9994C26.8446 32.7458 27.4061 32.689 27.6919 32.5775C27.9769 32.4661 28.1994 32.2927 28.3606 32.0532C28.5219 31.8152 28.6032 31.5411 28.6032 31.2239C28.6032 30.8356 28.4895 30.5162 28.2642 30.2638C28.0367 30.0113 27.7509 29.8531 27.4025 29.7884C27.1476 29.7416 26.6343 29.7164 25.8612 29.7164H24.8282ZM39.8968 36.9742C37.6616 35.3567 36.3579 33.227 35.6545 31.5152C35.3716 30.8269 35.1852 30.1969 35.0721 29.692C34.944 29.1151 34.908 28.644 34.9368 28.3808C35.016 27.6371 35.4278 27.2408 36.1297 27.2408V27.2451L39.66 27.2444C39.39 26.4928 39.0639 25.7678 38.6867 25.0745C38.1568 24.1021 37.5241 23.1908 36.8013 22.3551L30.6931 25.647H30.6916C29.2965 26.3986 27.7221 26.513 26.3097 26.0908C24.8965 25.6686 23.6425 24.7091 22.8895 23.3152L22.8873 23.3124L22.5692 22.7219L22.5684 22.7212C21.8162 21.3273 21.7024 19.7543 22.125 18.3432C22.2459 17.9383 22.4115 17.5463 22.6195 17.1751C19.2929 17.7023 16.3162 19.289 14.0486 21.579C11.2813 24.3725 9.57304 28.2183 9.57304 32.4668C9.57304 36.7361 11.3058 40.6099 14.1134 43.415C16.9137 46.2128 20.7831 47.9461 25.0664 47.9461C28.6356 47.9461 31.9198 46.7443 34.5344 44.7247C37.0497 42.7813 38.9502 40.0849 39.8968 36.9742ZM42.0759 27.2437L57.1403 27.2394L44.1895 18.3748L38.8652 21.2439C39.557 22.0925 40.1725 23.0074 40.7016 23.9784C41.2632 25.0098 41.726 26.1023 42.0759 27.2437ZM11.4541 43.9177H5.25013C4.44026 43.9177 3.70381 44.25 3.16822 44.7837C2.63334 45.3188 2.30076 46.0553 2.30076 46.8644V54.9392H64.7617V46.8637C64.7617 46.0545 64.4298 45.3188 63.8957 44.7829C63.3601 44.2493 62.6229 43.917 61.813 43.917H38.673C37.8574 44.8843 36.9395 45.7633 35.9367 46.5379C32.9276 48.8617 29.1561 50.2448 25.0657 50.2448C20.146 50.2448 15.7022 48.2525 12.4857 45.0404C12.1265 44.6808 11.7817 44.3061 11.4541 43.9177ZM64.7624 63.6297V57.2379H2.30148V83.3763C2.30148 84.1854 2.63406 84.9212 3.16894 85.4556C3.70381 85.9907 4.44098 86.3223 5.25085 86.3223H61.8145C62.6243 86.3223 63.3608 85.9907 63.8971 85.4556C64.4313 84.9219 64.7631 84.1854 64.7631 83.3763V78.93H56.1065C54.8661 78.93 53.7388 78.4244 52.9232 77.6081C52.1061 76.7932 51.6 75.6668 51.6 74.4276V68.1314C51.6 66.8922 52.1061 65.7659 52.9232 64.951C53.7388 64.1346 54.8661 63.629 56.1065 63.629H64.7624V63.6297ZM69.1192 65.9284H56.1051C55.5003 65.9284 54.9496 66.1766 54.5487 66.5764C54.1477 66.9763 53.9008 67.5266 53.9008 68.1314V74.4276C53.9008 75.0318 54.1484 75.582 54.5487 75.9826C54.9489 76.3832 55.5003 76.6299 56.1051 76.6299H69.1192C69.7253 76.6299 70.2746 76.3825 70.6756 75.9826C71.0765 75.5827 71.3249 75.0318 71.3249 74.4276V68.1314C71.3249 67.5266 71.0758 66.9763 70.6756 66.5764C70.2753 66.1766 69.7253 65.9284 69.1192 65.9284ZM6.64815 72.1735V74.4722H13.4439V72.1735H6.64815ZM6.64815 78.9624V81.2618H20.2389V78.9624H6.64815Z" transform="translate(25.4741 22.1957)" fill="#000003"/>
<path fill-rule="evenodd" clip-rule="evenodd" d="M55.3161 29.1253H58.7146H55.3161ZM51.6 25.632C51.6 114.35 51.6 -63.1401 51.6 25.632V25.632ZM9.15335 1.41757H2.94937C2.1395 1.41757 1.40306 1.74986 0.867462 2.28353C0.332586 2.81864 0 3.55513 0 4.36427V12.4391H62.4609V4.36355C62.4609 3.55441 62.1291 2.81864 61.5949 2.28281C61.0593 1.74914 60.3222 1.41685 59.5123 1.41685H36.3723C35.5566 2.38422 34.6388 3.26313 33.636 4.03774C30.6268 6.36159 26.8554 7.74467 22.765 7.74467C17.8453 7.74467 13.4014 5.7524 10.1849 2.5403C9.82573 2.18068 9.4809 1.80596 9.15335 1.41757ZM62.4617 21.1296V14.7378H0.000719491V40.8762C0.000719491 41.6853 0.333306 42.4211 0.868181 42.9555C1.40306 43.4906 2.14022 43.8222 2.95009 43.8222H59.5137C60.3236 43.8222 61.06 43.4906 61.5964 42.9555C62.1305 42.4218 62.4624 41.6853 62.4624 40.8762V36.4299H53.8057C52.5654 36.4299 51.438 35.9243 50.6224 35.1079C49.8053 34.293 49.2993 33.1667 49.2993 31.9275V25.6313C49.2993 24.3921 49.8053 23.2657 50.6224 22.4508C51.438 21.6345 52.5654 21.1289 53.8057 21.1289H62.4617V21.1296ZM4.34739 29.6734H11.1431V31.9721H4.34739V29.6734ZM4.34739 36.4622H17.9381V38.7616H4.34667V36.4622H4.34739Z" transform="translate(27.7749 64.6959)" fill="#EE292A"/>
</svg>
