<svg width="120" height="121" viewBox="0 0 120 121" fill="none" xmlns="http://www.w3.org/2000/svg">
<path fill-rule="evenodd" clip-rule="evenodd" d="M60 0C93.1369 0 120 26.8379 120 59.9453C120 93.0526 93.1376 119.892 60 119.892C56.7267 119.892 53.516 119.625 50.3853 119.121L67.6747 110.405L50.3845 119.12C31.2587 116.043 15.1571 103.937 6.6042 87.3125L14.0744 73.1179L6.6042 87.3125C2.38353 79.1076 0 69.8058 0 59.9453C0 26.8379 26.8624 0 60 0ZM12.4338 76.3422L14.0744 73.1186L12.4338 76.3422ZM14.0751 73.1179L21.8643 57.8164C22.957 55.6695 24.697 54.0541 26.7278 53.086C24.6963 54.0541 22.957 55.6695 21.8643 57.8164L14.0751 73.1179Z" transform="translate(0 0.169067)" fill="#F2F6F4"/>
<path fill-rule="evenodd" clip-rule="evenodd" d="M0.000719487 0H12.8369L12.8269 5.12592H17.9567L18.0251 0H30.7476V28.7704L26.298 31.0137C27.7644 31.251 29.2481 31.4337 30.7476 31.5632V28.7704L26.298 31.0137C16.5458 29.4444 7.58036 25.5267 0 19.86V0H0.000719487Z" transform="translate(24.0859 88.2755)" fill="#EE292A"/>
<path fill-rule="evenodd" clip-rule="evenodd" d="M76.9568 60.1193C76.1196 60.8191 75.2651 61.4988 74.3912 62.1518V2.5626H62.8478V8.96946C62.8478 9.67646 62.2748 10.2504 61.5657 10.2504L53.8709 10.2511C53.1611 10.2511 52.5881 9.67646 52.5881 8.96946V2.5626H35.9128V41.0052V69.7476L33.3478 71.0415V73.8536C34.198 73.927 35.0532 73.9817 35.9128 74.0183V69.7476L33.3478 71.0415V42.2876H29.5H23.0866V48.6944C23.0866 49.4021 22.5121 49.9754 21.8045 49.9754H14.109C13.4013 49.9754 12.8261 49.4021 12.8261 48.6944V42.2876H3.84777H2.56494V62.1475C1.691 61.4945 0.835783 60.817 0 60.1193V41.0052C0 40.2975 0.574465 39.7242 1.28283 39.7242H2.56566V15.377C2.56566 14.6693 3.14013 14.0954 3.84849 14.0954H12.8269H20.5224H29.5008C30.2084 14.0954 30.7829 14.6708 30.7829 15.377V39.7242H33.3478V1.28166C33.3478 0.574659 33.9223 0 34.6306 0H53.8702H61.565H75.674C76.3831 0 76.9568 0.574659 76.9568 1.28166V60.1193ZM69.2598 65.5876V62.0389L70.9192 63.6953L72.7333 61.8829L68.8848 58.0393C68.383 57.538 67.5732 57.538 67.0707 58.0393L63.2229 61.8829L65.0363 63.6953L66.6956 62.0389V66.6341H67.44C68.054 66.296 68.6602 65.9472 69.2598 65.5876ZM60.2829 69.9892V69.1966H57.7173V66.473C59.928 65.9026 61.5657 63.8924 61.5657 61.5089V58.9455C61.5657 58.2378 60.992 57.6646 60.2836 57.6646H52.5881C51.879 57.6646 51.3053 58.2378 51.3053 58.9455V61.5089C51.3053 63.8924 52.943 65.9012 55.1538 66.4715V69.1966H52.5888V71.76H55.0335C56.8167 71.2493 58.5689 70.656 60.2829 69.9892ZM42.3255 66.5154L46.1516 64.585L42.3255 66.5154V69.1974H39.7605V71.7607H43.609C44.3174 71.7607 44.8911 71.1875 44.8911 70.4798V65.3538H47.4561C48.1651 65.3538 48.7389 64.7806 48.7389 64.0715V62.7905C48.7389 59.964 46.4374 57.6646 43.6083 57.6646C40.7784 57.6646 38.4777 59.964 38.4777 62.7905V64.0715C38.4777 64.7806 39.0507 65.3538 39.7598 65.3538H42.3247V66.5154H42.3255ZM20.5217 71.3349V69.1966H17.9567V70.4682C18.8033 70.7754 19.6585 71.0652 20.5217 71.3349ZM23.0866 71.76H25.6516V69.1966H23.0866V71.76ZM28.2172 71.76H30.7822V69.1966H28.2172V71.76ZM12.8261 37.1616H15.3911V34.5983H12.8261V37.1616ZM17.9567 37.1616H20.5217V34.5983H17.9567V37.1616ZM23.0866 37.1616H25.6516V34.5983H23.0866V37.1616ZM41.0434 62.7898H46.1732C46.1732 61.3765 45.0229 60.2272 43.6083 60.2272C42.1937 60.2272 41.0434 61.3765 41.0434 62.7898ZM59.0001 61.5089V60.2279H53.8695V61.5089C53.8695 62.9221 55.0206 64.0722 56.4344 64.0722C57.8483 64.0722 59.0001 62.9214 59.0001 61.5089ZM60.2829 7.68851V2.5626H55.1523V7.68851H60.2829ZM11.544 16.658H5.1306V39.7235H14.109H21.8045H28.2172V16.658H21.8038V23.0648C21.8038 23.7726 21.2293 24.3472 20.521 24.3472H12.8254C12.1178 24.3472 11.5433 23.7726 11.5433 23.0648V16.658H11.544ZM19.2396 21.7839V16.658H14.109V21.7839H19.2396ZM20.5217 47.4135V42.2876H15.3918V47.4135H20.5217Z" transform="translate(21.522 45.988)" fill="#F2F6F4"/>
<path fill-rule="evenodd" clip-rule="evenodd" d="M76.9568 60.1193C76.1196 60.8191 75.2651 61.4988 74.3912 62.1518V2.5626H62.8478V8.96946C62.8478 9.67646 62.2748 10.2504 61.5657 10.2504L53.8709 10.2511C53.1611 10.2511 52.5881 9.67646 52.5881 8.96946V2.5626H35.9128V41.0052V69.7476L33.3478 71.0415V73.8536C34.198 73.927 35.0532 73.9817 35.9128 74.0183V69.7476L33.3478 71.0415V42.2876H29.5H23.0866V48.6944C23.0866 49.4021 22.5121 49.9754 21.8045 49.9754H14.109C13.4013 49.9754 12.8261 49.4021 12.8261 48.6944V42.2876H3.84777H2.56494V62.1475C1.691 61.4945 0.835783 60.817 0 60.1193V41.0052C0 40.2975 0.574465 39.7242 1.28283 39.7242H2.56566V15.377C2.56566 14.6693 3.14013 14.0954 3.84849 14.0954H12.8269H20.5224H29.5008C30.2084 14.0954 30.7829 14.6708 30.7829 15.377V39.7242H33.3478V1.28166C33.3478 0.574659 33.9223 0 34.6306 0H53.8702H61.565H75.674C76.3831 0 76.9568 0.574659 76.9568 1.28166V60.1193ZM69.2598 65.5876V62.0389L70.9192 63.6953L72.7333 61.8829L68.8848 58.0393C68.383 57.538 67.5732 57.538 67.0707 58.0393L63.2229 61.8829L65.0363 63.6953L66.6956 62.0389V66.6341H67.44C68.054 66.296 68.6602 65.9472 69.2598 65.5876ZM60.2829 69.9892V69.1966H57.7173V66.473C59.928 65.9026 61.5657 63.8924 61.5657 61.5089V58.9455C61.5657 58.2378 60.992 57.6646 60.2836 57.6646H52.5881C51.879 57.6646 51.3053 58.2378 51.3053 58.9455V61.5089C51.3053 63.8924 52.943 65.9012 55.1538 66.4715V69.1966H52.5888V71.76H55.0335C56.8167 71.2493 58.5689 70.656 60.2829 69.9892ZM42.3255 66.5154L46.1516 64.585L42.3255 66.5154V69.1974H39.7605V71.7607H43.609C44.3174 71.7607 44.8911 71.1875 44.8911 70.4798V65.3538H47.4561C48.1651 65.3538 48.7389 64.7806 48.7389 64.0715V62.7905C48.7389 59.964 46.4374 57.6646 43.6083 57.6646C40.7784 57.6646 38.4777 59.964 38.4777 62.7905V64.0715C38.4777 64.7806 39.0507 65.3538 39.7598 65.3538H42.3247V66.5154H42.3255ZM20.5217 71.3349V69.1966H17.9567V70.4682C18.8033 70.7754 19.6585 71.0652 20.5217 71.3349ZM23.0866 71.76H25.6516V69.1966H23.0866V71.76ZM28.2172 71.76H30.7822V69.1966H28.2172V71.76ZM12.8261 37.1616H15.3911V34.5983H12.8261V37.1616ZM17.9567 37.1616H20.5217V34.5983H17.9567V37.1616ZM23.0866 37.1616H25.6516V34.5983H23.0866V37.1616ZM41.0434 62.7898H46.1732C46.1732 61.3765 45.0229 60.2272 43.6083 60.2272C42.1937 60.2272 41.0434 61.3765 41.0434 62.7898ZM59.0001 61.5089V60.2279H53.8695V61.5089C53.8695 62.9221 55.0206 64.0722 56.4344 64.0722C57.8483 64.0722 59.0001 62.9214 59.0001 61.5089ZM60.2829 7.68851V2.5626H55.1523V7.68851H60.2829ZM11.544 16.658H5.1306V39.7235H14.109H21.8045H28.2172V16.658H21.8038V23.0648C21.8038 23.7726 21.2293 24.3472 20.521 24.3472H12.8254C12.1178 24.3472 11.5433 23.7726 11.5433 23.0648V16.658H11.544ZM19.2396 21.7839V16.658H14.109V21.7839H19.2396ZM20.5217 47.4135V42.2876H15.3918V47.4135H20.5217Z" transform="translate(21.522 45.988)" fill="#000003"/>
<path d="M5.1306 0H0V5.12592H5.1306V0Z" transform="translate(35.6304 62.646)" fill="#EE292A"/>
<path d="M5.1306 0H0V5.12592H5.1306V0Z" transform="translate(76.6738 48.5505)" fill="#EE292A"/>
</svg>
