<svg width="127" height="39" viewBox="0 0 127 39" fill="none" xmlns="http://www.w3.org/2000/svg">
<path d="M12.0575 0C14.6049 0 15.4257 1.85687 16.105 3.71373C16.388 4.48505 23.0394 22.8823 23.2376 23.4251C23.2942 23.5679 23.2659 23.825 23.0111 23.9107C22.7564 23.9964 19.3316 25.3677 19.1335 25.4248C18.9354 25.4819 18.7372 25.3962 18.6523 25.1963C18.5674 24.9963 17.1522 20.9969 16.9824 20.5684C16.5012 20.5684 7.61377 20.5684 7.13261 20.5684C6.96278 21.0254 5.51928 25.0249 5.46267 25.1963C5.40606 25.3677 5.17963 25.5105 4.9815 25.4248C4.78338 25.3391 1.30198 23.9964 1.10386 23.9107C0.905728 23.825 0.820816 23.5965 0.877424 23.4251C1.13216 22.7395 7.67038 4.65645 8.01003 3.71373C8.66102 1.88543 9.51014 0 12.0575 0ZM0.367953 32.8808C0.169825 32.8808 0 33.0522 0 33.2808V37.5658C0 37.7944 0.169825 37.9658 0.367953 37.9658H23.747C23.9452 37.9658 24.115 37.7944 24.115 37.5658V33.2808C24.115 33.0522 23.9452 32.8808 23.747 32.8808H0.367953ZM12.0575 5.99911L8.71763 16.0833H15.4257L12.0858 5.99911H12.0575ZM99.0357 20.7969C99.0357 21.9396 98.413 22.6823 97.2525 22.6823C96.7997 22.6823 96.4317 22.6823 95.8373 22.5109V19.0543C96.092 18.9972 96.6581 18.94 97.2525 18.94C98.4413 19.0257 99.0357 19.5685 99.0357 20.7969ZM101.413 20.6541C101.413 18.5401 100.196 17.0832 97.5922 17.0832C96.9695 17.0832 96.5166 17.1403 95.8373 17.3117V14.255C96.2619 14.1979 96.9978 14.1408 97.7903 14.1408C98.5545 14.1408 99.5168 14.1979 100.366 14.2836L100.423 12.5124C99.4602 12.2839 98.0733 12.1696 96.9978 12.1696C95.9222 12.1696 94.2806 12.4267 93.4881 12.6553V23.9107C94.7051 24.3678 95.9222 24.5678 97.1393 24.5678C99.9414 24.5678 101.413 23.0537 101.413 20.6541ZM74.5527 20.0256C74.5527 21.5968 73.93 22.6252 72.9111 22.6252C72.4865 22.6252 72.2601 22.5966 71.7789 22.4538V17.7402C72.3167 17.4831 72.5997 17.4831 73.0243 17.4831C74.0432 17.4546 74.5527 18.3116 74.5527 20.0256ZM66.7691 20.0827C66.7691 18.3687 67.2786 17.4546 68.2975 17.4546C68.7221 17.4546 69.0051 17.4546 69.5429 17.7117V22.4252C69.0617 22.5966 68.8353 22.5966 68.4107 22.5966C67.2503 22.6252 66.7691 21.6539 66.7691 20.0827ZM71.7789 27.1388V24.0536C72.062 24.225 72.628 24.4821 73.5621 24.4821C75.4584 24.4821 76.8453 22.9109 76.8453 19.997C76.8453 16.8832 75.4584 15.5406 73.1941 15.5406C72.628 15.5406 72.2318 15.5977 71.7789 15.8262V12.1982H69.5712V15.8548C69.1183 15.6263 68.7221 15.5691 68.156 15.5691C65.8917 15.5691 64.5048 16.9689 64.5048 20.0542C64.5048 22.9395 65.7502 24.4821 67.7881 24.4821C68.7504 24.4821 69.3165 24.225 69.5995 24.0536V27.1388H71.7789ZM54.938 24.3392V16.1119C53.721 15.7405 52.7869 15.5977 51.5416 15.5977C50.2962 15.5977 49.3905 15.7691 48.1734 16.1119V20.3398C48.1734 21.4825 48.1451 21.8253 48.0319 22.1967C47.9187 22.5109 47.7488 22.9109 47.296 23.2251L47.8904 24.5392C49.6735 24.025 50.3528 23.2537 50.3528 20.7398V17.626C50.9472 17.5403 51.0604 17.5117 51.5416 17.5117C52.0227 17.5117 52.1077 17.5403 52.702 17.626V24.3392H54.938ZM82.3363 22.5395C81.8551 22.7109 81.5155 22.7395 81.1475 22.7395C80.355 22.7395 79.9022 22.4252 79.9022 21.5968C79.9022 20.7398 80.4682 20.4541 81.5721 20.4541C81.8268 20.4541 82.1099 20.4827 82.2231 20.5398V21.1683C82.2231 21.8253 82.2514 22.2538 82.3363 22.5395ZM85.1667 23.5394C84.5723 22.6252 84.4308 22.111 84.4308 20.9683V18.6544C84.4308 17.426 84.2893 16.9689 83.9496 16.4833C83.4968 15.8548 82.7609 15.5691 81.3457 15.5691C80.355 15.5691 79.3927 15.6834 78.487 15.9119L78.8266 17.5688C79.4493 17.4831 80.1003 17.3974 80.5815 17.3974C82.0533 17.3974 82.2231 17.626 82.2231 18.7401V19.1686C81.8834 19.0829 81.5155 19.0257 81.0909 19.0257C78.8549 19.0257 77.6945 20.1113 77.6945 21.9396C77.6945 23.6251 78.9398 24.5678 80.4682 24.5678C81.0343 24.5678 81.6287 24.4535 82.1099 24.2535C82.3929 24.1393 82.5061 24.0536 82.8741 23.7965C83.1005 24.1393 83.5534 24.4535 83.7232 24.5106L85.1667 23.5394ZM106.876 22.5395C106.395 22.7109 106.055 22.7395 105.687 22.7395C104.895 22.7395 104.442 22.4252 104.442 21.5968C104.442 20.7398 105.008 20.4541 106.112 20.4541C106.395 20.4541 106.649 20.4827 106.763 20.5398V21.1683C106.763 21.8253 106.819 22.2538 106.876 22.5395ZM109.706 23.5394C109.112 22.6252 108.97 22.111 108.97 20.9683V18.6544C108.97 17.426 108.829 16.9689 108.517 16.4833C108.065 15.8548 107.3 15.5691 105.914 15.5691C104.923 15.5691 103.961 15.6834 103.055 15.9119L103.394 17.5688C104.017 17.4831 104.668 17.3974 105.149 17.3974C106.621 17.3974 106.791 17.626 106.791 18.7401V19.1686C106.48 19.0829 106.083 19.0257 105.659 19.0257C103.423 19.0257 102.262 20.1113 102.262 21.9396C102.262 23.6251 103.508 24.5678 105.036 24.5678C105.602 24.5678 106.197 24.4535 106.678 24.2535C106.961 24.1393 107.074 24.0536 107.442 23.7965C107.668 24.1393 108.121 24.4535 108.291 24.5106L109.706 23.5394ZM61.2498 21.3968C61.2498 22.2253 60.9668 22.8252 59.8912 22.8252C59.5233 22.8252 59.3818 22.8252 58.9289 22.6823V20.2256C59.5233 20.1113 59.5516 20.0827 59.8912 20.0827C60.9102 20.0827 61.2498 20.5969 61.2498 21.3968ZM56.6929 15.712V23.8822C57.7401 24.3392 58.9006 24.5392 59.9478 24.5392C62.3254 24.5392 63.5708 23.3108 63.5708 21.2826C63.5708 19.4543 62.4386 18.3116 60.3441 18.3116C59.8063 18.3116 59.495 18.3687 58.9289 18.5115V15.712H56.6929ZM117.858 24.3392V15.7977H115.622V19.0257H113.103V15.7977H110.867V24.3392H113.103V20.854H115.622V24.3392H117.858ZM127 24.3392C127 24.3392 125.783 21.7111 125.5 21.1397C125.16 20.4827 124.849 19.997 124.17 19.8256V19.7971C124.622 19.7114 124.99 19.4257 125.387 18.5687C125.755 17.7402 125.868 17.5403 126.094 17.3689C126.321 17.1689 126.604 17.2546 126.604 17.2546L126.717 15.712C126.406 15.6548 126.038 15.6548 125.67 15.6834C125.075 15.712 124.764 15.8834 124.453 16.1976C124.226 16.4261 124.056 16.7689 123.858 17.1689C123.66 17.5974 123.49 17.9402 123.264 18.3973C123.037 18.8543 122.953 19.0543 122.358 19.0543H121.99V15.7977H119.754V24.3392H121.99V20.854H122.302C122.924 20.854 123.037 21.0254 123.377 21.6825C123.773 22.4824 124.509 24.3392 124.509 24.3392H127ZM44.041 24.3392H46.6167L42.739 12.3982C42.3428 12.2553 41.8333 12.1696 41.2955 12.1696C40.7011 12.1696 40.503 12.2553 40.0501 12.3982L35.9461 24.3392H38.4085C38.4085 24.3392 38.7482 23.2823 39.1444 21.9967H43.39C43.7297 23.3108 44.041 24.3392 44.041 24.3392ZM39.7105 19.997C39.7105 19.997 40.4181 17.5974 40.5313 17.226C40.8144 16.2547 41.2389 14.7121 41.2389 14.7121H41.2955C41.2955 14.7121 41.6918 16.3119 41.9465 17.1974C42.0597 17.5403 42.739 19.9685 42.739 19.9685H39.7105V19.997ZM88.9594 18.6258C88.1669 18.6258 87.5442 19.2829 87.5442 20.0542C87.5442 20.854 88.1669 21.4825 88.9594 21.4825C89.752 21.4825 90.3746 20.854 90.3746 20.0542C90.3746 19.2829 89.7236 18.6258 88.9594 18.6258Z" transform="translate(0 0.442139)" fill="#EE3524"/>
</svg>
