<svg width="189" height="64" viewBox="0 0 189 64" fill="none" xmlns="http://www.w3.org/2000/svg">
<path fill-rule="evenodd" clip-rule="evenodd" d="M60.2032 46.5572C55.6384 55.7457 42.0397 56.8663 38.1912 53.7253C40.395 53.118 42.1576 53.9895 44.6597 53.357C46.6004 52.8662 48.4128 52.3466 50.5192 51.8368C55.7837 50.5632 56.8335 49.0131 59.7977 46.448L60.2032 46.5572ZM38.9663 49.9195L40.7938 50.6333C41.4735 50.7807 42.2282 50.8764 42.9743 50.9169C51.9527 51.4062 62.4339 45.1937 61.4385 34.7222C60.5615 40.908 55.546 45.6672 50.6214 47.5264C49.6262 47.9021 47.4901 48.2253 46.8695 48.5335C46.004 48.9632 46.4521 49.5852 43.2844 49.6054C41.1908 49.6186 40.6021 48.9699 38.9663 49.9195ZM30.6097 56.9388C28.6602 56.1314 26.5015 53.9895 25.3244 52.2148C20.0699 44.2941 25.4514 33.5493 30.6023 31.846C29.6774 35.0387 27.087 35.2926 26.9325 37.6041C26.8687 38.5604 27.2692 38.1277 26.8471 39.4298C26.6932 39.9047 26.3137 40.4962 26.1228 41.0911C24.9446 44.7658 25.5613 48.8091 27.1765 52.1189C28.5925 55.0201 29.6532 55.5044 30.6097 56.9388ZM21.6653 50.267C20.7502 44.9765 20.2418 43.5626 22.326 38.4885C23.3584 35.975 24.0558 33.2643 25.8399 31.4101C26.8436 30.3669 26.8805 30.5275 27.3649 29.1893C21.5365 31.2874 15.3104 42.1329 21.6653 50.267ZM24.7295 23.6531C30.5692 22.1294 34.2806 21.1364 40.3817 23.7444C41.6365 24.2807 42.3702 24.6599 43.3872 25.4404C43.739 25.7104 44.3747 26.2473 44.7291 26.4704C45.8155 27.1531 46.9982 26.5628 48.9448 29.6079C49.2653 30.1095 49.4313 30.6287 49.8431 31.0734C50.3428 31.6132 50.6013 31.5257 51.1788 32.2076C51.0018 27.719 44.9778 23.2011 41.2008 21.7587C38.5817 20.7587 35.3168 20.122 32.112 20.6413C28.0286 21.3037 27.3537 22.2454 24.7295 23.6531ZM48.7531 24.2249C44.2822 20.589 41.9656 18.9376 34.8398 18.3292C36.9993 18.3321 41.7815 16.2798 48.2613 20.6084C50.8547 22.3408 54.539 26.1915 55.1088 30.3047C54.0165 29.6099 53.875 29.3672 53.0775 28.1502C51.1008 25.1342 50.5236 25.6646 48.7531 24.2249ZM21.0777 28.0721C22.337 27.945 21.4139 28.0589 22.6252 27.053C31.3044 19.8461 46.4772 25.6558 47.3421 34.368C45.8223 31.9863 45.9452 33.6964 44.8919 31.5836C44.1328 30.0605 43.8601 29.2415 42.1047 29.0337C39.5727 28.734 40.4077 28.3947 38.3418 27.5241C37.1585 27.0254 35.7079 26.6438 34.3956 26.468C28.1474 25.6306 21.1445 28.4998 19.3722 32.0878C18.8181 31.5266 19.0249 32.7198 18.8476 31.3047L9.50091 45.1189C7.98797 47.335 0.578059 57.9139 0 59.4808L39.9171 59.1717C33.4347 57.7634 29.6148 54.7961 27.9235 49.0618C26.184 43.1643 29.2654 36.5456 34.1371 34.3465C33.6964 35.2365 33.5841 34.9902 33.1115 35.9829C32.3784 37.523 33.3286 36.3513 31.9607 37.4966C30.9172 38.3705 30.1119 39.2179 30.5382 40.8443C31.0837 42.9268 29.3339 45.4077 30.968 49.825C32.6865 54.4709 37.2049 58.336 42.9849 59.1582C43.0783 59.4834 42.8984 59.3088 43.5981 59.4423L79.5042 59.4934L58.7789 28.1514C58.7222 29.9554 62.3607 36.4071 54.7062 43.0715C52.9256 44.6217 50.6388 45.8671 47.828 46.5061C46.3469 46.8425 44.6733 46.9552 43.1273 46.8257C41.9088 46.7239 40.0288 46.5307 39.0643 45.7221C40.7143 45.6778 41.4513 45.354 42.4547 45.4582C44.0359 45.6223 44.7678 45.6372 46.3679 45.5454C47.8141 42.9415 48.6057 44.1538 51.1277 42.449C57.611 38.0664 58.4283 33.2825 56.8778 26.1082C56.4941 25.7222 56.0794 25.6007 56.5975 24.9229C56.067 23.5178 46.0143 8.6584 44.3029 6.05102L40.6443 0.589104C40.0355 -0.0407999 40.699 0.449093 39.9041 0L30.5104 14.0534C27.2444 18.8616 24.2451 23.3208 21.0777 28.0721Z" transform="translate(0 2.09009)" fill="#363092"/>
<path fill-rule="evenodd" clip-rule="evenodd" d="M4.9237 8.89586C4.8596 7.62519 5.28022 6.40853 5.45803 5.15987C5.95664 1.65577 5.0448 2.50524 8.46324 2.46708L8.32913 8.88148L4.9237 8.89586ZM2.73788 13.9134L2.79045 11.3679L10.3501 11.3917L10.4068 13.9457C13.1589 13.9052 12.6635 14.408 12.8709 11.6444L12.989 8.92286L11.1367 8.71064L11.0171 0L3.44945 0.00675107C3.15555 1.35755 3.03798 3.20705 2.80345 4.60599C2.54765 6.13115 2.14121 7.35104 1.90137 8.78491C1.77553 8.80633 1.06012 8.88265 1.00371 8.89703L0 9.30034L0.453707 13.9389L2.73788 13.9134Z" transform="translate(140.597 0.737793)" fill="#363092"/>
<path fill-rule="evenodd" clip-rule="evenodd" d="M0.0664624 11.6826C3.94776 11.4486 3.21049 12.4422 6.36485 6.38505L7.18985 5.04951L7.58714 11.4633L10.1191 11.5015L10.1519 0.0243626L6.75918 0.0196666C6.45199 1.16471 3.44266 6.43201 2.75885 7.1896C2.60259 5.08209 2.46022 2.07053 2.86666 0.0504877L0 0L0.0664624 11.6826Z" transform="translate(122.38 20.1902)" fill="#363092"/>
<path fill-rule="evenodd" clip-rule="evenodd" d="M0.148592 11.6573L3.40839 11.4577C4.30487 10.2605 6.80704 5.90983 7.42379 4.31041L7.52363 11.4877L10.1197 11.4616L10.3495 0L6.9639 0.0366906L2.65518 7.40916L2.58961 0.00146906L0 0.0126214L0.148592 11.6573Z" transform="translate(177.508 20.2104)" fill="#363092"/>
<path fill-rule="evenodd" clip-rule="evenodd" d="M5.02796 3.1325L3.01554 6.9219C2.98394 6.96241 2.88439 7.14586 2.86076 7.09714C2.83683 7.04783 2.75737 7.21602 2.70125 7.27149L2.72695 0L0 0.216621L0.0918646 11.4909C4.40796 11.463 3.10238 12.3559 6.08454 6.96681C6.3297 6.5233 6.39321 6.31666 6.67766 5.82031L7.55848 4.71724L7.59777 11.4451L10.1451 11.5164L10.1702 0.0102722L6.81088 0.0120346C6.47031 1.03732 5.71709 2.5883 5.02796 3.1325Z" transform="translate(98.7539 20.1973)" fill="#363092"/>
<path fill-rule="evenodd" clip-rule="evenodd" d="M3.56021 11.3054C3.87125 10.4348 4.91955 8.81808 5.39866 7.9736C6.10668 6.72583 6.68298 5.36564 7.48848 4.38526L7.52805 11.4566L9.57002 11.4395C10.3879 11.1492 10.1002 9.98601 10.0807 8.90731C10.0633 7.92635 10.0704 6.9448 10.0704 5.96355C10.0704 4.02217 10.2222 1.98511 9.96613 0.0769038L6.91043 0C5.95221 1.47526 3.51709 5.64067 3.19926 6.98296C2.78041 7.661 3.70996 7.10741 2.56507 7.61433L2.43984 0.248029L0 0.273861L0.051093 11.3741L3.56021 11.3054Z" transform="translate(165.157 20.2156)" fill="#363092"/>
<path fill-rule="evenodd" clip-rule="evenodd" d="M6.45584 8.97364L2.82177 9.05554L2.86549 6.63601C5.68755 6.59903 6.86642 6.02519 6.45584 8.97364ZM6.66998 11.453C8.19119 11.1962 8.92758 10.9846 9.31511 9.47997C10.9314 3.20353 4.93581 4.39319 2.82325 4.31335L2.83743 2.41072L8.60945 2.33L8.65081 0.033757L0 0L0.158913 11.4985L6.66998 11.453Z" transform="translate(111.049 20.2026)" fill="#363092"/>
<path fill-rule="evenodd" clip-rule="evenodd" d="M3.93884 9.11232C2.26078 7.70898 2.14557 0.469188 7.11771 2.72346C8.44396 3.3246 8.38666 6.1307 8.08065 7.73305C7.70699 9.68763 5.54954 9.70877 3.93884 9.11232ZM2.94694 0.415766C-1.07998 1.87605 -0.942618 10.3575 3.13038 11.6563C5.49785 12.4112 9.73654 12.4068 10.714 8.58779C11.0994 7.08142 11.1098 4.73851 10.7305 3.22803C10.3155 1.57636 9.64174 0.710465 8.07268 0.296595C6.48088 -0.123145 4.39578 -0.109643 2.94694 0.415766Z" transform="translate(170.087 0.453857)" fill="#363092"/>
<path fill-rule="evenodd" clip-rule="evenodd" d="M7.25838 5.19727C5.31537 5.20549 3.32215 5.84215 3.52241 3.63073C3.68546 1.82673 5.47399 2.38384 7.25247 2.40732L7.25838 5.19727ZM9.81313 0.182106C7.86244 0.0297667 2.6091 -0.348586 1.44737 0.812305C0.557094 1.70139 -0.568011 5.39951 2.67054 6.69689C1.32449 7.12368 0.289177 9.72489 0 11.4476L2.97774 11.4291C4.16723 8.12518 3.54279 7.52669 7.21407 7.5352L7.34464 11.4546L9.82436 11.4141L9.81313 0.182106Z" transform="translate(142.966 38.9858)" fill="#363092"/>
<path fill-rule="evenodd" clip-rule="evenodd" d="M5.55818 2.55412C6.3049 3.46317 6.76775 5.39163 7.02414 6.57512L5.56142 6.60594L4.17638 6.55193L5.55818 2.55412ZM0 11.445C4.21862 11.4711 1.99618 11.622 3.64204 9.05717L7.74487 9.08857C9.12814 11.3769 7.67989 11.8474 11.5839 11.3654C11.5092 10.199 10.1363 7.22498 9.67252 5.69337C7.56617 -1.26757 8.70516 0.124029 3.71707 0.0955566C2.93224 2.63719 0.141783 9.02253 0 11.445Z" transform="translate(88.2305 38.9963)" fill="#363092"/>
<path fill-rule="evenodd" clip-rule="evenodd" d="M4.30103 6.56762C4.46526 5.2268 5.01467 3.23288 5.87748 2.35847L7.1033 6.56263L4.30103 6.56762ZM0 11.5197L2.84924 11.3623L3.40455 8.98392L7.83171 8.99067C9.40461 11.5185 7.37772 11.2784 11.7597 11.52L7.8134 0L3.99177 0.0237755C3.13635 1.16001 0.288291 9.7823 0 11.5197Z" transform="translate(100.434 0.721924)" fill="#363092"/>
<path fill-rule="evenodd" clip-rule="evenodd" d="M4.30694 6.60255C4.44193 5.26907 5.02058 3.21527 5.8184 2.33881C6.16931 3.41369 6.93582 5.36358 6.95296 6.57525L4.30694 6.60255ZM1.06633 11.4029L2.83801 11.3685L3.49819 9.0435L7.95134 8.97834L8.7409 11.3582L11.7476 11.5405L7.87661 0L3.84496 0.0317007C2.43393 3.75125 1.23823 7.45113 0 11.0826C0.633295 11.7269 -0.0174227 11.2775 1.06633 11.4029Z" transform="translate(127.283 0.714111)" fill="#363092"/>
<path fill-rule="evenodd" clip-rule="evenodd" d="M6.55184 3.35998L6.55804 4.00573L2.45108 4.15895L2.43837 0.108604L0.0451976 0.132086L0 11.3615L0.908893 11.3779L2.3852 11.3483C2.87464 10.2108 2.53792 8.09923 2.60084 6.69824L6.52525 6.70792L6.56691 11.3224L9.28499 11.3908L9.25663 0L6.64369 0.023482L6.55184 3.35998Z" transform="translate(156.982 0.725586)" fill="#363092"/>
<path fill-rule="evenodd" clip-rule="evenodd" d="M0 11.2176L2.51782 11.1959L2.49685 2.36288L6.47533 2.36464L6.48241 11.208L7.93657 11.2473L9.17097 11.2505L9.19961 0.00616403L0.00560689 0L0 11.2176Z" transform="translate(115.098 0.855713)" fill="#363092"/>
<path fill-rule="evenodd" clip-rule="evenodd" d="M6.802 6.58523L6.75031 11.2485L9.42794 11.2617L9.35173 0.00176018L6.77719 0.0267118L6.76567 4.07178L2.7228 3.97256L2.65251 0.0132081L0 0L0.165701 11.1231L2.52314 11.1002L2.57306 6.45256L6.802 6.58523Z" transform="translate(162.062 39.146)" fill="#363092"/>
<path fill-rule="evenodd" clip-rule="evenodd" d="M2.70775 2.47096C4.69477 2.43838 6.54976 1.86249 6.41034 4.2826C6.29721 6.24716 4.51637 5.6924 2.73877 5.63986L2.70775 2.47096ZM0.0239239 11.5506L2.6475 11.5371L2.76594 7.94931C5.84587 7.92113 8.50134 8.44772 9.10805 5.6472C10.5575 -1.04517 5.49555 0.0625925 0 0.0766817L0.0239239 11.5506Z" transform="translate(134.784 20.1421)" fill="#363092"/>
<path fill-rule="evenodd" clip-rule="evenodd" d="M0.421763 11.4704L2.7024 11.3629L2.72396 6.17459C5.24503 6.71761 6.13176 8.98538 6.78219 11.4475L9.68607 11.451C9.69464 8.67102 7.78146 6.25531 6.21063 5.0275C7.38565 3.61505 8.44754 1.83629 9.53867 0.0305277L6.39613 0C5.46686 1.99362 3.89396 3.5088 3.17767 4.72194C2.85157 5.21623 3.50318 4.94032 2.55353 5.3263L2.55974 0.229831L0.107489 0.231005C0.176904 2.78937 -0.340022 9.52195 0.421763 11.4704Z" transform="translate(154.442 20.2314)" fill="#363092"/>
<path fill-rule="evenodd" clip-rule="evenodd" d="M2.68885 11.3418C3.9259 8.32613 4.04464 5.76072 4.667 2.45093L7.31776 2.42481L7.38037 11.3207L9.87958 11.3459L9.87131 0.0190798L2.13471 0C1.99145 4.13723 0.786598 7.73468 0 11.3204L2.68885 11.3418Z" transform="translate(106.667 39.0911)" fill="#363092"/>
<path fill-rule="evenodd" clip-rule="evenodd" d="M2.77037 5.95181C5.4282 5.89574 5.92592 5.75485 6.37135 6.8858C7.41139 9.524 3.7658 9.08518 2.66226 9.07579L2.77037 5.95181ZM0.147095 11.2957C5.44799 11.2206 8.64401 12.2215 9.21675 8.77346C10.0884 3.52729 7.05574 3.46271 2.68589 3.58511L2.63302 0.00910099L0 0L0.147095 11.2957Z" transform="translate(125.978 39.1189)" fill="#363092"/>
<path fill-rule="evenodd" clip-rule="evenodd" d="M8.63249 9.65478C8.68891 7.43926 8.80559 6.28835 6.83392 5.84894L7.21467 5.47968C7.34759 5.3567 7.69466 5.05672 7.75167 4.9983C9.08029 3.64163 8.34863 1.55496 7.9035 1.02016C6.71636 -0.404609 3.43409 0.0662048 1.3942 0.105831L0 0.458941L0.505693 2.75724C1.64025 2.62339 4.35686 1.9838 5.23739 2.85939C7.16357 4.77464 3.0055 4.46996 2.15982 4.46321L2.16071 6.93557L5.57176 7.08262L5.65742 9.00492C4.08807 9.44785 2.17282 9.31283 0.472313 9.12468L0.0307207 11.2938C2.95617 12.7644 7.59098 12.0112 8.63249 9.65478Z" transform="translate(89.1499 0.491699)" fill="#363092"/>
<path fill-rule="evenodd" clip-rule="evenodd" d="M8.30762 11.6562C8.6352 10.8896 8.23288 10.2802 8.0843 9.17772C4.92462 9.42927 2.62745 10.4387 2.87646 5.39389C3.03803 2.11815 4.81091 2.45923 8.08136 2.79972L8.55604 0.48234C3.25012 -0.740192 0.037261 0.140971 0.000338482 5.69505C-0.0354025 11.1118 2.75949 13.1474 8.30762 11.6562Z" transform="translate(144.855 19.8901)" fill="#363092"/>
<path fill-rule="evenodd" clip-rule="evenodd" d="M8.58278 11.7065L8.09333 9.1963C5.11058 9.01754 2.94043 10.6604 2.94013 5.9279C2.93984 1.48305 4.726 2.81859 8.11165 2.61518L8.5559 0.200052C5.70135 0.285174 -0.0624051 -1.82233 0.000510905 5.92702C0.0625408 13.5628 5.43314 11.6528 8.58278 11.7065Z" transform="translate(89.1348 19.9573)" fill="#363092"/>
<path fill-rule="evenodd" clip-rule="evenodd" d="M8.31456 10.9289L8.04842 9.14928C6.29327 9.35739 3.94824 9.97203 3.12413 8.14278C2.42733 6.59649 2.90822 4.04957 3.50606 2.95355C4.7954 2.56199 6.38276 2.47834 7.95418 2.8652L8.48971 0.445088C3.22455 -0.631268 0.0988444 -0.0594795 0.00343661 5.5897C-0.103786 11.9425 2.29383 11.865 7.78672 11.7972L8.64214 11.4485L8.31456 10.9289Z" transform="translate(180.269 38.781)" fill="#363092"/>
<path fill-rule="evenodd" clip-rule="evenodd" d="M3.16174 2.31327C3.44176 2.79377 3.71972 3.34354 3.92058 4.05446L2.29304 4.03391L3.16174 2.31327ZM10.9353 0.200477L7.45274 0.276205C7.47459 7.31757 7.42172 4.60834 5.95132 6.06892C5.69463 4.99667 3.70998 0.663953 3.14226 0L0 6.54648C1.67806 6.62632 1.35845 6.12029 1.89043 5.02749L4.37015 4.98581L5.20282 6.65714C9.565 6.58552 8.43162 4.89981 8.59822 1.14445L10.5684 1.11862C10.6337 2.87302 10.3392 5.80152 10.9202 6.61341C11.7145 6.34953 11.6291 7.46111 11.6096 3.72424C11.6067 3.1774 11.6684 2.4295 11.6519 1.93785C11.6498 1.87562 11.5694 1.09837 11.5677 1.09338C11.2168 0.0240664 12.0137 0.831556 10.9353 0.200477Z" transform="translate(122.452 55.3325)" fill="#363092"/>
<path fill-rule="evenodd" clip-rule="evenodd" d="M4.17784 1.99509C5.34666 2.10868 5.19335 2.13363 5.83787 2.79113C5.98084 4.4155 5.71618 4.76361 4.13915 4.89365L4.17784 1.99509ZM2.93724 1.98775L2.94787 4.93591C1.89425 4.7507 1.86708 4.62272 1.11534 4.05534L1.35696 2.35378L2.93724 1.98775ZM2.14178 5.79242C4.14328 6.51185 1.89425 6.06863 3.51087 6.87817C4.55356 6.48778 3.79827 6.26529 5.29555 5.74311C6.44074 5.34391 6.72017 5.42199 6.96977 4.1707C7.42997 1.86418 6.2647 1.08575 4.21948 0.921372L4.12585 0C3.7262 0.0930474 0.561795 1.5093 0.209701 2.44418C-0.484738 4.28898 0.644792 5.49302 2.14178 5.79242Z" transform="translate(95.5981 55.0891)" fill="#363092"/>
<path fill-rule="evenodd" clip-rule="evenodd" d="M2.34501 0.899359L4.21831 0.90846L4.24313 2.05556L4.23899 2.93642L4.24254 5.32073L1.87831 5.27317C2.45253 3.78412 2.30927 2.6473 2.34501 0.899359ZM1.09585 4.11199C0.69679 5.53236 1.1635 4.67057 0.0324875 5.57815L0 7.54388L0.946987 7.51717C0.946692 6.17312 0.985966 6.86526 1.22286 6.47927L5.00935 6.40442C5.03564 8.30822 4.83241 7.35221 5.58268 7.76168C5.62757 7.68477 5.67572 7.58703 5.69876 7.52158C5.78826 7.26269 6.17816 6.85381 5.7983 5.70994C4.71071 2.43567 5.42198 4.88073 5.26218 0L1.3041 0.121224L1.09585 4.11199Z" transform="translate(161.168 55.53)" fill="#363092"/>
<path fill-rule="evenodd" clip-rule="evenodd" d="M2.54307 1.1834C5.33707 -0.0614367 6.53927 4.4154 4.00343 5.37494C1.47822 6.33095 -0.272199 2.43734 2.54307 1.1834ZM6.41846 4.48585C8.19133 0.120551 1.57569 -1.69901 0.259182 1.96007C-1.32465 6.36323 4.80214 8.46546 6.41846 4.48585Z" transform="translate(88.3047 55.449)" fill="#363092"/>
<path fill-rule="evenodd" clip-rule="evenodd" d="M3.54899 0L3.55401 5.30077L1.07223 5.30341L1.06603 0.0692741L0.160977 0.00763193L0 6.38974L4.30782 6.85733C4.85634 8.07047 4.05616 7.69388 5.32009 7.74789C5.52715 7.35045 5.64236 6.51977 5.48521 5.9565C4.82563 3.59392 4.61591 8.86592 4.60616 0.11477L3.54899 0Z" transform="translate(110.33 55.5408)" fill="#393092"/>
<path fill-rule="evenodd" clip-rule="evenodd" d="M0.0139 6.70117C0.781003 6.28995 0.581019 6.42937 1.19895 5.73489C1.56257 5.32571 1.76018 5.06154 2.14122 4.62625C2.81203 3.86015 3.56614 3.33943 4.17935 2.65581L4.2204 4.90715C4.21361 6.28055 3.9008 6.23065 4.78399 6.63249C5.62346 6.29992 5.35849 6.75988 5.40989 5.23619C5.42761 4.71841 5.38213 3.9893 5.38036 3.44011C5.37681 2.27775 5.43589 1.14886 5.29115 0L1.22259 4.03655C1.15495 3.15803 1.20427 2.48674 1.18271 1.64579C1.14638 0.220436 1.42493 0.649862 0.648668 0.212216C-0.211184 0.556227 0.162459 -0.384518 0 1.34992L0.0139 6.70117Z" transform="translate(167.874 55.321)" fill="#363092"/>
<path fill-rule="evenodd" clip-rule="evenodd" d="M1.05067 3.93411C1.19895 0.140892 1.32833 0.433827 0.312219 0.212216C0.0593734 0.597614 0.179297 0.170245 0.0599631 0.842711L0 6.77896C1.95542 5.44929 2.50748 3.82991 4.18081 2.7923C4.23014 3.56633 4.22305 4.16688 4.22393 4.93268C4.22512 6.28084 3.93712 6.21862 4.74292 6.63924C5.4542 6.33221 5.35849 7.38685 5.32541 3.72982C5.31448 2.48645 5.35554 1.23897 5.26722 0C3.82901 1.07929 2.55002 3.05736 1.05067 3.93411Z" transform="translate(116.519 55.3262)" fill="#393092"/>
<path fill-rule="evenodd" clip-rule="evenodd" d="M0.712481 0.296754C-0.329916 0.51543 0.0756394 2.04293 0.0871593 3.22496C0.0989745 4.41461 0.0936529 5.61366 0.071204 6.80273C1.28315 6.17488 2.8652 3.87981 3.837 3.38963C4.1631 2.80346 3.58977 3.18533 4.29928 2.7559C4.47709 6.09446 3.74869 6.26235 4.99047 6.71585C5.70411 6.29024 5.47548 6.8039 5.45333 3.81729C5.44417 2.54574 5.45067 1.27155 5.45865 0C5.13964 0.549185 1.97847 3.50586 1.22348 4.29339L1.19454 0.585581C0.85426 0.235993 1.65238 0.29059 0.712481 0.296754Z" transform="translate(103.57 55.2395)" fill="#393092"/>
<path fill-rule="evenodd" clip-rule="evenodd" d="M1.09497 4.13665L1.01139 1.04847C0.836225 -0.0337535 1.07223 0.693308 0.661649 0.162909C-0.171914 0.458488 0.300987 -0.0246568 0.0348492 0.779895L0 6.74315C1.53893 6.02842 2.00416 4.47185 3.83197 2.95403C3.88485 2.91059 3.9829 2.84162 4.02721 2.80639C4.0721 2.77029 4.15984 2.70542 4.22896 2.65846C4.17964 5.65094 3.78825 6.16461 4.79697 6.59668C5.69906 6.10708 5.29616 3.96171 5.29085 1.63024L5.28317 0L1.09497 4.13665Z" transform="translate(153.092 55.3689)" fill="#363092"/>
<path fill-rule="evenodd" clip-rule="evenodd" d="M4.88175 0L3.71884 0.231592L3.72415 2.54369L1.09645 2.47236C1.10147 -0.0783698 1.15257 0.395671 0.368044 0.147349C0.069415 0.561806 0.237486 0.0575327 0.0903863 0.771385L0 5.15958C0.0643929 6.69119 -0.199374 6.21422 0.663136 6.56527C1.12334 6.07039 0.910073 7.11739 1.10355 5.42669C1.14342 5.08033 1.09025 4.18478 1.09497 3.76563L3.72268 3.58218C3.72652 4.12813 3.66508 4.99168 3.69669 5.44899C3.79505 6.86584 3.53039 6.18956 4.2077 6.5638C4.92872 6.25766 4.82917 7.31845 4.78634 3.65937C4.77187 2.41072 4.74676 1.23721 4.88175 0Z" transform="translate(140.094 55.3967)" fill="#393092"/>
<path fill-rule="evenodd" clip-rule="evenodd" d="M0.000464994 6.40178C2.93241 6.16402 2.12336 3.58628 2.15998 0.880279L4.14938 0.952782C4.14229 1.90733 4.14908 2.86157 4.1414 3.81582C4.12574 5.75749 3.92667 5.66473 4.49852 6.40911C5.28069 6.14729 5.06801 6.93159 5.22042 5.31779L5.15662 0.00528055L1.18406 0C1.15304 1.19964 1.24284 2.63673 1.14714 3.78823C0.974635 5.86198 -0.0246423 4.79708 0.000464994 6.40178Z" transform="translate(174.067 55.533)" fill="#363092"/>
<path fill-rule="evenodd" clip-rule="evenodd" d="M1.19275 1.1967C2.56184 0.532457 3.13695 1.56478 3.54959 0.31613C3.05217 -0.0120313 3.35965 0.0261234 1.85233 0.00880539C1.22435 0.00176079 0.633 0.0202532 0 0L0.0493262 6.44962C0.711273 6.45109 1.51974 6.49717 2.15658 6.47721C3.66272 6.43054 3.20782 6.70029 3.55873 5.89339C3.00371 4.60805 2.56419 5.82148 1.15936 5.01253L1.17503 3.41634C2.35123 3.4319 3.08878 3.76622 3.56789 2.95785C2.99899 1.61527 2.70628 2.84543 1.16883 2.07698L1.19275 1.1967Z" transform="translate(180.581 55.509)" fill="#363092"/>
<path fill-rule="evenodd" clip-rule="evenodd" d="M1.26398 3.51672L2.94735 3.77179L2.92875 5.16134L1.25246 5.19275L1.26398 3.51672ZM3.20375 2.53576L1.27344 2.45416L1.27078 0.00616288L0.317876 0C-0.185156 1.89705 0.0239799 4.42694 0.169898 6.43553C1.34758 6.43612 2.87764 6.61575 3.62584 5.75309C4.68832 4.52791 3.76054 3.24081 3.20375 2.53576Z" transform="translate(135.211 55.5183)" fill="#363092"/>
<path fill-rule="evenodd" clip-rule="evenodd" d="M1.16498 5.35595V3.4363C3.55815 3.52347 3.99265 5.19656 1.16498 5.35595ZM0.108992 6.31049C4.66316 6.78189 4.36719 4.11581 3.57527 3.18562C2.9597 2.46209 2.38372 2.58713 1.27575 2.52725C1.12097 1.45031 1.35727 0.748782 0.864867 0C-0.207659 0.181398 0.167776 -0.302329 0 0.84095L0.108992 6.31049Z" transform="translate(146.095 55.5466)" fill="#363092"/>
<path fill-rule="evenodd" clip-rule="evenodd" d="M1.17845 2.79201L1.05024 0.958945C2.37975 1.0109 2.48993 1.06667 2.48727 2.34732C1.87494 2.84484 2.04864 2.84249 1.17845 2.79201ZM1.09485 3.90799C4.43383 3.56809 5.26206 0.0287654 0.0291061 0L0.00401028 4.41256C-0.0332076 6.74344 0.187146 6.24327 0.727101 6.41234C1.32347 5.59987 1.01687 5.71287 1.09485 3.90799Z" transform="translate(185.223 55.5325)" fill="#363092"/>
<path fill-rule="evenodd" clip-rule="evenodd" d="M0 2.39839L4.34741 2.37961L4.34653 0.0766099L0.0428359 0L0 2.39839Z" transform="translate(184.178 6.24585)" fill="#363092"/>
<path fill-rule="evenodd" clip-rule="evenodd" d="M0 1.36372C1.33276 2.39898 1.70198 2.67225 4.03076 2.47119C4.83951 1.61703 5.06992 1.48935 5.18334 0C3.9519 0.153514 4.138 0.0123285 3.63467 0.417099C3.3511 0.644875 2.99545 1.10453 2.48533 1.03996C0.880529 0.213099 3.16442 0.129151 0.0463875 0.136489L0 1.36372Z" transform="translate(179.92 17.2244)" fill="#363092"/>
<path fill-rule="evenodd" clip-rule="evenodd" d="M1.08611 0L0.244278 0.141182L0 5.46426C0.129377 7.16524 -0.131735 6.28642 0.739046 6.56938C1.34753 5.79359 1.08642 5.61777 1.07815 3.66965C1.07312 2.44653 1.07607 1.22312 1.08611 0Z" transform="translate(150.651 55.3845)" fill="#363092"/>
<path fill-rule="evenodd" clip-rule="evenodd" d="M3.18505 0.836252L2.73873 0.156159C0.796312 0.342254 2.23511 0.600845 0.00971049 0C-0.174016 2.271 2.2995 1.37399 3.18505 0.836252Z" transform="translate(154.264 53.6221)" fill="#363092"/>
<path fill-rule="evenodd" clip-rule="evenodd" d="M0.523188 1.18525L0.895956 0.814239C0.47947 -0.299395 0.594373 0.267695 0.24287 0C-0.275227 0.677749 0.139489 0.798975 0.523188 1.18525Z" transform="translate(56.3545 27.0129)" fill="#7875A5"/>
<path fill-rule="evenodd" clip-rule="evenodd" d="M0 1.06461C0.304537 1.2783 -0.513979 1.57212 1.01609 1.23163L1.22257 0C0.985677 0.385985 0.946385 -0.306148 0.946681 1.0379L0 1.06461Z" transform="translate(161.168 62.0098)" fill="#7573B5"/>
<path fill-rule="evenodd" clip-rule="evenodd" d="M0 0L0.405557 0.109292L0 0Z" transform="translate(59.7979 48.5378)" fill="#9590C6"/>
</svg>
