<svg width="178" height="46" viewBox="0 0 178 46" fill="none" xmlns="http://www.w3.org/2000/svg">
<path fill-rule="evenodd" clip-rule="evenodd" d="M95.6856 5.77551C95.9959 4.34306 96.2685 1.5651 97.0858 1.33066C103.12 1.3453 111.172 -0.407961 109.577 7.5807C108.214 14.4018 106.185 15.5897 98.866 15.8351C97.7024 20.9213 98.1296 20.4581 92.5851 20.5192L95.6856 5.77551ZM22.4672 1.40412C25.0973 1.15046 32.1095 0.947301 34.0464 2.21849C37.4258 4.43632 34.8133 8.84558 33.1288 10.5986C34.1536 12.3682 35.0383 13.0055 33.8879 15.9438C33.2789 17.4997 32.0562 18.7915 30.8686 19.5393C28.4909 21.0369 21.5784 20.4928 18.2324 20.5112L22.4672 1.40412ZM1.55576 20.5201C6.63388 20.4607 7.24063 20.6039 8.22162 15.6773L12.4602 15.6821C12.0554 17.9241 10.1136 21.6406 16.7046 20.3643L20.8446 1.34214C7.26367 1.38174 7.32129 1.86181 3.86808 13.0181C3.09107 15.5298 2.14061 17.9875 1.55576 20.5201ZM75.8995 20.5198C82.8244 20.4243 80.6916 20.0739 82.6806 15.8018L86.7971 15.6675C86.0247 20.4931 85.1845 20.4742 91.1693 20.5155L95.1858 1.33927C81.3147 1.37772 81.8022 1.96597 78.2225 13.0391C77.4651 15.3831 76.4337 18.1155 75.8995 20.5198ZM70.0634 1.34817L81.5971 1.3321C80.7901 6.99504 79.3539 4.894 74.614 5.48798C73.8894 7.08256 72.9055 12.9461 72.4466 15.0707C71.2752 20.4908 72.134 20.4796 66.0075 20.5081L70.0634 1.34817ZM54.464 1.38834L50.4326 20.4246C57.8276 21.1967 55.5044 18.3766 57.3249 13.2557L60.6444 13.2824C60.5142 15.6781 59.1958 17.9545 59.817 20.1758C61.1359 20.6194 62.9792 20.531 64.5814 20.4831L68.5684 1.38461C62.4869 1.06524 63.1538 1.50743 61.6413 9.16811L58.1578 9.21086C59.3024 2.18147 61.5324 0.925205 54.464 1.38834ZM33.7949 20.5167C35.6805 20.4994 38.053 20.8114 39.0698 19.6664C39.9332 18.6937 39.6846 16.5364 40.9059 15.681L44.6936 15.683C44.4271 17.4985 43.8137 18.3476 44.3107 20.1431C45.6282 20.6326 47.4513 20.5006 49.0644 20.5138L53.0699 1.3519C45.9886 1.28303 41.264 0.579145 38.5486 5.95772C37.7194 7.59964 34.253 18.5158 33.7949 20.5167ZM108.229 16.31C106.842 16.5909 104.041 16.0985 104.188 20.4547L124.916 20.5003C126.193 18.1522 125.761 16.5591 123.013 16.4253L126.204 1.39293C113.58 0.64916 111.857 2.01389 108.229 16.31ZM0 21.5985C9.16804 21.9534 7.22161 20.5904 9.21414 16.8738L11.0638 16.7542C10.0324 22.81 12.6743 21.6263 20.1618 21.6294C26.1362 21.632 28.3097 22.3933 32.7421 19.5984L32.2296 21.6283C41.9367 21.6398 38.8612 21.1439 41.4818 16.8546L43.2842 16.7645C42.455 22.7201 44.4513 21.5899 51.8538 21.6323C60.3474 21.6808 55.9576 15.6919 58.768 14.3929C58.8029 14.4465 58.834 14.4807 58.8386 14.5711L58.9368 14.9501C59.0431 16.485 56.8034 20.5124 59.9999 21.4429C61.0702 21.7546 68.762 21.7675 70.0038 21.5569C72.8865 21.0682 73.0081 17.8225 73.6077 15.0503C74.2127 12.2537 74.9871 9.30269 75.3832 6.51354L79.0891 6.51612L74.3057 21.5612C87.2021 22.5044 79.7924 16.8463 85.4257 16.7668C84.3707 22.6662 87.0419 21.628 92.1881 21.6286C98.0806 21.6289 98.5134 21.9646 99.7661 16.9835L104.001 16.675C103.446 18.0736 102.982 19.8458 102.706 21.6312L125.896 21.6243C127.935 16.5915 125.689 16.2015 124.446 15.1892L127.577 0.295065C125.498 0.0414016 119.374 0.0655054 117.368 0.40841C112.952 1.16223 112.468 3.24835 110.867 4.66874C110.023 -0.875975 103.966 0.20152 98.5261 0.202094C93.2212 0.202668 87.2154 -0.480558 82.9684 1.64287C82.6435 0.904832 82.9705 1.242 82.8953 0.982595C82.6956 0.295065 82.9546 0.332081 82.3922 0.199511C77.4011 0.212136 72.4008 0.221893 67.4103 0.200085C61.9282 0.175695 61.8447 1.61331 61.0996 5.19042C60.4353 8.38015 60.8308 7.68487 59.9201 8.03007C59.2612 6.23377 62.6908 1.19264 58.4407 0.292482C56.6594 -0.0845688 49.256 0.169669 46.952 0.19779C36.2003 0.328639 37.0752 9.29666 35.1403 11.7452L34.599 10.5882C38.5229 5.40161 36.8712 0.755045 31.4033 0.255467C27.0046 -0.146549 18.356 -0.00823968 13.8114 0.221607C8.18878 0.505973 5.66038 3.49512 4.21554 8.20224C2.85165 12.6474 1.13571 17.1915 0 21.5985Z" transform="translate(49.4443 11.9832)" fill="#EFEEED"/>
<path fill-rule="evenodd" clip-rule="evenodd" d="M0.359767 30.2829L1.62512 29.3707C4.97577 27.354 32.1901 21.4377 37.7865 17.4778C40.7966 15.3475 42.9314 11.0762 45.8033 9.03259L20.7394 16.2674C21.5095 13.3073 22.2519 11.3308 24.8702 10.3396L40.1803 5.80068C42.569 5.14643 43.1976 5.50713 44.6563 0L29.9498 4.22963C19.6259 7.3502 15.7843 6.77918 12.6419 15.0984C11.2368 18.8187 12.0234 18.7188 8.43503 20.3771C1.74036 23.4713 6.18263 22.7912 2.97143 24.4079C-0.805613 26.3092 -0.0726766 26.1084 0.359767 30.2829Z" transform="translate(2.3623 3.88525)" fill="#CD1920"/>
<path fill-rule="evenodd" clip-rule="evenodd" d="M5.4062 40.1327C5.70064 39.1155 8.60617 31.309 8.90464 30.9478C9.54596 30.1721 16.807 28.3291 18.3807 27.9661C17.9949 29.2539 15.5109 36.1599 14.979 36.9998C14.4803 37.7872 13.9672 37.722 12.8666 38.0386C12.0683 38.2687 11.2677 38.5347 10.4106 38.7746C8.82311 39.2199 7.10198 39.8366 5.4062 40.1327ZM18.952 36.2061C19.0782 35.5019 20.4334 31.7131 20.8079 31.3237L21.9895 30.7687C22.4643 30.6298 22.848 30.5437 23.3458 30.4097C24.2413 30.1687 25.0762 29.9145 26.0195 29.643C29.5703 28.6206 33.2137 27.3422 36.7666 26.5204C35.46 31.5922 34.4744 31.7859 29.5571 33.1564C26.2747 34.0715 22.1445 35.5894 18.952 36.2061ZM21.1911 30.266C23.5585 29.8717 30.8639 27.4295 34.1417 26.5239C35.815 26.0616 37.3183 26.1838 37.5497 24.3393L22.4919 28.7118C21.3372 29.1291 21.5544 29.0074 21.1911 30.266ZM22.0713 28.0226L35.7072 24.0552C38.0887 23.3582 38.1688 23.8306 38.8104 21.1548C33.9386 23.2234 36.4972 22.5746 30.2972 24.4174C28.7763 24.8693 27.3531 25.3115 25.8521 25.7325C22.5613 26.6544 22.5567 26.2518 22.0713 28.0226ZM26.5703 16.2468C27.1168 14.4114 26.6063 15.1377 30.2122 14.0132L42.9865 10.3161L42.5877 11.61L26.5703 16.2468ZM27.4366 14.014C31.1981 13.1497 36.2564 11.4493 40.3201 10.2986C42.2567 9.75025 43.2985 9.98555 43.8496 8.08164C41.1273 8.59183 37.8326 9.80907 35.1172 10.5876C33.7637 10.9761 32.3226 11.4085 30.8844 11.8166C27.3986 12.8054 27.8671 12.3411 27.4366 14.014ZM1.83947 32.3882L3.10482 31.476C6.45547 29.4594 33.6698 23.543 39.2662 19.5831C42.2763 17.4528 44.4111 13.1816 47.283 11.1379L22.2191 18.3728C22.9892 15.4126 23.7316 13.4361 26.3499 12.445L41.66 7.90602C44.0487 7.25178 44.6773 7.61247 46.136 2.10535L31.4295 6.33498C21.1056 9.45555 17.264 8.88452 14.1216 17.2038C12.7165 20.924 13.5031 20.8242 9.91473 22.4825C3.22007 25.5766 7.66234 24.8966 4.45113 26.5132C0.67409 28.4146 1.40703 28.2137 1.83947 32.3882ZM48.3901 0C45.6739 0.513639 42.6007 1.66861 39.8986 2.4141C34.3399 3.94785 19.081 7.89541 16.2144 10.6848C12.4273 14.3701 13.2484 19.4692 10.2426 20.8027C2.35374 24.3017 6.27483 23.4423 3.97346 25.1749C2.78359 26.0708 1.85359 26.1597 0.820447 27.2054C-1.07931 29.1279 0.864239 32.7931 1.23935 35.2293C2.52948 34.2632 2.2601 33.7929 3.61246 32.8462C4.61247 32.1463 5.75941 31.8459 7.11581 31.6037L3.10742 42.2564C6.43271 41.6185 33.9475 33.466 35.2079 32.4743C38.3215 30.0246 38.4632 22.25 42.374 18.6652C43.1233 17.9782 43.9911 16.59 44.8231 15.6462C48.7641 11.1767 48.4815 12.0014 52.8241 8.16629L44.5342 10.321L48.3901 0Z" transform="translate(0.882812 1.78003)" fill="#EFEEED"/>
<path fill-rule="evenodd" clip-rule="evenodd" d="M1.05705 22.2716C2.19276 17.8647 3.90842 13.3206 5.27317 8.87542C6.71801 4.1686 9.24641 1.17945 14.869 0.894794C19.4136 0.664948 28.0622 0.526639 32.461 0.928654C37.9289 1.42823 39.5806 6.0748 35.6566 11.2614L36.1979 12.4184C38.1329 9.96985 37.2579 1.00183 48.0096 0.870978C50.3136 0.842856 57.717 0.588619 59.4984 0.96567C63.7485 1.86583 60.3189 6.90695 60.9778 8.70326C61.8885 8.35806 61.4929 9.05333 62.1573 5.86361C62.9023 2.2865 62.9858 0.848882 68.4679 0.873273C73.4584 0.895081 78.4588 0.885324 83.4499 0.872698C84.0123 1.00527 83.7532 0.967965 83.9529 1.65578C84.0281 1.9149 83.7011 1.57802 84.0261 2.31605C88.273 0.192629 94.2788 0.875569 99.5837 0.875282C105.024 0.874708 111.08 -0.202787 111.925 5.34193C113.526 3.92182 114.01 1.83541 118.425 1.0816C120.432 0.73898 126.556 0.714876 128.635 0.968252L125.503 15.8629C126.746 16.875 128.992 17.2652 126.953 22.298L103.764 22.3049C104.039 20.5192 104.503 18.7473 105.059 17.3487L100.823 17.6572C99.5704 22.6381 99.1377 22.3024 93.2451 22.3024C88.0993 22.3018 85.4277 23.3397 86.4827 17.4406C80.8494 17.5201 88.2592 23.1781 75.3628 22.2349L80.1462 7.18989L76.4403 7.1873C76.0442 9.97645 75.2697 12.9274 74.6647 15.724C74.0652 18.4963 73.9436 21.7419 71.0608 22.2306C69.8191 22.4409 62.1273 22.428 61.057 22.1167C57.8602 21.1861 60.1002 17.1588 59.9939 15.6239L59.8956 15.2448C59.8907 15.1544 59.8599 15.12 59.8251 15.0666C57.0146 16.3657 61.4044 22.3546 52.9109 22.3061C45.5083 22.2639 43.512 23.3939 44.3412 17.4383L42.5388 17.5284C39.9179 21.8174 42.9938 22.3135 33.2867 22.3021L33.7992 20.2722C29.3667 23.0671 27.1933 22.3058 21.2189 22.3032C13.7313 22.3001 11.0894 23.4837 12.1208 17.4279L10.2712 17.5476C8.27867 21.2639 10.2251 22.6269 1.05705 22.2716ZM0 22.9675C1.47163 23.193 6.19135 23.2281 7.44172 22.7945C9.70622 22.0094 9.82578 20.333 10.833 18.244C11.6809 19.4458 9.99173 21.4131 12.6682 22.6536C14.1672 23.3486 17.3663 23.0714 19.2024 23.0714C23.4796 23.0717 28.4263 23.5767 32.1671 22.2105L32.3293 23.0467C34.2325 23.1133 38.4711 23.3147 39.8966 22.6986C42.472 21.5861 42.3585 19.3522 43.115 18.2937C44.5092 20.3959 41.0341 23.0949 49.1649 23.0719C50.9866 23.0665 53.1627 23.1816 54.9385 23.0576C57.169 22.9018 57.3917 22.1523 58.6726 21.0963C61.021 23.3081 59.9296 23.0728 65.5871 23.0705C75.4999 23.0671 73.8649 23.3104 76.7653 9.48806C76.8252 9.20341 76.888 8.81517 77.0234 8.58417C77.4299 7.89234 77.1012 7.97469 79.0269 7.97067L74.2982 23.0699C76.313 23.0522 80.3942 23.3644 81.9869 22.723C84.7826 21.5967 84.1517 19.1505 85.4323 18.2392C85.2459 24.111 88.156 23.0697 93.5332 23.0708C96.3126 23.0714 99.3572 23.4358 100.758 20.766C101.926 18.539 100.235 18.4142 103.73 18.2882L102.793 22.9913L127.529 23.0711C128.115 21.9632 128.528 20.0165 128.52 18.729C128.506 16.6167 127.204 16.382 126.381 15.2885L129.612 0.149299C126.417 0.0973616 122.302 -0.0808332 119.276 0.18603C117.133 0.374842 115.21 1.00355 113.69 2.35508L112.167 3.5881C110.336 -0.840101 104.694 0.124909 99.2947 0.124909C96.5082 0.124622 93.7219 0.127778 90.9354 0.1229C86.4781 0.115727 86.5381 0.696225 85.5962 0.763372C84.8864 0.814162 85.3084 0.78317 84.9716 0.597514C83.935 0.0261982 85.8841 0.624201 84.3133 0.124049L66.4448 0.119457C64.0873 0.194924 63.7923 0.852325 62.4174 2.10314C62.3633 2.06009 62.2826 1.91892 62.2604 1.96712C62.1818 2.13843 61.5344 0.870403 60.3598 0.391772C59.0901 -0.125598 50.8668 0.126343 49.1629 0.123474C46.6835 0.119744 44.8627 0.0896144 42.6886 1.08906C41.1787 1.7829 40.4017 2.39755 39.3608 3.52239C38.9528 3.96314 39.0049 4.05898 38.5045 4.51466C37.0842 2.31892 37.5734 1.59409 34.5633 0.545003C32.2005 -0.278828 13.6878 -0.176675 10.8099 0.905985C6.62697 2.47904 5.54312 5.74137 3.96892 10.4476C2.58141 14.6012 1.32643 18.8922 0 22.9675Z" transform="translate(48.3877 11.3101)" fill="#CF2520"/>
<path fill-rule="evenodd" clip-rule="evenodd" d="M9.29838 15.2079C9.90685 12.8828 10.6242 10.7421 11.3465 8.50965C12.2895 5.59568 12.1834 4.28977 15.813 4.15146C15.5422 6.18134 15.0437 8.01782 14.6142 10.0445C14.407 11.0219 14.2172 11.9281 14.0285 12.8716C13.4393 15.8139 13.77 15.2177 9.29838 15.2079ZM4.04595 15.0765C2.65902 15.3574 -0.141637 14.865 0.00558419 19.2212L20.7332 19.2668C22.0104 16.9187 21.5782 15.3256 18.8306 15.1918L22.0219 0.159426C9.39747 -0.584346 7.67433 0.780386 4.04595 15.0765Z" transform="translate(153.627 13.2168)" fill="#CD1920"/>
<path fill-rule="evenodd" clip-rule="evenodd" d="M6.14814 15.5081L7.00755 11.405C8.85862 11.2727 9.37778 11.3005 10.6287 11.8696C11.3239 15.3462 9.36798 15.4785 6.14814 15.5081ZM8.55525 3.85334L11.8045 4.17243C13.0609 7.18769 10.8895 7.98684 7.79897 7.78397L8.55525 3.85334ZM0 19.2964C3.34604 19.2783 10.2585 19.8221 12.6362 18.3245C13.8238 17.5767 15.0465 16.2848 15.6556 14.729C16.806 11.7906 15.9212 11.1533 14.8964 9.38371C16.581 7.63074 19.1935 3.22119 15.814 1.00365C13.8768 -0.267536 6.86465 -0.0643763 4.23484 0.189287L0 19.2964Z" transform="translate(67.6768 13.1978)" fill="#CD1920"/>
<path fill-rule="evenodd" clip-rule="evenodd" d="M8.08938 10.3207C8.33917 9.16546 8.97386 6.84462 9.40515 5.86555C9.9923 4.53324 11.3078 3.95475 13.0946 4.22793L11.7215 10.2863L8.08938 10.3207ZM0 19.2314C1.88564 19.2141 4.25817 19.5261 5.27489 18.3811C6.13834 17.4084 5.88971 15.2511 7.11098 14.3957L10.8987 14.3977C10.6322 16.2132 10.0188 17.0623 10.5158 18.8577C11.8333 19.3473 13.6564 19.2153 15.2695 19.2285L19.275 0.0665905C12.1937 -0.00227728 7.46909 -0.706164 4.75371 4.67241C3.92455 6.31433 0.458085 17.2305 0 19.2314Z" transform="translate(83.2397 13.2683)" fill="#CD1920"/>
<path fill-rule="evenodd" clip-rule="evenodd" d="M11.391 10.2676L8.10782 10.2682C8.33254 9.13015 8.98654 6.87588 9.41178 5.86754C10.0035 4.46522 11.0139 3.99663 13.0695 4.10768L12.147 8.83804C11.8537 10.1023 12.1597 9.70921 11.391 10.2676ZM0 19.1805C6.92486 19.085 4.79203 18.7346 6.7811 14.4625L10.8975 14.3282C10.1251 19.1539 9.285 19.1349 15.2698 19.1762L19.2862 0C5.4152 0.0384512 5.90267 0.626698 2.32298 11.6998C1.56555 14.0439 0.534145 16.7762 0 19.1805Z" transform="translate(125.344 13.3225)" fill="#CD1920"/>
<path fill-rule="evenodd" clip-rule="evenodd" d="M8.09169 10.2679C8.3625 8.90748 8.90846 7.15077 9.42474 5.85003C9.97617 4.46034 11.0373 3.97138 13.0995 4.11801L11.8592 10.2639L8.09169 10.2679ZM0 19.178C5.07812 19.1186 5.68487 19.2618 6.66586 14.3351L10.9044 14.34C10.4997 16.5819 8.55784 20.2985 15.1488 19.0221L19.2888 0C5.70792 0.039599 5.76554 0.519665 2.31232 11.676C1.53531 14.1876 0.584851 16.6453 0 19.178Z" transform="translate(51.0005 13.3252)" fill="#CD1920"/>
<path fill-rule="evenodd" clip-rule="evenodd" d="M0 19.122C7.39505 19.8941 5.07178 17.074 6.89231 11.9531L10.2118 11.9798C10.0816 14.3755 8.76326 16.6519 9.38441 18.8732C10.7033 19.3168 12.5466 19.2284 14.1488 19.1805L18.1359 0.0820231C12.0543 -0.237351 12.7212 0.204838 11.2087 7.86552L7.72522 7.90827C8.86985 0.878594 11.0998 -0.377669 4.03144 0.0854668L0 19.122Z" transform="translate(99.8774 13.2856)" fill="#CD1920"/>
<path fill-rule="evenodd" clip-rule="evenodd" d="M8.43944 4.2132C12.3234 4.22841 12.2424 4.0284 11.4285 7.71828C10.8019 10.5588 10.529 10.8397 7.16284 10.4667L8.43944 4.2132ZM0 19.342C5.54456 19.2809 5.11731 19.7437 6.28096 14.6579C13.5997 14.4128 15.6288 13.2246 16.9915 6.40348C18.587 -1.58518 10.5351 0.168076 4.50076 0.153442C3.68341 0.387879 3.41086 3.16583 3.10057 4.59829L0 19.342Z" transform="translate(142.03 13.1604)" fill="#CD1920"/>
<path fill-rule="evenodd" clip-rule="evenodd" d="M45.4169 11.6559L53.7068 9.50117C49.3642 13.3363 49.6471 12.5116 45.7059 16.9811C44.8738 17.9249 44.0061 19.3134 43.2567 20.0001C39.346 23.5849 39.2042 31.3595 36.0907 33.8092C34.8302 34.8009 7.31544 42.9534 3.99015 43.5913L7.99854 32.9389C6.64215 33.1811 5.49549 33.4815 4.49519 34.1814C3.14284 35.128 3.41192 35.5983 2.12208 36.5645C1.74697 34.1283 -0.196577 30.4631 1.70318 28.5405C2.73603 27.4946 3.66632 27.4059 4.85619 26.5101C7.15727 24.7775 3.23647 25.6369 11.1253 22.1378C14.1311 20.8047 13.31 15.7053 17.0971 12.02C19.9638 9.2303 35.2226 5.28273 40.7813 3.74928C43.4834 3.00378 46.5566 1.84881 49.2729 1.33517L45.4169 11.6559ZM2.1581 38.4604C3.33097 36.588 4.10078 34.9478 6.42059 34.2916L2.45916 44.9595C8.18782 43.6209 14.3642 41.5723 20.0188 39.9043C23.8365 38.7783 35.3353 35.8879 37.2353 34.0844C38.4151 32.9644 39.9614 28.3477 40.8035 26.1657C41.2299 25.061 41.83 22.9795 42.4514 22.0693L50.722 13.0895C51.7653 12.1819 56.5129 8.55137 57.0499 7.75767L46.9692 10.3767L50.8318 0C48.2092 0.402877 44.3892 1.74322 41.8404 2.49703C38.8277 3.38772 36.0045 4.27956 32.9322 5.12778C27.3245 6.67616 19.7051 8.28336 16.4074 11.6209C14.4549 13.5971 13.6085 15.6646 12.4509 18.8646C10.9412 23.0371 9.48429 20.8127 5.90633 23.8242C4.42115 25.0742 5.26472 25.3109 2.90976 26.583C1.54962 27.3179 0.519937 27.8923 0.0618521 29.4832C-0.352441 30.9219 1.42314 37.4202 2.1581 38.4604Z" transform="translate(0 0.444824)" fill="#D12221"/>
<path fill-rule="evenodd" clip-rule="evenodd" d="M0 19.176C6.12653 19.1473 5.2674 19.1585 6.43912 13.7386C6.89835 11.6143 7.88223 5.75046 8.60652 4.15589C13.3464 3.5619 14.7829 5.66294 15.5896 0L4.05593 0.0160691L0 19.176Z" transform="translate(115.452 13.3154)" fill="#CD1920"/>
<path fill-rule="evenodd" clip-rule="evenodd" d="M0 12.1661C1.69607 11.8702 3.41691 11.2533 5.00436 10.8085C5.86147 10.5683 6.66183 10.3023 7.46045 10.0725C8.56101 9.7557 9.07412 9.82112 9.57283 9.03374C10.1047 8.19355 12.5887 1.28783 12.9745 0C11.4008 0.362991 4.13948 2.20607 3.49845 2.98169C3.19997 3.34238 0.294442 11.1488 0 12.1661Z" transform="translate(6.28906 29.7466)" fill="#CD1920"/>
<path fill-rule="evenodd" clip-rule="evenodd" d="M0 9.6854C3.19248 9.06874 7.32274 7.55078 10.6048 6.63599C15.5225 5.26552 16.5081 5.07183 17.8143 0C14.2614 0.821823 10.6181 2.10018 7.06719 3.12258C6.12394 3.39404 5.28901 3.64827 4.39358 3.88931C3.89603 4.02331 3.51199 4.1094 3.03719 4.24828L1.85568 4.80324C1.48143 5.19235 0.12619 8.98122 0 9.6854Z" transform="translate(19.8345 28.3005)" fill="#CD1920"/>
<path fill-rule="evenodd" clip-rule="evenodd" d="M3.31147 9.86445L1.54684 9.88741C1.88017 8.41048 2.46703 6.70055 2.94557 5.24974C3.52178 3.50279 3.60129 1.6973 5.08646 1.32197L3.31147 9.86445ZM0 11.0564C4.47166 11.0662 4.14091 11.6625 4.73008 8.7201C4.91879 7.7769 5.10865 6.87071 5.3158 5.89307C5.74536 3.86635 6.24379 2.02988 6.51461 0C2.88507 0.138023 2.99139 1.44393 2.04813 4.35818C1.32557 6.59065 0.608475 8.73129 0 11.0564Z" transform="translate(162.926 17.3682)" fill="#EFEEED"/>
<path fill-rule="evenodd" clip-rule="evenodd" d="M0 6.86784L13.636 2.90048C16.0174 2.20348 16.0975 2.6758 16.7391 0C11.8673 2.06862 14.4259 1.41983 8.22594 3.26261C6.70504 3.71456 5.28181 4.15675 3.78079 4.5777C0.490065 5.49967 0.485455 5.09708 0 6.86784Z" transform="translate(22.9541 22.9348)" fill="#CF1A20"/>
<path fill-rule="evenodd" clip-rule="evenodd" d="M0 5.93239C3.76148 5.0681 8.81973 3.36764 12.8834 2.21697C14.8201 1.66861 15.8618 1.90391 16.413 0C13.6907 0.510196 10.3959 1.72743 7.68056 2.50593C6.32705 2.89446 4.88595 3.32689 3.44774 3.73493C-0.0380289 4.72376 0.430427 4.25947 0 5.93239Z" transform="translate(28.3193 9.86157)" fill="#CF1A20"/>
<path fill-rule="evenodd" clip-rule="evenodd" d="M0 5.92665C2.36735 5.53238 9.6728 3.09016 12.9506 2.18454C14.6239 1.72227 16.1272 1.84451 16.3585 0L1.30079 4.37253C0.146071 4.78976 0.363299 4.66809 0 5.92665Z" transform="translate(22.0737 26.1194)" fill="#CF1A20"/>
<path fill-rule="evenodd" clip-rule="evenodd" d="M0 5.93067L16.0174 1.29385L16.4162 0L3.64192 3.69705C0.0363007 4.82161 0.546533 4.09534 0 5.93067Z" transform="translate(27.4531 12.0962)" fill="#CF1A20"/>
<path fill-rule="evenodd" clip-rule="evenodd" d="M1.43016 5.17169C1.53647 4.27239 1.73151 3.46463 1.89775 2.58312C2.23685 0.789111 1.87672 1.18166 3.63242 1.128L2.6108 5.18718L1.43016 5.17169ZM0 6.25348C3.36621 6.62652 3.63905 6.34559 4.26567 3.50508C5.07957 -0.184508 5.16053 0.0152083 1.2766 0L0 6.25348Z" transform="translate(149.193 17.3735)" fill="#F1EDEC"/>
<path fill-rule="evenodd" clip-rule="evenodd" d="M1.59235 5.07672C1.7681 3.32862 2.2377 1.85256 3.59006 1.24853L2.70645 5.07328L1.59235 5.07672ZM0 6.17487L3.76782 6.17086L5.00811 0.0249779C2.94558 -0.121653 1.88478 0.367309 1.33335 1.757C0.816776 3.05774 0.271106 4.81445 0 6.17487Z" transform="translate(59.0918 17.4182)" fill="#EFEEED"/>
<path fill-rule="evenodd" clip-rule="evenodd" d="M2.74534 5.0915L1.57506 5.0783C1.74129 3.53624 2.21811 1.71325 3.52178 1.2306L2.74534 5.0915ZM3.28294 6.17531C4.05189 5.61691 3.74564 6.01003 4.03921 4.74602L4.96172 0.0156581C2.90581 -0.0953912 1.89543 0.373198 1.30395 1.77552C0.87842 2.78386 0.224721 5.03813 0 6.17617L3.28294 6.17531Z" transform="translate(133.452 17.4148)" fill="#EFEEED"/>
<path fill-rule="evenodd" clip-rule="evenodd" d="M1.60474 5.06478C1.6615 4.22976 1.88823 3.54653 2.1504 2.80678C2.52177 1.75884 2.6229 1.5815 3.52063 1.24606C3.24088 5.33767 2.68167 5.04326 1.60474 5.06478ZM0 6.15892L3.63212 6.12449L5.00522 0.0661262C3.2184 -0.207049 1.90292 0.371439 1.31577 1.70374C0.884475 2.68281 0.249786 5.00366 0 6.15892Z" transform="translate(91.3286 17.4304)" fill="#EFEEED"/>
<path fill-rule="evenodd" clip-rule="evenodd" d="M1.69089 1.48795C2.14551 1.25093 1.88708 1.05121 3.46099 1.30029C3.49643 2.74364 2.87355 2.96545 1.37224 3.03748L1.69089 1.48795ZM0 4.16863C3.21985 4.13879 5.17579 4.00679 4.48088 0.530114C3.22965 -0.0389059 2.71048 -0.0667387 0.859704 0.0655449L0 4.16863Z" transform="translate(73.8252 24.5374)" fill="#EFEEED"/>
<path fill-rule="evenodd" clip-rule="evenodd" d="M3.53963 0C2.05474 0.375617 1.97495 2.1811 1.39874 3.92776C0.920198 5.37858 0.333336 7.08851 0 8.56543L1.76464 8.54248L3.53963 0Z" transform="translate(164.473 18.6897)" fill="#CF1A20"/>
<path fill-rule="evenodd" clip-rule="evenodd" d="M1.44109 2.84051C1.49353 1.93777 1.51456 1.85111 1.90984 1.22929C3.86203 1.23216 3.7998 2.84711 1.44109 2.84051ZM0 3.93063C3.09078 4.1335 5.26221 3.33435 4.0055 0.319087L0.756273 0L0 3.93063Z" transform="translate(75.4761 17.051)" fill="#F1EDEC"/>
<path fill-rule="evenodd" clip-rule="evenodd" d="M0 4.82706C1.8744 4.54728 1.8865 2.69503 3.45206 1.65398L3.00867 3.99577C3.00896 5.39264 2.94615 4.2764 3.26364 4.81702C4.29649 4.11887 4.36651 1.33632 4.55925 0C3.51804 0.293262 3.37283 0.58882 2.7246 1.37793C2.09394 2.14609 1.97841 2.34294 1.20745 3.02703L1.65603 0.109041C0.4627 0.0671461 0.358689 2.41468 0 4.82706Z" transform="translate(94.5771 3.73486)" fill="#CF2520"/>
<path fill-rule="evenodd" clip-rule="evenodd" d="M0 4.73036C1.39154 4.58889 1.76666 3.21756 3.37572 1.65311C3.31637 2.79144 2.79691 3.95846 3.12218 4.74872C3.95336 4.38458 3.39012 5.2506 3.81219 4.03852L4.4319 0.0109041C2.8698 0.152083 2.96776 1.75756 1.13369 3.06691C1.23481 2.11969 1.77933 0.774189 1.39356 0C0.281191 0.392833 0.135697 3.56821 0 4.73036Z" transform="translate(79.7373 3.77002)" fill="#CF2520"/>
<path fill-rule="evenodd" clip-rule="evenodd" d="M1.05216 4.14287C0.962846 2.5064 1.34112 2.56293 2.70702 2.79794C2.67533 4.06137 2.2985 4.11876 1.05216 4.14287ZM0 4.87201C1.47221 4.86282 3.04756 5.04877 3.46963 3.86166C4.23253 1.71556 2.31607 2.37354 1.41143 1.68314C1.69377 0.200472 1.19016 0.998765 2.41864 0.767484C3.67477 0.531038 3.4342 1.3035 3.50652 0.0759363C1.72661 0.0816753 1.04438 -0.421347 0.676756 1.08858C0.405362 2.20481 0.158457 3.68834 0 4.87201Z" transform="translate(113.572 3.68164)" fill="#CF2520"/>
<path fill-rule="evenodd" clip-rule="evenodd" d="M2.55663 3.97233L0.903206 4.02972C0.70355 2.00816 0.831753 0.484751 2.98475 0.734397C3.34776 2.1195 3.04871 2.86614 2.55663 3.97233ZM0.2639 4.5557C3.24261 5.26934 4.57105 3.5267 3.79894 0.441709C0.973502 -1.09203 -0.673013 1.63283 0.2639 4.5557Z" transform="translate(63.1602 3.78931)" fill="#CF2520"/>
<path fill-rule="evenodd" clip-rule="evenodd" d="M0.359298 4.81759L0.662383 4.51228C0.967774 3.91714 0.673617 4.65259 0.902948 3.88558C1.0568 3.37051 0.972959 3.33578 1.22361 2.75844L2.90902 2.67293C2.88972 2.83535 2.70533 3.68328 2.70129 3.73493C2.54255 5.73439 2.50625 4.15129 2.95223 4.81874C3.50683 4.41443 3.2095 5.5011 3.74999 2.71224L4.10032 0.753815C4.02052 0.0571029 3.99978 0.336304 3.81683 0C3.37431 0.446206 3.6261 -0.0714505 3.29709 0.813788C3.11357 1.30763 3.28816 1.25052 2.95252 1.88612L1.29765 1.91883C1.45438 0.905612 1.75948 0.689826 1.2239 0.0146343C0.578259 0.483222 0.312331 2.27235 0.125064 3.45343C-0.144602 5.15102 0.0628387 4.42476 0.359298 4.81759Z" transform="translate(84.5171 3.7356)" fill="#CF2520"/>
<path fill-rule="evenodd" clip-rule="evenodd" d="M0 4.81816C1.20716 4.4084 0.475085 5.41818 0.978114 3.81413C1.3757 2.54553 0.683672 3.27466 1.63384 2.63305C3.58862 3.287 1.6978 3.76649 3.07436 4.79894C3.35699 4.4127 3.50651 5.37456 3.37975 3.63249C3.33855 3.06634 3.0804 2.7131 3.16453 2.23849C3.27459 1.61811 4.04527 1.18826 4.1464 0.00516526C2.31348 0.293262 3.78569 1.74494 1.34314 1.92514C1.50822 0.951237 1.77731 0.672035 1.34602 0C0.288967 0.473753 0.159898 3.60064 0 4.81816Z" transform="translate(71.7183 3.75513)" fill="#CF2520"/>
<path fill-rule="evenodd" clip-rule="evenodd" d="M0 4.77082C3.49124 4.6196 0.636421 0.631575 3.69436 0.741764L2.98043 4.64513C4.13169 4.73495 3.41864 5.08847 3.82803 4.33092C3.858 4.27612 4.10461 3.02272 4.13688 2.8517C4.32875 1.83533 4.5771 1.03503 4.52524 0C0.394694 0.0344339 2.50995 -0.173891 1.07548 3.26749C0.492073 4.6678 0.514554 3.56334 0 4.77082Z" transform="translate(105.058 3.75586)" fill="#CF2520"/>
<path fill-rule="evenodd" clip-rule="evenodd" d="M0.244586 4.81099C0.911835 4.3975 0.487171 5.10253 0.838946 3.93752C1.07433 3.1573 0.717362 3.43363 1.39729 2.65084C3.18872 3.02071 1.8208 3.35616 2.83781 4.79033C2.97811 4.71802 4.0441 5.28159 2.85366 2.15155C3.61598 1.36875 3.69895 1.30763 4.11497 0C1.81561 0.70733 3.89515 1.67923 1.25439 1.96962C1.26966 1.85857 1.41861 1.09528 1.41631 1.03216C1.35033 -0.72713 1.55747 0.735164 1.10918 0C0.514537 0.680357 0.261871 2.33548 0.0797889 3.50365C-0.11036 4.72089 0.077774 4.52835 0.244586 4.81099Z" transform="translate(67.6338 3.74292)" fill="#CF2520"/>
<path fill-rule="evenodd" clip-rule="evenodd" d="M0.164606 4.77483C0.974754 4.36478 0.463658 5.09134 0.857496 3.72374C1.30175 2.18254 0.448389 2.84481 1.89323 2.65629L2.21475 2.95558C3.06668 4.76852 1.89064 4.14728 3.04564 4.78172C3.51439 3.93895 3.24444 3.00235 2.85463 2.22529C3.37063 1.67004 3.92724 0.904177 4.05545 0.0252516C1.87105 0.184508 4.06611 1.71997 1.24039 1.95585C1.34526 1.09356 1.60743 0.601732 1.31702 0C0.381837 0.333148 0.580918 0.987106 0.382126 2.08698C0.162591 3.29791 -0.220877 3.99261 0.164606 4.77483Z" transform="translate(101.422 3.75952)" fill="#CF2520"/>
<path fill-rule="evenodd" clip-rule="evenodd" d="M1.27226 2.57939L2.52869 2.7441C2.76205 4.1203 2.56528 4.1094 0.942677 3.99892L1.27226 2.57939ZM0 4.74528L2.57335 4.71314C2.74736 4.6414 5.32358 1.93949 1.40335 1.88325C1.49612 0.912212 1.78279 0.65281 1.42064 0C0.275715 0.391973 0.166812 3.52919 0 4.74528Z" transform="translate(88.9297 3.76807)" fill="#CF2520"/>
<path fill-rule="evenodd" clip-rule="evenodd" d="M1.71681 2.18942C1.15818 3.25257 0.363299 3.87812 0 4.77082C1.53041 4.70654 1.09364 4.18056 2.2256 3.12C2.67447 4.45202 2.44254 4.7427 3.64682 4.70367L2.75773 2.21926C3.76926 1.15612 4.01329 0.947219 4.35815 0C2.69982 0.20689 3.59553 0.291254 2.47078 1.49271C1.65026 0.545491 2.30771 0.041034 1.02421 0.0553814L1.71681 2.18942Z" transform="translate(58.6694 3.75708)" fill="#CF2520"/>
<path fill-rule="evenodd" clip-rule="evenodd" d="M0 4.77369C1.24893 4.80898 2.14752 4.99349 3.0297 4.48731C2.43851 4.01471 3.93349 4.17339 1.06714 4.02848L1.17403 2.66719C2.30512 2.64911 2.70126 2.97222 3.15791 2.19172C2.48115 1.84078 2.91878 2.13261 2.34142 1.98253C0.486611 1.50017 3.46243 2.43448 1.84501 1.85828L1.41286 1.61753C2.04554 -0.597715 2.97784 1.76818 3.74074 0.182787L1.04524 0L0 4.77369Z" transform="translate(75.9014 3.74683)" fill="#CF2520"/>
<path fill-rule="evenodd" clip-rule="evenodd" d="M1.26535 3.90997C-0.0590618 4.53581 0.546821 3.80638 0 4.85088C1.92655 4.83251 1.78682 4.21844 2.5428 2.93033C3.07954 2.01582 3.94414 0.972184 4.07091 0C2.53013 0.257106 3.38867 1.1059 1.67474 2.60349C1.55806 1.47262 1.70385 0.0883805 0.521467 0.0559553L1.26535 3.90997Z" transform="translate(109.866 3.74414)" fill="#CF2520"/>
<path fill-rule="evenodd" clip-rule="evenodd" d="M0 4.04622L1.18064 4.06142L2.20226 0.00224046C0.446556 0.0561869 0.806687 -0.336646 0.467589 1.45736C0.301064 2.33887 0.10631 3.14692 0 4.04622Z" transform="translate(150.623 18.499)" fill="#CF1A20"/>
<path fill-rule="evenodd" clip-rule="evenodd" d="M0 3.81901C1.07664 3.79749 1.63614 4.0919 1.9156 0C1.01787 0.335731 0.916748 0.512778 0.545382 1.56072C0.283784 2.30076 0.0570446 2.98399 0 3.81901Z" transform="translate(92.9336 18.676)" fill="#CF1A20"/>
<path fill-rule="evenodd" clip-rule="evenodd" d="M0 4.82075C1.10056 4.47354 0.481422 5.23854 0.93144 4.12547C0.932305 4.12346 1.16682 2.77136 1.19563 2.62272C1.39644 1.5765 1.80987 0.689252 1.31001 0C0.367332 0.575907 0.169693 3.41756 0 4.82075Z" transform="translate(92.7856 3.74854)" fill="#CF2520"/>
<path fill-rule="evenodd" clip-rule="evenodd" d="M1.94671 0C0.643333 0.482935 0.166236 2.30564 0 3.8477L1.17028 3.8609L1.94671 0Z" transform="translate(135.027 18.6455)" fill="#CF1A20"/>
<path fill-rule="evenodd" clip-rule="evenodd" d="M0 3.82819L1.1141 3.82475L1.99771 0C0.645638 0.603741 0.176031 2.0801 0 3.82819Z" transform="translate(60.6846 18.6667)" fill="#CF1A20"/>
<path fill-rule="evenodd" clip-rule="evenodd" d="M0.318648 0.302705L0 1.85194C1.50131 1.77992 2.12419 1.55839 2.08875 0.114752C0.514842 -0.13432 0.773276 0.0653985 0.318648 0.302705Z" transform="translate(75.1973 25.7224)" fill="#CF1A20"/>
<path fill-rule="evenodd" clip-rule="evenodd" d="M0 1.61122C2.35899 1.61782 2.42094 0.00315644 0.468749 0C0.0731825 0.621532 0.0521468 0.708479 0 1.61122Z" transform="translate(76.917 18.2805)" fill="#CF1A20"/>
<path fill-rule="evenodd" clip-rule="evenodd" d="M2.25556 0C0.682224 0.487104 1.59206 0.760239 0 0.0442299C0.0532992 0.832328 0.0434987 1.1069 1.05734 1.10575C2.34919 1.1046 2.17691 0.753059 2.25556 0Z" transform="translate(81.4902 2.53784)" fill="#C1181E"/>
<path fill-rule="evenodd" clip-rule="evenodd" d="M2.2475 0.00602591C0.741578 0.570742 1.44945 0.650514 0 0C0.0896003 1.6996 1.90926 1.34005 2.2475 0.00602591Z" transform="translate(96.3989 2.56299)" fill="#C6191F"/>
</svg>
