<svg width="89" height="71" viewBox="0 0 89 71" fill="none" xmlns="http://www.w3.org/2000/svg">
<path fill-rule="evenodd" clip-rule="evenodd" d="M15.5999 47.5049L14.8814 47.943C15.0165 46.6949 14.8086 47.6128 15.3998 47.2839C17.1267 45.9682 19.3122 42.4618 20.9078 41.4491C21.6536 42.0978 22.7827 43.3849 23.0452 44.1727C22.0902 44.8917 16.8642 47.2461 15.5999 47.5049ZM19.0497 12.998L20.7155 13.1631C20.453 14.7219 19.9242 16.3366 19.1679 17.2844L19.0497 12.998ZM27.1446 5.65124L27.5383 6.7108C27.6397 7.55586 27.5435 7.22954 27.3915 7.85748L24.4147 8.08629C23.1465 8.2488 20.9494 8.78314 19.155 9.07436C12.8817 10.0962 14.107 12.2427 17.2683 20.0276C18.873 23.9811 17.0487 25.8793 15.2049 28.4846C14.2356 29.8536 13.508 30.9275 13.4261 32.9322C13.278 36.5425 11.9488 37.4279 9.81136 41.4933C7.95849 45.0165 9.59827 44.9476 10.0193 45.7302C9.27213 47.1876 8.04555 47.8104 7.1529 49.4459C6.44865 50.7369 5.81977 52.4166 5.34941 53.8753C3.74472 58.8572 3.61218 58.8234 0 61.2364C0.0896549 63.7078 6.67474 71.0754 8.10662 69.787L8.21966 68.9849C8.05335 68.1138 7.22956 68.0891 6.7514 65.4681C5.44816 58.3346 7.03206 57.8509 10.6598 52.3555C11.5837 53.8701 11.3849 59.1796 13.8484 59.2628C14.389 57.6325 13.4599 57.4934 13.9667 55.9476C14.272 55.0155 14.8229 54.615 15.1413 53.4072C15.5896 51.7054 15.3778 51.7392 16.7005 50.8838C20.8948 48.1731 28.9027 49.4979 31.9535 46.795C35.9373 43.2653 26.5716 34.309 26.3014 31.3188C26.1208 29.3349 27.2538 26.7529 28.4479 25.744C29.3145 25.4086 30.7295 25.4034 31.7521 25.0706L40.4032 22.1402C40.2615 20.5294 40.1303 20.6113 39.7288 19.4958C39.3793 19.3515 39.5118 19.4386 39.0492 19.1474C38.9973 19.1149 38.8777 19.0863 38.8387 18.9667C38.7985 18.8445 38.7023 18.8341 38.6335 18.7678L38.6828 18.604C35.0148 18.8081 38.1761 20.3565 35.1395 21.3134C33.5699 21.8087 31.7456 21.9361 30.0539 21.615C31.6118 16.4692 31.7534 18.0514 30.9361 11.0804C32.4278 9.82191 31.5845 10.338 33.8843 9.7244C35.2603 4.88158 35.6424 9.02236 34.9056 3.28898C34.6977 1.67558 34.3729 1.37786 33.1801 0.691412C31.7378 -0.138043 30.7672 -0.0652378 29.017 0.118074C26.6795 2.57523 27.1316 1.41686 27.1446 5.65124Z" transform="translate(48.5967 0.456543)" fill="#ED2124"/>
<path fill-rule="evenodd" clip-rule="evenodd" d="M12.5257 15.6021C12.1632 15.9154 12.744 15.6229 11.8695 16.0298C11.3251 16.2833 11.9384 16.0402 11.1471 16.1403L11.6772 15.3876C12.5673 11.8565 20.1671 1.61447 13.408 0.120671C10.2726 -0.570974 8.7342 1.84588 6.08354 3.92212L0 9.13806C0.524936 10.0221 0.596398 10.1859 1.32013 10.6202L10.5845 2.94056C8.67963 8.51792 4.27745 13.9367 6.49673 17.0699C9.03305 20.6477 17.3904 16.6304 21.3742 16.0051C20.7791 17.0738 17.9427 19.1396 16.7083 20.1693C15.6441 21.0585 12.9571 23.0607 12.3399 24.0604C13.3937 25.4606 14.8853 27.0636 15.9911 28.3936C16.4094 28.2259 26.851 20.4124 27.2655 17.8603C27.8892 14.0147 24.6395 12.6483 21.3119 13.5219C19.3551 14.0368 14.259 15.5774 12.5257 15.6021Z" transform="translate(26.396 29.8733)" fill="#005892"/>
<path fill-rule="evenodd" clip-rule="evenodd" d="M0.578235 8.37829C-0.826358 10.6989 0.402823 11.1527 3.45369 14.8826C5.13374 16.9367 6.71635 18.6217 8.29245 20.6472C9.66716 22.4114 11.5317 24.9973 15.1647 24.1795C17.6867 23.6114 19.9346 20.98 18.9406 17.5075C17.7608 13.3849 8.35482 7.29272 11.5421 4.93957C13.5535 3.45357 15.0724 6.29815 17.4165 9.01923C18.2558 9.99299 21.4925 14.1936 22.4345 14.5992C24.5083 12.5906 22.6892 11.5349 20.0502 8.25738C18.3845 6.18895 16.6524 4.40653 15.0763 2.31339C10.769 -3.40698 2.14525 2.56431 6.3993 8.5018C7.32054 9.78758 13.2975 16.4622 13.5782 17.2761C14.1707 18.9857 12.7869 20.3807 11.0523 19.7956C8.85507 19.052 2.8313 8.94513 0.578235 8.37829Z" transform="translate(4.34326 2.24585)" fill="#005892"/>
<path fill-rule="evenodd" clip-rule="evenodd" d="M7.98337 1.36379C9.36068 4.33058 7.89632 4.27338 6.1448 5.80748C4.63756 7.12707 3.47204 7.97472 1.92712 9.38791C-2.70765 13.6249 2.29354 16.4383 3.69813 19.1658C4.88963 18.8018 4.83116 18.7719 5.64585 17.8229C4.40107 14.492 1.99079 16.7802 9.46203 10.3773C11.133 8.94588 13.0521 7.27787 14.7309 6.05969C14.2995 4.95982 10.4781 0.504433 9.73229 0C8.83444 0.46283 8.7214 0.802152 7.98337 1.36379Z" transform="translate(20.7896 18.0686)" fill="#ED2124"/>
<path fill-rule="evenodd" clip-rule="evenodd" d="M2.99293 4.98778C3.58673 4.33253 3.42951 4.29613 4.0571 4.78496C3.98563 4.86167 4.02201 5.03068 3.70238 5.10868C2.38744 5.4272 3.36455 5.3167 2.99293 4.98778ZM1.48179 4.60035C1.80013 3.7605 1.51818 3.7865 2.18084 4.36374L1.48179 4.60035ZM3.18394 3.29377C2.75385 3.58889 1.92487 2.99735 2.99943 4.24153C3.60103 3.34967 3.30218 3.93991 3.18394 3.29377ZM4.35595 4.28313C4.52356 3.07405 4.2546 3.65259 5.19403 3.34577C4.57164 5.16329 4.71327 4.04262 4.35595 4.28313ZM0.915278 3.8723C1.43762 3.8333 1.079 4.00491 1.41553 3.7462C2.18604 3.15466 1.45581 3.47188 1.33237 3.30027L0.915278 3.8723ZM3.24111 2.84914C3.76864 2.85954 3.61922 2.3083 3.97134 3.00775C4.29228 3.64479 4.09218 3.07145 3.8466 3.46148L3.24111 2.84914ZM1.75466 2.51892C1.91318 2.44481 1.4779 1.76747 2.12107 2.49161C2.48359 2.89984 2.21852 2.55142 2.41732 3.13516C1.48959 2.72693 1.79364 2.58262 1.75466 2.51892ZM3.17744 2.36031C3.00203 0.956214 3.29828 1.74927 2.51088 1.66866C2.88119 2.84004 2.62522 2.2121 3.17744 2.36031ZM0.646315 2.39151C1.76505 2.2264 1.19854 2.44481 1.56625 1.37744C0.871102 1.73626 0.708684 1.38524 0.646315 2.39151ZM3.92586 1.35014C5.36684 1.09532 3.6543 1.09012 4.33776 1.66736L3.54515 1.55555L3.92586 1.35014ZM1.77025 0.931513C1.77804 0.938013 1.36355 2.16269 2.83441 0.841806C2.04571 0.382876 2.53037 0.499884 1.77025 0.931513ZM0.272103 4.05302H0.725574L0.915278 3.8723C1.24921 4.69006 0.339669 4.04261 1.48179 4.60035L1.16995 4.99428V5.3479C3.63351 6.59338 6.0347 4.85127 5.80991 2.80493C5.641 1.26043 5.75924 2.2524 5.38113 1.84807L5.34345 2.10549C5.38243 2.98695 5.69557 2.40971 5.18233 2.90634C5.16804 2.89334 4.78083 2.80753 4.67948 2.55662C4.07269 2.19129 3.94795 3.09875 4.15325 2.08599L5.03031 1.81297C4.99652 1.73366 4.93416 1.62836 4.90947 1.58285C4.88608 1.54125 4.81851 1.42034 4.79253 1.37354C4.77044 1.33454 4.70547 1.24093 4.68468 1.20453L4.54825 0.762501C4.47029 0.666295 4.70417 -0.144958 2.73047 0.0227528C0.161659 0.241167 -0.426945 2.76073 0.272103 4.05302Z" transform="translate(34.0698 16.2373)" fill="#F05152"/>
<path fill-rule="evenodd" clip-rule="evenodd" d="M0 5.83608L0.200098 6.0558C1.46566 5.79838 6.69163 3.44393 7.64405 2.72368C7.38158 1.93713 6.25246 0.648742 5.50663 0C3.91233 1.01407 1.72683 4.5204 0 5.83608Z" transform="translate(63.9951 41.9043)" fill="#FBFDFF"/>
<path fill-rule="evenodd" clip-rule="evenodd" d="M0.556121 0.615951C1.30584 0.924072 0.83678 -0.057493 1.29285 1.23999C0.358621 2.30086 0.392402 1.65212 0 2.76629C1.25257 2.57388 1.03818 2.10845 1.60599 2.02264C2.40119 1.90303 1.57741 1.83023 2.13093 2.23846C2.12703 2.25406 1.14343 3.45534 0.982306 3.73615C1.56701 4.459 1.15512 4.27439 2.06466 4.72942L1.68915 3.74266C2.23358 3.41373 2.192 3.60745 2.63767 3.92727C2.62468 3.81546 2.56491 3.33703 2.56491 3.33703C2.64677 2.74029 2.51553 3.23042 2.73902 2.9002L3.67715 3.45534L1.54752 0.570449C1.1863 0.184324 1.41629 0.488543 1.10574 0.0426141C-0.0506735 -0.0392912 1.00439 -0.0483914 0.540528 0.43914L0.556121 0.615951Z" transform="translate(12.189 27.1614)" fill="#457FA6"/>
<path fill-rule="evenodd" clip-rule="evenodd" d="M3.5771 3.79105C3.7603 3.45433 3.67845 3.40622 3.89414 3.1007L2.95991 3.1046C1.32143 2.40516 4.1605 2.92389 1.35262 0C1.32793 0.0416027 1.30194 0.114408 1.29545 0.13391L1.16421 0.591536C0.766614 1.5081 0.57561 1.09337 0 2.28685C1.34092 1.67711 1.08105 1.21298 2.36611 1.4795C2.04127 2.04893 2.32843 1.66411 1.93472 2.09963C1.87236 2.16854 1.65407 2.33625 1.5904 2.39996L1.30844 3.1293C3.1795 3.30091 2.39599 3.55833 2.03867 4.5919C2.93392 4.31108 2.94302 4.24478 3.5771 3.79105Z" transform="translate(33.2217 52.7627)" fill="#3A78A3"/>
<path fill-rule="evenodd" clip-rule="evenodd" d="M0.11824 4.28638C0.874459 3.33862 1.4033 1.72391 1.66576 0.165111L0 0L0.11824 4.28638Z" transform="translate(67.6465 13.4546)" fill="#FEF7FA"/>
<path fill-rule="evenodd" clip-rule="evenodd" d="M0.83678 1.19218C1.45267 0.754049 -0.163718 0.730646 1.47086 0.833353C1.64367 1.12587 1.62678 1.14797 1.81779 1.46519L2.26086 2.13214C0.948522 2.42076 0.709443 3.57653 2.81568 3.65714C2.32843 2.95249 3.72652 3.18001 2.10364 3.1085C2.52593 2.00083 2.73772 2.83808 3.19119 1.564C1.40459 0.613639 2.51423 0.985464 1.67356 0C-0.487255 1.45479 0.3963 0.631837 0 1.73171L0.83678 1.19218Z" transform="translate(26.9761 45.8721)" fill="#3A78A3"/>
<path fill-rule="evenodd" clip-rule="evenodd" d="M0.727917 1.69661C0.479742 0.413427 2.10392 -0.494033 1.86095 1.79282L0.727917 1.69661ZM1.63226 2.48446C2.03766 2.24005 1.99348 2.28945 2.23516 2.03073C2.28973 1.97223 2.5548 1.5939 2.60807 1.5042L2.22087 0L0.478443 0.00260122C-0.385622 1.4756 -0.124455 2.33235 1.63226 2.48446Z" transform="translate(20.6162 38.364)" fill="#3A78A3"/>
<path fill-rule="evenodd" clip-rule="evenodd" d="M1.22634 0.257419L0.00754746 1.03747C0.032235 1.85262 -0.176959 1.68881 0.61954 1.5458C1.02624 1.07127 0.745578 1.29879 1.36667 0.971165L1.13408 3.0721C2.47631 2.58587 2.80374 2.05413 2.94927 1.27148L1.78116 1.98263L1.97606 0L1.22634 0.257419Z" transform="translate(37.5083 58.3633)" fill="#3276A0"/>
<path fill-rule="evenodd" clip-rule="evenodd" d="M1.9789 0.656425L2.16211 1.8681C1.1967 2.09952 1.30714 2.10602 0.630184 1.68609C0.751023 0.712328 0.930333 0.544617 1.9789 0.656425ZM0.819888 2.39334C1.92043 2.67026 2.28295 2.23083 2.7871 1.8005C2.53373 0.505616 2.26216 -0.0287171 0.865365 0.00118487C0.214393 0.574522 0.458669 0.157195 0 1.23887L0.819888 2.39334Z" transform="translate(35.9346 56.5513)" fill="#3677A1"/>
<path fill-rule="evenodd" clip-rule="evenodd" d="M1.60725 1.09857C1.43834 1.30139 0.966674 1.4756 1.44223 1.04267C1.52409 0.967263 2.36997 0.191113 1.60725 1.09857ZM0.0142538 1.12847C0.0142538 1.69791 -0.123477 1.5523 0.457331 1.5354L0.605456 2.70808C0.688615 2.63787 0.805556 2.42336 0.854931 2.49616L2.38036 1.24938C2.02564 0.123509 2.29591 0.482331 1.39416 0L0.0142538 1.12847Z" transform="translate(4.17578 18.4141)" fill="#3A78A3"/>
<path fill-rule="evenodd" clip-rule="evenodd" d="M1.31234 1.5146C0.435281 2.06583 0.960217 1.74471 0.601597 1.43529C1.29935 0.971162 0.845874 1.18958 1.31234 1.5146ZM1.43838 0.822953C1.42798 0.349722 1.73333 0.250915 1.90744 0.861955C2.13223 1.65111 1.44487 1.15187 1.43838 0.822953ZM1.47346 2.38175C1.86196 1.68621 2.15821 1.69271 2.48955 0.821653L1.92563 0C0.908243 0.128708 0.43658 0.572037 0 1.44569C0.563916 2.13994 0.558719 2.21144 1.47346 2.38175Z" transform="translate(1.64111 15.7217)" fill="#3677A1"/>
<path fill-rule="evenodd" clip-rule="evenodd" d="M1.77491 1.09467C1.49815 1.44699 1.12913 1.4795 1.68005 0.923059C1.9854 0.614939 2.17511 0.586337 1.77491 1.09467ZM0 1.27408L0.374212 1.66671C1.01349 2.02033 0.541828 1.20258 0.878359 1.92673C0.953721 2.64957 0.73673 2.51046 1.37471 2.51046C1.94642 0.964662 1.56311 2.66647 2.54282 1.21818C2.11144 0.0819057 2.43757 0.579838 1.61249 0C1.55012 0.0546036 0.93293 0.648742 0.83288 0.731947C0.285856 1.19478 0.63668 0.962062 0 1.27408Z" transform="translate(14.2529 30.6167)" fill="#3A78A3"/>
<path fill-rule="evenodd" clip-rule="evenodd" d="M0.69515 0.672144L0 1.69921L1.1889 1.06087L0.899147 3.0058L2.79359 1.95923C2.79359 1.20518 2.9781 1.36379 2.23228 1.4938L1.62288 2.06324L1.99709 0L0.69515 0.672144Z" transform="translate(7.48145 22.4353)" fill="#3A78A3"/>
<path fill-rule="evenodd" clip-rule="evenodd" d="M1.64264 1.18048C1.23465 1.06867 1.39836 1.18568 1.13849 0.882759C1.9285 0.59414 1.57377 0.328923 1.64264 1.18048ZM0.071731 0.933464C0.0067637 1.66021 -0.177745 1.5237 0.512208 1.45479C0.531698 1.5562 0.59147 1.98393 0.594069 1.99433C0.734398 2.49096 0.746092 2.39606 0.873428 2.58587C1.59067 0.620143 2.79776 2.56247 1.93629 0C0.855236 0.197613 0.744792 0.484935 0.071731 0.933464Z" transform="translate(30.5347 49.8308)" fill="#3273A0"/>
<path fill-rule="evenodd" clip-rule="evenodd" d="M1.26036 1.36639C1.5787 0.583736 1.13823 0.960761 2.11793 0.670842L1.26036 1.36639ZM0 0.709848C0.344327 1.04267 -0.0103966 0.847657 0.580806 1.17918C1.15772 1.5042 0.719837 1.22338 1.26036 1.36639V2.59107C1.80219 2.18024 1.69305 2.42856 2.15431 1.5627C2.47915 0.955562 2.50644 0.787851 2.56881 0L0 0.709848Z" transform="translate(31.4077 51.7068)" fill="#3A78A3"/>
<path fill-rule="evenodd" clip-rule="evenodd" d="M1.28375 0.877556C1.34742 0.232714 1.76451 0.833353 1.76711 0.846354C1.86846 1.34429 1.24347 1.28708 1.28375 0.877556ZM0 0.551236C0.713341 1.72911 0.0480753 -0.110508 1.35912 2.05023C1.40329 2.12304 1.46826 2.23095 1.50464 2.29205C1.54102 2.35315 1.60209 2.45716 1.66316 2.53256C2.06726 1.33519 2.51423 1.34169 2.46876 0L0 0.551236Z" transform="translate(17.0981 34.7017)" fill="#3C7AA4"/>
<path fill-rule="evenodd" clip-rule="evenodd" d="M0.223488 1.02837L0 2.11134L1.03298 2.58587L0.662666 1.64721C1.35002 1.41319 1.42148 1.89422 1.66836 1.08297C1.67616 1.05827 1.69565 0.949062 1.70084 0.929561C1.70604 0.907459 1.71774 0.820354 1.74242 0.770951C2.07246 1.01927 2.23877 1.11807 2.67795 1.34039L1.84897 0C0.780907 0.414727 1.03038 0.336722 0.223488 1.02837Z" transform="translate(2.89111 17.075)" fill="#3C7AA4"/>
<path fill-rule="evenodd" clip-rule="evenodd" d="M1.56961 0.676042C2.02308 0.566835 1.23178 1.4951 1.27726 0.848955C1.34612 -0.111807 0.528834 0.929559 1.56961 0.676042ZM0.687354 0.157311C0.614591 0.231415 0.402797 0.474531 0.35732 0.527835C0.315741 0.574638 0.211794 0.791751 0.18061 0.737147C0.148126 0.679944 0.0623686 0.885356 0 0.955561C1.17331 0.871055 0.866664 0.975062 1.22268 1.538C1.23958 2.27905 1.00699 2.18544 1.54362 2.18544C1.54362 2.06713 1.66316 1.76291 1.68655 1.86172C1.70344 1.93713 1.82428 1.75121 1.88795 1.69011L2.61688 0L0.687354 0.157311Z" transform="translate(5.79883 21.3123)" fill="#3C7AA4"/>
<path fill-rule="evenodd" clip-rule="evenodd" d="M1.34742 1.00887C0.994 1.5146 0.699048 1.01667 1.03818 0.72675C1.51634 0.317223 1.68525 0.526536 1.34742 1.00887ZM0 0.529136L0.591202 1.19608C1.05767 1.98263 0.860166 1.33779 0.835479 2.47016C0.917338 2.41426 1.46956 2.11914 1.52413 2.08014C1.93603 1.16098 2.15562 1.03097 2.07766 0L0 0.529136Z" transform="translate(24.0342 42.51)" fill="#3A78A3"/>
<path fill-rule="evenodd" clip-rule="evenodd" d="M1.67356 0.759249C0.870562 1.6082 2.20889 0.988061 1.17851 1.01666C-0.00129987 1.05047 1.68395 1.5991 0.804294 0.60454L1.67356 0.759249ZM0 0.507032C1.62288 0.578537 0.226087 0.351023 0.712042 1.05567L0.808193 2.26344L1.53063 2.03593C1.90094 1.12327 2.13093 1.02447 1.97111 0L0 0.507032Z" transform="translate(29.0781 48.4734)" fill="#3677A1"/>
<path fill-rule="evenodd" clip-rule="evenodd" d="M0 0.804752L0.561319 0.656544C0.596401 2.17634 0.644475 1.04657 0.253372 1.4847C0.124737 2.49356 -0.105247 2.32455 0.356021 2.74318L0.934229 2.58067C1.7827 1.77851 1.55792 2.33495 2.11794 1.28578C1.23698 1.5276 1.76581 1.30008 1.26037 1.65241C0.760119 2.18414 1.82948 1.80842 0.765316 2.16204C0.0506754 0.852856 0.718539 1.72521 0.787405 1.5705L1.1902 0C0.142929 0.30552 0.93293 0.0312019 0.284557 0.438128C0.232583 0.46933 0.157221 0.672145 0.12084 0.616241C0.0857574 0.566838 0.0480758 0.748848 0 0.804752Z" transform="translate(23.0918 40.1384)" fill="#206E9D"/>
<path fill-rule="evenodd" clip-rule="evenodd" d="M2.30114 1.5094L2.35312 0.960763C1.85806 0.30682 2.15042 0.590238 1.37211 0C0.942027 0.76965 1.81779 -0.0416025 0.627585 1.33129C-0.0922526 2.16204 0.478159 1.21688 0 2.29335C1.50074 1.4951 1.43838 1.30919 2.30114 1.5094Z" transform="translate(18.8574 35.6521)" fill="#417AA4"/>
<path fill-rule="evenodd" clip-rule="evenodd" d="M0 1.05987C0.676959 1.4798 0.566513 1.4733 1.53193 1.24188L1.34872 0.0302055C0.300149 -0.0816017 0.120839 0.0861089 0 1.05987Z" transform="translate(36.5649 57.1772)" fill="#FBFDFF"/>
<path fill-rule="evenodd" clip-rule="evenodd" d="M0 1.29358L0.144227 1.74731L0.916039 1.31699L1.51114 0.751448L1.50984 1.5198L1.85677 1.512L1.95032 0C0.645775 0.331522 1.02259 0.512232 0 1.29358Z" transform="translate(15.6011 32.1743)" fill="#3677A1"/>
<path fill-rule="evenodd" clip-rule="evenodd" d="M0 2.43506L2.9768 2.20624C3.12883 1.5783 3.22498 1.90462 3.12363 1.05957L2.72992 0L2.83517 1.70051C1.47476 2.22055 0.925134 1.4678 0 2.43506Z" transform="translate(73.0127 6.10791)" fill="#F48989"/>
<path fill-rule="evenodd" clip-rule="evenodd" d="M0.374212 1.83052C1.01089 1.5185 0.661367 1.74991 1.20839 1.28708C1.30714 1.20388 1.92433 0.60974 1.988 0.555136L1.04987 0C0.826385 0.331522 0.957618 -0.159912 0.875759 0.436827C0.875759 0.436827 0.93553 0.915258 0.948523 1.02707C0.502848 0.708545 0.544426 0.513532 0 0.842453L0.374212 1.83052Z" transform="translate(13.8784 30.0603)" fill="#E4ECF2"/>
<path fill-rule="evenodd" clip-rule="evenodd" d="M0.367715 1.81492L0.634081 1.69791L2.01529 0.569437C1.57611 0.347122 1.40979 0.248316 1.07976 0C1.05507 0.0494032 1.04337 0.136509 1.03818 0.15861C1.03298 0.179411 1.01219 0.288619 1.00569 0.31202C0.758818 1.12327 0.686055 0.642242 0 0.876257L0.367715 1.81492Z" transform="translate(3.55615 17.8459)" fill="#E5EAEF"/>
<path fill-rule="evenodd" clip-rule="evenodd" d="M0 1.18308C0.532732 1.69531 -0.452172 1.83832 0.732831 1.512L1.31884 0.980263C1.36951 0.965963 1.44747 0.889259 1.47086 0.946463C1.49945 1.01797 1.62158 0.950361 1.66186 0.963362C1.72553 0.984163 2.09455 1.13367 2.1855 1.18308L2.22188 0L0 1.18308Z" transform="translate(10.0518 25.8506)" fill="#196B9A"/>
<path fill-rule="evenodd" clip-rule="evenodd" d="M0.511941 0.700735C0.449573 0.78264 0.242976 1.15057 0.205295 1.22987C0.162417 1.31958 0.122138 1.6095 0.0909538 1.56269C0.0584702 1.51199 0.029885 1.80711 0 1.92801L0.441778 2.16723L0.705544 1.85521L0.517138 1.38978L1.68395 0.510922C1.68395 -0.172922 1.84247 -0.00130848 1.13303 0.081897L0.511941 0.700735Z" transform="translate(25.4253 43.9023)" fill="#3273A0"/>
<path fill-rule="evenodd" clip-rule="evenodd" d="M0.026125 1.30746L1.15915 1.40366C1.40213 -0.883186 -0.223349 0.0242738 0.026125 1.30746Z" transform="translate(21.3179 38.7529)" fill="#FBFDFF"/>
<path fill-rule="evenodd" clip-rule="evenodd" d="M0 1.78276L0.0285854 2.01547L2.25177 0.833698C1.7762 -0.610696 2.17121 0.324063 1.55792 0.0380441C1.22788 0.948103 1.52283 0.495675 0.991401 1.02871C0.727634 1.29393 0.510643 1.30953 0 1.78276Z" transform="translate(10.0229 25.0198)" fill="#CBDAE3"/>
<path fill-rule="evenodd" clip-rule="evenodd" d="M0 1.73951C1.17071 1.21948 1.70474 1.07907 1.96071 0C1.48125 0.180712 1.3812 0.189813 0.965414 0.479732C-0.170214 1.27408 0.461268 0.674744 0 1.73951Z" transform="translate(1.08252 15.0056)" fill="#2C739F"/>
<path fill-rule="evenodd" clip-rule="evenodd" d="M1.5969 0.718946L1.58 0.539534L1.50334 0.469331C1.2032 0.782651 1.54752 0.851554 0.965414 0.991963L0.250774 0L0 1.77201C0.952421 1.551 1.26816 1.36769 1.5969 0.718946Z" transform="translate(11.1484 27.0586)" fill="#2C739F"/>
<path fill-rule="evenodd" clip-rule="evenodd" d="M0.133963 0.975064C-0.0102648 1.73041 -0.196072 1.5744 0.522467 1.5744L0.864195 1.21428C1.6399 0.549936 1.4528 1.00757 1.80362 0C0.61602 0.419927 1.03961 0.507033 0.133963 0.975064Z" transform="translate(5.38574 20.0002)" fill="#3273A0"/>
<path fill-rule="evenodd" clip-rule="evenodd" d="M1.26037 0.860657L1.94902 0.0663051L1.24607 0C0.661368 0.45893 0.367715 0.789153 0 1.5133C1.06287 1.20648 0.406696 1.5315 1.26037 0.860657Z" transform="translate(19.8345 37.5073)" fill="#29719F"/>
<path fill-rule="evenodd" clip-rule="evenodd" d="M0 1.15149L0.0662674 1.43881L0.843276 1.2464C0.891352 1.19049 0.929034 1.00848 0.962817 1.05919C0.999198 1.11509 1.07456 0.912277 1.12653 0.881075C1.77491 0.474148 0.984906 0.748464 2.03218 0.442944C1.47476 -0.0692897 2.84297 -0.10569 0.975811 0.172528C0.922537 0.262234 0.65747 0.640557 0.602897 0.699061C0.361219 0.957778 0.404097 0.908374 0 1.15149Z" transform="translate(22.2485 39.697)" fill="#A4BFD2"/>
<path fill-rule="evenodd" clip-rule="evenodd" d="M1.36561 1.69921L1.40329 0C1.0005 0.409527 0.935529 -0.512233 1.06286 1.34949C0.958917 1.29878 0.800397 1.09337 0.752321 1.19868C0.649673 1.42359 0.639278 0.809953 0 1.17398C0.81469 2.02423 0.865364 1.81882 1.36561 1.69921Z" transform="translate(0 14.1226)" fill="#4C82AA"/>
<path fill-rule="evenodd" clip-rule="evenodd" d="M0.427485 1.74471C0.939427 1.27148 1.15642 1.25588 1.42018 0.990666C1.95032 0.457631 1.65537 0.910059 1.9867 0L0 1.38069C0.539229 2.14774 -0.335231 1.4431 0.427485 1.74471Z" transform="translate(9.59521 25.0579)" fill="#2C739F"/>
<path fill-rule="evenodd" clip-rule="evenodd" d="M0.543127 1.5588C1.52413 0.865856 0.917337 1.39629 1.1902 0.664343L0.530133 0.755348L0.556119 0L0.187106 0.0077987L0 1.25718L0.543127 1.5588Z" transform="translate(16.5552 33.6943)" fill="#2C739F"/>
<path fill-rule="evenodd" clip-rule="evenodd" d="M1.14212 1.29618V0.941261L0.509344 0.741048L0.697747 0H0.244277L0 1.36249L1.14212 1.29618Z" transform="translate(34.0977 20.2903)" fill="#F48586"/>
<path fill-rule="evenodd" clip-rule="evenodd" d="M0.483356 1.14797L0.332633 1.4626L0.795202 1.44049L0.832882 1.18308L0.968014 0L0 0.0975061L0.136433 0.539535C0.157223 0.577238 0.22219 0.670843 0.244279 0.708545C0.270266 0.755348 0.33783 0.876256 0.361218 0.917859C0.388504 0.963362 0.449573 1.06867 0.483356 1.14797Z" transform="translate(38.6167 16.9023)" fill="#EE2D31"/>
<path fill-rule="evenodd" clip-rule="evenodd" d="M0.741926 1.28708L1.43708 0.260015L0.947223 0.152108C0.883555 0.213212 0.762716 0.399124 0.745824 0.323719C0.722436 0.224913 0.602896 0.529133 0.602896 0.647441C0.0662663 0.647441 0.29885 0.742348 0.281958 0L0 0.947762L0.741926 1.28708Z" transform="translate(6.74121 22.8477)" fill="#98B4C9"/>
<path fill-rule="evenodd" clip-rule="evenodd" d="M0.0259863 0.280937L0.740627 1.2729C1.32273 1.13379 0.977108 1.06359 1.27856 0.750267C0.701647 0.517552 0.673061 1.38471 0.866663 0.257533C0.775709 0.20813 0.406695 0.0586219 0.343027 0.0378206C0.302748 0.0248197 0.180609 0.0924235 0.152023 0.0209188C0.128635 -0.0362849 0.0493751 0.0404214 0 0.0547223L0.0259863 0.280937Z" transform="translate(11.373 26.7776)" fill="#85AAC3"/>
<path fill-rule="evenodd" clip-rule="evenodd" d="M0 0.162657L0.0831595 1.05272L1.17721 0.986356L0.586005 0.320112L0.578209 0L0 0.162657Z" transform="translate(23.4478 42.7195)" fill="#7EA7C2"/>
<path fill-rule="evenodd" clip-rule="evenodd" d="M0 0.227514L0.197499 1.11677C1.988 1.14278 0.619786 1.20258 1.15901 0.776151C0.469062 0.845055 0.65357 0.981568 0.718538 0.25482L0.721135 0L0 0.227514Z" transform="translate(29.8877 50.5095)" fill="#85AAC3"/>
<path fill-rule="evenodd" clip-rule="evenodd" d="M0.122552 0.409422C0.203112 0.464026 0.312257 0.451022 0.357734 0.57843C0.40581 0.714939 0.776123 0.869649 0.826798 0.903451C1.15683 1.12057 1.13864 1.13227 1.54663 1.34938L1.10356 0.682439C0.913853 0.365218 0.930744 0.343117 0.756632 0.0505978C-0.876646 -0.0521089 0.738442 -0.0287061 0.122552 0.409422Z" transform="translate(27.6899 46.6548)" fill="#95B5CA"/>
<path fill-rule="evenodd" clip-rule="evenodd" d="M0.652844 1.29228C0.715212 1.22078 0.80097 1.01537 0.833453 1.07387C0.864637 1.12847 0.968585 0.911361 1.01016 0.864558C1.05694 0.811254 1.26873 0.568138 1.3402 0.494034L1.10372 0.239216L0.761989 0.59934C0.0434505 0.59934 0.229257 0.755349 0.373485 0C-0.0734904 0.507033 -0.0994777 -0.175512 0.190276 0.737147C0.390376 1.37029 0.403369 1.10117 0.652844 1.29228Z" transform="translate(5.146 20.9753)" fill="#95B5CA"/>
<path fill-rule="evenodd" clip-rule="evenodd" d="M0 0.390024C0.262468 1.22988 0.276763 0.94386 0.556122 1.24028C0.586007 1.11807 0.613293 0.824254 0.647076 0.874957C0.67826 0.92176 0.718539 0.631841 0.761417 0.542135C0.799098 0.46283 1.00569 0.0962041 1.06806 0.0129987L0.688654 0C0.634082 0.0390025 0.0818588 0.334121 0 0.390024Z" transform="translate(24.8696 44.5901)" fill="#95B5CA"/>
<path fill-rule="evenodd" clip-rule="evenodd" d="M0 2.09143L0.129935 0.53653C1.87366 1.48429 0.687354 0.85895 1.04597 0.630135C-0.300149 -0.603645 0.0740628 0.346717 0.0376811 0.39222L0 2.09143Z" transform="translate(1.36523 13.7307)" fill="#2C739F"/>
<path fill-rule="evenodd" clip-rule="evenodd" d="M0 1.01498C1.11874 0.84972 0.552222 1.06833 0.919937 0C0.224787 0.359147 0.0623686 0.0078072 0 1.01498Z" transform="translate(34.7158 17.6145)" fill="#FEECE8"/>
<path fill-rule="evenodd" clip-rule="evenodd" d="M0.048115 0.383606C0.0559111 0.390112 -0.35858 1.6159 1.11228 0.293819C0.323577 -0.165524 0.808232 -0.0484108 0.048115 0.383606Z" transform="translate(35.7915 16.7854)" fill="#FDE4E1"/>
<path fill-rule="evenodd" clip-rule="evenodd" d="M0 0.938207C0.356021 0.696173 0.215692 1.81916 0.838079 0C-0.100049 0.307096 0.168915 -0.271962 0 0.938207Z" transform="translate(38.4258 19.5833)" fill="#FEEEEB"/>
<path fill-rule="evenodd" clip-rule="evenodd" d="M0.714641 0.656104C1.03428 0.57933 0.997899 0.410166 1.06936 0.33209C0.443079 -0.155881 0.599 -0.120747 0.00519889 0.535086C0.376812 0.865605 -0.600297 0.976213 0.714641 0.656104Z" transform="translate(37.0571 20.689)" fill="#FEECE8"/>
<path fill-rule="evenodd" clip-rule="evenodd" d="M0.632781 1.12197L0.944624 0.728047C-0.197502 0.17031 0.71204 0.819053 0.378108 0L0.188403 0.180712L0 0.92176L0.632781 1.12197Z" transform="translate(34.6064 20.1094)" fill="#ED2126"/>
<path fill-rule="evenodd" clip-rule="evenodd" d="M0.527529 0.948616C1.12783 0.0559542 0.830277 0.646724 0.712036 0C0.283252 0.296686 -0.54703 -0.295385 0.527529 0.948616Z" transform="translate(36.5415 19.531)" fill="#FDE4E1"/>
<path fill-rule="evenodd" clip-rule="evenodd" d="M0 0.893963L0.702944 0.960328C0.424884 -0.421606 0.574309 0.365653 0.129933 0L0.0779601 0.549131L0 0.893963Z" transform="translate(21.0806 36.6128)" fill="#92AEC5"/>
<path fill-rule="evenodd" clip-rule="evenodd" d="M0.661367 0.672747L0.648374 0.171766L0.372913 0L0.0259875 0.00910875L0 0.765138L0.661367 0.672747Z" transform="translate(17.0835 33.6851)" fill="#98B4C9"/>
<path fill-rule="evenodd" clip-rule="evenodd" d="M0.663965 0L0.201397 0.0221216L0 0.451536C0.102648 0.702679 0.488553 0.788561 0.502846 0.801574C1.01609 0.304494 0.702946 0.882252 0.663965 0Z" transform="translate(38.749 18.3442)" fill="#F48382"/>
<path fill-rule="evenodd" clip-rule="evenodd" d="M0 0.593374L0.762716 1.05011L1.9815 0.269361L1.96591 0C1.46306 0.430716 1.10055 0.870542 0 0.593374Z" transform="translate(36.7549 58.3516)" fill="#A7C1D1"/>
<path fill-rule="evenodd" clip-rule="evenodd" d="M1.37861 0.214708C0.0818598 0.476261 0.964116 0.456741 0.530134 0L0 0.753426C0.790002 0.653229 0.178013 0.895264 0.722438 0.64282C1.5982 0.235527 1.01609 0.528311 1.37861 0.214708Z" transform="translate(37.5435 45.261)" fill="#90B1C8"/>
<path fill-rule="evenodd" clip-rule="evenodd" d="M0.291052 0.828899C0.683455 0.390376 0.634081 1.52117 0.598999 0L0.0376802 0.148341L0 0.608986L0.291052 0.828899Z" transform="translate(23.0547 40.7954)" fill="#90B2C9"/>
<path fill-rule="evenodd" clip-rule="evenodd" d="M0.617981 0.744318L0.819378 0.314904L0.970104 0L0.0930436 0.273264C-0.114852 1.28694 0.0111864 0.377364 0.617981 0.744318Z" transform="translate(38.1309 18.0518)" fill="#FAC5C4"/>
<path fill-rule="evenodd" clip-rule="evenodd" d="M0.666565 0.843598C0.491153 -0.561759 0.787404 0.232007 0 0.151329C0.370314 1.32376 0.114343 0.695255 0.666565 0.843598Z" transform="translate(36.5801 17.7546)" fill="#FDE8E6"/>
<path fill-rule="evenodd" clip-rule="evenodd" d="M0.0129925 0.734832L0.861466 0.332744C0.475561 0.0711913 1.52673 -0.21248 0 0.233851L0.0129925 0.734832Z" transform="translate(17.7319 33.623)" fill="#3273A0"/>
<path fill-rule="evenodd" clip-rule="evenodd" d="M0.605495 0.809062C0.849772 0.418685 1.05117 0.992539 0.730233 0.354924C0.37811 -0.343851 0.527534 0.206581 0 0.196171L0.605495 0.809062Z" transform="translate(37.312 18.8904)" fill="#FCDAD7"/>
<path fill-rule="evenodd" clip-rule="evenodd" d="M0.822424 0.22509L0.349464 0.143108C0.280599 0.297958 -0.387265 -0.575185 0.327375 0.73518C1.39154 0.379937 0.322176 0.756002 0.822424 0.22509Z" transform="translate(23.5283 41.5676)" fill="#8BACC5"/>
<path fill-rule="evenodd" clip-rule="evenodd" d="M0.384598 0.331694C-0.258578 -0.393106 0.176701 0.284849 0.0181808 0.35902C0.0571611 0.422782 -0.248185 0.567221 0.680847 0.975816C0.482048 0.391552 0.747116 0.74159 0.384598 0.331694Z" transform="translate(35.8062 18.3972)" fill="#FEECE8"/>
<path fill-rule="evenodd" clip-rule="evenodd" d="M0.000325034 0.388733C0.00812111 0.717951 0.695475 1.21763 0.469389 0.42777C0.295277 -0.185121 -0.0113691 -0.0862255 0.000325034 0.388733Z" transform="translate(3.0791 16.1565)" fill="#C9D5E1"/>
<path fill-rule="evenodd" clip-rule="evenodd" d="M0.149996 0.218132C-0.189133 0.508312 0.10452 1.00669 0.459241 0.500504C0.797071 0.0177377 0.628155 -0.191763 0.149996 0.218132Z" transform="translate(24.9224 43.019)" fill="#BFD2DF"/>
<path fill-rule="evenodd" clip-rule="evenodd" d="M0 0.312304L0.562615 0.806777C0.81209 -0.776851 0.71074 0.612892 0.265065 0L0 0.312304Z" transform="translate(25.8677 45.7573)" fill="#9DBBCF"/>
<path fill-rule="evenodd" clip-rule="evenodd" d="M0.979921 0.564952C0.183422 0.70809 0.392618 0.87205 0.367931 0.0561621C0.18992 0.639125 -0.32592 -0.840403 0.304263 0.813494C1.60101 1.14922 0.551137 0.973546 0.979921 0.564952Z" transform="translate(37.1494 59.3445)" fill="#B5C9D9"/>
<path fill-rule="evenodd" clip-rule="evenodd" d="M0.224787 0.77555L0.592502 0.769044L0.595101 0L0 0.566048L0.224787 0.77555Z" transform="translate(16.5171 32.926)" fill="#85AAC3"/>
<path fill-rule="evenodd" clip-rule="evenodd" d="M0.71854 0.241956L0.518437 0.0220456C-0.0727656 0.349962 0.136431 -0.568725 0 0.681782L0.71854 0.241956Z" transform="translate(63.478 47.7197)" fill="#F15F60"/>
<path fill-rule="evenodd" clip-rule="evenodd" d="M0.660068 0.925191L0.686056 0.584263C0.0480769 0.584263 0.265068 0.723498 0.189706 0L0 0.841912L0.660068 0.925191Z" transform="translate(14.9414 32.5437)" fill="#85AAC3"/>
<path fill-rule="evenodd" clip-rule="evenodd" d="M0 0.572553C0.522337 0.533516 0.163718 0.705281 0.500248 0.446331C1.27076 -0.14574 0.540529 0.171766 0.417091 0L0 0.572553Z" transform="translate(34.9849 19.5374)" fill="#FAC3C1"/>
<path fill-rule="evenodd" clip-rule="evenodd" d="M0.550922 0.8549L0.852371 0.186054C-0.845874 -0.19131 0.667864 0.065035 0 0.425483C0.709443 0.342203 0.550922 0.170439 0.550922 0.8549Z" transform="translate(26.5586 43.5581)" fill="#A7C1D1"/>
<path fill-rule="evenodd" clip-rule="evenodd" d="M0.00186968 0.298241C-0.03841 0.708136 0.586575 0.765391 0.485226 0.26701C0.483927 0.253998 0.066837 -0.347182 0.00186968 0.298241Z" transform="translate(18.3799 35.2812)" fill="#B8CDDA"/>
<path fill-rule="evenodd" clip-rule="evenodd" d="M0 0.266609C0.358619 0.576308 -0.166316 0.89772 0.710742 0.345987C0.242978 0.0206732 0.696449 -0.197939 0 0.266609Z" transform="translate(2.24414 16.8906)" fill="#DFE6EB"/>
<path fill-rule="evenodd" clip-rule="evenodd" d="M0 0.192587L0.343027 0.458044L0.739328 0.461948L0.777008 0L0 0.192587Z" transform="translate(22.3149 40.9434)" fill="#1E6B9A"/>
<path fill-rule="evenodd" clip-rule="evenodd" d="M1.09534 0.728704C0.550916 5.42926e-07 1.16941 0.398184 0 0C0.0688653 0.0663641 0.165013 0.0767752 0.205293 0.199093C0.244273 0.317508 0.363816 0.346135 0.41579 0.379968C0.878357 0.671449 0.745818 0.584265 1.09534 0.728704Z" transform="translate(87.23 19.2266)" fill="#F69696"/>
<path fill-rule="evenodd" clip-rule="evenodd" d="M0.709443 0.407293C0.128635 0.424209 0.266366 0.56995 0.266366 0L0 0.117113L0.0246876 0.793766L0.709443 0.407293Z" transform="translate(3.92285 19.5442)" fill="#759DBB"/>
<path fill-rule="evenodd" clip-rule="evenodd" d="M0 0.653256L0.699048 0.416428C0.0363818 -0.16133 0.31704 -0.187355 0 0.653256Z" transform="translate(35.5513 20.1851)" fill="#F9B5B4"/>
<path fill-rule="evenodd" clip-rule="evenodd" d="M0.561317 0.83441L0.879657 0.181178C-0.87446 -0.184475 0.689953 0.0679696 0 0.369861C0.744525 0.238434 0.561317 0.0796814 0.561317 0.83441Z" transform="translate(9.71533 23.5608)" fill="#95B5CA"/>
<path fill-rule="evenodd" clip-rule="evenodd" d="M0.661366 0.265457L0.318338 0L0 0.741716L0.661366 0.265457Z" transform="translate(21.9971 41.1357)" fill="#759DBB"/>
<path fill-rule="evenodd" clip-rule="evenodd" d="M0 0.696172L0.857568 0C-0.122139 0.29018 0.31834 -0.0871844 0 0.696172Z" transform="translate(32.6685 52.3777)" fill="#B8CDDA"/>
<path fill-rule="evenodd" clip-rule="evenodd" d="M0.504147 0.577032C0.435281 -0.275291 0.790002 -0.00983482 0 0.279044C0.261169 0.582237 0.0961522 0.465124 0.504147 0.577032Z" transform="translate(31.6729 50.4348)" fill="#D3DEE7"/>
<path fill-rule="evenodd" clip-rule="evenodd" d="M0.0627291 0C0.942386 0.995461 -0.744165 0.446328 0.436941 0.412495C1.46732 0.383867 0.130293 1.00587 0.93199 0.154849L0.0627291 0Z" transform="translate(29.8208 49.0781)" fill="#ACC4D4"/>
<path fill-rule="evenodd" clip-rule="evenodd" d="M0.285428 0.222936C-0.265494 0.779873 0.102222 0.747342 0.380282 0.394701C0.779181 -0.11409 0.589475 -0.0854622 0.285428 0.222936Z" transform="translate(15.6484 31.3174)" fill="#E9ECF1"/>
<path fill-rule="evenodd" clip-rule="evenodd" d="M0 0.370417L0.792602 0.482326C0.109146 -0.0954321 1.82168 -0.0902276 0.38071 0.164819L0 0.370417Z" transform="translate(37.6152 17.4226)" fill="#FCD4D2"/>
<path fill-rule="evenodd" clip-rule="evenodd" d="M0.20652 0.381169C-0.269041 0.814487 0.202622 0.640119 0.371537 0.437123C1.13425 -0.471154 0.288379 0.305696 0.20652 0.381169Z" transform="translate(5.41162 19.0759)" fill="#E4ECF2"/>
<path fill-rule="evenodd" clip-rule="evenodd" d="M0.24038 0.415921C0.194903 1.06265 0.986205 0.133546 0.532733 0.242852C-0.508043 0.496597 0.309246 -0.545708 0.24038 0.415921Z" transform="translate(6.83594 21.7456)" fill="#C9D7E2"/>
</svg>
