<svg width="120" height="121" fill="none" xmlns="http://www.w3.org/2000/svg"><path fill-rule="evenodd" clip-rule="evenodd" d="M60 .5c33.137 0 60 26.838 60 59.946s-26.863 59.946-60 59.946c-3.273 0-6.484-.266-9.615-.77l17.289-8.716-17.289 8.716c-19.125-3.078-35.227-15.185-43.78-31.81l7.47-14.193-7.47 14.193C2.384 79.608 0 70.305 0 60.446 0 27.338 26.863.5 60 .5zM12.434 76.842l1.641-3.223-1.64 3.223zm1.641-3.224l7.79-15.302-7.79 15.302z" fill="#F2F6F4"/><path fill-rule="evenodd" clip-rule="evenodd" d="M55.18 36.58h5.233-5.232zm8.44 76.38h14.563a3.824 3.824 0 0 0 3.822-3.82V40.4a3.825 3.825 0 0 0-3.822-3.82H37.41a3.826 3.826 0 0 0-3.822 3.82v12.73h1.274c3.512 0 6.37 2.855 6.37 6.365 0 2.089-1.026 3.93-2.587 5.092 1.561 1.16 2.588 3.003 2.588 5.092 0 2.088-1.027 3.93-2.588 5.091 1.561 1.161 2.588 3.004 2.588 5.092 0 2.089-1.027 3.932-2.588 5.092 1.561 1.16 2.588 3.003 2.588 5.092 0 3.51-2.859 6.365-6.371 6.365h-1.274v12.73a3.825 3.825 0 0 0 3.822 3.82h26.21c-85.938-97.252 0-.002 0-.002z" fill="#EE292A"/><path fill-rule="evenodd" clip-rule="evenodd" d="M55.179 36.57h5.232-5.232zM84.55 67.908a6.82 6.82 0 0 1 5.329-3.88v48.413c1.01-.582 2-1.195 2.974-1.832V62.386c0-.82-.665-1.486-1.487-1.486-1.874 0-4.616.59-6.816 2.314V62.03h-2.549 2.55V40.39c0-3.51-2.86-6.365-6.372-6.365H37.408c-3.513 0-6.371 2.856-6.371 6.365v12.73h-1.274c-3.513 0-6.371 2.855-6.371 6.365 0 2.089 1.027 3.931 2.588 5.092-1.561 1.16-2.588 3.003-2.588 5.092 0 2.089 1.027 3.931 2.588 5.092-1.561 1.16-2.588 3.003-2.588 5.092 0 2.088 1.027 3.931 2.588 5.092-1.561 1.16-2.588 3.003-2.588 5.091 0 3.51 2.858 6.365 6.37 6.365h1.275v12.73a6.361 6.361 0 0 0 2.814 5.279 60.21 60.21 0 0 0 1.828.848c.55.156 1.13.238 1.728.238h21.16l5.05-2.546h-26.21a3.825 3.825 0 0 1-3.822-3.819V96.4h1.274c3.513 0 6.371-2.855 6.371-6.365 0-2.088-1.027-3.93-2.588-5.091 1.561-1.161 2.588-3.004 2.588-5.092 0-2.089-1.027-3.932-2.588-5.092 1.561-1.16 2.588-3.003 2.588-5.092 0-2.089-1.027-3.931-2.588-5.092 1.561-1.161 2.588-3.003 2.588-5.092 0-3.51-2.858-6.365-6.37-6.365h-1.275V40.39a3.825 3.825 0 0 1 3.823-3.819H78.18a3.824 3.824 0 0 1 3.822 3.82v68.741a3.824 3.824 0 0 1-3.822 3.818H63.62l-5.05 2.546h19.61c3.512 0 6.371-2.855 6.371-6.365V67.908zm-54.788-4.605a3.826 3.826 0 0 1-3.822-3.82 3.826 3.826 0 0 1 3.822-3.82h5.097a3.826 3.826 0 0 1 3.823 3.82 3.826 3.826 0 0 1-3.823 3.82h-5.097zm0 10.184a3.825 3.825 0 0 1-3.822-3.819 3.825 3.825 0 0 1 3.822-3.82h5.097a3.825 3.825 0 0 1 3.823 3.82 3.825 3.825 0 0 1-3.823 3.82h-5.097zm0 10.184a3.825 3.825 0 0 1-3.822-3.82 3.825 3.825 0 0 1 3.822-3.819h5.097a3.825 3.825 0 0 1 3.823 3.82 3.825 3.825 0 0 1-3.823 3.819h-5.097zm0 10.183a3.825 3.825 0 0 1-3.822-3.819 3.826 3.826 0 0 1 3.822-3.819h5.097a3.826 3.826 0 0 1 3.823 3.82 3.825 3.825 0 0 1-3.823 3.818h-5.097z" fill="#000003"/><path d="M51.24 88.154h14.494" stroke="#000" stroke-width="6" stroke-miterlimit="22.926"/><path fill-rule="evenodd" clip-rule="evenodd" d="M67.538 52.332h-19.07c-.586 0-1.06.473-1.06 1.059v20.113a1.06 1.06 0 0 0 1.06 1.059h19.071a1.06 1.06 0 0 0 1.06-1.059V53.391a1.06 1.06 0 0 0-1.06-1.059zM50.662 72.445c.358-3.261 2.329-6.005 5.102-7.006.3.189.628.331.972.44.053.016.105.035.16.049.164.045.331.08.502.105.03.004.059.005.088.008.172.021.342.052.519.052s.346-.03.518-.052c.03-.003.058-.004.088-.008.171-.025.34-.06.503-.105.054-.015.106-.033.16-.05a4.19 4.19 0 0 0 .97-.439c2.775 1.002 4.743 3.745 5.102 7.006H50.661zm5.223-10.585V60.8a2.12 2.12 0 0 1 4.238 0v1.059c0 .632-.285 1.193-.726 1.581-.01.008-.022.013-.031.021a2.105 2.105 0 0 1-1.363.514c-.626 0-1.087-.28-1.363-.514-.01-.009-.021-.013-.032-.02a2.113 2.113 0 0 1-.723-1.582zm10.595 6.806c-1.001-2.16-2.655-3.903-4.723-4.882.3-.58.485-1.228.485-1.925V60.8a4.24 4.24 0 0 0-4.238-4.234 4.24 4.24 0 0 0-4.239 4.234v1.059c0 .697.186 1.344.485 1.925-2.067.98-3.721 2.723-4.723 4.882V54.449h16.952v14.217z" fill="#000003"/><path d="M71.67 79.163H45.305v3.107H71.67v-3.107z" fill="#000"/></svg>