<svg width="120" height="121" fill="none" xmlns="http://www.w3.org/2000/svg"><path fill-rule="evenodd" clip-rule="evenodd" d="M60 .5c33.137 0 60 26.838 60 59.946s-26.863 59.946-60 59.946c-3.273 0-6.484-.266-9.615-.77l17.289-8.716-17.289 8.716c-19.126-3.078-35.228-15.185-43.78-31.81l7.472-14.193-7.473 14.193C2.384 79.608 0 70.305 0 60.446 0 27.338 26.863.5 60 .5zM12.435 76.842l1.64-3.223-1.64 3.223zm1.64-3.224l7.788-15.302-7.787 15.302z" fill="#F2F6F4"/><path fill-rule="evenodd" clip-rule="evenodd" d="M55.618 36.313h5.23-5.23zm8.44 76.38H78.62a3.826 3.826 0 0 0 3.823-3.82V40.132a3.826 3.826 0 0 0-3.823-3.82H37.848a3.826 3.826 0 0 0-3.824 3.82v12.73H35.3c3.513 0 6.371 2.855 6.371 6.365 0 2.088-1.027 3.93-2.588 5.092 1.561 1.16 2.588 3.003 2.588 5.091 0 2.089-1.027 3.932-2.588 5.092 1.561 1.161 2.588 3.003 2.588 5.092 0 2.089-1.027 3.931-2.588 5.092 1.561 1.16 2.588 3.003 2.588 5.092 0 3.51-2.858 6.365-6.37 6.365h-1.276v12.73a3.826 3.826 0 0 0 3.824 3.82h26.21s-85.938-97.251 0 0z" fill="#EE292A"/><path fill-rule="evenodd" clip-rule="evenodd" d="M55.618 36.313h5.23-5.23zM84.99 67.65a6.82 6.82 0 0 1 5.33-3.88v48.413a60.87 60.87 0 0 0 2.974-1.832V62.13c0-.82-.666-1.485-1.487-1.485-1.875 0-4.616.589-6.817 2.313v-1.183h-2.547 2.548V40.132c0-3.51-2.86-6.365-6.371-6.365H37.848c-3.513 0-6.371 2.855-6.371 6.365v12.73h-1.275c-3.513 0-6.37 2.855-6.37 6.365 0 2.088 1.026 3.931 2.587 5.092-1.561 1.16-2.588 3.003-2.588 5.091 0 2.089 1.027 3.932 2.588 5.093-1.561 1.16-2.588 3.002-2.588 5.091 0 2.089 1.027 3.931 2.588 5.092-1.561 1.161-2.588 3.003-2.588 5.092 0 3.51 2.858 6.366 6.371 6.366h1.275v12.73a6.364 6.364 0 0 0 2.814 5.278c.604.292 1.213.575 1.827.848.551.155 1.13.238 1.729.238h21.16l5.05-2.546h-26.21a3.826 3.826 0 0 1-3.823-3.82V96.145H35.3c3.513 0 6.371-2.857 6.371-6.366 0-2.089-1.027-3.931-2.588-5.092 1.56-1.16 2.588-3.003 2.588-5.092 0-2.089-1.027-3.93-2.588-5.091 1.56-1.161 2.588-3.004 2.588-5.093 0-2.088-1.027-3.93-2.588-5.091 1.56-1.16 2.588-3.004 2.588-5.092 0-3.51-2.858-6.366-6.37-6.366h-1.276V40.133a3.826 3.826 0 0 1 3.824-3.82H78.62a3.826 3.826 0 0 1 3.823 3.82v68.741a3.826 3.826 0 0 1-3.823 3.82H64.057l-5.05 2.544H78.62c3.512 0 6.37-2.855 6.37-6.365V67.651zm-54.787-4.604a3.826 3.826 0 0 1-3.823-3.82 3.826 3.826 0 0 1 3.823-3.818H35.3a3.826 3.826 0 0 1 3.823 3.819 3.826 3.826 0 0 1-3.823 3.819h-5.096zm0 10.183a3.826 3.826 0 0 1-3.823-3.819 3.826 3.826 0 0 1 3.823-3.819H35.3a3.826 3.826 0 0 1 3.823 3.82 3.826 3.826 0 0 1-3.823 3.818h-5.096zm0 10.185a3.826 3.826 0 0 1-3.823-3.82 3.826 3.826 0 0 1 3.823-3.82H35.3a3.826 3.826 0 0 1 3.823 3.82 3.826 3.826 0 0 1-3.823 3.82h-5.096zm0 10.183a3.826 3.826 0 0 1-3.823-3.82 3.826 3.826 0 0 1 3.823-3.819H35.3a3.826 3.826 0 0 1 3.823 3.82 3.826 3.826 0 0 1-3.823 3.82h-5.096z" fill="#000003"/><path d="M72.108 58.021H45.743v3.107h26.365v-3.107zm0 7.757H45.743v3.106h26.365v-3.106zm0 7.682H45.743v3.107h26.365V73.46zm-5.936 18.232H51.678v4.315h14.495v-4.315zm5.936-10.434H45.743v3.107h26.365v-3.107z" fill="#000"/></svg>