<svg width="120" height="121" fill="none" xmlns="http://www.w3.org/2000/svg"><path fill-rule="evenodd" clip-rule="evenodd" d="M60 .5c33.136 0 60 26.838 60 59.946s-26.863 59.946-60 59.946a60.44 60.44 0 0 1-9.614-.77l17.288-8.716-17.288 8.716c-19.126-3.078-35.228-15.185-43.78-31.808l7.47-14.195-7.471 14.194C2.384 79.609 0 70.305 0 60.446 0 27.338 26.862.5 60 .5zM12.434 76.842l1.641-3.223-1.64 3.223zm1.642-3.224l7.788-15.302-7.788 15.302z" fill="#F2F6F4"/><path fill-rule="evenodd" clip-rule="evenodd" d="M26.55 37.002h66.902c3.08 0 5.602 2.52 5.602 5.597v36.55c0 3.078-2.521 5.597-5.602 5.597H26.549c-3.082 0-5.603-2.519-5.603-5.597v-36.55c0-3.078 2.521-5.597 5.603-5.597z" fill="#EE292A" stroke="#000003" stroke-width="4.32" stroke-miterlimit="22.926"/><path clip-rule="evenodd" d="M23.115 94.898h73.77a2.174 2.174 0 0 0 2.169-2.167V91.56a2.174 2.174 0 0 0-2.168-2.166H23.115a2.174 2.174 0 0 0-2.17 2.166v1.172a2.176 2.176 0 0 0 2.17 2.167z" stroke="#000003" stroke-width="4.32" stroke-miterlimit="22.926"/><path d="M55.265 55.682H34.218v2.36h21.047v-2.36zm26.788 0H61.006v2.36h21.047v-2.36zm-38.268 5.902h-9.567v2.362h9.567v-2.361zm13.395 0h-7.655v2.362h7.654v-2.361zm-13.395 5.903h-9.567v2.361h9.567v-2.36zm.084 5.903h-9.65v2.36h9.65v-2.36zm22.324 0H48.972v2.36h17.22v-2.36zm14.299 0h-11.48v2.36h11.48v-2.36z" fill="#000003"/><path fill-rule="evenodd" clip-rule="evenodd" d="M43.172 42.225h-8.271a1.18 1.18 0 0 0-1.182 1.18v5.904c0 .652.529 1.18 1.182 1.18h8.271a1.18 1.18 0 0 0 1.182-1.18v-5.903a1.182 1.182 0 0 0-1.182-1.181zm-1.182 5.903h-5.908v-3.542h5.908v3.542z" fill="#000003"/></svg>