<svg width="120" height="121" fill="none" xmlns="http://www.w3.org/2000/svg"><path fill-rule="evenodd" clip-rule="evenodd" d="M60 .5c33.136 0 60 26.838 60 59.946s-26.863 59.946-60 59.946c-3.274 0-6.484-.265-9.615-.77l17.29-8.716-17.29 8.716c-19.126-3.079-35.228-15.185-43.78-31.81l7.47-14.194-7.47 14.195C2.383 79.609 0 70.306 0 60.446 0 27.338 26.862.5 60 .5zM12.434 76.842l1.641-3.223-1.64 3.223zm1.641-3.224l7.788-15.302-7.788 15.302z" fill="#F2F6F4"/><path fill-rule="evenodd" clip-rule="evenodd" d="M89.422 112.697c-.87.49-1.751.957-2.645 1.404v-2.688c0-5.47-1.394-9.626-4.14-12.35a11.618 11.618 0 0 0-4.504-2.756c-1.786-.601-3.157-.613-3.215-.613h-1.803c-.524 6.087-5.646 10.88-11.872 10.88-6.224 0-11.347-4.793-11.87-10.88H47.58c-.489 0-11.87.182-11.87 15.718v2.709h51.024-25.44.001-28.032l-.197-.1v-2.609c0-3.803.626-7.072 1.86-9.78a1.342 1.342 0 0 1-.05-.363v-41.97c0-8.32 2.519-14.608 7.49-18.689 3.933-3.23 9.365-4.96 15.723-5.012.017 0 .033-.003.05-.003h.247l.034.002c6.664.036 11.4 1.349 14.889 4.126 4.486 3.574 6.669 9.404 6.669 17.826v4.294c.844.062 1.881.285 2.704.926.752.586 1.203 1.422 1.305 2.418.062.606.118 1.631-.025 2.763a8.029 8.029 0 0 1 1.27 4.342c0 3.456-2.188 6.411-5.253 7.555v14.337a14.115 14.115 0 0 1 4.524 3.004c3.265 3.239 4.92 8.024 4.92 14.225v1.284h-.002zM74.907 93.052c.087.003 1.042.006 2.424.303V80.8c-.162.276-.33.555-.51.835-1.634 2.533-4.315 5.455-8.557 7.207.01.067.016.135.016.205v4.005h6.627zm2.424-19.624V58.871H61.068c-.362 0-.708-.148-.958-.409l-1.776-1.86v.947c0 .73-.592 1.322-1.323 1.322H45.157v14.557c.095.541.718 3.683 2.788 6.857 2.965 4.545 7.398 7.045 13.177 7.43h.246c5.749-.383 10.167-2.86 13.13-7.361h-7.54a1.32 1.32 0 0 1-.363-.052 1.94 1.94 0 0 1-1.538.758h-1.461a1.944 1.944 0 1 1 0-3.887h1.46a1.94 1.94 0 0 1 1.429.627c.146-.056.307-.089.472-.089h8.991c.969-2.137 1.313-3.887 1.383-4.283zM56.853 94.374c0 .73-.593 1.32-1.323 1.32h-3.5c.513 4.628 4.45 8.239 9.214 8.239 4.766 0 8.702-3.611 9.215-8.238h-3.5c-.73 0-1.322-.591-1.322-1.321V89.71a22.484 22.484 0 0 1-4.225.649h-.333c-.029 0-.057 0-.086-.003a22.534 22.534 0 0 1-4.14-.646v4.664zm25.733-22.081a5.23 5.23 0 0 0-.046-.675 4.672 4.672 0 0 1-2.564 1.636v3.669a5.42 5.42 0 0 0 2.61-4.63zm-1.527-7.437c-.262-.204-.673-.31-1.082-.357v5.92a2.2 2.2 0 0 0 .417-.355c.947-1.05 1.118-3.07.96-4.608-.035-.352-.17-.501-.295-.6zM37.52 59.3v38.379c.152-.166.305-.332.465-.49 4.16-4.127 9.377-4.136 9.604-4.136h6.617v-4.006c0-.07.007-.138.017-.205-4.243-1.752-6.924-4.672-8.557-7.206-2.545-3.948-3.119-7.749-3.143-7.908a1.406 1.406 0 0 1-.013-.191V57.55a1.32 1.32 0 0 1 1.322-1.322h11.854v-2.923a1.322 1.322 0 0 1 2.28-.912l3.664 3.836h15.676c-.491-15.731-9.832-17.966-19.025-17.99-7.801.023-20.76 2.814-20.76 21.06z" fill="#000003"/><path fill-rule="evenodd" clip-rule="evenodd" d="M74.908 93.052H68.28v-4.005c0-.07-.007-.138-.016-.205 4.242-1.752 6.923-4.674 8.557-7.207.18-.28.348-.559.51-.836v12.556c-1.383-.298-2.337-.3-2.424-.303zm-16.94-40.66l3.665 3.836h15.675c-.49-15.73-9.832-17.966-19.025-17.99-2.043.006-.321 14.147-.315 14.154z" fill="#EE292A"/><path fill-rule="evenodd" clip-rule="evenodd" d="M59.162 38.248a59.578 59.578 0 0 0-.878-.01c-7.803.023-20.762 2.815-20.762 21.06h-.001v38.38c.153-.166.305-.332.465-.49 4.16-4.128 9.378-4.136 9.605-4.137h6.616v-4.005c0-.07.007-.139.017-.205-4.243-1.752-6.923-4.673-8.556-7.207-2.546-3.948-3.12-7.748-3.143-7.908a1.406 1.406 0 0 1-.014-.19V57.55c0-.731.592-1.322 1.323-1.322h11.854v-2.923a1.322 1.322 0 0 1 2.279-.912l1.194 1.248c.001 125.904.001-31.998.001-15.393z" fill="#EE292A"/><path fill-rule="evenodd" clip-rule="evenodd" d="M76.339 106.235h-4.046a1.315 1.315 0 1 0 0 2.63h4.046a1.315 1.315 0 1 0 0-2.63z" fill="#000003"/></svg>