<svg width="120" height="121" fill="none" xmlns="http://www.w3.org/2000/svg"><path fill-rule="evenodd" clip-rule="evenodd" d="M60 .5c33.137 0 60 26.838 60 59.946s-26.863 59.946-60 59.946c-3.273 0-6.484-.266-9.615-.77l17.289-8.716-17.289 8.716c-19.125-3.078-35.227-15.185-43.78-31.81l7.472-14.193-7.472 14.193C2.384 79.608 0 70.305 0 60.446 0 27.338 26.863.5 60 .5zM12.435 76.842l1.64-3.223-1.64 3.223zm1.64-3.224l7.79-15.302-7.79 15.302z" fill="#F2F6F4"/><path fill-rule="evenodd" clip-rule="evenodd" d="M55.557 36.34h5.231-5.231zM84.93 67.678a6.821 6.821 0 0 1 5.329-3.88v48.413a60.3 60.3 0 0 0 2.974-1.833V62.156c0-.82-.666-1.486-1.486-1.486-1.875 0-4.616.59-6.817 2.314V61.8h-2.549 2.55V40.16c0-3.51-2.86-6.366-6.372-6.366l-40.772.001c-3.513 0-6.37 2.856-6.37 6.365v12.73H30.14c-3.512 0-6.37 2.856-6.37 6.365 0 2.089 1.027 3.932 2.587 5.092-1.56 1.161-2.587 3.003-2.587 5.093 0 2.088 1.027 3.93 2.587 5.091-1.56 1.161-2.587 3.004-2.587 5.092 0 2.089 1.027 3.931 2.587 5.092-1.56 1.16-2.587 3.003-2.587 5.092 0 3.51 2.858 6.365 6.37 6.365h1.275v12.73a6.363 6.363 0 0 0 2.814 5.278c.604.293 1.214.577 1.828.85.55.154 1.13.237 1.729.237h21.16l5.05-2.546h-26.21a3.825 3.825 0 0 1-3.822-3.82V96.172h1.274c3.513 0 6.37-2.855 6.37-6.365 0-2.089-1.026-3.931-2.587-5.092 1.56-1.161 2.588-3.003 2.588-5.092 0-2.088-1.027-3.931-2.588-5.092 1.56-1.16 2.588-3.003 2.588-5.091 0-2.09-1.027-3.932-2.588-5.092 1.56-1.161 2.588-3.004 2.588-5.093 0-3.509-2.858-6.365-6.371-6.365h-1.274V40.16a3.826 3.826 0 0 1 3.822-3.819H78.56a3.825 3.825 0 0 1 3.822 3.82V108.9a3.825 3.825 0 0 1-3.822 3.82H63.997l-5.05 2.545h19.612c3.513 0 6.371-2.855 6.371-6.365V67.678zm-16.673 36.557v-2.546h7.645v2.546h-7.645zm-14.015 0v-2.546H65.71v2.546H54.242zm-5.096 0v-2.546h2.548v2.546h-2.548zm-5.097 0v-2.546h2.548v2.546H44.05zm-5.096 0v-2.546H41.5v2.546h-2.548zm-8.81-41.162a3.826 3.826 0 0 1-3.823-3.82 3.826 3.826 0 0 1 3.822-3.819h5.097a3.826 3.826 0 0 1 3.823 3.82 3.826 3.826 0 0 1-3.823 3.82h-5.097zm0 10.184a3.826 3.826 0 0 1-3.823-3.819 3.826 3.826 0 0 1 3.822-3.82h5.097a3.826 3.826 0 0 1 3.823 3.82 3.826 3.826 0 0 1-3.823 3.82h-5.097zm0 10.184a3.826 3.826 0 0 1-3.823-3.82 3.826 3.826 0 0 1 3.822-3.82h5.097a3.826 3.826 0 0 1 3.823 3.82 3.825 3.825 0 0 1-3.823 3.82h-5.097zm0 10.184a3.826 3.826 0 0 1-3.823-3.819 3.826 3.826 0 0 1 3.822-3.82h5.097a3.825 3.825 0 0 1 3.823 3.82 3.825 3.825 0 0 1-3.823 3.82h-5.097z" fill="#000003"/><path fill-rule="evenodd" clip-rule="evenodd" d="M55.557 36.34h5.231-5.231zM84.93 67.678a6.821 6.821 0 0 1 5.329-3.88v48.413a60.3 60.3 0 0 0 2.974-1.833V62.156c0-.82-.666-1.486-1.486-1.486-1.875 0-4.616.59-6.817 2.314V61.8h-2.549 2.55V40.16c0-3.51-2.86-6.366-6.372-6.366l-40.772.001c-3.513 0-6.37 2.856-6.37 6.365v12.73H30.14c-3.512 0-6.37 2.856-6.37 6.365 0 2.089 1.027 3.932 2.587 5.092-1.56 1.161-2.587 3.003-2.587 5.093 0 2.088 1.027 3.93 2.587 5.091-1.56 1.161-2.587 3.004-2.587 5.092 0 2.089 1.027 3.931 2.587 5.092-1.56 1.16-2.587 3.003-2.587 5.092 0 3.51 2.858 6.365 6.37 6.365h1.275v12.73a6.363 6.363 0 0 0 2.814 5.278c.604.293 1.214.577 1.828.85.55.154 1.13.237 1.729.237h21.16l5.05-2.546h-26.21a3.825 3.825 0 0 1-3.822-3.82V96.172h1.274c3.513 0 6.37-2.855 6.37-6.365 0-2.089-1.026-3.931-2.587-5.092 1.56-1.161 2.588-3.003 2.588-5.092 0-2.088-1.027-3.931-2.588-5.092 1.56-1.16 2.588-3.003 2.588-5.091 0-2.09-1.027-3.932-2.588-5.092 1.56-1.161 2.588-3.004 2.588-5.093 0-3.509-2.858-6.365-6.371-6.365h-1.274V40.16a3.826 3.826 0 0 1 3.822-3.819H78.56a3.825 3.825 0 0 1 3.822 3.82V108.9a3.825 3.825 0 0 1-3.822 3.82H63.997l-5.05 2.545h19.612c3.513 0 6.371-2.855 6.371-6.365V67.678zm-16.673 36.557v-2.546h7.645v2.546h-7.645zm-14.015 0v-2.546H65.71v2.546H54.242zm-5.096 0v-2.546h2.548v2.546h-2.548zm-5.097 0v-2.546h2.548v2.546H44.05zm-5.096 0v-2.546H41.5v2.546h-2.548zm-8.81-41.162a3.826 3.826 0 0 1-3.823-3.82 3.826 3.826 0 0 1 3.822-3.819h5.097a3.826 3.826 0 0 1 3.823 3.82 3.826 3.826 0 0 1-3.823 3.82h-5.097zm0 10.184a3.826 3.826 0 0 1-3.823-3.819 3.826 3.826 0 0 1 3.822-3.82h5.097a3.826 3.826 0 0 1 3.823 3.82 3.826 3.826 0 0 1-3.823 3.82h-5.097zm0 10.184a3.826 3.826 0 0 1-3.823-3.82 3.826 3.826 0 0 1 3.822-3.82h5.097a3.826 3.826 0 0 1 3.823 3.82 3.825 3.825 0 0 1-3.823 3.82h-5.097zm0 10.184a3.826 3.826 0 0 1-3.823-3.819 3.826 3.826 0 0 1 3.822-3.82h5.097a3.825 3.825 0 0 1 3.823 3.82 3.825 3.825 0 0 1-3.823 3.82h-5.097z" fill="#000003"/><path fill-rule="evenodd" clip-rule="evenodd" d="M53.53 48.541h45.015c2.74 0 4.979 2.238 4.979 4.974v22.176c0 2.737-2.24 4.975-4.98 4.975h-34.33l-9.647 6.114v-6.114H53.53c-2.738 0-4.979-2.238-4.979-4.975V53.515c0-2.736 2.24-4.974 4.979-4.974z" fill="#EE292A" stroke="#000" stroke-width="3.36" stroke-miterlimit="22.926" stroke-linecap="round" stroke-linejoin="round"/><path d="M58.34 59.088h26.366M58.34 66.37h15.711" stroke="#000" stroke-width="3.84" stroke-miterlimit="22.926"/></svg>