<svg width="15" height="15" fill="none" xmlns="http://www.w3.org/2000/svg"><path d="M0 32.285C0 14.453 14.453 0 32.288 0c17.828 0 32.284 14.453 32.284 32.285 0 17.834-14.456 32.287-32.284 32.287C14.453 64.572 0 50.119 0 32.285z" transform="matrix(.2323 0 0 -.2323 0 15)" fill="url(#paint0_linear)"/><mask id="a" maskUnits="userSpaceOnUse" x="0" y="0" width="16" height="15"><path d="M0 32.285C0 14.453 14.453 0 32.288 0c17.828 0 32.284 14.453 32.284 32.285 0 17.834-14.456 32.287-32.284 32.287C14.453 64.572 0 50.119 0 32.285z" transform="matrix(.2323 0 0 -.2323 0 15)" fill="url(#paint1_linear)"/></mask><g mask="url(#a)"><path d="M14.999 5.9H0v3.21h14.999V5.9zm0 6.42H0v2.678h14.999V12.32zm0-9.629H0V.001h14.999v2.69z" fill="#000"/><path d="M64.567 13.82H0V0h64.567v13.82zm0 13.816H0v11.58h64.567v-11.58z" transform="matrix(.2323 0 0 -.2323 0 9.11)" fill="url(#paint2_radial)"/><path d="M64.567 13.82H0V0h64.567v13.82zm0 13.816H0v11.58h64.567v-11.58z" transform="matrix(.2323 0 0 -.2323 0 9.11)" fill="url(#paint3_radial)"/></g><defs><linearGradient id="paint0_linear" x2="1" gradientUnits="userSpaceOnUse" gradientTransform="matrix(64.5661 0 0 -64.5719 .001 64.55)"><stop stop-color="#FAA61A"/><stop offset="1" stop-color="#FFE100"/></linearGradient><linearGradient id="paint1_linear" x2="1" gradientUnits="userSpaceOnUse" gradientTransform="matrix(64.5661 0 0 -64.5719 .001 64.55)"><stop stop-color="#FAA61A"/><stop offset="1" stop-color="#FFE100"/></linearGradient><radialGradient id="paint2_radial" cx=".5" cy=".5" r=".5" gradientUnits="userSpaceOnUse" gradientTransform="matrix(39.1521 0 0 -39.1556 20.288 36.62)"><stop stop-color="#363738"/><stop offset="1"/></radialGradient><radialGradient id="paint3_radial" cx=".5" cy=".5" r=".5" gradientUnits="userSpaceOnUse" gradientTransform="matrix(39.1521 0 0 -39.1556 20.288 36.62)"><stop stop-color="#363738"/><stop offset="1"/></radialGradient></defs></svg>