<svg width="15" height="15" fill="none" xmlns="http://www.w3.org/2000/svg"><path d="M6.062 6.184a.938.938 0 1 1 0-1.876.938.938 0 0 1 0 1.876zM7.5 0A7.499 7.499 0 0 0 0 7.5a7.504 7.504 0 0 0 5.905 7.33V8.098a.613.613 0 0 1 .59-.599h.946c.044 0 .08-.035.082-.078V.002L7.5 0zm5.169 11.59a.938.938 0 1 1 0-1.876.938.938 0 0 1 0 1.877zm-2.198 0a.938.938 0 1 1 .001-1.875.938.938 0 0 1 0 1.876zm-2.199 0zM8.426.058v7.737l-.002.002a.611.611 0 0 1-.612.605H6.89a.083.083 0 0 0-.083.083v6.484A7.5 7.5 0 0 0 8.426.058" fill="#00985F"/></svg>