<svg width="15" height="15" fill="none" xmlns="http://www.w3.org/2000/svg"><path d="M15 1.5v12c0 .814-.686 1.5-1.5 1.5h-12C.686 15 0 14.314 0 13.5v-12C0 .686.686 0 1.5 0h12c.814 0 1.5.686 1.5 1.5zM7.5 13.029c2.786 0 4.071-2.229 4.071-4.458 0-3.128-2.142-6.642-4.071-6.642-1.886 0-4.071 3.557-4.071 6.685 0 2.186 1.242 4.415 4.071 4.415z" fill="#E30613"/><path d="M11.572 8.572c0 2.228-1.286 4.457-4.072 4.457-2.828 0-4.071-2.229-4.071-4.415 0-3.128 2.185-6.685 4.071-6.685 1.929 0 4.072 3.514 4.072 6.643z" fill="#fff"/></svg>