<svg width="27" height="9" fill="none" xmlns="http://www.w3.org/2000/svg"><path d="M0 3.17v1.299l3.964-.386V2.677L0 3.169zm1.265 1.378V9h1.451V4.417l-1.451.13zM4.499 2.61V9h1.529V2.42l-1.53.19zm1.814-.225v1.47L8.52 3.64V2.11l-2.208.275zm0 2.564v1.496l1.45-.07V4.838l-1.45.11zm0 2.575V9H8.52V7.465l-2.208.06zm7.918-6.126V9h2.004V1.15l-2.004.248zm2.379-.295V2.85l2.92-.284V.74l-2.92.363zm0 3.063v1.781l1.914-.092V4.02l-1.914.145zm0 3.083V9h2.92V7.17l-2.92.079zM9.105 2.038V9h1.742V1.821l-1.742.217zm2.067 5.357V9H13.7V7.327l-2.528.068zM26.08.654c-.634-.53-1.562-.747-2.578-.618v1.94c.411-.02.744.114.893.386.235.429-.008 1.072-.578 1.668-.881.92-3.224 2.801-3.224 2.801l3.363-.098c2.055-1.775 2.793-2.853 2.925-4.198.07-.711-.222-1.397-.801-1.881zM27 9V6.97l-6.822.183L27 9zm-6.822-1.848V9H27l-6.822-1.848zM23.11.08c-1.981.373-2.955 1.662-2.842 3.766l2.113-.166c-.096-1.188.315-1.47.73-1.625V.08z" fill="#141414"/></svg>