<svg width="15" height="15" viewBox="0 0 15 15" fill="none" xmlns="http://www.w3.org/2000/svg">
<path d="M0 32.2854C0 14.453 14.4528 0 32.2882 0C50.1156 0 64.5719 14.453 64.5719 32.2854C64.5719 50.1189 50.1156 64.5719 32.2882 64.5719C14.4528 64.5719 0 50.1189 0 32.2854Z" transform="translate(0 15) scale(0.232299 -0.232299)" fill="url(#paint0_linear)"/>
<mask id="mask0" mask-type="alpha" maskUnits="userSpaceOnUse" x="0" y="0" width="16" height="15">
<path d="M0 32.2854C0 14.453 14.4528 0 32.2882 0C50.1156 0 64.5719 14.453 64.5719 32.2854C64.5719 50.1189 50.1156 64.5719 32.2882 64.5719C14.4528 64.5719 0 50.1189 0 32.2854Z" transform="translate(0 15) scale(0.232299 -0.232299)" fill="url(#paint1_linear)"/>
</mask>
<g mask="url(#mask0)">
<path d="M64.5673 39.1625H0V25.3427H64.5673V39.1625ZM64.5673 11.5274H0V0H64.5673V11.5274ZM64.5673 52.9789H0V64.5592H64.5673V52.9789Z" transform="translate(0 14.998) scale(0.232299 -0.232299)" fill="black"/>
<path d="M64.5673 13.8198H0V0H64.5673V13.8198ZM64.5673 27.6362H0V39.2165H64.5673V27.6362Z" transform="translate(0 9.11084) scale(0.232299 -0.232299)" fill="url(#paint2_radial)"/>
<path d="M64.5673 13.8198H0V0H64.5673V13.8198ZM64.5673 27.6362H0V39.2165H64.5673V27.6362Z" transform="translate(0 9.11084) scale(0.232299 -0.232299)" fill="url(#paint3_radial)"/>
</g>
<defs>
<linearGradient id="paint0_linear" x2="1" gradientUnits="userSpaceOnUse" gradientTransform="translate(0.00114897 64.5494) scale(64.5661 -64.5719)">
<stop stop-color="#FAA61A"/>
<stop offset="1" stop-color="#FFE100"/>
</linearGradient>
<linearGradient id="paint1_linear" x2="1" gradientUnits="userSpaceOnUse" gradientTransform="translate(0.00114897 64.5494) scale(64.5661 -64.5719)">
<stop stop-color="#FAA61A"/>
<stop offset="1" stop-color="#FFE100"/>
</linearGradient>
<radialGradient id="paint2_radial" cx="0.5" cy="0.5" r="0.5" gradientUnits="userSpaceOnUse" gradientTransform="translate(20.2884 36.6208) scale(39.1521 -39.1556)">
<stop stop-color="#363738"/>
<stop offset="1"/>
</radialGradient>
<radialGradient id="paint3_radial" cx="0.5" cy="0.5" r="0.5" gradientUnits="userSpaceOnUse" gradientTransform="translate(20.2884 36.6208) scale(39.1521 -39.1556)">
<stop stop-color="#363738"/>
<stop offset="1"/>
</radialGradient>
</defs>
</svg>
