<svg width="15" height="15" viewBox="0 0 15 15" fill="none" xmlns="http://www.w3.org/2000/svg">
<path d="M6.06238 6.18393C5.54468 6.18393 5.12427 5.76414 5.12427 5.24708C5.12427 4.72885 5.54468 4.30906 6.06238 4.30906C6.58007 4.30906 6.99933 4.72885 6.99933 5.24708C6.99933 5.76414 6.58007 6.18393 6.06238 6.18393ZM7.50023 0C3.35692 0 0 3.35716 0 7.49946C0 11.094 2.53 14.098 5.90545 14.8293V8.09933L5.90591 8.09886C5.91346 7.77403 6.17229 7.51232 6.49426 7.50016V7.49969H6.80638H7.44163C7.48564 7.49969 7.52154 7.46495 7.52386 7.42153L7.52432 0.00134333L7.50023 0ZM12.6687 11.5906C12.1516 11.5906 11.7312 11.1708 11.7312 10.6526C11.7312 10.1361 12.1516 9.71631 12.6687 9.71631C13.1859 9.71631 13.6063 10.1361 13.6063 10.6526C13.6063 11.1708 13.1859 11.5906 12.6687 11.5906ZM10.4711 11.5906C9.95402 11.5906 9.53419 11.1708 9.53419 10.6526C9.53419 10.1361 9.95402 9.71631 10.4711 9.71631C10.9888 9.71631 11.4087 10.1361 11.4087 10.6526C11.4087 11.1708 10.9888 11.5906 10.4711 11.5906ZM8.27238 11.5906C7.75526 11.5906 7.33427 11.1708 7.33427 10.6526C7.33427 10.1361 7.75526 9.71631 8.27238 9.71631C8.79065 9.71631 9.21048 10.1361 9.21048 10.6526C9.21048 11.1708 8.79065 11.5906 8.27238 11.5906ZM8.42583 0.0565216V7.49924V7.78875V7.79398L8.42398 7.79584C8.4212 8.13051 8.14834 8.40091 7.81247 8.40091H7.52409H6.88942C6.84309 8.40091 6.80603 8.43797 6.80603 8.48371V14.9676C7.03477 14.9884 7.26524 15 7.49977 15C11.6425 15 15 11.6417 15 7.49938C15 3.67148 12.1312 0.512928 8.42572 0.0566605" fill="#00985F"/>
</svg>
