<svg width="15" height="15" viewBox="0 0 15 15" fill="none" xmlns="http://www.w3.org/2000/svg">
<path d="M15 1.5V13.5C15 14.3143 14.3143 15 13.5 15H1.5C0.685714 15 0 14.3143 0 13.5V1.5C0 0.685714 0.685714 0 1.5 0H13.5C14.3143 0 15 0.685714 15 1.5ZM7.5 13.0286C10.2857 13.0286 11.5714 10.8 11.5714 8.57143C11.5714 5.44286 9.42857 1.92857 7.5 1.92857C5.61429 1.92857 3.42857 5.48571 3.42857 8.61429C3.42857 10.8 4.67143 13.0286 7.5 13.0286Z" fill="#E30613"/>
<path d="M8.14286 6.64286C8.14286 8.87143 6.85714 11.1 4.07143 11.1C1.24286 11.1 0 8.87143 0 6.68571C0 3.55714 2.18571 0 4.07143 0C6 0 8.14286 3.51429 8.14286 6.64286Z" transform="translate(3.42871 1.92871)" fill="white"/>
</svg>
