<svg width="27" height="9" viewBox="0 0 27 9" fill="none" xmlns="http://www.w3.org/2000/svg">
<path d="M0 3.16934V4.46864L3.9636 4.08309V2.67679L0 3.16934ZM1.26485 4.54768V9H2.71597V4.41653L1.26485 4.54768ZM4.4989 2.61028V9H6.02797V2.42017L4.4989 2.61028ZM6.31283 2.38473V3.85463L8.52081 3.63981V2.1104L6.31283 2.38473ZM6.31283 4.94866V6.44534L7.76223 6.37544V4.83835L6.31283 4.94866ZM6.31283 7.52415V9H8.52081V7.46526L6.31283 7.52415ZM14.2309 1.39846V9H16.2354V1.14931L14.2309 1.39846ZM16.6097 1.10273V2.85126L19.5309 2.56723V0.739603L16.6097 1.10273ZM16.6097 4.16627V5.94719L18.5243 5.85473V4.02128L16.6097 4.16627ZM16.6097 7.24891V9H19.5309V7.17092L16.6097 7.24891ZM9.10503 2.03766V9H10.8468V1.82111L9.10503 2.03766ZM11.1719 7.39453V8.99993H13.7002V7.32705L11.1719 7.39453ZM26.08 0.653647C25.4464 0.124349 24.5176 -0.0927553 23.5016 0.0363167V1.97565C23.913 1.95544 24.2464 2.09046 24.3949 2.36231C24.6295 2.79091 24.3875 3.43399 23.8167 4.0298C22.9356 4.94922 20.5927 6.83111 20.5927 6.83111L23.956 6.73332C26.0111 4.95787 26.7491 3.88017 26.8815 2.53512C26.9511 1.82353 26.659 1.13789 26.08 0.653647ZM27 9V6.97077L20.1782 7.15251L27 9ZM20.1782 7.15244L20.1789 8.99993H27L20.1782 7.15244ZM23.1094 0.0798482C21.1276 0.453084 20.1544 1.74242 20.2667 3.84626L22.3798 3.68044C22.2835 2.49187 22.6946 2.20992 23.1104 2.05489L23.1094 0.0798482Z" fill="#141414"/>
</svg>
